<svg width="145" height="52" viewBox="0 0 145 52" xmlns="http://www.w3.org/2000/svg"><title>Page 1</title><g fill="#FFF" fill-rule="evenodd"><path d="M0 52h52V0H0v52zm4.909-4.909h42.18V4.911H4.91v42.18zM68.874 9.556l.816-2.985h.505l.823 2.985h-2.144zM71.818 4H67.99L65 14h2.662l.55-2.015h3.476L72.243 14H75L72.01 4h-.192zm58.056 5.556l.815-2.985h.506l.822 2.985h-2.143zM132.818 4h-3.827L126 14h2.661l.55-2.015h3.476l.556 2.015H136l-2.99-10h-.192zm-29.178 8.35c-1.554 0-2.664-1.115-2.664-2.673 0-1.559 1.11-2.675 2.664-2.675s2.665 1.116 2.665 2.675c0 1.558-1.111 2.673-2.665 2.673m0-8.252c-3.244 0-5.712 2.415-5.712 5.579 0 3.162 2.468 5.578 5.712 5.578 3.244 0 5.712-2.416 5.712-5.578 0-3.164-2.468-5.58-5.712-5.58m16.845.231h-.944l-2.446 4.648-2.413-4.648h-3.944v10.697h2.895V8.481l2.299 4.389h2.222l2.33-4.424v6.58h2.895V4.327h-1.385zm23.988 0h-9.9v2.75h3.503v7.947h2.893V7.078h3.504zM90.421 6.926h2.285c.791 0 1.172.534 1.172 1.175 0 .644-.38 1.179-1.172 1.179H90.42V6.926zm6.351 1.13c0-2.062-1.371-3.729-4.066-3.729h-5.179v10.698h2.894v-3.256h1.446l1.766 3.256h3.2l-2.026-3.688c1.303-.625 1.965-1.86 1.965-3.28zm-15.946.718v2.292h2.178v1.169c-.46.29-1.028.42-1.705.42-1.723 0-2.956-1.221-2.956-2.934 0-1.68 1.218-2.81 2.696-2.81.944 0 1.813.32 2.406 1.068l2.087-1.955c-.96-1.223-2.392-1.926-4.524-1.926-3.242 0-5.71 2.416-5.71 5.578 0 3.162 2.359 5.578 5.802 5.578 1.752 0 3.502-.658 4.645-1.757V8.774h-4.919zM82.33 19.62H63.959v5.103h6.5v14.748h5.371V24.723h6.502zm50.188 4.82h4.24c1.47 0 2.177.993 2.177 2.186 0 1.19-.706 2.182-2.177 2.182h-4.24V24.44zm11.787 2.098c0-3.826-2.544-6.92-7.547-6.92h-9.611v19.854h5.371v-6.041h2.684l3.28 6.041h5.937l-3.76-6.845c2.42-1.16 3.646-3.452 3.646-6.09zm-31.721-6.918v11.07c0 2.955 1.01 4.636 3.061 4.636 2.08 0 3.092-1.536 3.092-4.636V19.62h5.227V30.4c0 6.03-3.005 9.071-8.464 9.071-5.343 0-8.145-2.927-8.145-9.215V19.62h5.229zm-17.84 14.685c-2.766 0-4.744-1.985-4.744-4.76 0-2.773 1.978-4.756 4.744-4.756 2.764 0 4.744 1.983 4.744 4.756 0 2.775-1.98 4.76-4.744 4.76m0-14.685c-5.774 0-10.165 4.296-10.165 9.925 0 5.63 4.391 9.927 10.165 9.927 5.773 0 10.164-4.297 10.164-9.927s-4.39-9.925-10.164-9.925M65.456 44.088h1.236v4.223h.464v-4.223h1.236v-.441h-2.936zm8.177 3.827c-.935 0-1.54-.759-1.54-1.937 0-1.157.621-1.935 1.547-1.935.952 0 1.545.742 1.545 1.935 0 1.194-.594 1.937-1.552 1.937m0-4.331c-1.199 0-2.003.962-2.003 2.394 0 1.433.804 2.396 2.003 2.396 1.225 0 2.016-.94 2.016-2.396 0-1.432-.81-2.394-2.016-2.394m8.431 3.096c0 .777-.383 1.223-1.05 1.223-.678 0-1.066-.446-1.066-1.223v-3.032h-.45v3.038c0 1.039.58 1.683 1.515 1.683.928 0 1.504-.644 1.504-1.683v-3.038h-.453v3.032zm4.994-2.585h1.098c.566 0 .905.384.905 1.03 0 .625-.355 1.03-.905 1.03h-1.098v-2.06zm2.46 1.037c0-.888-.548-1.485-1.362-1.485h-1.555v4.664h.464v-1.717h1.01l1.145 1.717h.396l.08-.02v-.107l-1.13-1.662c.582-.161.953-.693.953-1.39zm5.696 2.783c-.935 0-1.54-.759-1.54-1.937 0-1.157.62-1.935 1.547-1.935.952 0 1.546.742 1.546 1.935 0 1.194-.596 1.937-1.553 1.937m0-4.331c-1.2 0-2.004.962-2.004 2.394 0 1.433.805 2.396 2.004 2.396 1.226 0 2.017-.94 2.017-2.396 0-1.432-.811-2.394-2.017-2.394m7.456 2.745h-1.097v-2.235h1.097c.608 0 .957.408.957 1.121 0 .697-.359 1.114-.957 1.114m0-2.681h-1.554v4.663h.457v-1.524h1.097c.851 0 1.421-.63 1.421-1.568 0-.968-.544-1.571-1.421-1.571m5.653 2.477h1.841v-.447h-1.84v-1.583h1.916v-.448h-2.366v4.664h2.392v-.46h-1.943zm6.324-2.03h1.096c.567 0 .907.384.907 1.03 0 .625-.357 1.03-.907 1.03h-1.096v-2.06zm2.46 1.037c0-.888-.549-1.485-1.364-1.485h-1.554v4.664h.463v-1.717h1.01l1.146 1.717h.398l.08-.02v-.107l-1.131-1.662c.581-.16.952-.693.952-1.39zm6.223 1.434h-1.6l.803-2.087.797 2.087zm-.67-2.931h-.247l-1.806 4.525-.008.15h.458l.507-1.297h1.933L124 48.31h.452v-.12l-1.773-4.504-.02-.052zm4.66.453h1.237v4.223h.463v-4.223h1.237v-.441h-2.937zm8.178 3.827c-.936 0-1.54-.759-1.54-1.937 0-1.157.621-1.935 1.544-1.935.955 0 1.548.742 1.548 1.935 0 1.194-.594 1.937-1.552 1.937m0-4.331c-1.199 0-2.004.962-2.004 2.394 0 1.433.805 2.396 2.004 2.396 1.225 0 2.016-.94 2.016-2.396 0-1.432-.811-2.394-2.016-2.394m6.358.511h1.097c.567 0 .906.384.906 1.03 0 .625-.356 1.03-.906 1.03h-1.097v-2.06zm1.508 2.427c.583-.16.952-.693.952-1.39 0-.888-.547-1.485-1.363-1.485h-1.555v4.664h.464v-1.717h1.01l1.145 1.717h.398l.08-.02v-.107l-1.131-1.662z"/><path d="M25.802 27.264l1.88 1.65.004.57-2.543-.624-.392-.094-.39.095-2.544.621.003-.567 1.878-1.651.006-2.74-4.69 1.527.005-1.135 4.72-3.69.004-2.172v-1.256a.832.832 0 0 1 .234-.575.96.96 0 0 1 .774-.341c.011 0 .02-.003.03-.003.3-.002.567.134.744.344a.816.816 0 0 1 .23.575l.004 1.256.004 2.168 4.72 3.694.005 1.135-4.69-1.529.004 2.742zm6.425-17.64H17.788L7.045 44.234h9.56l1.976-6.973h12.487l1.998 6.973h9.904L32.227 9.624z"/></g></svg>