<?xml version="1.0" encoding="UTF-8"?>
<svg width="555px" height="303px" viewBox="0 0 555 303" version="1.1" xmlns="http://www.w3.org/2000/svg" xmlns:xlink="http://www.w3.org/1999/xlink">
    <!-- Generator: Sketch 47 (45396) - http://www.bohemiancoding.com/sketch -->
    <title>Group 4</title>
    <desc>Created with Sketch.</desc>
    <defs></defs>
    <g id="Page-1" stroke="none" stroke-width="1" fill="none" fill-rule="evenodd">
        <g id="Large-Device_CountryPage_design" transform="translate(-663.000000, -96.000000)">
            <g id="Group-4" transform="translate(663.000000, 96.000000)">
                <g id="Group-10">
                    <g id="Map">
                        <path d="M216.406023,274.363899 C217.402161,273.787531 212.01435,279.065849 213.010489,279.642217 L234.206588,283.681127 C236.974121,284.313832 238.606923,283.902141 239.603061,283.325772 L248.546654,278.160128 L255.116839,274.363899 C256.117308,273.787531 250.889746,278.86217 251.890216,279.438538 L273.164273,283.681127 C275.749903,284.114487 277.57327,283.754798 278.569409,283.17843 L290.605363,276.227344 C292.753557,274.987936 292.753557,271.880749 290.605363,270.641341 C288.452837,269.393266 288.448506,266.290412 290.601032,265.051004 L313.183063,252.00255 C314.183533,251.421849 308.713432,256.574493 309.713902,257.150861 L331.126553,261.56246 C333.759824,262.086825 335.53988,261.449787 336.54035,260.873419 L342.21834,257.592887 C343.21881,257.016519 344.444494,257.016519 345.444964,257.592887 L351.89821,261.319779 C352.894349,261.896147 354.120032,261.896147 355.120502,261.319779 L363.184895,256.661165 L368.026995,253.865996 C370.17519,252.617921 370.17519,249.519401 368.026995,248.271325 L358.347125,242.680988 C356.1946,241.437246 356.1946,238.338726 358.347125,237.090651 L409.964434,207.27552 C410.960573,206.699152 412.190588,206.699152 413.186726,207.27552 L421.303091,210.499714 C424.339149,210.803066 425.408915,209.533323 426.409385,208.956954 L458.35512,190.500175 C459.346927,189.92814 454.028413,195.271463 455.024552,195.847831 L476.606113,200.021082 C478.797618,200.341768 480.616654,200.003748 481.617124,199.42738 L497.061605,190.500175 C498.062075,189.92814 492.739229,195.197791 493.739699,195.77416 L515.329922,199.821737 C516.330392,200.398105 519.933816,200.021082 521.254782,198.890014 L551.905537,181.182946 C554.058063,179.943538 554.058063,176.836351 551.905537,175.596943 L538.999044,168.138826 C537.998574,167.562458 536.772891,167.562458 535.776752,168.138826 L529.323506,171.870051 C528.323036,172.442086 527.097352,172.442086 526.096882,171.870051 L490.608359,151.367815 C489.616551,150.787113 488.382205,150.787113 487.386066,151.367815 L480.93282,155.094706 C479.93235,155.671075 478.706667,155.671075 477.710528,155.094706 L469.641804,150.436092 L464.799704,147.63659 C462.651509,146.397182 462.651509,143.289995 464.799704,142.050586 C466.95223,140.806845 466.95223,137.699657 464.804035,136.460249 L459.966266,133.660747 L451.901873,129.002133 C450.901404,128.425765 449.671389,128.425765 448.670919,129.002133 L432.542134,138.319361 C431.545996,138.89573 430.315981,138.89573 429.319842,138.319361 L397.057941,119.684904 C394.905416,118.441163 394.905416,115.338309 397.057941,114.098901 C399.210467,112.850826 399.210467,109.747972 397.057941,108.508564 L374.480241,95.4601103 C373.479772,94.8837422 372.249757,94.8837422 371.249287,95.4601103 L364.800372,99.1870017 C363.804233,99.7633698 362.574218,99.7633698 361.573749,99.1826681 L258.339131,39.483068 C257.342992,38.9066999 256.117308,38.9066999 255.116839,39.483068 L238.979392,48.7699614 C237.987584,49.3419959 236.7619,49.3463295 235.765762,48.774295 L209.892142,33.9230661 C208.92632,33.368366 207.748278,33.3510316 206.765132,33.8753965 L200.212272,37.3812746 C199.250782,37.9056396 198.081402,37.8969724 197.124242,37.3596066 L180.904506,28.3283954 C179.917029,27.7780288 178.704338,27.786696 177.725524,28.3500633 L145.433306,47.0061884 C143.285111,48.2455964 143.285111,51.3527838 145.433306,52.5921919 L150.275406,55.391694 L155.113175,58.1868626 C157.265701,59.4306043 157.265701,62.533458 155.113175,63.7771997 L150.275406,66.5767019 L123.661179,72.9514196 L115.804676,77.7010394 C113.656481,78.9404474 136.450733,82.398656 135.493574,81.7746183 L138.98439,82.4159903 C139.980529,82.9923584 141.210544,82.9923584 142.211014,82.4159903 L148.659929,78.6890989 C149.656068,78.1083973 150.890413,78.1083973 151.886552,78.6890989 L155.113175,80.548211 C157.265701,81.7919527 157.265701,84.8948065 155.113175,86.1385482 C152.960649,87.3822898 152.960649,90.4894772 155.108844,91.7288853 L158.339798,93.5966646 C159.335937,94.1730327 160.565952,94.1730327 161.562091,93.5966646 L168.019668,89.8697732 C169.015807,89.2934051 170.24149,89.2934051 171.24196,89.8697732 L193.828322,102.913893 C195.976517,104.157635 195.976517,107.260489 193.828322,108.50423 L180.917499,115.958013 C179.92136,116.534381 178.695676,116.534381 177.695206,115.958013 L171.24196,112.231122 C170.24149,111.654754 169.015807,111.654754 168.019668,112.231122 L155.108844,119.689238 C152.960649,120.928646 152.960649,124.035833 155.108844,125.275242 C157.26137,126.518983 157.26137,129.626171 155.108844,130.865579 L122.846943,149.478368 C121.855136,150.046069 120.625121,150.050402 119.633313,149.478368 L113.175736,145.768811 C112.175266,145.196776 110.949583,145.196776 109.953444,145.773144 L106.718159,147.640924 C104.569964,148.884665 104.569964,151.987519 106.718159,153.231261 C108.875015,154.475002 108.875015,157.577856 106.72249,158.821598 C104.569964,160.06534 104.569964,163.168193 106.718159,164.411935 C108.875015,165.655677 108.875015,168.75853 106.72249,170.002272 L103.495866,171.870051 C102.499728,172.442086 101.274044,172.442086 100.273574,171.870051 L93.8203279,168.138826 C92.8198582,167.558125 91.5898434,167.558125 90.5937047,168.138826 L77.687212,175.596943 C75.5390172,176.836351 75.5390172,179.943538 77.687212,181.182946 L82.5293123,183.982448 L87.3714126,186.777617 C89.5239384,188.017025 89.5239384,191.124212 87.3714126,192.363621 L84.1491204,194.222733 C83.1486507,194.803434 81.9143049,194.803434 80.9095042,194.214065 L74.4692509,190.439504 C73.4687812,189.854469 66.7081691,186.196915 65.7076994,186.777617 L9.46470414,217.606809 C7.31217834,218.846218 27.1483316,219.002227 29.2965264,220.241635 L32.5274806,222.105081 C33.5236193,222.681449 34.753634,222.681449 35.7541038,222.105081 L42.2030191,218.382523 C43.1991578,217.801821 44.4335036,217.801821 45.4339733,218.382523 L68.0333287,231.49598 C70.1771924,232.744056 70.1728614,235.842576 68.0289977,237.081984 L58.331804,242.680988 C56.1792782,243.929063 56.1792782,247.031917 58.331804,248.271325 C60.4886608,249.519401 60.4929918,252.617921 58.340466,253.865996 C56.1836092,255.114071 46.1615877,261.614463 48.3097824,262.853871 L70.4370547,267.677162 C72.7411668,267.97618 74.2267128,267.365143 75.2315136,266.767107 L90.5850427,257.627556 C91.5855124,257.02952 86.1457289,262.234167 87.1591917,262.819203 L108.104091,267.239469 C111.408673,267.7465 113.058798,266.979453 114.059268,266.403085 L138.98439,252.00255 C139.980529,251.426182 141.210544,251.426182 142.211014,252.00255 L174.468583,279.533877 L195.803276,283.845804 C197.955801,284.279163 200.194948,283.728797 201.195418,283.152429 L216.406023,274.363899 Z" id="Fill-93" fill="#6EADFF"></path>
                        <polyline id="Fill-94" fill="#FFFFFE" points="174.198672 257.241281 193.554081 246.060607 212.909489 257.241281 224.087897 250.788559 232.264897 246.060607 251.620305 257.241281 270.980044 246.060607 261.300174 240.47027 290.331121 223.699259 309.686529 234.879933 319.366398 229.289596 329.046268 234.879933 338.721806 229.289596 348.401676 223.699259 329.046268 212.514251 387.112492 178.967895 396.788031 184.558232 435.498847 162.196883 454.858586 173.377558 474.209663 162.196883 493.565071 173.377558 532.280218 151.016209 512.92481 139.835535 503.24494 145.425872 464.534124 123.064524 454.858586 128.654861 445.178716 123.064524 435.498847 117.469853 445.174385 111.879516 425.823308 100.698841 406.4679 111.879516 367.752753 89.5181672 377.432623 83.9278301 348.401676 67.1568188 338.721806 72.7471559 232.264897 11.1797765 212.909489 22.325782 183.874211 5.65444333 174.198672 10.8417561 154.843264 0.064106218 116.132448 22.4254547 135.483525 33.6061289 125.807987 39.2007996 106.452579 50.3814738 116.132448 55.971811 125.807987 50.3814738 135.483525 55.971811 125.807987 61.5664817 135.483525 67.1568188 145.167726 61.5664817 174.198672 78.337493 154.843264 89.5181672 145.167726 83.9278301 125.807987 95.1085044 135.483525 100.698841 96.7770403 123.029855 87.1015018 117.469853 77.4173012 123.064524 87.1015018 128.654861 77.4173012 134.240864 87.1015018 139.835535 77.4173012 145.425872 67.7417627 139.831201 48.3863546 151.016209 58.0618931 156.606546 67.7417627 162.196883 58.0618931 167.78722 48.3863546 162.118879 0 190.074898 9.67553851 195.665235 19.3554081 190.074898 48.3863546 206.923914 29.0309466 218.108922 38.7108161 223.699259 29.0352776 229.293929 48.6808652 240.63928 67.7417627 229.289596 87.1015018 240.47027 116.132448 223.699259 174.198672 257.241281"></polyline>
                        <polygon id="Stroke-95" points="174.198672 257.241281 193.554081 246.060607 212.909489 257.241281 224.087897 250.788559 232.264897 246.060607 251.620305 257.241281 270.980044 246.060607 261.300174 240.47027 290.331121 223.699259 309.686529 234.879933 319.366398 229.289596 329.046268 234.879933 338.721806 229.289596 348.401676 223.699259 329.046268 212.514251 387.112492 178.967895 396.788031 184.558232 435.498847 162.196883 454.858586 173.377558 474.209663 162.196883 493.565071 173.377558 532.280218 151.016209 512.92481 139.835535 503.24494 145.425872 464.534124 123.064524 454.858586 128.654861 445.178716 123.064524 435.498847 117.469853 445.174385 111.879516 425.823308 100.698841 406.4679 111.879516 367.752753 89.5181672 377.432623 83.9278301 348.401676 67.1568188 338.721806 72.7471559 232.264897 11.1797765 212.909489 22.325782 183.874211 5.65444333 174.198672 10.8417561 154.843264 0.064106218 116.132448 22.4254547 135.483525 33.6061289 125.807987 39.2007996 106.452579 50.3814738 116.132448 55.971811 125.807987 50.3814738 135.483525 55.971811 125.807987 61.5664817 135.483525 67.1568188 145.167726 61.5664817 174.198672 78.337493 154.843264 89.5181672 145.167726 83.9278301 125.807987 95.1085044 135.483525 100.698841 96.7770403 123.029855 87.1015018 117.469853 77.4173012 123.064524 87.1015018 128.654861 77.4173012 134.240864 87.1015018 139.835535 77.4173012 145.425872 67.7417627 139.831201 48.3863546 151.016209 58.0618931 156.606546 67.7417627 162.196883 58.0618931 167.78722 48.3863546 162.118879 0 190.074898 9.67553851 195.665235 19.3554081 190.074898 48.3863546 206.923914 29.0309466 218.108922 38.7108161 223.699259 29.0352776 229.293929 48.6808652 240.63928 67.7417627 229.289596 87.1015018 240.47027 116.132448 223.699259"></polygon>
                        <polyline id="Fill-96" fill="#D6E8FF" points="251.620305 257.241281 251.620305 279.60263 232.264897 268.421956 232.264897 246.060607 251.620305 257.241281"></polyline>
                        <polygon id="Stroke-97" points="251.620305 257.241281 251.620305 279.60263 232.264897 268.421956 232.264897 246.060607"></polygon>
                        <polygon id="Fill-98" fill="#A1BADC" points="270.975713 268.421956 251.620305 279.60263 251.620305 257.241281 270.980044 246.060607"></polygon>
                        <polygon id="Stroke-99" points="270.980044 246.060607 270.975713 268.421956 251.620305 279.60263 251.620305 257.241281"></polygon>
                        <polyline id="Fill-100" fill="#A1BADC" points="290.331121 223.699259 290.331121 246.060607 270.980044 257.241281 270.980044 246.060607 261.300174 240.47027 290.331121 223.699259"></polyline>
                        <polygon id="Stroke-101" points="290.331121 223.699259 290.331121 246.060607 270.980044 257.241281 270.980044 246.060607 261.300174 240.47027"></polygon>
                        <polyline id="Fill-102" fill="#D6E8FF" points="309.686529 234.879933 309.686529 257.241281 290.331121 246.060607 290.331121 223.699259 309.686529 234.879933"></polyline>
                        <polygon id="Stroke-103" points="309.686529 234.879933 309.686529 257.241281 290.331121 246.060607 290.331121 223.699259"></polygon>
                        <polyline id="Fill-104" fill="#A1BADC" points="319.366398 229.289596 319.366398 251.650944 309.686529 257.241281 309.686529 234.879933 319.366398 229.289596"></polyline>
                        <polygon id="Stroke-105" points="319.366398 229.289596 319.366398 251.650944 309.686529 257.241281 309.686529 234.879933"></polygon>
                        <polyline id="Fill-106" fill="#D6E8FF" points="329.046268 234.879933 329.046268 257.241281 319.366398 251.650944 319.366398 229.289596 329.046268 234.879933"></polyline>
                        <polygon id="Stroke-107" points="329.046268 234.879933 329.046268 257.241281 319.366398 251.650944 319.366398 229.289596"></polygon>
                        <polyline id="Fill-108" fill="#A1BADC" points="348.401676 223.699259 348.397345 246.060607 329.046268 257.241281 329.046268 234.879933 348.401676 223.699259"></polyline>
                        <polygon id="Stroke-109" points="348.401676 223.699259 348.397345 246.060607 329.046268 257.241281 329.046268 234.879933"></polygon>
                        <polyline id="Fill-110" fill="#A1BADC" points="387.112492 178.967895 387.259747 201.246905 348.401676 223.699259 329.046268 212.514251 387.112492 178.967895"></polyline>
                        <polygon id="Stroke-111" points="387.112492 178.967895 387.259747 201.246905 348.401676 223.699259 329.046268 212.514251"></polygon>
                        <polyline id="Fill-112" fill="#D6E8FF" points="396.788031 184.558232 396.788031 206.91958 387.259747 201.246905 387.112492 178.967895 396.788031 184.558232"></polyline>
                        <polygon id="Stroke-113" points="396.788031 184.558232 396.788031 206.91958 387.259747 201.246905 387.112492 178.967895"></polygon>
                        <polyline id="Fill-114" fill="#A1BADC" points="435.498847 162.196883 435.498847 184.558232 396.788031 206.91958 396.788031 184.558232 435.498847 162.196883"></polyline>
                        <polygon id="Stroke-115" points="435.498847 162.196883 435.498847 184.558232 396.788031 206.91958 396.788031 184.558232"></polygon>
                        <polyline id="Fill-116" fill="#D6E8FF" points="454.858586 173.377558 454.754641 195.799576 435.498847 184.558232 435.498847 162.196883 454.858586 173.377558"></polyline>
                        <polygon id="Stroke-117" points="454.858586 173.377558 454.754641 195.799576 435.498847 184.558232 435.498847 162.196883"></polygon>
                        <polyline id="Fill-118" fill="#A1BADC" points="474.209663 162.196883 474.209663 184.558232 454.754641 195.799576 454.858586 173.377558 474.209663 162.196883"></polyline>
                        <polygon id="Stroke-119" points="474.209663 162.196883 474.209663 184.558232 454.754641 195.799576 454.858586 173.377558"></polygon>
                        <polyline id="Fill-120" fill="#D6E8FF" points="493.565071 173.377558 493.469788 195.799576 474.209663 184.558232 474.209663 162.196883 493.565071 173.377558"></polyline>
                        <polygon id="Stroke-121" points="493.565071 173.377558 493.469788 195.799576 474.209663 184.558232 474.209663 162.196883"></polygon>
                        <polyline id="Fill-122" fill="#A1BADC" points="532.280218 151.016209 532.280218 173.377558 493.469788 195.799576 493.565071 173.377558 532.280218 151.016209"></polyline>
                        <polygon id="Stroke-123" points="532.280218 151.016209 532.280218 173.377558 493.469788 195.799576 493.565071 173.377558"></polygon>
                        <polyline id="Fill-124" fill="#A1BADC" points="174.198672 257.241281 174.198672 279.60263 193.558412 268.421956 193.554081 246.060607 174.198672 257.241281"></polyline>
                        <polygon id="Stroke-125" points="174.198672 257.241281 174.198672 279.60263 193.558412 268.421956 193.554081 246.060607"></polygon>
                        <polyline id="Fill-126" fill="#D6E8FF" points="212.909489 257.241281 212.909489 279.60263 193.558412 268.421956 193.554081 246.060607 212.909489 257.241281"></polyline>
                        <polygon id="Stroke-127" points="212.909489 257.241281 212.909489 279.60263 193.558412 268.421956 193.554081 246.060607"></polygon>
                        <polyline id="Fill-128" fill="#A1BADC" points="232.264897 246.060607 232.264897 268.421956 212.909489 279.60263 212.909489 257.241281 232.264897 246.060607"></polyline>
                        <polygon id="Stroke-129" points="232.264897 246.060607 232.264897 268.421956 212.909489 279.60263 212.909489 257.241281"></polygon>
                        <polyline id="Fill-130" fill="#D6E8FF" points="116.132448 223.699259 116.132448 246.060607 174.198672 279.60263 174.198672 257.241281 116.132448 223.699259"></polyline>
                        <polygon id="Stroke-131" points="116.132448 223.699259 116.132448 246.060607 174.198672 279.60263 174.198672 257.241281"></polygon>
                        <polyline id="Fill-132" fill="#A1BADC" points="87.1015018 240.47027 87.0971707 262.831619 116.132448 246.060607 116.132448 223.699259 87.1015018 240.47027"></polyline>
                        <polygon id="Stroke-133" points="87.1015018 240.47027 87.0971707 262.831619 116.132448 246.060607 116.132448 223.699259"></polygon>
                        <polyline id="Fill-134" fill="#D6E8FF" points="67.7417627 229.289596 67.7417627 251.650944 87.0971707 262.831619 87.1015018 240.47027 67.7417627 229.289596"></polyline>
                        <polygon id="Stroke-135" points="67.7417627 229.289596 67.7417627 251.650944 87.0971707 262.831619 87.1015018 240.47027"></polygon>
                        <polyline id="Fill-136" fill="#A1BADC" points="48.6808652 240.63928 48.3820236 262.831619 67.7417627 251.650944 67.7417627 229.289596 48.6808652 240.63928"></polyline>
                        <polygon id="Stroke-137" points="48.6808652 240.63928 48.3820236 262.831619 67.7417627 251.650944 67.7417627 229.289596"></polygon>
                        <polyline id="Fill-138" fill="#D6E8FF" points="29.0352776 229.293929 29.0352776 251.646611 48.3820236 262.831619 48.6808652 240.63928 29.0352776 229.293929"></polyline>
                        <polygon id="Stroke-139" points="29.0352776 229.293929 29.0352776 251.646611 48.3820236 262.831619 48.6808652 240.63928"></polygon>
                        <polyline id="Fill-140" fill="#D6E8FF" points="19.3554081 190.074898 19.3554081 212.518585 29.0309466 218.108922 48.3863546 206.923914 19.3554081 190.074898"></polyline>
                        <polygon id="Stroke-141" points="19.3554081 190.074898 19.3554081 212.518585 29.0309466 218.108922 48.3863546 206.923914"></polygon>
                        <polyline id="Fill-142" fill="#A1BADC" points="29.0352776 229.293929 38.7108161 223.699259 29.0309466 218.108922 29.0352776 229.293929"></polyline>
                        <polygon id="Stroke-143" points="29.0352776 229.293929 38.7108161 223.699259 29.0309466 218.108922"></polygon>
                        <polyline id="Fill-144" fill="#A1BADC" points="9.67553851 195.665235 9.67553851 218.108922 19.3554081 212.518585 19.3554081 190.074898 9.67553851 195.665235"></polyline>
                        <polygon id="Stroke-145" points="9.67553851 195.665235 9.67553851 218.108922 19.3554081 212.518585 19.3554081 190.074898"></polygon>
                        <polyline id="Fill-146" fill="#D6E8FF" points="0 190.074898 0 212.514251 9.67553851 218.108922 9.67553851 195.665235 0 190.074898"></polyline>
                        <polygon id="Stroke-147" points="0 190.074898 0 212.514251 9.67553851 218.108922 9.67553851 195.665235"></polygon>
                        <polyline id="Fill-148" fill="#A1BADC" points="48.3863546 151.016209 48.3863546 162.118879 58.0618931 167.78722 67.7417627 162.196883 48.3863546 151.016209"></polyline>
                        <polygon id="Stroke-149" points="48.3863546 151.016209 48.3863546 162.118879 58.0618931 167.78722 67.7417627 162.196883"></polygon>
                        <polyline id="Fill-150" fill="#A1BADC" points="77.4173012 134.240864 77.4173012 145.425872 87.1015018 139.835535 77.4173012 134.240864"></polyline>
                        <polygon id="Stroke-151" points="77.4173012 134.240864 77.4173012 145.425872 87.1015018 139.835535"></polygon>
                        <polyline id="Fill-152" fill="#A1BADC" points="77.4173012 123.064524 77.4173012 134.240864 87.1015018 128.654861 77.4173012 123.064524"></polyline>
                        <polygon id="Stroke-153" points="77.4173012 123.064524 77.4173012 134.240864 87.1015018 128.654861"></polygon>
                        <polyline id="Fill-154" fill="#A1BADC" points="125.807987 95.1085044 125.799325 106.284845 135.483525 100.698841 125.807987 95.1085044"></polyline>
                        <polygon id="Stroke-155" points="125.807987 95.1085044 125.799325 106.284845 135.483525 100.698841"></polygon>
                        <polyline id="Fill-156" fill="#D6E8FF" points="145.167726 61.5664817 145.167726 83.9278301 154.843264 89.5181672 174.198672 78.337493 145.167726 61.5664817"></polyline>
                        <polygon id="Stroke-157" points="145.167726 61.5664817 145.167726 83.9278301 154.843264 89.5181672 174.198672 78.337493"></polygon>
                        <polyline id="Fill-158" fill="#A1BADC" points="135.483525 67.1568188 135.483525 89.5181672 145.167726 83.9278301 145.167726 61.5664817 135.483525 67.1568188"></polyline>
                        <polygon id="Stroke-159" points="135.483525 67.1568188 135.483525 89.5181672 145.167726 83.9278301 145.167726 61.5664817"></polygon>
                        <polyline id="Fill-160" fill="#D6E8FF" points="125.807987 61.5664817 125.799325 83.9234965 135.483525 89.5181672 135.483525 67.1568188 125.807987 61.5664817"></polyline>
                        <polygon id="Stroke-161" points="125.807987 61.5664817 125.799325 83.9234965 135.483525 89.5181672 135.483525 67.1568188"></polygon>
                        <polyline id="Fill-162" fill="#A1BADC" points="125.807987 50.3814738 125.807987 61.5664817 135.483525 55.971811 125.807987 50.3814738"></polyline>
                        <polygon id="Stroke-163" fill="#D6E8FF" points="125.807987 50.3814738 125.807987 61.5664817 135.483525 55.971811"></polygon>
                        <polyline id="Fill-164" fill="#B4B8B8" points="116.132448 55.971811 116.132448 78.337493 125.799325 72.7428223 125.807987 50.3814738 116.132448 55.971811"></polyline>
                        <polygon id="Stroke-165" fill="#A1BADC" points="116.132448 55.971811 116.132448 78.337493 125.799325 72.7428223 125.807987 50.3814738"></polygon>
                        <polyline id="Fill-166" fill="#D6E8FF" points="106.452579 50.3814738 106.452579 72.7471559 116.132448 78.337493 116.132448 55.971811 106.452579 50.3814738"></polyline>
                        <polygon id="Stroke-167" points="106.452579 50.3814738 106.452579 72.7471559 116.132448 78.337493 116.132448 55.971811"></polygon>
                        <polyline id="Fill-168" fill="#D6E8FF" points="116.132448 22.4254547 116.132448 44.7868031 135.483525 33.6061289 116.132448 22.4254547"></polyline>
                        <polygon id="Stroke-169" points="116.132448 22.4254547 116.132448 44.7868031 135.483525 33.6061289"></polygon>
                        <polyline id="Fill-170" fill="#B4B8B8" points="445.174385 111.879516 445.178716 123.064524 435.498847 117.469853 445.174385 111.879516"></polyline>
                        <polygon id="Stroke-171" fill="#A1BADC" points="445.174385 111.879516 445.178716 123.064524 435.498847 117.469853"></polygon>
                        <polyline id="Fill-172" fill="#A1BADC" points="377.432623 83.9278301 377.432623 95.1085044 367.752753 89.5181672 377.432623 83.9278301"></polyline>
                        <polygon id="Stroke-173" points="377.432623 83.9278301 377.432623 95.1085044 367.752753 89.5181672"></polygon>
                        <path d="M494.465927,265.869468 L497.705543,263.997356 C498.701682,263.425321 499.931696,263.425321 500.923504,263.997356 L508.992228,268.660303 L516.991654,273.531264 C517.996455,274.137967 519.256787,274.155301 520.274581,273.565933 L526.797124,269.795705 C527.793263,269.223671 529.010284,269.219337 530.002092,269.787038 L552.657751,282.735819 C554.818939,283.96656 554.82327,287.082414 552.670744,288.321822 L531.439997,300.564227 C530.448189,301.136262 528.78507,301.968312 526.104158,301.968312 L503.24494,302.8697 L494.513568,282.688149 C492.356711,281.444408 492.369704,278.324219 494.535223,277.093479 C496.700742,275.867071 496.713735,272.746883 494.56121,271.503141 L494.465927,271.451138 C492.322063,270.21173 492.322063,267.108877 494.465927,265.869468" id="Fill-174" fill="#6EADFF"></path>
                        <polyline id="Fill-175" fill="#FFFFFE" points="464.482152 245.848261 474.162021 240.257924 483.83756 245.848261 493.469788 251.707281 503.24494 246.060607 532.375501 262.705944 503.292582 279.476956 464.482152 257.05927 474.278959 251.507936 464.482152 245.848261"></polyline>
                        <polygon id="Stroke-176" points="464.482152 245.848261 474.162021 240.257924 483.83756 245.848261 493.469788 251.707281 503.24494 246.060607 532.375501 262.705944 503.292582 279.476956 464.482152 257.05927 474.278959 251.507936"></polygon>
                        <polyline id="Fill-177" fill="#D6E8FF" points="503.292582 279.476956 503.24494 301.968312 464.534124 279.476956 464.482152 257.05927 503.292582 279.476956"></polyline>
                        <polygon id="Stroke-178" points="503.292582 279.476956 503.24494 301.968312 464.534124 279.476956 464.482152 257.05927"></polygon>
                        <polyline id="Fill-179" fill="#A1BADC" points="532.375501 262.705944 532.375501 285.253637 503.24494 301.968312 503.292582 279.476956 532.375501 262.705944"></polyline>
                        <polygon id="Stroke-180" points="532.375501 262.705944 532.375501 285.253637 503.24494 301.968312 503.292582 279.476956"></polygon>
                        <polyline id="Fill-181" fill="#E6E4DF" points="464.482152 245.848261 464.482152 257.05927 474.278959 251.507936 464.482152 245.848261"></polyline>
                        <polygon id="Stroke-182" fill="#D6E8FF" points="464.482152 245.848261 464.482152 257.05927 474.278959 251.507936"></polygon>
                    </g>
                </g>
                <g id="Мадрид" transform="translate(288.000000, 104.000000)">
                    <g id="Group-11" transform="translate(24.000000, 25.000000)">
                        <g id="Group-2">
                            <polygon id="Path-2" fill="#5A9DF4" points="0 15.1271111 0 0 12.8434245 7.56355555 12.8434245 22.7433508"></polygon>
                            <polygon id="Path-2-Copy" fill="#2D80EB" transform="translate(19.088379, 11.371675) scale(-1, 1) translate(-19.088379, -11.371675) " points="12.6666667 15.1271111 12.6666667 0 25.5100911 7.56355555 25.5100911 22.7433508"></polygon>
                        </g>
                    </g>
                    <text id="МАДРИД" font-family="Circe-Bold, Circe" font-size="14" font-weight="bold" letter-spacing="2" fill="#2D80EB">
                        <tspan x="0.804" y="14">МАДРИ</tspan>
                        <tspan x="63.612" y="14">Д</tspan>
                    </text>
                </g>
            </g>
        </g>
    </g>
</svg>