<svg width="134" height="43" viewBox="0 0 134 43" xmlns="http://www.w3.org/2000/svg"><title>Combined Shape</title><path d="M33.213 25.283L54.377 0h12.718L45.932 25.283H33.213zm15.5 0L69.824 0h6.024L54.737 25.283h-6.025zm9.629 0L79.454 0h3.295L61.586 25.283h-3.244zm7.57 0L87.022 0h1.03L66.941 25.283h-1.03zm6.848 0L93.923 0h1.03L73.79 25.283h-1.03zm2.42 0L96.292 0h1.03L76.21 25.283h-1.03zm2.42 0L98.712 0h1.03L78.63 25.283H77.6zm2.369 0L101.132 0h1.03L81 25.283h-1.03zm2.42 0L103.553 0h1.03L83.418 25.283h-1.03zm2.42 0L105.921 0h1.03L85.84 25.283h-1.03zm7.106 16.838v-11.02h5.51l3.553 4.584v-4.583h4.943v11.02h-5.304l-3.707-4.893v4.892h-4.995zm-17.353 0l3.347-11.02h9.217l3.347 11.02h-5.097l-2.266-7.415c-.052-.36-.31-.67-.567-.67-.309 0-.515.31-.618.67l-.875 2.781h2.884l.927 2.935h-4.686l-.515 1.7h-5.098zm47.374-11.02h11.843v2.627h-6.437v1.596h6.437V37.9h-6.437v1.648h6.437v2.574h-11.843v-11.02zm-75.438 11.02v-11.02h11.483v3.142h-6.076v1.802h6.076v3.141h-6.076v2.935h-5.407zm-29.35 0v-11.02h5.457v11.02h-5.458zM0 42.121l3.347-11.02h9.166l3.347 11.02h-5.098l-2.214-7.415c-.103-.36-.31-.67-.618-.67-.309 0-.515.31-.618.67l-.824 2.781h2.884l.875 2.935H5.561l-.515 1.7H0zm33.47-6.024c.464 0 .876-.412.876-.927 0-.515-.412-.927-.875-.927h-2.318v7.878h-5.406v-11.02l10.916.052c1.75 0 3.141 1.34 3.141 3.09 0 1.596-1.184 2.884-2.729 3.09l3.347 4.788h-6.025l-2.42-3.501h-.824v-2.575l2.318.052zm33.934 0a.923.923 0 0 0 .927-.927.923.923 0 0 0-.927-.927H65.14v7.878h-5.407v-11.02l10.865.052c1.75 0 3.141 1.34 3.141 3.09 0 1.596-1.184 2.884-2.729 3.09l3.347 4.788h-6.025l-2.42-3.501h-.772v-2.575l2.265.052zm40.062.515c0-2.627 0 0 0 0 0-2.627.721-5.87 7.57-5.82 2.626 0 4.634.67 5.406.98v3.655c-1.544-.412-7.26-1.854-7.26 1.185 0 3.09 5.716 1.596 7.26 1.235v3.656c-.772.258-2.78.979-5.406.979-6.849.051-7.57-3.193-7.57-5.87z" fill="#AFC0D5" fill-rule="evenodd"/></svg>