<svg width="88" height="60" viewBox="0 0 88 60" xmlns="http://www.w3.org/2000/svg"><title>Fill 3</title><path d="M51.714 18.643c-.428.428-.785 1.5-.785 2.428v1.965h2c.785 0 1.785-.715 2.035-1.072V20s.5.714 1.072 1.107c.214-.25 2.035-2.464 3.571-2.5 2.536 0 1.964 3.214.929 4.25-.357.322-1.857 1.714-2.322 2.179-1.214 1.143-3.285.571-3.285-2.393 0 0-2.215 2.107-2.536 2.393-.322.285-1.464 1.5-1.464 1.5v5.214c0 2.5-.858 3.321-1.536 4.071-.25.322-3.072 2.858-3.464 3.143l-.893.036s1.643-1.5 1.964-1.857c.393-.393.821-1.179.821-2.5 0-.322-.035-8.179-.035-8.179H34.964c-4.464 0-5.428-4.964-5.428-6.285-.036-.393 0-4.322 0-4.965 0-.785-.536-2.178-1.357-2.607h1.25c.142.072.928.393.928 3.429 0 0-.036 3.535-.036 3.714 0 1.536 1.215 3.286 2.965 3.286H47.82c0-.393.393-1.857 1.072-2.643.393-.464 3.536-3.286 3.857-3.572h.929c-.143.108-1.643 1.465-1.965 1.822zm4.75 2.964c.465-.5 2.072-.643 2.5-.071 1.036 1.428.322 2.785-1.25 1.5-.393-.322-1.25-1.429-1.25-1.429zM48.93 3.536C49.25 3.214 52.536.25 52.75 0l.929.036c-.215.214-1.393 1.214-1.75 1.607-.358.393-1 1.178-1 2.643 0 .393-.036 9.214-.036 9.678 0 1.822-.964 3-1.357 3.465-.322.357-3.286 3-3.572 3.25h-.893c.143-.143 1.679-1.572 1.929-1.822.357-.357.821-1.357.821-2.071V6.714c0-1.607.858-2.928 1.108-3.178zm-7.393 36.571h6.143c2.357 0 4.071-1.607 4.678-2.214 3.429-3.322 3.464-5.429 2.357-6.572-.214-.25-1.393-1.464-1.393-1.464v-4s1.072 1 1.215 1.143c.321.321 1.428 1.357 1.428 3.107v5.214c0 1.893-.571 3.929-2.071 5.429-1.5 1.5-3.75 2.536-6.25 2.536h-2.429l-3.678-3.179zm-.607-9.143c0 .715-2.25 2.572-2.393 2.679-.143-.75-.715-1.572-2.393-3.25l2.464-2.429c1.643 1.643 2.322 1.965 2.322 3zm4.25-28.071c.464.5 1.535 1.821.892 2.464-.571.572-1.428 1.464-1.428 1.464-.036-.321-.857-1.107-.857-1.107v2.643c-.036 1.072-.429 1.393-.429 1.393s1.964 1.964 1.964 4.464v2.572c0 .535-.107.928-.464 1.321-.178.179-2 2.036-2.286 2.286a2.273 2.273 0 0 1-1.5.571H34.25c-1.071 0-2.179-.857-2.179-1.678 0-.215.036-2.536.036-2.536.357.393.714.893 1.572.857.642 0 1.357-.536 1.535-.714.215-.179 5.143-5.357 5.143-5.357s-2.321-2.143-3.821-3.179c-.75-.5-1.75.143-1.893.786-.464 2.071 0 5.143 0 5.143s-1.536-1.5-1.893-1.857c-.75-.786-.714-2.5.179-3.393.142-.143 1.535-1.679 3.25-1.679h2.714c1.821 0 3.821 1.822 3.821 1.822S43 8.857 43 8.536c0-.929-.036-3.465-.036-3.465-1.357-1.357-1.535-2.785-.893-3.428C43.286.429 43.75 0 43.75 0s0 1.464 1.429 2.893zM36.643 16.57c.143-.142 4.357-4.5 4.357-4.5s2.393 2.465 3.179 3.822c.357.643.785 1.928-1.286 1.928h-7.679c.643-.392.75-.571 1.429-1.25zm-8.75 6.965s.928 0 .928 3.393v3.321c0 4.036 3.643 6.464 6.358 6.393.428 0 6.964-.036 7.285-.036 1.607 0 3-2.357 1.25-3.714-.357-.286-1.178-1.179-1.178-1.179v-4.107s.821.822 1.143 1.107c.5.5 1.5 1.215 1.5 2.965v2c0 2.035-.75 2.678-1.465 3.428-.214.25-.785.893-1.214 1.286-1.214 1.071-1.929 1.571-3.893 1.571H35.25c-3.964 0-7.25-3.678-7.25-7.678v-6.107c0-1.893-1.357-2.643-1.357-2.643h1.25zm8.036 7.428c0 .715-2.25 2.572-2.393 2.715-.143-.786-.715-1.608-2.393-3.286l2.464-2.429c1.643 1.643 2.322 2 2.322 3zM10.32 58.143c2.465 0 3.072-1.214 3.072-1.214l-.036.964c0 .75-.643 2.107-2.536 2.107H2.5s-1.036-.071-1.036-2.643l-.035-10.25C1.464 44.536 0 43.286 0 43.286h8.464c4.322 0 4.643 2.964 4.643 2.964-1.786-1.179-3.5-1.143-5.75-1.179H4.75c.393.465.393 2.036.393 2.036v1.822h1.821c2.822 0 3.75 2.25 3.75 2.25-1.285-.715-2.643-.572-3.75-.572-.964 0-1.821.036-1.821.036v5.607c.107.893.036 1.893 1.25 1.893h3.928zm22.143-.857c0 1.75 1.357 2.678 1.357 2.678h-3.535s-1 0-1.036-2.678V50.75c.036-1-.857-1.893-1.929-1.893-1.321 0-1.785.964-1.892 1.357v7.036c0 1.75 1.357 2.714 1.357 2.714H23.25s-1.036 0-1.036-2.678V50.75c0-1.036-.928-1.929-1.785-1.929-1.5 0-2.036 1.072-2.072 1.393v7.072c0 1.678 1.25 2.643 1.322 2.678h-3.5s-1.072-.035-1.072-2.678l.036-7.929c0-2.178-1.25-2.678-1.25-2.678h2.143c2.143 0 2.214 2.5 2.214 2.5s.679-2.572 3.393-2.572c1.428 0 3.178.786 3.678 2.5.286-.643.965-2.5 3.215-2.5 1.678 0 3.928.75 3.928 3.536v7.143zm6.179 0c0 1.75 1.357 2.678 1.357 2.678h-3.536s-1.071 0-1.071-2.643v-8c0-2.107-1.214-2.642-1.214-2.642h2.142c.75 0 2.322 0 2.322 2.964l-.036 7.643h.036zm10.786-9.607v2.25c-.893-1.108-2.465-1.286-3.643-.536-.465.321-.75.75-.857 1.357v6.5c0 1.714 1.25 2.679 1.357 2.714h-3.5s-1.072-.035-1.072-2.678V49.32c0-2.142-1.214-2.642-1.214-2.642h2.107c1.572 0 2.107.607 2.286 2.678 0 0 .536-2.643 2.75-2.643 1.464 0 1.786.965 1.786.965zm16.392.464h-.892v9.214c0 1.679 1.357 2.607 1.357 2.607h-3.5s-1.072 0-1.072-2.571v-9.25l-2.214-.036s2.071-1 3.071-1.821c1.608-1.322 2.358-2.643 2.358-2.643v3.036h2.964v2s-.893-.536-2.072-.536zm10.643 4.036c-1.964 2.035-3.5 1.714-4.75 3.25 0 0 .215 2.035 1.75 2.75.536.25 2.715 1.035 4.107-1.393v2.143s-.892 1.035-3.75 1.035c-3.464 0-5.821-2.678-5.821-6.357 0-3.607 1.929-6.964 5.571-7 3.572 0 5.5 2.857 2.893 5.572zm-2.143-.858c-.892 1.643-2.035 1.822-2.821 2.643 0 0-.429-6.107 1.857-6.285 2-.143 1.536 2.571.964 3.642zM37 45.607c-.893 0-1.643-.714-1.643-1.607s.75-1.607 1.643-1.607 1.643.714 1.643 1.607-.75 1.607-1.643 1.607zm16.107 12.857c-.821 0-1.393-.857-1.393-1.678 0-3.322 2.715-3.786 3.465-4.679v5.607c-.322.286-.643.75-2.072.75zm2.072-7.643c.428-.785.25-1.357.25-1.357 0-.464-.108-1.357-1.893-1.357-1.857 0-2.572 1.857-2.572 1.857v-2.321s1.286-.964 3.286-.964c2.107 0 4.107 1.357 4.107 3.142v7.465c0 1.75 1.357 2.678 1.357 2.678h-3.5s-.75-.107-1-1.571c-.393.75-1.357 1.607-2.928 1.607-1.643 0-2.929-.571-3.322-2.536-.964-4.893 5.393-5.214 6.215-6.643zm29.071 5.536c-.036-.678-.393-1.357-1.429-1.928-.678-.393-1.285-.75-1.821-1.143-1.25-.965-1.929-1.965-1.964-3.536-.036-1.786 1.893-3.179 4-3.179 2 0 3.357 1.072 3.357 1.072v2.214s-.75-1.821-2.5-1.821c-1.786 0-2 .893-1.964 1.321 0 .25.357.964 1 1.393 1.142.679 2.607 1.464 3.428 2.536.5.678.822 1.428.822 2.321.071 2.536-2.358 4.357-4.786 4.357-2 0-3.322-.928-3.322-.928v-2.393s.715 1.893 2.572 1.893c1.786 0 2.607-1.25 2.607-2.179z" fill="#AFC0D5" fill-rule="evenodd"/></svg>