<svg width="165" height="38" viewBox="0 0 165 38" xmlns="http://www.w3.org/2000/svg"><title>Combined Shape</title><path d="M23.133 15.605l-9.608 21.732H1.853c-2.064 0-2.58-2.064-.645-3.676l21.925-18.056zm42.431 21.732H18.49l11.156-25.02L45.186 0 35.58 21.474c-3.16 9.027 3.16 12.445 6.577 12.445h23.408c.967 0 1.677.774 1.677 1.741 0 .903-.71 1.677-1.677 1.677zm-7.029-25.214h6.513l.13 11.479H60.92l-.064-1.613h-6.578l-1.483 1.613H47.83l10.704-11.479zm-1.676 7.094h3.998V14.96l-3.998 4.256zm15.025-7.094h4.385L70.98 23.602h-4.385l5.288-11.479zm18.765 0c2.192 0 2.128 2.128 1.676 3.095L91.23 17.54a2.793 2.793 0 0 1-2.257 1.677c.645.257.774 1.612.452 2.192l-.968 2.193h-4.385l.903-2.128c.258-.516.065-1.097-.58-1.097H79.75l-1.483 3.225h-4.45l5.288-11.479h11.543zm-3.16 3.998c.322-.71-.193-1.29-.774-1.29H82.33l-1.354 2.902h4.578c1.097 0 1.548-.773 1.742-1.16l.193-.452zm46.88 7.48l5.288-11.478h4.385l-5.287 11.479h-4.385zm20.958 0l5.288-11.478H165l-5.288 11.479h-4.385zm-10.51 0l4.062-8.77h-4.643l1.29-2.708h13.67l-1.225 2.709h-4.707l-4.063 8.77h-4.385zm-11.866 0h-4.256V21.99h-6.642l-1.483 1.613h-4.966l10.77-11.479h6.448l.129 11.479zm-8.254-4.384h3.933V14.96l-3.933 4.256zm-9.35-7.094h4.385l-5.224 11.479h-4.45l2-4.385h-6.19l-1.935 4.385h-4.45l5.288-11.479h4.385l-1.999 4.32h6.19l2-4.32z" fill="#AFC0D5" fill-rule="evenodd"/></svg>