<svg width="118" height="52" viewBox="0 0 118 52" xmlns="http://www.w3.org/2000/svg"><title>Combined Shape</title><path d="M18.021 37.464v-3.072h3.348v3.072H18.02zM6.1 34.575h4.08l6.008 17.012H12.29l-1.054-3.53H4.952l-1.192 3.53H0l6.099-17.012zm-.184 10.547h4.31L8.117 38.38h-.045l-2.156 6.74zm12.106 6.465v-12.61h3.348v12.61h-3.35zm9.08-10.455c.687-1.284 1.421-2.476 3.439-2.476.229 0 .412 0 .642.046v3.347c-.275-.045-.642-.045-.963-.045-2.568 0-3.027 1.604-3.027 3.026v6.557h-3.301v-12.61h3.164v2.155h.046zm15.453-3.943c-1.697 0-4.219 1.146-4.219 5.96 0 3.027 1.192 5.779 4.219 5.779 1.972 0 3.347-1.1 3.76-3.164h3.53C49.158 49.432 46.728 52 42.463 52c-4.54 0-7.75-3.026-7.75-8.896 0-5.961 3.44-8.988 7.796-8.988 5.09 0 7.153 3.485 7.337 6.007h-3.531c-.275-1.008-.825-2.934-3.76-2.934zm29.164 1.467c2.476 0 4.402 1.422 4.402 4.219v8.712h-3.348V43.93c0-.917-.045-2.476-2.155-2.476-1.467 0-2.568.963-2.568 2.89v7.244h-3.347v-12.61h3.21v1.834h.046c.412-.733 1.375-2.155 3.76-2.155zm17.517 9.309c0 1.513.596 1.513 1.33 1.65v1.972H87.17c-.871 0-1.1-.32-1.467-.688-.413.367-1.147 1.01-3.394 1.01-1.926 0-3.851-1.055-3.851-3.67 0-2.475 1.559-3.713 3.668-4.034l2.98-.459c.505-.046 1.147-.275 1.147-1.009 0-1.559-1.33-1.605-2.155-1.605-1.651 0-2.018.917-2.064 1.926H78.87c.367-3.898 3.027-4.402 5.64-4.402 1.743 0 4.724.504 4.724 3.623v5.686zm-5.916 1.65c1.468 0 2.935-1.008 2.935-2.567v-1.605c-.321.275-.871.458-2.247.688-1.238.183-2.293.504-2.293 1.88 0 1.146.963 1.605 1.605 1.605zm16.6-9.033v-6.007h3.301v17.012h-3.21v-1.605h-.045c-.826 1.422-2.293 1.926-3.669 1.926-3.76 0-5.319-3.301-5.319-6.786 0-4.357 2.476-6.466 5.273-6.466 2.11 0 3.119 1.146 3.623 1.926h.046zm-2.797 8.575c2.109 0 2.934-1.743 2.934-3.623 0-1.971-.55-4.035-2.843-4.035-2.109 0-2.797 1.88-2.797 3.852 0 1.513.596 3.806 2.706 3.806zm18.938-1.192c0 1.513.596 1.513 1.284 1.65v1.972h-3.348c-.87 0-1.1-.32-1.513-.688-.412.367-1.146 1.01-3.393 1.01-1.88 0-3.852-1.055-3.852-3.67 0-2.475 1.605-3.713 3.714-4.034l2.981-.459c.504-.046 1.146-.275 1.146-1.009 0-1.559-1.33-1.605-2.2-1.605-1.651 0-1.972.917-2.018 1.926h-3.21c.367-3.898 3.072-4.402 5.64-4.402 1.788 0 4.769.504 4.769 3.623v5.686zm-5.961 1.65c1.467 0 2.98-1.008 2.98-2.567v-1.605c-.32.275-.87.458-2.247.688-1.238.183-2.338.504-2.338 1.88 0 1.146.963 1.605 1.605 1.605zm-48.148-1.65c0 1.513.596 1.513 1.33 1.65v1.972h-3.394c-.871 0-1.1-.32-1.513-.688-.413.367-1.146 1.01-3.393 1.01-1.88 0-3.806-1.055-3.806-3.67 0-2.475 1.559-3.713 3.668-4.034l2.98-.459c.505-.046 1.147-.275 1.147-1.009 0-1.559-1.33-1.605-2.155-1.605-1.697 0-2.018.917-2.064 1.926h-3.21c.413-3.898 3.073-4.402 5.64-4.402 1.789 0 4.77.504 4.77 3.623v5.686zm-5.962 1.65c1.468 0 2.981-1.008 2.981-2.567v-1.605c-.321.275-.871.458-2.247.688-1.238.183-2.293.504-2.293 1.88 0 1.146.963 1.605 1.56 1.605zm.597-17.516v-8.942l-5.411 3.347v-1.742l-3.485.504 2.2-2.934-1.558-.597 2.843-1.696c.642-.367.504-1.009 0-1.192l-4.77-3.164 1.56-.55-1.834-2.981 3.439.688-.092-1.789 3.898 2.568c.733.459 1.284.321 1.284-1.055V6.787l1.421 1.1 1.238-3.072 1.192 3.072 1.422-1.1v5.777c0 1.376.596 1.514 1.284 1.055l3.943-2.568-.091 1.789 3.439-.688-1.88 2.98 1.559.55-4.769 3.165c-.504.183-.642.825 0 1.192l2.843 1.696-1.56.597 2.202 2.934-3.485-.504v1.742l-5.41-3.347v11.647c-.23.046-.46.046-.689.046-9.63 0-17.425-7.795-17.425-17.425S47.69 0 57.32 0s17.425 7.795 17.425 17.425c0 8.392-5.96 15.407-13.894 17.058l.046-2.797c6.374-1.605 11.097-7.383 11.097-14.261 0-8.116-6.557-14.72-14.674-14.72-8.116 0-14.72 6.604-14.72 14.72 0 7.887 6.191 14.307 13.987 14.674z" fill="#AFC0D5" fill-rule="evenodd"/></svg>