<svg width="165" height="37" viewBox="0 0 165 37" xmlns="http://www.w3.org/2000/svg"><title>Finnair</title><g fill="none" fill-rule="evenodd"><path d="M.76 18.623C.76 8.59 9.013.459 19.193.459S37.625 8.59 37.625 18.623c0 10.033-8.253 18.165-18.432 18.165C9.013 36.788.76 28.656.76 18.623zm.374 3.095H25.38c.7-1.317 1.358-2.552 1.976-3.622l.166-.083s4.938.083 4.938 0c.495-.7.742-1.112 1.358-2.182h-5.185c.329-.658.41-.782.699-1.44h5.31l1.524-2.389h-7.82.08c-.288 0-.577-.04-.823.165-.081.041-.248.29-.248.29l-.082.122-1.193 2.058-1.729 3.129c-.207.37-.453.618-.865.782-.123.042-.37.124-.947.124H3.11c-.371.7-1.07 1.729-1.976 3.046zm144.2-9.716A1123.335 1123.335 0 0 0 136.99 27.2h-5.19l.082-.207c2.783-5.149 5.273-9.758 8.097-14.823l.04-.167h5.316m-29.522.291l-7.97 14.532-.167.373h-4.693c-.248-.373-.29-.54-.623-1.412-1.08-2.948-2.45-6.186-3.446-9.176l-.125.292c-1.826 3.404-3.736 6.934-5.521 10.296h-5.19l.58-.996 7.724-14.2h5.272a193.535 193.535 0 0 0 3.738 9.965c1.33-2.492 2.075-3.78 4.192-7.64l1.33-2.326h5.064l-.165.292m-22.919-.292c-2.781 5.191-5.148 9.426-8.346 15.197-1.744 0-3.321 0-4.816-.041-1.204-3.405-2.7-7.184-3.902-10.547-.873 1.537-.209.416-.581.956-1.786 3.405-3.365 6.27-5.191 9.59-1.619.042-3.197.042-5.025.042 0 0 .084-.165.375-.623 2.615-4.9 5.065-9.425 7.93-14.574h4.982c.375.915.623 1.496.956 2.326 1.12 2.823 2.075 5.232 3.072 7.723l.208-.498c1.785-3.322 3.28-5.938 5.232-9.55h5.106m-22.919-.001c-2.99 5.482-5.44 10.049-8.263 14.99l-.083.207h-5.272l.165-.332a1318.05 1318.05 0 0 0 8.18-14.865h5.273m-8.305 0l-2.283 3.862H48.84c-.581 1.122-1.162 2.284-.789 1.495l-.79 1.412H57.6c.333 0 .083 0 .208.04l-1.786 3.323-.166.207-10.503-.042a187.344 187.344 0 0 1-2.782 4.9h-5.066l.042-.083c2.615-4.817 4.317-7.93 7.015-12.788 1.08-2.326 2.699-2.326 3.904-2.326H61.67" fill="#AFC0D5"/><path d="M157.796 15.864c.706 0 .79.457.665.705" stroke="#FFFFFE" stroke-width=".458"/><path d="M129.432 15.864l-1.537 2.907h-6.974c.54-.914.746-1.371.912-1.785.374-.623 1.205-1.163 1.953-1.122 1.826 0 1.743-.041 3.196 0h2.45zm7.224-3.862c-2.782 5.066-5.522 10.09-8.222 15.197h-5.148l.083-.207c1.038-1.786 1.496-2.7 2.367-4.318l.25-.375-7.018.042c-1.204 2.118-1.786 3.198-2.698 4.858h-5.273l.498-.872c2.492-4.567 4.525-8.179 6.934-12.664.995-1.91 3.073-1.66 5.106-1.66h13.121zm14.533 5.149c.373-.58.456-.747.746-1.287h5.855c.706 0 .79.457.664.706-.456.997-.789 2.077-1.91 2.242h-6.27c.54-1.08.459-.79.915-1.66zm11.252-5.149c1.162-.04 1.868.333 2.116.956.623 1.245-.664 3.405-1.744 5.356-1.452 2.574-1.867 3.985-3.694 3.985l-2.325.042-.208-.042 2.035 4.9a99.076 99.076 0 0 0-4.942 0c-.54-1.286-.872-1.993-1.369-3.321l-.665-1.579-3.28.042-.29.457-2.368 4.4h-5.313l.082-.164 7.431-13.536.79-1.496h13.744z" fill="#AFC0D5"/></g></svg>