<svg width="165" height="52" viewBox="0 0 165 52" xmlns="http://www.w3.org/2000/svg"><title>Fill 2</title><path d="M25.213 15.48c0 2.5-1.825 4.528-4.056 4.528-2.298 0-4.123-2.028-4.123-4.529 0-2.5 1.825-4.529 4.123-4.529 2.231 0 4.056 2.028 4.056 4.53zM23.32 51.574s-6.76-11.423 5.543-22.712c12.37-11.356 16.493-19.873 15.48-24.47 0 0-2.231 10.208-12.776 15.615 0 0-13.316 10.545-19.332-6.219 0 0-4.8 5.881-.541 12.506 4.258 6.691 3.718 4.799 4.8 10.004 1.08 5.272 1.824 11.558 6.826 15.276zm-6.286-6.962l-.608-.135C6.962 41.774 0 33.054 0 22.644 0 10.14 10.14 0 22.577 0c7.03 0 13.316 3.177 17.44 8.247l.608.878-.473.744a22.72 22.72 0 0 1-2.907 3.785l-.473.473-.406-.81a16.526 16.526 0 0 0-13.79-7.369c-9.192 0-16.628 7.503-16.628 16.696 0 6.422 3.65 11.965 8.923 14.804l.608.405.068.609a87.495 87.495 0 0 0 1.217 5.407l.27.744zm5.813.743l-.067-.676c-.068-1.419.067-3.041.473-4.799l.067-.608h.676c8.517-.676 15.21-7.841 15.21-16.629 0-.473 0-.946-.068-1.42v-.675l.405-.54a40.952 40.952 0 0 0 3.583-5.34l.338-.677.473 1.217c.811 2.298 1.217 4.8 1.217 7.435 0 12.235-9.599 22.172-21.63 22.712h-.677zm30.486-13.18V14.126h11.356v2.163h-8.923v4.935h8.247v2.163h-8.247v6.692h8.923v2.095H53.333zm24.334 0h-2.298v-1.488c-.676.609-1.352 1.082-2.028 1.42-.609.338-1.284.473-2.096.473-.54 0-1.149-.135-1.622-.27-.54-.203-1.014-.541-1.42-.947a4.606 4.606 0 0 1-.878-1.622c-.203-.608-.338-1.352-.338-2.298v-8.788h2.298v7.706c0 .744.068 1.352.135 1.825 0 .473.136.879.338 1.217.203.338.406.608.744.743.338.203.743.27 1.352.27.54 0 1.149-.134 1.757-.472.676-.338 1.217-.744 1.758-1.15V18.657h2.298v13.52zM88.144 21.09h-.135c-.135-.068-.338-.068-.54-.068h-.677c-.608 0-1.216.135-1.825.406-.608.202-1.149.608-1.69 1.149v9.598H80.98V18.656h2.298v1.96c.811-.675 1.555-1.216 2.163-1.554a4.461 4.461 0 0 1 1.825-.406h.474c.135 0 .27 0 .405.068v2.366zm9.531 8.179c-.676.878-1.555 1.284-2.771 1.284-1.15 0-2.096-.406-2.772-1.284-.608-.879-.946-2.163-.946-3.853 0-1.758.338-3.042.946-3.92.676-.812 1.623-1.217 2.772-1.217 1.216 0 2.095.405 2.771 1.216.608.879.946 2.163.946 3.92 0 1.758-.338 3.043-.946 3.854zm1.622-9.126c-1.081-1.284-2.568-1.892-4.393-1.892-1.825 0-3.312.608-4.394 1.892-1.15 1.217-1.69 2.975-1.69 5.273 0 2.23.54 3.92 1.622 5.205 1.082 1.284 2.57 1.96 4.462 1.96 1.825 0 3.312-.608 4.393-1.893 1.15-1.216 1.69-2.974 1.69-5.272s-.54-4.056-1.69-5.273zm11.221 12.37a8.643 8.643 0 0 1-3.244-.608c-.947-.406-1.825-.946-2.569-1.758-.676-.81-1.284-1.757-1.622-2.974-.406-1.149-.609-2.5-.609-3.988 0-1.555.203-2.839.541-3.988.406-1.15.946-2.095 1.69-2.907a7.927 7.927 0 0 1 2.569-1.892c1.014-.406 2.095-.609 3.312-.609.608 0 1.149 0 1.69.136.54.067 1.014.202 1.487.338.405.135.743.27 1.149.473.405.135.811.338 1.217.608v2.84h-.203c-.203-.136-.473-.406-.811-.677a9.488 9.488 0 0 0-1.217-.811c-.406-.27-.946-.473-1.487-.608-.54-.136-1.15-.203-1.893-.203-.743 0-1.487.135-2.163.405a6.065 6.065 0 0 0-1.825 1.42c-.473.608-.879 1.42-1.149 2.298-.27.947-.406 2.028-.406 3.177 0 1.217.136 2.298.406 3.177.338.879.744 1.69 1.217 2.298a5.151 5.151 0 0 0 1.825 1.352c.676.27 1.352.406 2.095.406.744 0 1.352-.068 1.96-.203a8.273 8.273 0 0 0 1.555-.676c.473-.27.879-.54 1.15-.811.337-.203.608-.473.81-.676h.136v2.907c-.406.202-.744.338-1.082.54-.405.136-.811.338-1.284.474-.541.202-1.014.338-1.487.405a10.86 10.86 0 0 1-1.758.135zm13.587-2.5c-.54.337-1.217.472-1.893.472-.879 0-1.487-.202-1.96-.608-.406-.405-.608-.946-.608-1.757 0-.676.202-1.217.54-1.623.406-.338.947-.676 1.555-.81.473-.204 1.15-.271 1.96-.406a56.208 56.208 0 0 0 2.096-.203v3.785c-.541.473-1.082.811-1.69 1.15zm1.69 2.162h2.23v-9.26c0-.879-.067-1.555-.338-2.163-.202-.609-.608-1.082-1.081-1.42-.54-.405-1.082-.676-1.758-.81-.608-.136-1.42-.204-2.365-.204a13.2 13.2 0 0 0-2.299.203c-.81.135-1.42.27-1.825.406v2.298h.135c.676-.27 1.42-.54 2.096-.676.743-.135 1.352-.203 1.893-.203.405 0 .878 0 1.284.068a4.08 4.08 0 0 1 1.081.338c.27.203.541.473.676.81.136.271.27.744.27 1.285v.406a43.917 43.917 0 0 0-3.379.338 7.936 7.936 0 0 0-2.704.676c-.811.405-1.487.946-1.892 1.554-.338.676-.541 1.487-.541 2.434 0 .608.067 1.217.338 1.757.203.541.473 1.014.81 1.352.406.406.88.676 1.353.879a4.01 4.01 0 0 0 1.554.338c.676 0 1.217-.068 1.623-.203.338-.067.743-.27 1.149-.473.27-.135.608-.338.946-.54.27-.271.541-.474.744-.61v1.42zm12.64-11.085h-.135c-.135-.068-.338-.068-.54-.068h-.677c-.608 0-1.217.135-1.825.406-.608.202-1.149.608-1.69 1.149v9.598h-2.298V18.656h2.298v1.96c.811-.675 1.555-1.216 2.163-1.554a4.461 4.461 0 0 1 1.825-.406h.473c.136 0 .27 0 .406.068v2.366zm8.111 8.45c-.608.27-1.216.337-1.825.337-1.149 0-1.96-.405-2.433-1.149-.54-.811-.811-1.96-.811-3.447 0-1.623.338-2.84 1.014-3.718.676-.879 1.554-1.284 2.771-1.284.473 0 .947.067 1.42.202.473.068 1.014.27 1.554.609v7.435c-.473.473-1.081.744-1.69 1.014zm-6.15 4.866v2.366c.608.135 1.284.27 1.96.405.676.136 1.42.136 2.095.136 2.028 0 3.583-.541 4.597-1.623 1.013-1.014 1.487-2.704 1.487-5.002V18.656h-2.163l-.136.541c-.473-.27-1.014-.54-1.554-.676-.473-.203-1.082-.27-1.825-.27-.744 0-1.487.135-2.163.473-.676.338-1.285.743-1.826 1.352-.54.608-.946 1.352-1.284 2.23-.27.88-.473 1.893-.473 2.975 0 2.163.473 3.853 1.42 5.002.878 1.149 2.163 1.69 3.65 1.69.946 0 1.69-.136 2.23-.338.609-.27 1.217-.676 1.825-1.217v1.217c0 .54 0 1.014-.135 1.487-.135.405-.27.81-.54 1.149-.271.338-.677.54-1.15.743-.473.203-1.081.27-1.825.27-.405 0-.81 0-1.149-.067-.338-.067-.743-.135-1.149-.27-.406-.068-.744-.203-1.082-.27a4.66 4.66 0 0 0-.675-.271h-.136zm21.292-5.137c-.676.878-1.555 1.284-2.772 1.284-1.149 0-2.095-.406-2.703-1.284-.676-.879-1.014-2.163-1.014-3.853 0-1.758.338-3.042 1.014-3.92.608-.812 1.554-1.217 2.703-1.217 1.217 0 2.096.405 2.772 1.216.608.879.946 2.163.946 3.92 0 1.758-.338 3.043-.946 3.854zm1.69-9.126c-1.15-1.284-2.569-1.892-4.462-1.892-1.825 0-3.244.608-4.393 1.892-1.082 1.217-1.623 2.975-1.623 5.273 0 2.23.541 3.92 1.623 5.205 1.081 1.284 2.568 1.96 4.393 1.96 1.893 0 3.313-.608 4.462-1.893 1.081-1.216 1.622-2.974 1.622-5.272s-.54-4.056-1.622-5.273z" fill="#AFC0D5" fill-rule="evenodd"/></svg>