<?xml version="1.0" encoding="UTF-8"?>
<svg width="22px" height="22px" viewBox="0 0 22 22" version="1.1" xmlns="http://www.w3.org/2000/svg" xmlns:xlink="http://www.w3.org/1999/xlink">
    <!-- Generator: Sketch 47 (45396) - http://www.bohemiancoding.com/sketch -->
    <title>Shape</title>
    <desc>Created with Sketch.</desc>
    <defs></defs>
    <g id="Page-1" stroke="none" stroke-width="1" fill="none" fill-rule="evenodd">
        <g id="Large-Device_TourPage_design" transform="translate(-468.000000, -418.000000)" fill-rule="nonzero" fill="#2D80EB">
            <g id="Group" transform="translate(78.000000, 416.000000)">
                <g id="Stars" transform="translate(390.000000, 1.399994)">
                    <path d="M17.3350444,21.6515431 C17.5431352,21.6574694 17.7435155,21.5724014 17.8840823,21.4184584 C18.0246491,21.2645154 18.0915133,21.0569083 18.0672889,20.8496191 L17.2974897,14.2122715 L21.8112516,9.29542588 C21.9857478,9.1048455 22.0445964,8.83493987 21.9653312,8.58874765 C21.8860661,8.34255543 21.6809233,8.15808084 21.4282177,8.10574856 L14.890402,6.78806478 L11.6233599,0.96390282 C11.4960292,0.738980753 11.2579638,0.600006104 11,0.600006104 C10.7420362,0.600006104 10.5039708,0.738980753 10.3766401,0.96390282 L7.10959801,6.78806478 L0.571782269,8.10574856 C0.319076742,8.15808084 0.113933945,8.34255543 0.0346687937,8.58874765 C-0.0445963572,8.83493987 0.0142521516,9.1048455 0.188748428,9.29542588 L4.7025103,14.2122715 L3.93268715,20.8496191 C3.90371989,21.1069562 4.01510608,21.360014 4.22424551,21.5120091 C4.43338494,21.6640043 4.70792264,21.6914224 4.94286027,21.5837773 L11,18.8015733 L17.0571397,21.5837773 C17.1442931,21.6248538 17.2388093,21.6479012 17.3350444,21.6515431 Z M16.4976228,19.7502955 L11.3004135,17.3558855 C11.1098027,17.2676689 10.8901973,17.2676689 10.6995865,17.3558855 L5.5023772,19.7502955 L6.16329177,14.0503797 C6.1872002,13.8430892 6.12005058,13.6356168 5.97929775,13.4818927 L2.10391764,9.26153099 L7.71418056,8.13586645 C7.91807281,8.09350123 8.09351066,7.96433724 8.19485658,7.78197457 L11,2.78230533 L13.8051434,7.78197457 C13.9064893,7.96433724 14.0819272,8.09350123 14.2858194,8.13586645 L19.8960824,9.26153099 L16.0207262,13.4818927 C15.8799647,13.6356127 15.8128062,13.8430856 15.8367082,14.0503797 L16.4976228,19.7502955 L16.4976228,19.7502955 Z" id="Shape"></path>
                </g>
            </g>
        </g>
    </g>
</svg>