<svg width="10px" height="18px" viewBox="0 0 10 18" version="1.1" xmlns="http://www.w3.org/2000/svg" xmlns:xlink="http://www.w3.org/1999/xlink">
    <g id="Page-1" stroke="none" stroke-width="1" fill="none" fill-rule="evenodd">
        <g id="Large-Device_CountryPage_design-Copy" transform="translate(-723.000000, -2479.000000)" fill="#2D80EB">
            <g id="Group-2" transform="translate(0.000000, 2380.000000)">
                <g id="Group-16" transform="translate(567.000000, 94.000000)">
                    <g id="Group-15">
                        <g id="Group-9">
                            <path d="M165.660538,13.7452935 C165.700507,13.5404298 165.641145,13.3200224 165.482453,13.1613307 L165.482453,13.1613307 L157.592065,5.27094243 L157.592065,5.27094243 C157.338535,5.0174129 156.927483,5.0174129 156.673953,5.27094243 C156.420424,5.52447197 156.420424,5.93552457 156.673953,6.1890541 L156.673953,6.1890541 L164.230192,13.7452935 L156.536291,21.4391951 C156.282761,21.6927246 156.282761,22.1037772 156.536291,22.3573068 L156.536291,22.3573068 L156.536291,22.3573068 C156.78982,22.6108363 157.200873,22.6108363 157.454403,22.3573068 L157.454403,22.3573068 L165.482453,14.3292563 C165.641145,14.1705646 165.700507,13.9501572 165.660538,13.7452935 Z" id="Combined-Shape-Copy-2"></path>
                        </g>
                    </g>
                </g>
            </g>
        </g>
    </g>
</svg>