<?xml version="1.0" encoding="UTF-8"?>
<svg width="12px" height="6px" viewBox="0 0 12 6" version="1.1" xmlns="http://www.w3.org/2000/svg" xmlns:xlink="http://www.w3.org/1999/xlink">
    <!-- Generator: Sketch 47 (45396) - http://www.bohemiancoding.com/sketch -->
    <title>Combined Shape</title>
    <desc>Created with Sketch.</desc>
    <defs></defs>
    <g id="Page-1" stroke="none" stroke-width="1" fill="none" fill-rule="evenodd">
        <g id="FORMA_Various" transform="translate(-878.000000, -410.000000)" fill="#4F9CFF">
            <g id="Vse_slozhno" transform="translate(78.000000, 287.000000)">
                <g id="Ticket_form_first_view-Copy" transform="translate(2.000000, 45.000000)">
                    <g id="Passangers_dropdown" transform="translate(660.000000, 0.000000)">
                        <g id="Age_passangers" transform="translate(12.000000, 52.000000)">
                            <g id="Group-14" transform="translate(126.000000, 1.000000)">
                                <path d="M8.15362862,27.1897919 L4.01675995,23.0529232 L4.01675995,23.0529232 C3.78592591,22.8220892 3.41166998,22.8220892 3.18083594,23.0529232 L3.18083594,23.0529232 L3.18083594,23.0529232 C2.9500019,23.2837573 2.9500019,23.6580132 3.18083594,23.8888472 L7.29198871,28 L3.18083594,32.1111528 C2.9500019,32.3419868 2.9500019,32.7162427 3.18083594,32.9470768 L3.18083594,32.9470768 L3.18083594,32.9470768 C3.41166998,33.1779108 3.78592591,33.1779108 4.01675995,32.9470768 L8.15362862,28.8102081 C8.37202332,28.9108806 8.63918701,28.8712284 8.81916406,28.6912513 C9.00627058,28.5041448 9.04171468,28.2228074 8.92549637,28 C9.04171468,27.7771926 9.00627058,27.4958552 8.81916406,27.3087487 C8.63918701,27.1287716 8.37202332,27.0891194 8.15362862,27.1897919 Z" id="Combined-Shape" transform="translate(6.000000, 28.000000) rotate(90.000000) translate(-6.000000, -28.000000) "></path>
                            </g>
                        </g>
                    </g>
                </g>
            </g>
        </g>
    </g>
</svg>