<svg width="12px" height="6px" viewBox="0 0 12 6" version="1.1" xmlns="http://www.w3.org/2000/svg" xmlns:xlink="http://www.w3.org/1999/xlink">
    <g id="Page-1" stroke="none" stroke-width="1" fill="none" fill-rule="evenodd">
        <g id="FORMA_Various" transform="translate(-878.000000, -385.000000)" fill="#4F9CFF">
            <g id="Vse_slozhno" transform="translate(78.000000, 287.000000)">
                <g id="Ticket_form_first_view-Copy" transform="translate(2.000000, 45.000000)">
                    <g id="Passangers_dropdown" transform="translate(660.000000, 0.000000)">
                        <g id="Age_passangers" transform="translate(12.000000, 52.000000)">
                            <g id="Group-14" transform="translate(126.000000, 1.000000)">
                                <path d="M8.15362862,2.18979188 L4.01675995,-1.94707679 L4.01675995,-1.94707679 C3.78592591,-2.17791083 3.41166998,-2.17791083 3.18083594,-1.94707679 L3.18083594,-1.94707679 L3.18083594,-1.94707679 C2.9500019,-1.71624275 2.9500019,-1.34198682 3.18083594,-1.11115278 L7.29198871,3 L3.18083594,7.11115278 C2.9500019,7.34198682 2.9500019,7.71624275 3.18083594,7.94707679 L3.18083594,7.94707679 L3.18083594,7.94707679 C3.41166998,8.17791083 3.78592591,8.17791083 4.01675995,7.94707679 L4.01675995,7.94707679 L8.15362862,3.81020812 C8.37202332,3.91088065 8.63918701,3.87122839 8.81916406,3.69125134 C9.00627058,3.50414482 9.04171468,3.22280737 8.92549637,3 C9.04171468,2.77719263 9.00627058,2.49585518 8.81916406,2.30874866 L8.81916406,2.30874866 C8.63918701,2.12877161 8.37202332,2.08911935 8.15362862,2.18979188 Z" id="Combined-Shape-Copy-2" transform="translate(6.000000, 3.000000) scale(1, -1) rotate(90.000000) translate(-6.000000, -3.000000) "></path>
                            </g>
                        </g>
                    </g>
                </g>
            </g>
        </g>
    </g>
</svg>