<svg width="20px" height="20px" viewBox="0 0 20 20" version="1.1" xmlns="http://www.w3.org/2000/svg" xmlns:xlink="http://www.w3.org/1999/xlink">
    <g id="Page-1" stroke="none" stroke-width="1" fill="none" fill-rule="evenodd">
        <g id="Large-Device_TourPage_design" transform="translate(-470.000000, -456.000000)" fill-rule="nonzero" fill="#2D80EB">
            <g id="Group" transform="translate(78.000000, 416.000000)">
                <g id="landshaft" transform="translate(392.000000, 39.399994)">
                    <path d="M14.3749114,5.11593811 L12.523308,1.87546038 C12.4699124,1.78201808 12.2358131,1.78201808 12.1824414,1.87541865 L10.633537,4.58651553 L12.5014987,6.45447718 L14.3749114,5.11593811 Z M12.3744229,7.99118209 L9.16630612,4.7830653 L9.38916646,4.39298572 L11.160955,1.29176751 C11.6659908,0.407954915 13.0397347,0.407954915 13.5447771,1.29177917 L15.9237552,5.45521135 L12.3744229,7.99118209 Z M5.90832283,12.8555966 C5.87335731,12.9168357 5.87357297,12.9911278 5.90842683,13.0510998 C5.94375584,13.1115482 6.0087967,13.1490257 6.07827451,13.1490257 L18.6272941,13.1490257 C18.6974461,13.1490257 18.7620377,13.1118383 18.7967264,13.0518157 C18.8319947,12.9909335 18.8322104,12.9166377 18.797343,12.8557668 L15.7438056,7.511899 L13.1503754,9.36416305 C12.9154229,9.53198628 12.6372849,9.61961395 12.3527843,9.61961395 C11.9908987,9.61961395 11.6424263,9.47761687 11.3823293,9.2175199 L9.22180767,7.05699822 L5.90832283,12.8555966 Z M4.89197729,13.6434775 C4.64541022,13.2192203 4.64389561,12.697435 4.88675894,12.2720812 L8.96454527,5.13595516 L12.2142197,8.38562957 C12.251939,8.4233489 12.3005162,8.44314336 12.3527843,8.44314336 C12.3940725,8.44314336 12.4328144,8.43093766 12.4665885,8.40681331 L16.1194101,5.79791712 L16.4423433,6.36306893 L19.8185045,12.2715477 C20.061674,12.696064 20.0601593,13.2178464 19.815026,13.6410088 C19.5701919,14.0646544 19.1171307,14.3254963 18.6272941,14.3254963 L6.07827451,14.3254963 C5.58990006,14.3254963 5.1385774,14.0654377 4.89197729,13.6434775 Z M18.627451,19.0313787 L17.0588235,19.0313787 C16.9503333,19.0313787 16.8627451,19.1190273 16.8627451,19.2274571 C16.8627451,19.3358868 16.9503333,19.4235355 17.0588235,19.4235355 L18.627451,19.4235355 C18.7359413,19.4235355 18.8235294,19.3358868 18.8235294,19.2274571 C18.8235294,19.1190273 18.7359413,19.0313787 18.627451,19.0313787 Z M18.627451,17.8549081 C19.38587,17.8549081 20,18.4694624 20,19.2274571 C20,19.9854517 19.38587,20.6000061 18.627451,20.6000061 L17.0588235,20.6000061 C16.3004045,20.6000061 15.6862745,19.9854517 15.6862745,19.2274571 C15.6862745,18.4694624 16.3004045,17.8549081 17.0588235,17.8549081 L18.627451,17.8549081 Z M17.254902,16.0902022 C17.254902,15.9817724 17.1673138,15.8941238 17.0588235,15.8941238 L15.4901961,15.8941238 C15.3817058,15.8941238 15.2941176,15.9817724 15.2941176,16.0902022 C15.2941176,16.1986319 15.3817058,16.2862806 15.4901961,16.2862806 L17.0588235,16.2862806 C17.1673138,16.2862806 17.254902,16.1986319 17.254902,16.0902022 Z M18.4313725,16.0902022 C18.4313725,16.8481968 17.8172426,17.4627512 17.0588235,17.4627512 L15.4901961,17.4627512 C14.731777,17.4627512 14.1176471,16.8481968 14.1176471,16.0902022 C14.1176471,15.3322075 14.731777,14.7176532 15.4901961,14.7176532 L17.0588235,14.7176532 C17.8172426,14.7176532 18.4313725,15.3322075 18.4313725,16.0902022 Z M13.9215686,19.0313787 L12.3529412,19.0313787 C12.2444509,19.0313787 12.1568627,19.1190273 12.1568627,19.2274571 C12.1568627,19.3358868 12.2444509,19.4235355 12.3529412,19.4235355 L13.9215686,19.4235355 C14.0300589,19.4235355 14.1176471,19.3358868 14.1176471,19.2274571 C14.1176471,19.1190273 14.0300589,19.0313787 13.9215686,19.0313787 Z M13.9215686,17.8549081 C14.6799877,17.8549081 15.2941176,18.4694624 15.2941176,19.2274571 C15.2941176,19.9854517 14.6799877,20.6000061 13.9215686,20.6000061 L12.3529412,20.6000061 C11.5945221,20.6000061 10.9803922,19.9854517 10.9803922,19.2274571 C10.9803922,18.4694624 11.5945221,17.8549081 12.3529412,17.8549081 L13.9215686,17.8549081 Z M12.5490196,16.0902022 C12.5490196,15.9817724 12.4614315,15.8941238 12.3529412,15.8941238 L10.7843137,15.8941238 C10.6758235,15.8941238 10.5882353,15.9817724 10.5882353,16.0902022 C10.5882353,16.1986319 10.6758235,16.2862806 10.7843137,16.2862806 L12.3529412,16.2862806 C12.4614315,16.2862806 12.5490196,16.1986319 12.5490196,16.0902022 Z M13.7254902,16.0902022 C13.7254902,16.8481968 13.1113602,17.4627512 12.3529412,17.4627512 L10.7843137,17.4627512 C10.0258947,17.4627512 9.41176471,16.8481968 9.41176471,16.0902022 C9.41176471,15.3322075 10.0258947,14.7176532 10.7843137,14.7176532 L12.3529412,14.7176532 C13.1113602,14.7176532 13.7254902,15.3322075 13.7254902,16.0902022 Z M9.21568627,19.0313787 L7.64705882,19.0313787 C7.53856855,19.0313787 7.45098039,19.1190273 7.45098039,19.2274571 C7.45098039,19.3358868 7.53856855,19.4235355 7.64705882,19.4235355 L9.21568627,19.4235355 C9.32417655,19.4235355 9.41176471,19.3358868 9.41176471,19.2274571 C9.41176471,19.1190273 9.32417655,19.0313787 9.21568627,19.0313787 Z M9.21568627,17.8549081 C9.97410533,17.8549081 10.5882353,18.4694624 10.5882353,19.2274571 C10.5882353,19.9854517 9.97410533,20.6000061 9.21568627,20.6000061 L7.64705882,20.6000061 C6.88863977,20.6000061 6.2745098,19.9854517 6.2745098,19.2274571 C6.2745098,18.4694624 6.88863977,17.8549081 7.64705882,17.8549081 L9.21568627,17.8549081 Z M7.84313725,16.0902022 C7.84313725,15.9817724 7.7555491,15.8941238 7.64705882,15.8941238 L6.07843137,15.8941238 C5.9699411,15.8941238 5.88235294,15.9817724 5.88235294,16.0902022 C5.88235294,16.1986319 5.9699411,16.2862806 6.07843137,16.2862806 L7.64705882,16.2862806 C7.7555491,16.2862806 7.84313725,16.1986319 7.84313725,16.0902022 Z M9.01960784,16.0902022 C9.01960784,16.8481968 8.40547788,17.4627512 7.64705882,17.4627512 L6.07843137,17.4627512 C5.32001232,17.4627512 4.70588235,16.8481968 4.70588235,16.0902022 C4.70588235,15.3322075 5.32001232,14.7176532 6.07843137,14.7176532 L7.64705882,14.7176532 C8.40547788,14.7176532 9.01960784,15.3322075 9.01960784,16.0902022 Z M4.50980392,19.0313787 L2.94117647,19.0313787 C2.8326862,19.0313787 2.74509804,19.1190273 2.74509804,19.2274571 C2.74509804,19.3358868 2.8326862,19.4235355 2.94117647,19.4235355 L4.50980392,19.4235355 C4.6182942,19.4235355 4.70588235,19.3358868 4.70588235,19.2274571 C4.70588235,19.1190273 4.6182942,19.0313787 4.50980392,19.0313787 Z M4.50980392,17.8549081 C5.26822297,17.8549081 5.88235294,18.4694624 5.88235294,19.2274571 C5.88235294,19.9854517 5.26822297,20.6000061 4.50980392,20.6000061 L2.94117647,20.6000061 C2.18275742,20.6000061 1.56862745,19.9854517 1.56862745,19.2274571 C1.56862745,18.4694624 2.18275742,17.8549081 2.94117647,17.8549081 L4.50980392,17.8549081 Z M3.1372549,16.0902022 C3.1372549,15.9817724 3.04966675,15.8941238 2.94117647,15.8941238 L1.37254902,15.8941238 C1.26405874,15.8941238 1.17647059,15.9817724 1.17647059,16.0902022 C1.17647059,16.1986319 1.26405874,16.2862806 1.37254902,16.2862806 L2.94117647,16.2862806 C3.04966675,16.2862806 3.1372549,16.1986319 3.1372549,16.0902022 Z M4.31372549,16.0902022 C4.31372549,16.8481968 3.69959552,17.4627512 2.94117647,17.4627512 L1.37254902,17.4627512 C0.614129968,17.4627512 0,16.8481968 0,16.0902022 C0,15.3322075 0.614129968,14.7176532 1.37254902,14.7176532 L2.94117647,14.7176532 C3.69959552,14.7176532 4.31372549,15.3322075 4.31372549,16.0902022 Z M3.7254902,6.87451591 C5.13081289,6.87451591 6.2745098,5.730819 6.2745098,4.3254963 C6.2745098,2.9201736 5.13081289,1.77647669 3.7254902,1.77647669 C2.3201675,1.77647669 1.17647059,2.9201736 1.17647059,4.3254963 C1.17647059,5.730819 2.3201675,6.87451591 3.7254902,6.87451591 Z M3.7254902,8.0509865 C1.67042074,8.0509865 0,6.38056576 0,4.3254963 C0,2.27042684 1.67042074,0.600006104 3.7254902,0.600006104 C5.78055966,0.600006104 7.45098039,2.27042684 7.45098039,4.3254963 C7.45098039,6.38056576 5.78055966,8.0509865 3.7254902,8.0509865 Z" id="Combined-Shape"></path>
                </g>
            </g>
        </g>
    </g>
</svg>