<svg width="20px" height="23px" viewBox="0 0 20 23" version="1.1" xmlns="http://www.w3.org/2000/svg" xmlns:xlink="http://www.w3.org/1999/xlink">
    <g id="Page-1" stroke="none" stroke-width="1" fill="none" fill-rule="evenodd">
        <g id="Large-Device_TourPage_design" transform="translate(-78.000000, -416.000000)" fill-rule="nonzero" fill="#2D80EB">
            <g id="Group" transform="translate(78.000000, 416.000000)">
                <g id="Termin" transform="translate(0.000000, 0.399994)">
                    <g id="Date_icon">
                        <path d="M5.74587748,0.219937894 C5.36098617,0.219937894 5.05857156,0.522352499 5.05857156,0.907243813 L5.05857156,2.28185565 L4.70117249,2.28185565 C2.22687118,2.28185565 0.219937894,4.28878894 0.219937894,6.76309024 L0.219937894,17.8149694 C0.219937894,20.2892707 2.22687118,22.296204 4.70117249,22.296204 L15.0657457,22.296204 C17.5400471,22.296204 19.5469803,20.2892707 19.5469803,17.8149694 L19.5469803,6.79058248 C19.5469803,4.31628117 17.5400471,2.30934789 15.0657457,2.30934789 L14.7083467,2.30934789 L14.7083467,0.93473605 C14.7083467,0.549844735 14.4059321,0.247430131 14.0210407,0.247430131 C13.6361494,0.247430131 13.3337348,0.549844735 13.3337348,0.93473605 L13.3337348,2.30934789 L6.4331834,2.30934789 L6.4331834,0.93473605 C6.4331834,0.522352499 6.1307688,0.219937894 5.74587748,0.219937894 Z M15.0657457,20.9490844 L4.72866472,20.9490844 C3.02414604,20.9490844 1.62204197,19.5469803 1.62204197,17.8424617 L1.62204197,9.18240708 L18.1998607,9.18240708 L18.1998607,17.8149694 C18.1998607,19.5469803 16.7977567,20.9490844 15.0657457,20.9490844 Z M13.3612271,3.65646749 L13.3612271,5.03107933 C13.3612271,5.41597064 13.6636417,5.71838525 14.048533,5.71838525 C14.4334243,5.71838525 14.7358389,5.41597064 14.7358389,5.03107933 L14.7358389,3.65646749 L15.093238,3.65646749 C16.7977567,3.65646749 18.1998607,5.05857156 18.1998607,6.76309024 L18.1998607,7.80779524 L1.59454973,7.80779524 L1.59454973,6.76309024 C1.59454973,5.05857156 2.99665381,3.65646749 4.70117249,3.65646749 L5.05857156,3.65646749 L5.05857156,5.03107933 C5.05857156,5.41597064 5.36098617,5.71838525 5.74587748,5.71838525 C6.1307688,5.71838525 6.4331834,5.41597064 6.4331834,5.03107933 L6.4331834,3.65646749 L13.3612271,3.65646749 Z" id="Shape"></path>
                        <path d="M7.58785735,11.2168326 L6.70810577,11.2168326 C6.32321446,11.2168326 6.02079985,11.5192472 6.02079985,11.9041385 C6.02079985,12.2890298 6.32321446,12.5914444 6.70810577,12.5914444 L7.58785735,12.5914444 C7.97274866,12.5914444 8.27516327,12.2890298 8.27516327,11.9041385 C8.27516327,11.5192472 7.97274866,11.2168326 7.58785735,11.2168326 Z" id="Shape"></path>
                        <path d="M10.337081,11.2168326 L9.45732945,11.2168326 C9.07243813,11.2168326 8.77002353,11.5192472 8.77002353,11.9041385 C8.77002353,12.2890298 9.07243813,12.5914444 9.45732945,12.5914444 L10.337081,12.5914444 C10.7219723,12.5914444 11.0243869,12.2890298 11.0243869,11.9041385 C11.0243869,11.5192472 10.7219723,11.2168326 10.337081,11.2168326 Z" id="Shape"></path>
                        <path d="M13.0863047,11.2168326 L12.2065531,11.2168326 C11.8216618,11.2168326 11.5192472,11.5192472 11.5192472,11.9041385 C11.5192472,12.2890298 11.8216618,12.5914444 12.2065531,12.5914444 L13.0863047,12.5914444 C13.471196,12.5914444 13.7736106,12.2890298 13.7736106,11.9041385 C13.7736106,11.5192472 13.471196,11.2168326 13.0863047,11.2168326 Z" id="Shape"></path>
                        <path d="M15.8355284,11.2168326 L14.9557768,11.2168326 C14.5708855,11.2168326 14.2684709,11.5192472 14.2684709,11.9041385 C14.2684709,12.2890298 14.5708855,12.5914444 14.9557768,12.5914444 L15.8355284,12.5914444 C16.2204197,12.5914444 16.5228343,12.2890298 16.5228343,11.9041385 C16.5228343,11.5192472 16.2204197,11.2168326 15.8355284,11.2168326 Z" id="Shape"></path>
                        <path d="M4.83863367,13.9660563 L3.95888209,13.9660563 C3.57399078,13.9660563 3.27157617,14.2684709 3.27157617,14.6533622 C3.27157617,15.0382535 3.57399078,15.3406681 3.95888209,15.3406681 L4.83863367,15.3406681 C5.22352499,15.3406681 5.52593959,15.0382535 5.52593959,14.6533622 C5.52593959,14.2684709 5.22352499,13.9660563 4.83863367,13.9660563 Z" id="Shape"></path>
                        <path d="M7.58785735,13.9660563 L6.70810577,13.9660563 C6.32321446,13.9660563 6.02079985,14.2684709 6.02079985,14.6533622 C6.02079985,15.0382535 6.32321446,15.3406681 6.70810577,15.3406681 L7.58785735,15.3406681 C7.97274866,15.3406681 8.27516327,15.0382535 8.27516327,14.6533622 C8.27516327,14.2684709 7.97274866,13.9660563 7.58785735,13.9660563 Z" id="Shape"></path>
                        <path d="M10.337081,13.9660563 L9.45732945,13.9660563 C9.07243813,13.9660563 8.77002353,14.2684709 8.77002353,14.6533622 C8.77002353,15.0382535 9.07243813,15.3406681 9.45732945,15.3406681 L10.337081,15.3406681 C10.7219723,15.3406681 11.0243869,15.0382535 11.0243869,14.6533622 C11.0243869,14.2684709 10.7219723,13.9660563 10.337081,13.9660563 Z" id="Shape"></path>
                        <path d="M13.0863047,13.9660563 L12.2065531,13.9660563 C11.8216618,13.9660563 11.5192472,14.2684709 11.5192472,14.6533622 C11.5192472,15.0382535 11.8216618,15.3406681 12.2065531,15.3406681 L13.0863047,15.3406681 C13.471196,15.3406681 13.7736106,15.0382535 13.7736106,14.6533622 C13.7736106,14.2684709 13.471196,13.9660563 13.0863047,13.9660563 Z" id="Shape"></path>
                        <path d="M15.8355284,13.9660563 L14.9557768,13.9660563 C14.5708855,13.9660563 14.2684709,14.2684709 14.2684709,14.6533622 C14.2684709,15.0382535 14.5708855,15.3406681 14.9557768,15.3406681 L15.8355284,15.3406681 C16.2204197,15.3406681 16.5228343,15.0382535 16.5228343,14.6533622 C16.5228343,14.2684709 16.2204197,13.9660563 15.8355284,13.9660563 Z" id="Shape"></path>
                        <path d="M4.83863367,16.71528 L3.95888209,16.71528 C3.57399078,16.71528 3.27157617,17.0176946 3.27157617,17.4025859 C3.27157617,17.7874772 3.57399078,18.0898918 3.95888209,18.0898918 L4.83863367,18.0898918 C5.22352499,18.0898918 5.52593959,17.7874772 5.52593959,17.4025859 C5.52593959,17.0176946 5.22352499,16.71528 4.83863367,16.71528 Z" id="Shape"></path>
                        <path d="M7.58785735,16.71528 L6.70810577,16.71528 C6.32321446,16.71528 6.02079985,17.0176946 6.02079985,17.4025859 C6.02079985,17.7874772 6.32321446,18.0898918 6.70810577,18.0898918 L7.58785735,18.0898918 C7.97274866,18.0898918 8.27516327,17.7874772 8.27516327,17.4025859 C8.27516327,17.0176946 7.97274866,16.71528 7.58785735,16.71528 Z" id="Shape"></path>
                        <path d="M10.337081,16.71528 L9.45732945,16.71528 C9.07243813,16.71528 8.77002353,17.0176946 8.77002353,17.4025859 C8.77002353,17.7874772 9.07243813,18.0898918 9.45732945,18.0898918 L10.337081,18.0898918 C10.7219723,18.0898918 11.0243869,17.7874772 11.0243869,17.4025859 C11.0243869,17.0176946 10.7219723,16.71528 10.337081,16.71528 Z" id="Shape"></path>
                    </g>
                </g>
            </g>
        </g>
    </g>
</svg>