<svg width="22px" height="25px" viewBox="0 0 22 25" version="1.1" xmlns="http://www.w3.org/2000/svg" xmlns:xlink="http://www.w3.org/1999/xlink">
    <g id="Page-1" stroke="none" stroke-width="1" fill="none" fill-rule="evenodd">
        <g id="Large-Device_CountryPage_design" transform="translate(-77.000000, -254.000000)" fill="#FFFFFF" fill-rule="nonzero" stroke="#FFFFFF" stroke-width="0.4">
            <g id="Group" transform="translate(78.000000, 254.000000)">
                <g id="Termin" transform="translate(0.000000, 0.399994)">
                    <g id="Capital" transform="translate(0.000000, 0.600006)">
                        <path d="M20,23 L12.3076923,23 L12.3076923,16.1 C12.3076923,14.9162667 11.11,14.1833333 10,14.1833333 C8.89,14.1833333 7.69230769,14.9162667 7.69230769,16.1 L7.69230769,23 L0,23 L0,10.35 L20,10.35 L20,23 Z M13.0769231,22.2333333 L19.2307692,22.2333333 L19.2307692,11.1166667 L0.769230769,11.1166667 L0.769230769,22.2333333 L6.92307692,22.2333333 L6.92307692,16.1 C6.92307692,14.4202333 8.48730769,13.4166667 10,13.4166667 C11.5126923,13.4166667 13.0769231,14.4202333 13.0769231,16.1 L13.0769231,22.2333333 Z" id="Shape"></path>
                        <path d="M1.15384615,8.05 L18.8461538,8.05 L18.8461538,11.1166667 L1.15384615,11.1166667 L1.15384615,8.05 Z M1.92307692,10.35 L18.0769231,10.35 L18.0769231,8.81666667 L1.92307692,8.81666667 L1.92307692,10.35 Z" id="Shape"></path>
                        <polygon id="Shape" points="9.61538462 0 10.3846154 0 10.3846154 3.83333333 9.61538462 3.83333333"></polygon>
                        <polygon id="Shape" points="10 0 13.4615385 0 13.4615385 2.3 10 2.3"></polygon>
                        <path d="M17.0611538,8.81666667 L2.93884615,8.81666667 L3.12038462,8.3053 C4.15153846,5.40116667 6.91653846,3.45 10,3.45 C13.0834615,3.45 15.8484615,5.40116667 16.8796154,8.3053 L17.0611538,8.81666667 Z M4.05192308,8.05 L15.9480769,8.05 C14.8984615,5.7362 12.5730769,4.21666667 10,4.21666667 C7.42692308,4.21666667 5.10153846,5.7362 4.05192308,8.05 Z" id="Shape"></path>
                        <path d="M2.30769231,23 C2.09538462,23 1.92307692,22.8282667 1.92307692,22.6166667 L1.92307692,21.0833333 C1.92307692,20.8717333 2.09538462,20.7 2.30769231,20.7 C2.52,20.7 2.69230769,20.8717333 2.69230769,21.0833333 L2.69230769,22.6166667 C2.69230769,22.8282667 2.52,23 2.30769231,23" id="Shape"></path>
                        <path d="M3.84615385,23 C3.63384615,23 3.46153846,22.8282667 3.46153846,22.6166667 L3.46153846,21.0833333 C3.46153846,20.8717333 3.63384615,20.7 3.84615385,20.7 C4.05846154,20.7 4.23076923,20.8717333 4.23076923,21.0833333 L4.23076923,22.6166667 C4.23076923,22.8282667 4.05846154,23 3.84615385,23" id="Shape"></path>
                        <path d="M5.38461538,23 C5.17230769,23 5,22.8282667 5,22.6166667 L5,21.0833333 C5,20.8717333 5.17230769,20.7 5.38461538,20.7 C5.59692308,20.7 5.76923077,20.8717333 5.76923077,21.0833333 L5.76923077,22.6166667 C5.76923077,22.8282667 5.59692308,23 5.38461538,23" id="Shape"></path>
                        <path d="M14.6153846,23 C14.4030769,23 14.2307692,22.8282667 14.2307692,22.6166667 L14.2307692,21.0833333 C14.2307692,20.8717333 14.4030769,20.7 14.6153846,20.7 C14.8276923,20.7 15,20.8717333 15,21.0833333 L15,22.6166667 C15,22.8282667 14.8276923,23 14.6153846,23" id="Shape"></path>
                        <path d="M16.1538462,23 C15.9415385,23 15.7692308,22.8282667 15.7692308,22.6166667 L15.7692308,21.0833333 C15.7692308,20.8717333 15.9415385,20.7 16.1538462,20.7 C16.3661538,20.7 16.5384615,20.8717333 16.5384615,21.0833333 L16.5384615,22.6166667 C16.5384615,22.8282667 16.3661538,23 16.1538462,23" id="Shape"></path>
                        <path d="M17.6923077,23 C17.48,23 17.3076923,22.8282667 17.3076923,22.6166667 L17.3076923,21.0833333 C17.3076923,20.8717333 17.48,20.7 17.6923077,20.7 C17.9046154,20.7 18.0769231,20.8717333 18.0769231,21.0833333 L18.0769231,22.6166667 C18.0769231,22.8282667 17.9046154,23 17.6923077,23" id="Shape"></path>
                    </g>
                </g>
            </g>
        </g>
    </g>
</svg>