<svg width="24px" height="19px" viewBox="0 0 24 19" version="1.1" xmlns="http://www.w3.org/2000/svg" xmlns:xlink="http://www.w3.org/1999/xlink">
    <g id="Page-1" stroke="none" stroke-width="1" fill="none" fill-rule="evenodd" opacity="0.5">
        <g id="FORMA_Various" transform="translate(-99.000000, -450.000000)" fill-rule="nonzero" fill="#2F2F2F">
            <g id="Vse_slozhno" transform="translate(78.000000, 287.000000)">
                <g id="Group-5" transform="translate(0.000000, 153.000000)">
                    <g id="Company" transform="translate(2.000000, 0.000000)">
                        <path d="M27.1896552,10 C26.4750629,10 25.8793103,10.5957516 25.8793103,11.3103448 L25.8793103,13.2758621 L20.9655172,13.2758621 C19.8879535,13.2758621 19,14.163814 19,15.2413793 L19,27.0344828 C19,28.1120448 19.8879535,29 20.9655172,29 L40.6206897,29 C41.6982534,29 42.5862069,28.1120448 42.5862069,27.0344828 L42.5862069,15.2413793 C42.5862069,14.163814 41.6982534,13.2758621 40.6206897,13.2758621 L35.7068966,13.2758621 L35.7068966,11.3103448 C35.7068966,10.5957516 35.111144,10 34.3965517,10 L27.1896552,10 Z M27.1896552,11.3103448 L34.3965517,11.3103448 L34.3965517,13.2758621 L27.1896552,13.2758621 L27.1896552,11.3103448 Z M20.9655172,14.5862069 L40.6206897,14.5862069 C40.994988,14.5862069 41.2758621,14.8670826 41.2758621,15.2413793 L41.2758621,20.4827586 L33.7413793,20.4827586 L33.7413793,19.8275862 C33.7413432,19.4657594 33.4480337,19.1724499 33.0862069,19.1724138 L28.5,19.1724138 C28.4795371,19.1714536 28.4590405,19.1714536 28.4385776,19.1724138 C28.1009308,19.2042359 27.8433651,19.4884463 27.8448276,19.8275862 L27.8448276,20.4827586 L20.3103448,20.4827586 L20.3103448,15.2413793 C20.3103448,14.8670826 20.5912189,14.5862069 20.9655172,14.5862069 Z M29.1551724,20.4827586 L32.4310345,20.4827586 L32.4310345,21.7931034 L29.1551724,21.7931034 L29.1551724,20.4827586 Z M20.3103448,21.7931034 L27.8448276,21.7931034 L27.8448276,22.4482759 C27.8448637,22.8101027 28.1381732,23.1034122 28.5,23.1034483 L33.0862069,23.1034483 C33.4480337,23.1034122 33.7413432,22.8101027 33.7413793,22.4482759 L33.7413793,21.7931034 L41.2758621,21.7931034 L41.2758621,27.0344828 C41.2758621,27.4087828 40.994988,27.6896552 40.6206897,27.6896552 L20.9655172,27.6896552 C20.5912189,27.6896552 20.3103448,27.4087828 20.3103448,27.0344828 L20.3103448,21.7931034 Z" id="Shape"></path>
                    </g>
                </g>
            </g>
        </g>
    </g>
</svg>