<?xml version="1.0" encoding="UTF-8"?>
<svg width="27px" height="20px" viewBox="0 0 27 20" version="1.1" xmlns="http://www.w3.org/2000/svg" xmlns:xlink="http://www.w3.org/1999/xlink">
    <!-- Generator: Sketch 47 (45396) - http://www.bohemiancoding.com/sketch -->
    <title>Shape</title>
    <desc>Created with Sketch.</desc>
    <defs></defs>
    <g id="Page-1" stroke="none" stroke-width="1" fill="none" fill-rule="evenodd" opacity="0.5">
        <g id="FORMA_Various" transform="translate(-264.000000, -450.000000)" fill-rule="nonzero" fill="#2F2F2F">
            <g id="Vse_slozhno" transform="translate(78.000000, 287.000000)">
                <g id="Group-5" transform="translate(0.000000, 153.000000)">
                    <g id="Class" transform="translate(167.000000, 0.000000)">
                        <path d="M32.2352959,10 C31.1052369,10 30.1764721,10.9287207 30.1764721,12.0588238 C30.1764721,12.6238769 30.4096486,13.1375858 30.7830898,13.5110299 L27.0147069,19.5404396 L22.4650592,17.4999864 C22.5025004,17.3579276 22.5294121,17.2118981 22.5294121,17.0588099 C22.5294121,16.0911627 21.7323532,15.2941184 20.764706,15.2941184 C19.7970589,15.2941184 19,16.0911627 19,17.0588099 C19,17.7557806 19.4181177,18.3630159 20.0110296,18.6488983 L23.4117652,26.5900877 L23.4117652,29.4117646 C23.4117946,29.7197647 23.6920005,29.9999706 24.0000006,30 L40.4705915,30 C40.7785916,29.9999706 41.0587972,29.7197647 41.0588269,29.4117646 L41.0588269,26.5900877 L44.4595633,18.6488983 C45.0524754,18.3630159 45.4705929,17.7557806 45.4705929,17.0588099 C45.4705929,16.0911627 44.6735342,15.2941184 43.7058861,15.2941184 C42.7382386,15.2941184 41.94118,16.0911627 41.94118,17.0588099 C41.94118,17.2118981 41.9679447,17.3579276 42.0055326,17.4999864 L37.4558852,19.5404396 L33.687502,13.5110299 C34.0609432,13.1375858 34.2941197,12.623868 34.2941197,12.0588238 C34.2941197,10.9287354 33.3653843,10 32.2352959,10 L32.2352959,10 Z M32.2352959,11.1764708 C32.7295607,11.1764708 33.117649,11.5645591 33.117649,12.0588238 C33.117649,12.5530886 32.7295607,12.9411769 32.2352959,12.9411769 C31.7410606,12.9411769 31.3529428,12.5530739 31.3529428,12.0588238 C31.3529428,11.5645738 31.7410606,11.1764708 32.2352959,11.1764708 Z M31.8125017,14.0716918 C31.9488547,14.1005153 32.0908547,14.1176477 32.2352959,14.1176477 C32.3847077,14.1177565 32.5305607,14.0953241 32.6580901,14.0716918 L36.7389733,20.6066163 C36.8890616,20.8415575 37.2196496,20.940734 37.4742676,20.8272045 L42.6764742,18.4834571 C42.8194151,18.5873689 42.9751213,18.6739572 43.1452387,18.7316042 L40.0753559,25.8823817 L24.3952359,25.8823817 L21.3253531,18.7316042 C21.4954708,18.6739572 21.651177,18.5873689 21.7941182,18.4834571 L26.9963246,20.8272045 C27.2509422,20.940734 27.5815305,20.8416163 27.7316188,20.6066163 L31.8125017,14.0716918 Z M20.764706,16.4705745 C21.0965296,16.4705745 21.3529414,16.7269863 21.3529414,17.0588099 C21.3529414,17.3906629 21.0965296,17.6470452 20.764706,17.6470452 C20.4328826,17.6470452 20.1764708,17.3906629 20.1764708,17.0588099 C20.1764708,16.7269863 20.4328826,16.4705745 20.764706,16.4705745 Z M43.7058861,16.4705745 C44.0377094,16.4705745 44.2941215,16.7269863 44.2941215,17.0588099 C44.2941215,17.3906629 44.0377094,17.6470452 43.7058861,17.6470452 C43.3740623,17.6470452 43.1176508,17.3906629 43.1176508,17.0588099 C43.1176508,16.7269863 43.3740623,16.4705745 43.7058861,16.4705745 Z M24.588236,27.0588525 L39.8823562,27.0588525 L39.8823562,28.8235292 L24.588236,28.8235292 L24.588236,27.0588525 Z" id="Shape"></path>
                    </g>
                </g>
            </g>
        </g>
    </g>
</svg>