<svg width="24px" height="16px" viewBox="0 0 24 16" version="1.1" xmlns="http://www.w3.org/2000/svg" xmlns:xlink="http://www.w3.org/1999/xlink">
    <g id="Symbols" stroke="none" stroke-width="1" fill="none" fill-rule="evenodd" opacity="0.5">
        <g id="Article_block" transform="translate(-97.000000, -542.000000)" fill-rule="nonzero" fill="#2F2F2F">
            <g transform="translate(0.000000, -1.000000)" id="Article1">
                <g transform="translate(0.000000, 63.000000)">
                    <g id="Group-13" transform="translate(1.000000, 464.000000)">
                        <g id="Group-11" transform="translate(96.000000, 14.000000)">
                            <path d="M23.2046787,8.59880119 L23.2046787,8.59880119 C18.5427006,3.2928185 14.3451244,2.5 12.259165,2.5 C10.1732057,2.5 5.97562944,3.2928185 1.31365141,8.59880119 C0.574336242,9.44340724 0.574336242,10.7048142 1.31365141,11.5494202 C5.97562944,16.8554029 10.1732057,17.6482214 12.259165,17.6482214 C14.3451244,17.6482214 18.5427006,16.8554029 23.2046787,11.5494202 C23.9439938,10.7048142 23.9439938,9.44340724 23.2046787,8.59880119 Z M22.2399545,10.7027208 C20.744119,12.4038168 16.7774607,16.3653436 12.259165,16.3653436 C7.74086933,16.3653436 3.77421108,12.4038168 2.27837554,10.7027208 C1.96339234,10.3428342 1.96339234,9.80538721 2.27837554,9.44550056 C3.77421108,7.74440456 7.74086933,3.78287783 12.259165,3.78287783 C16.7774607,3.78287783 20.744119,7.74440456 22.2399545,9.44550056 L22.2399545,9.44550056 C22.5549377,9.80538721 22.5549377,10.3428342 22.2399545,10.7027208 L22.2399545,10.7027208 Z M12.259165,5.22483251 C9.58436829,5.23898507 7.42615191,7.41630768 7.43557449,10.0911253 C7.44499708,12.7659429 9.61849982,14.9280061 12.2933299,14.9233135 C14.96816,14.918621 17.1340633,12.7489449 17.1341008,10.0741107 C17.1307029,8.78459836 16.615185,7.54925142 15.7009562,6.63983438 C14.7867275,5.73041734 13.5486773,5.22142561 12.259165,5.22483251 L12.259165,5.22483251 Z M12.259165,13.6405111 C10.2928986,13.6263649 8.70904924,12.0234235 8.7184631,10.0571286 C8.72787697,8.09083381 10.3270019,6.50313123 12.2933136,6.50781274 C14.2596254,6.51249424 15.8511721,8.10779334 15.851223,10.0741107 C15.8485073,11.0235943 15.4683673,11.9330339 14.7945761,12.6020123 C14.120785,13.2709907 13.2086437,13.6446017 12.259165,13.6405111 L12.259165,13.6405111 Z" id="Shape"></path>
                        </g>
                    </g>
                </g>
            </g>
        </g>
    </g>
</svg>