<?xml version="1.0" encoding="UTF-8"?>
<svg width="13px" height="22px" viewBox="0 0 13 22" version="1.1" xmlns="http://www.w3.org/2000/svg" xmlns:xlink="http://www.w3.org/1999/xlink">
    <!-- Generator: Sketch 47 (45396) - http://www.bohemiancoding.com/sketch -->
    <title>Shape</title>
    <desc>Created with Sketch.</desc>
    <defs></defs>
    <g id="Symbols" stroke="none" stroke-width="1" fill="none" fill-rule="evenodd">
        <g id="Header" transform="translate(-976.000000, -29.000000)" fill-rule="nonzero" fill="#FFFFFF">
            <g id="Adres_social_tel">
                <g transform="translate(761.000000, 25.000000)">
                    <g id="Social_networks_icon" transform="translate(215.000000, 4.000000)">
                        <path d="M8.26002001,22 L4.15098221,22 C3.73200818,22 3.39237856,21.6515906 3.39237856,21.2217857 L3.39237856,13.9732952 L2.81309643,13.9732952 C1.26198885,13.9732952 0,12.6787363 0,11.0874774 C0,9.49621861 1.26193662,8.20160609 2.81309643,8.20160609 L3.39237856,8.20160609 L3.39237856,5.43962315 C3.39237856,2.44020528 5.77109174,0 8.69492561,0 L10.3938572,0 C11.8308843,0 13,1.19933847 13,2.67351417 C13,4.14763629 11.8308843,5.34702835 10.3938572,5.34702835 L9.70388987,5.34702835 C9.3260245,5.34702835 9.01857142,5.6624294 9.01857142,6.05006296 L9.01857142,8.20171326 L10.1431309,8.20171326 C11.6792994,8.20171326 12.9411838,9.48373331 12.9561229,11.0595061 C12.963488,11.8356306 12.674317,12.5667437 12.1418894,13.1181865 C11.6094617,13.6696293 10.8996452,13.9732952 10.1430787,13.9732952 L9.01857142,13.9732952 L9.01857142,21.2217857 C9.01862366,21.6515906 8.67899404,22 8.26002001,22 Z M4.90969033,20.4435714 L7.5014686,20.4435714 L7.5014686,13.1950273 C7.5014686,12.7652224 7.84109821,12.416813 8.26007224,12.416813 L10.1432354,12.416813 C10.4917449,12.416813 10.818786,12.2769027 11.0639754,12.0228564 C11.309217,11.7688637 11.4424676,11.4320287 11.4390201,11.0745099 C11.4321773,10.3485945 10.8508581,9.75798111 10.1431832,9.75798111 L8.26002001,9.75798111 C7.84104598,9.75798111 7.50141636,9.40957173 7.50141636,8.97976681 L7.50141636,6.04990221 C7.50141636,4.804052 8.48943454,3.79043898 9.70394211,3.79043898 L10.3939094,3.79043898 C10.9943466,3.79043898 11.4828449,3.28936607 11.4828449,2.67335342 C11.4828449,2.05739436 10.9943988,1.55626786 10.3939094,1.55626786 L8.69497784,1.55626786 C6.60773394,1.55626786 4.90963809,3.29826117 4.90963809,5.4394624 L4.90963809,8.97965964 C4.90963809,9.40946456 4.57000848,9.75787394 4.15103445,9.75787394 L2.81314866,9.75787394 C2.09863105,9.75787394 1.51731176,10.3542209 1.51731176,11.0873167 C1.51731176,11.8203053 2.09863105,12.4166523 2.81314866,12.4166523 L4.15103445,12.4166523 C4.57000848,12.4166523 4.90963809,12.7650616 4.90963809,13.1948666 L4.90963809,20.4435714 L4.90969033,20.4435714 Z" id="Shape"></path>
                    </g>
                </g>
            </g>
        </g>
    </g>
</svg>