<svg width="27px" height="24px" viewBox="0 0 27 24" version="1.1" xmlns="http://www.w3.org/2000/svg" xmlns:xlink="http://www.w3.org/1999/xlink">
    <g id="Page-1" stroke="none" stroke-width="1" fill="none" fill-rule="evenodd">
        <g id="Large-Device_TourPage_design" transform="translate(-78.000000, -452.000000)" fill-rule="nonzero" fill="#2D80EB">
            <g id="Group" transform="translate(78.000000, 416.000000)">
                <g id="All-inclusive" transform="translate(0.000000, 35.399994)">
                    <path d="M17.2611111,19.1777778 C17.2611111,20.0355149 16.7049614,20.7868847 15.9277778,21.0257814 L15.9277778,22.2 C15.9277778,23.5272872 14.8828427,24.5722222 13.5555556,24.5722222 L3.77777778,24.5722222 C2.45049062,24.5722222 1.40555556,23.5272872 1.40555556,22.2 L1.40555556,21.0202241 C0.615164596,20.7414304 0.0722222222,20.0233441 0.0722222222,19.1777778 C0.0722222222,18.5017234 0.413085553,17.89006 0.964710329,17.5360104 C1.14273791,13.9185057 4.14281307,11.0277778 7.77777778,11.0277778 L9.55555556,11.0277778 C13.2211826,11.0277778 16.2362394,13.9053197 16.3696557,17.5364445 C16.9333851,17.8951954 17.2611111,18.4735375 17.2611111,19.1777778 Z M16.0722679,17.6259248 C15.9856968,14.1197952 13.086808,11.3277778 9.55555556,11.3277778 L7.77777778,11.3277778 C4.27779112,11.3277778 1.39204886,14.1333605 1.26100575,17.6278433 L1.18669176,17.7517891 C0.685078774,18.0443966 0.372222222,18.5807222 0.372222222,19.1777778 C0.372222222,19.9243101 0.873844643,20.5542546 1.5978805,20.7672063 L1.70555556,20.9111111 L1.70555556,22.2 C1.70555556,23.3616017 2.61617605,24.2722222 3.77777778,24.2722222 L13.5555556,24.2722222 C14.7171573,24.2722222 15.6277778,23.3616017 15.6277778,22.2 L15.6277778,20.9111111 L15.7434219,20.7650985 C16.4442045,20.6002085 16.9611111,19.9390488 16.9611111,19.1777778 C16.9611111,18.5526973 16.6636406,18.0533718 16.1466416,17.7517891 L16.0722679,17.6259248 Z M9.55555556,12.1722222 L7.77777778,12.1722222 C4.91027921,12.1722222 2.50281093,14.3615264 2.1663761,17.2055556 L15.1669572,17.2055556 C14.8305224,14.3615264 12.4230541,12.1722222 9.55555556,12.1722222 Z M7.77777778,11.8722222 L9.55555556,11.8722222 C12.6341549,11.8722222 15.2072066,14.2654369 15.4827355,17.3421763 L15.3333333,17.5055556 L2,17.5055556 L1.85059788,17.3421763 C2.12612677,14.2654369 4.69917841,11.8722222 7.77777778,11.8722222 Z M2.59444444,22.1555556 C2.59444444,22.8282684 3.10506493,23.3388889 3.77777778,23.3388889 L13.5555556,23.3388889 C14.2282684,23.3388889 14.7388889,22.8282684 14.7388889,22.1555556 L14.7388889,21.1055556 L2.59444444,21.1055556 L2.59444444,22.1555556 Z M15.0388889,22.1555556 C15.0388889,22.9939538 14.3939538,23.6388889 13.5555556,23.6388889 L3.77777778,23.6388889 C2.93937951,23.6388889 2.29444444,22.9939538 2.29444444,22.1555556 L2.29444444,20.9555556 L2.44444444,20.8055556 L14.8888889,20.8055556 L15.0388889,20.9555556 L15.0388889,22.1555556 Z M15.3333333,19.8722222 C15.7393795,19.8722222 16.0722222,19.5393795 16.0722222,19.1333333 C16.0722222,18.7272872 15.7393795,18.3944444 15.3333333,18.3944444 L2,18.3944444 C1.59395382,18.3944444 1.26111111,18.7272872 1.26111111,19.1333333 C1.26111111,19.5393795 1.59395382,19.8722222 2,19.8722222 L15.3333333,19.8722222 Z M15.3333333,20.1722222 L2,20.1722222 C1.4282684,20.1722222 0.961111111,19.7050649 0.961111111,19.1333333 C0.961111111,18.5616017 1.4282684,18.0944444 2,18.0944444 L15.3333333,18.0944444 C15.9050649,18.0944444 16.3722222,18.5616017 16.3722222,19.1333333 C16.3722222,19.7050649 15.9050649,20.1722222 15.3333333,20.1722222 Z M20.9555556,8.27222222 L20.8055556,8.42222222 L20.8055556,8.27222222 L20.9555556,8.27222222 Z M25.4444444,8.31666667 C26.2703355,8.31666667 26.9342757,8.99641489 26.8833333,9.75555556 C26.8833333,10.3519441 26.4992263,10.881981 25.9399902,11.1081971 L24.615932,24.4370499 L24.4666667,24.5722222 L17.8888889,24.5722222 L17.7396236,24.4370499 L16.4155653,11.1081971 C15.8563293,10.881981 15.4722222,10.3519441 15.4722222,9.75555556 C15.4722222,8.91715729 16.1171573,8.27222222 16.9555556,8.27222222 L20.8055556,8.27222222 L20.8055556,5.54573479 L17.4210085,1.72163616 L17.4350938,1.50886886 L18.1017604,0.931091082 L18.311912,0.944565995 L22.0008009,5.07789933 L22.0388889,5.17777778 L22.0388889,8.31666667 L25.4444444,8.31666667 Z M25.6507347,10.9851723 L25.7525658,10.8576975 C26.2424432,10.6944051 26.5833333,10.2512479 26.5836656,9.7455777 C26.623195,9.15263579 26.0996903,8.61666667 25.4444444,8.61666667 L21.8888889,8.61666667 L21.7388889,8.46666667 L21.7388889,5.23497931 L18.1865237,1.25461827 L17.7461122,1.63630824 L21.0678804,5.38947495 L21.1055556,5.48888889 L21.1055556,8.42222222 L20.9555556,8.57222222 L16.9555556,8.57222222 C16.2828427,8.57222222 15.7722222,9.08284271 15.7722222,9.75555556 C15.7722222,10.2512479 16.1131124,10.6944051 16.6029897,10.8576975 L16.7048209,10.9851723 L18.0247265,24.2722222 L24.330829,24.2722222 L25.6507347,10.9851723 Z M24.7898074,11.2833333 L17.654637,11.2833333 L18.8690815,23.4277778 L23.575363,23.4277778 L24.7898074,11.2833333 Z M23.7111111,23.7277778 L18.7333333,23.7277778 L18.5840778,23.5927033 L17.3396333,11.1482589 L17.4888889,10.9833333 L24.9555556,10.9833333 L25.1048111,11.1482589 L23.8603667,23.5927033 L23.7111111,23.7277778 Z M25.4444444,10.0944444 C25.6282684,10.0944444 25.7388889,9.98382395 25.7388889,9.8 C25.7388889,9.61617605 25.6282684,9.50555556 25.4444444,9.50555556 L17,9.50555556 C16.816176,9.50555556 16.7055556,9.61617605 16.7055556,9.8 C16.7055556,9.98382395 16.816176,10.0944444 17,10.0944444 L25.4444444,10.0944444 Z M25.4444444,10.3944444 L17,10.3944444 C16.6504906,10.3944444 16.4055556,10.1495094 16.4055556,9.8 C16.4055556,9.45049062 16.6504906,9.20555556 17,9.20555556 L25.4444444,9.20555556 C25.7939538,9.20555556 26.0388889,9.45049062 26.0388889,9.8 C26.0388889,10.1495094 25.7939538,10.3944444 25.4444444,10.3944444 Z M4.19021561,16.0420231 C4.30520165,16.1570091 4.49163086,16.1570091 4.6066169,16.0420231 L4.85803024,15.7906097 C4.97301628,15.6756237 4.97301628,15.4891945 4.85803024,15.3742084 C4.74304419,15.2592224 4.55661498,15.2592224 4.44162894,15.3742084 L4.19021561,15.6256218 C4.07522956,15.7406078 4.07522956,15.927037 4.19021561,16.0420231 Z M4.2294969,15.1620764 C4.46164024,14.9299331 4.83801894,14.9299331 5.07016227,15.1620764 C5.3023056,15.3942197 5.3023056,15.7705984 5.07016227,16.0027418 L4.81874894,16.2541551 C4.58660561,16.4862984 4.2102269,16.4862984 3.97808357,16.2541551 C3.74594024,16.0220118 3.74594024,15.6456331 3.97808357,15.4134897 L4.2294969,15.1620764 Z M6.41257116,13.8478884 C6.29758512,13.9628745 6.29758512,14.1493037 6.41257116,14.2642897 C6.5275572,14.3792758 6.71398642,14.3792758 6.82897246,14.2642897 L7.08038579,14.0128764 C7.19537184,13.8978903 7.19537184,13.7114611 7.08038579,13.5964751 C6.96539975,13.481489 6.77897054,13.481489 6.66398449,13.5964751 L6.41257116,13.8478884 Z M6.20043913,13.6357564 L6.45185246,13.3843431 C6.68399579,13.1521997 7.0603745,13.1521997 7.29251783,13.3843431 C7.52466116,13.6164864 7.52466116,13.9928651 7.29251783,14.2250084 L7.04110449,14.4764218 C6.80896116,14.7085651 6.43258246,14.7085651 6.20043913,14.4764218 C5.9682958,14.2442784 5.9682958,13.8678997 6.20043913,13.6357564 Z M8.19030449,16.0421564 C8.30529054,16.1571424 8.49171975,16.1571424 8.60670579,16.0421564 L8.85811913,15.7907431 C8.97310517,15.675757 8.97310517,15.4893278 8.85811913,15.3743418 C8.74313308,15.2593557 8.55670387,15.2593557 8.44171783,15.3743418 L8.19030449,15.6257551 C8.07531845,15.7407411 8.07531845,15.9271703 8.19030449,16.0421564 Z M8.22958579,15.1622097 C8.46172912,14.9300664 8.83810783,14.9300664 9.07025116,15.1622097 C9.30239449,15.3943531 9.30239449,15.7707318 9.07025116,16.0028751 L8.81883783,16.2542884 C8.5866945,16.4864318 8.21031579,16.4864318 7.97817246,16.2542884 C7.74602913,16.0221451 7.74602913,15.6457664 7.97817246,15.4136231 L8.22958579,15.1622097 Z M12.1903934,16.0422897 C12.3053794,16.1572758 12.4918086,16.1572758 12.6067947,16.0422897 L12.858208,15.7908764 C12.9731941,15.6758903 12.9731941,15.4894611 12.858208,15.3744751 C12.743222,15.259489 12.5567928,15.259489 12.4418067,15.3744751 L12.1903934,15.6258884 C12.0754073,15.7408745 12.0754073,15.9273037 12.1903934,16.0422897 Z M12.2296747,15.1623431 C12.461818,14.9301997 12.8381967,14.9301997 13.0703401,15.1623431 C13.3024834,15.3944864 13.3024834,15.7708651 13.0703401,16.0030084 L12.8189267,16.2544218 C12.5867834,16.4865651 12.2104047,16.4865651 11.9782613,16.2544218 C11.746118,16.0222784 11.746118,15.6458997 11.9782613,15.4137564 L12.2296747,15.1623431 Z M10.4126156,14.2644231 C10.2976296,14.149437 10.2976296,13.9630078 10.4126156,13.8480218 L10.6640289,13.5966084 C10.779015,13.4816224 10.9654442,13.4816224 11.0804302,13.5966084 C11.1954163,13.7115945 11.1954163,13.8980237 11.0804302,14.0130097 L10.8290169,14.2644231 C10.7140309,14.3794091 10.5276016,14.3794091 10.4126156,14.2644231 Z M16.2222222,17.6222222 C16.7555556,17.9333333 17.1111111,18.4666667 17.1111111,19.1777778 C17.1111111,20.0222222 16.5333333,20.7333333 15.7777778,20.9111111 L15.7777778,22.2 C15.7777778,23.4444444 14.8,24.4222222 13.5555556,24.4222222 L3.77777778,24.4222222 C2.53333333,24.4222222 1.55555556,23.4444444 1.55555556,22.2 L1.55555556,20.9111111 C0.8,20.6888889 0.222222222,20.0222222 0.222222222,19.1777778 C0.222222222,18.5111111 0.577777778,17.9333333 1.11111111,17.6222222 C1.24444444,14.0666667 4.17777778,11.1777778 7.77777778,11.1777778 L9.55555556,11.1777778 C13.1555556,11.1777778 16.1333333,14.0222222 16.2222222,17.6222222 Z M10.4518969,13.3844764 C10.6840402,13.1523331 11.0604189,13.1523331 11.2925623,13.3844764 C11.5247056,13.6166197 11.5247056,13.9929984 11.2925623,14.2251418 L11.0411489,14.4765551 C10.8090056,14.7086984 10.4326269,14.7086984 10.2004836,14.4765551 C9.96834024,14.2444118 9.96834024,13.8680331 10.2004836,13.6358897 L10.4518969,13.3844764 Z M7.77777778,12.0222222 C4.75555556,12.0222222 2.26666667,14.3777778 2,17.3555556 L15.3333333,17.3555556 C15.0666667,14.3777778 12.5777778,12.0222222 9.55555556,12.0222222 L7.77777778,12.0222222 Z M14.8888889,22.1555556 L14.8888889,20.9555556 L2.44444444,20.9555556 L2.44444444,22.1555556 C2.44444444,22.9111111 3.02222222,23.4888889 3.77777778,23.4888889 L13.5555556,23.4888889 C14.3111111,23.4888889 14.8888889,22.9111111 14.8888889,22.1555556 Z M15.3333333,20.0222222 C15.8222222,20.0222222 16.2222222,19.6222222 16.2222222,19.1333333 C16.2222222,18.6444444 15.8222222,18.2444444 15.3333333,18.2444444 L2,18.2444444 C1.51111111,18.2444444 1.11111111,18.6444444 1.11111111,19.1333333 C1.11111111,19.6222222 1.51111111,20.0222222 2,20.0222222 L15.3333333,20.0222222 Z M25.4444444,8.46666667 C26.2,8.46666667 26.7777778,9.08888889 26.7333333,9.75555556 C26.7333333,10.3333333 26.3333333,10.8222222 25.8,11 L24.4666667,24.4222222 L17.8888889,24.4222222 L16.5555556,11 C16.0222222,10.8222222 15.6222222,10.3333333 15.6222222,9.75555556 C15.6222222,9 16.2,8.42222222 16.9555556,8.42222222 L20.9555556,8.42222222 L20.9555556,5.48888889 L17.5333333,1.62222222 L18.2,1.04444444 L21.8888889,5.17777778 L21.8888889,8.46666667 L25.4444444,8.46666667 Z M23.7111111,23.5777778 L24.9555556,11.1333333 L17.4888889,11.1333333 L18.7333333,23.5777778 L23.7111111,23.5777778 Z M25.4444444,10.2444444 C25.7111111,10.2444444 25.8888889,10.0666667 25.8888889,9.8 C25.8888889,9.53333333 25.7111111,9.35555556 25.4444444,9.35555556 L17,9.35555556 C16.7333333,9.35555556 16.5555556,9.53333333 16.5555556,9.8 C16.5555556,10.0666667 16.7333333,10.2444444 17,10.2444444 L25.4444444,10.2444444 Z M4.08414959,15.5195557 L4.33556292,15.2681424 C4.50912761,15.0945777 4.79053157,15.0945777 4.96409626,15.2681424 C5.13766094,15.4417071 5.13766094,15.7231111 4.96409626,15.8966757 L4.71268292,16.1480891 C4.53911823,16.3216538 4.25771428,16.3216538 4.08414959,16.1480891 C3.9105849,15.9745244 3.9105849,15.6931204 4.08414959,15.5195557 Z M6.30650514,13.7418224 L6.55791848,13.4904091 C6.73148316,13.3168444 7.01288712,13.3168444 7.18645181,13.4904091 C7.3600165,13.6639738 7.3600165,13.9453777 7.18645181,14.1189424 L6.93503848,14.3703557 C6.76147379,14.5439204 6.48006983,14.5439204 6.30650514,14.3703557 C6.13294046,14.1967911 6.13294046,13.9153871 6.30650514,13.7418224 Z M8.08423848,15.5196891 L8.33565181,15.2682757 C8.5092165,15.0947111 8.79062046,15.0947111 8.96418514,15.2682757 C9.13774983,15.4418404 9.13774983,15.7232444 8.96418514,15.8968091 L8.71277181,16.1482224 C8.53920712,16.3217871 8.25780316,16.3217871 8.08423848,16.1482224 C7.91067379,15.9746577 7.91067379,15.6932538 8.08423848,15.5196891 Z M12.0843274,15.5198224 L12.3357407,15.2684091 C12.5093054,15.0948444 12.7907093,15.0948444 12.964274,15.2684091 C13.1378387,15.4419738 13.1378387,15.7233777 12.964274,15.8969424 L12.7128607,16.1483557 C12.539296,16.3219204 12.2578921,16.3219204 12.0843274,16.1483557 C11.9107627,15.9747911 11.9107627,15.6933871 12.0843274,15.5198224 Z" id="Combined-Shape"></path>
                </g>
            </g>
        </g>
    </g>
</svg>