<svg width="23px" height="22px" viewBox="0 0 23 22" version="1.1" xmlns="http://www.w3.org/2000/svg" xmlns:xlink="http://www.w3.org/1999/xlink">
    <g id="Page-1" stroke="none" stroke-width="1" fill="none" fill-rule="evenodd">
        <g id="Large-Device_Blog_design" transform="translate(-619.000000, -2373.000000)" stroke="#FFFFFF" stroke-width="0.2" fill="#FFFFFF" fill-rule="nonzero">
            <g id="google-plus" transform="translate(620.000000, 2374.000000)">
                <path d="M10.0003282,20 C4.48616536,20 0,15.5136874 0,10 C0,4.48631261 4.48616536,0 10.0003282,0 C11.6585158,0 13.301605,0.414888728 14.7516986,1.19936979 C15.824991,1.77968883 16.2267371,3.12545132 15.6457807,4.19877897 C15.2584764,4.91564367 14.5114386,5.36007352 13.6974431,5.36007352 C13.3318016,5.36007352 12.9687859,5.26751132 12.6458135,5.0935469 C11.8403519,4.65699468 10.9252634,4.42723036 10.0003282,4.42723036 C6.92749532,4.42723036 4.42708504,6.92772271 4.42708504,10 C4.42708504,13.0722773 6.92749532,15.5727696 10.0003282,15.5727696 C12.2381593,15.5727696 14.2422949,14.2243813 15.1147143,12.2136152 L12.532248,12.2136152 C11.3119112,12.2136152 10.3187055,11.2203768 10.3187055,10 C10.3187055,8.77962319 11.3119112,7.78638482 12.532248,7.78638482 L17.7864575,7.78638482 C19.0067942,7.78638482 20,8.77962319 20,10 C20,15.5136874 15.5144911,20 10.0003282,20 Z M10.0003282,1.16457691 C5.12882791,1.16457691 1.16519513,5.12833979 1.16519513,10 C1.16519513,14.8716602 5.12882791,18.8347666 10.0003282,18.8347666 C14.8718285,18.8347666 18.8348049,14.8716602 18.8348049,10 C18.8348049,9.42165036 18.3647881,8.95096173 17.7864575,8.95096173 L12.532248,8.95096173 C11.9539174,8.95096173 11.4839006,9.42165036 11.4839006,10 C11.4839006,10.5783496 11.9539174,11.0483818 12.532248,11.0483818 L16.7000361,11.0483818 L16.4971937,11.7855971 C15.6956707,14.7009781 13.0232711,16.738003 9.99967178,16.738003 C6.28417632,16.738003 3.26123347,13.7156174 3.26123347,10 C3.26123347,6.28438259 6.28483277,3.26134051 10.0003282,3.26134051 C11.1182591,3.26134051 12.2250304,3.54099652 13.200512,4.06814153 C13.3554337,4.15216963 13.5234844,4.19418368 13.6980996,4.19418368 C14.084091,4.19418368 14.4385729,3.98411344 14.6217219,3.64406223 C14.8967736,3.13595483 14.7064036,2.49786647 14.1976565,2.22280575 C12.9169265,1.53088689 11.4655201,1.16457691 10.0003282,1.16457691 Z" id="Shape"></path>
                <g id="Group" transform="translate(16.153846, 0.769231)">
                    <path d="M4.58567308,2.23259615 L3.39096154,2.23259615 L3.39096154,1.03721154 C3.39096154,0.708076923 3.12375,0.440192308 2.79394231,0.440192308 C2.46413462,0.440192308 2.19625,0.707403846 2.19625,1.03721154 L2.19625,2.23192308 L1.00153846,2.23192308 C0.671730769,2.23192308 0.404519231,2.49980769 0.404519231,2.82894231 C0.404519231,3.15875 0.671730769,3.42730769 1.00153846,3.42730769 L2.19625,3.42730769 L2.19625,4.62134615 C2.19625,4.95115385 2.46346154,5.21971154 2.79394231,5.21971154 C3.12375,5.21971154 3.39096154,4.95182692 3.39096154,4.62134615 L3.39096154,3.42730769 L4.58567308,3.42730769 C4.91548077,3.42730769 5.18269231,3.15942308 5.18269231,2.82894231 C5.18269231,2.49980769 4.91548077,2.23259615 4.58567308,2.23259615 Z" id="Shape"></path>
                    <path d="M2.79394231,5.33817308 C2.39884615,5.33817308 2.07711538,5.01711538 2.07711538,4.62134615 L2.07711538,3.54644231 L1.00153846,3.54644231 C0.606442308,3.54644231 0.284711538,3.22471154 0.284711538,2.82961538 C0.284711538,2.43519231 0.606442308,2.11346154 1.00153846,2.11346154 L2.07711538,2.11346154 L2.07711538,1.03721154 C2.07711538,0.642788462 2.39884615,0.321057692 2.79394231,0.321057692 C3.18903846,0.321057692 3.51009615,0.642788462 3.51009615,1.03721154 L3.51009615,2.11278846 L4.58567308,2.11278846 C4.98076923,2.11278846 5.3025,2.43451923 5.3025,2.82894231 C5.3025,3.22471154 4.98076923,3.54576923 4.58567308,3.54576923 L3.51009615,3.54576923 L3.51009615,4.62067308 C3.51009615,5.01711538 3.18903846,5.33817308 2.79394231,5.33817308 Z M1.00153846,2.35240385 C0.738365385,2.35240385 0.523653846,2.56644231 0.523653846,2.82961538 C0.523653846,3.09346154 0.737692308,3.30817308 1.00153846,3.30817308 L2.31605769,3.30817308 L2.31605769,4.62134615 C2.31605769,4.88519231 2.53009615,5.09990385 2.79394231,5.09990385 C3.05711538,5.09990385 3.27115385,4.88586538 3.27115385,4.62134615 L3.27115385,3.30817308 L4.58567308,3.30817308 C4.84884615,3.30817308 5.06288462,3.09413462 5.06288462,2.82961538 C5.06288462,2.56644231 4.84884615,2.35240385 4.58567308,2.35240385 L3.27115385,2.35240385 L3.27115385,1.03721154 C3.27115385,0.774038462 3.05711538,0.56 2.79394231,0.56 C2.53009615,0.56 2.31605769,0.774038462 2.31605769,1.03721154 L2.31605769,2.35173077 L1.00153846,2.35173077 L1.00153846,2.35240385 Z" id="Shape"></path>
                </g>
            </g>
        </g>
    </g>
</svg>