<svg width="69px" height="82px" viewBox="0 0 69 82" version="1.1" xmlns="http://www.w3.org/2000/svg" xmlns:xlink="http://www.w3.org/1999/xlink">
    <g id="Page-1" stroke="none" stroke-width="1" fill="none" fill-rule="evenodd">
        <g id="Large-Device_Airtickets_design" transform="translate(-664.000000, -388.000000)">
            <g id="Preimushchestva" transform="translate(275.000000, 287.000000)">
                <g id="Group-12" transform="translate(0.000000, 102.000000)">
                    <g id="4" transform="translate(390.000000, 0.000000)">
                        <path d="M23.1,36.7348545 L23.1,39.7529061 L23.099994,39.7529061 C23.099994,41.9150372 24.8181187,43.6858282 26.9792647,43.7510895 C27.7948124,43.7757171 28.5000575,43.8036872 29.095,43.835 C31.1850104,43.9450005 33.1099912,44.3483299 34.87,45.045 C36.6300088,45.7416702 38.0783277,46.8599923 39.215,48.4 C40.3516723,49.9400077 40.92,52.176652 40.92,55.11 C40.92,58.8500187 39.7100121,61.8016558 37.29,63.965 C34.8699879,66.1283441 31.9000176,67.21 28.38,67.21 C26.1066553,67.21 24.1450082,66.8066707 22.495,66 C20.8449917,65.1933293 19.4700055,64.1116734 18.37,62.755 C17.2699945,61.3983265 16.4266696,59.7850093 15.84,57.915 C15.6360485,57.2649045 15.4487151,56.4203843 15.2779999,55.3814393 L15.2780055,55.3814384 C14.9603992,53.4485375 13.2897509,52.03 11.3309299,52.03 L4.36804366,52.03 L4.36804366,52.0299933 C2.15890096,52.0299933 0.368036951,53.8208573 0.368036951,56.03 C0.368036951,56.1811036 0.376599048,56.3320859 0.393682071,56.4822208 C0.771125811,59.7994012 1.28156512,62.2753276 1.925,63.91 C3.28167345,67.3566839 5.2066542,70.2716547 7.7,72.655 C10.1933458,75.0383453 13.2183155,76.8533271 16.775,78.1 C20.3316845,79.3466729 24.2733117,79.97 28.6,79.97 C32.3400187,79.97 35.9333161,79.4200055 39.38,78.32 C42.8266839,77.2199945 45.8699868,75.6066773 48.51,73.48 C51.1500132,71.3533227 53.2583254,68.7133491 54.835,65.56 C56.4116745,62.4066509 57.2,58.8133535 57.2,54.78 C57.2,50.379978 55.9900121,46.6033491 53.57,43.45 C51.1499879,40.2966509 47.8133546,38.2433381 43.56,37.29 C47.1533513,36.0433282 49.8483243,34.1000143 51.645,31.24 C53.4416756,28.3799857 54.34,25.0800187 54.34,21.34 C54.34,17.8933161 53.5700077,14.8500132 52.03,12.21 C50.4899923,9.5699868 48.491679,7.3333425 46.035,5.5 C43.578321,3.6666575 40.8100154,2.29167125 37.73,1.375 C34.6499846,0.45832875 31.5700154,0 28.49,0 C24.5299802,0 20.9366828,0.64166025 17.71,1.925 C14.4833172,3.20833975 11.7150115,5.0233216 9.405,7.37 C7.09498845,9.7166784 5.29833975,12.5216503 4.015,15.785 C3.45024688,17.2210865 2.94673975,19.2829236 2.50447863,21.9705113 L2.50448246,21.9705119 C2.14577796,24.1503323 3.62208405,26.2082133 5.80190439,26.5669178 C6.01659767,26.602247 6.23381564,26.62 6.45139634,26.62 L13.2944221,26.62 L13.2944221,26.6199924 C15.2135706,26.6199924 16.8622605,25.2569679 17.2230821,23.3720438 C17.8135417,20.2874961 18.6175143,18.0884815 19.635,16.775 C21.6516767,14.1716536 24.6399802,12.87 28.6,12.87 C31.4600143,12.87 33.989989,13.7499912 36.19,15.51 C38.390011,17.2700088 39.49,19.7999835 39.49,23.1 C39.49,25.300011 38.9583386,27.0599934 37.895,28.38 C36.8316613,29.7000066 35.4750082,30.7083298 33.825,31.405 C32.1749918,32.1016702 30.3966762,32.5233326 28.49,32.67 C28.0606306,32.7030284 27.5712954,32.7249002 27.0219943,32.7356153 L27.0219941,32.7356084 C24.8436724,32.7781007 23.1,34.5561183 23.1,36.7348545 Z" id="3" stroke="#2F2F2F" stroke-width="2" fill="#FFFFFF"></path>
                        <g id="Group" transform="translate(41.000000, 60.000000)">
                            <rect id="Rectangle-2" fill="#FFFFFF" x="0" y="1" width="27" height="19"></rect>
                            <path d="M24.3346154,0 C25.1307692,0 25.8230769,0.344827586 26.3423077,0.896551724 L14.4692308,12.7241379 C13.95,13.2413793 13.05,13.2413793 12.5307692,12.7241379 L0.519230769,1.06896552 C1.00384615,0.413793103 1.8,0 2.66538462,0 L24.3346154,0 Z M19.0730769,10.0689655 L26.9653846,2.20689655 C27,2.34482759 27,2.51724138 27,2.65517241 L27,17.3448276 C27,17.4482759 26.9653846,17.5862069 26.9653846,17.6896552 L19.0730769,10.0689655 Z M7.89230769,10.137931 L0,17.4137931 C0,17.3793103 0,17.3448276 0,17.3103448 L0,2.65517241 C0,2.5862069 0,2.55172414 0,2.48275862 L7.89230769,10.137931 Z M26.3769231,19.0344828 C25.8923077,19.6206897 25.1653846,20 24.3,20 L2.66538462,20 C1.76538462,20 0.969230769,19.5517241 0.484615385,18.862069 L8.89615385,11.1034483 L11.5615385,13.6896552 C12.0807692,14.2068966 12.8076923,14.4827586 13.5,14.4827586 C14.1923077,14.4827586 14.9192308,14.2413793 15.4384615,13.6896552 L18.0692308,11.0689655 L26.3769231,19.0344828 Z" id="Combined-Shape" fill="#4F9CFF" fill-rule="nonzero"></path>
                        </g>
                    </g>
                </g>
            </g>
        </g>
    </g>
</svg>