<svg width="10px" height="26px" viewBox="0 0 10 26" version="1.1" xmlns="http://www.w3.org/2000/svg" xmlns:xlink="http://www.w3.org/1999/xlink">
    <g id="Symbols" stroke="none" stroke-width="1" fill="none" fill-rule="evenodd" opacity="0.5">
        <g id="Ticket_form_first_view" transform="translate(-600.000000, -9.000000)" fill-rule="nonzero" fill="#2F2F2F">
            <g id="Passangers">
                <g transform="translate(573.000000, 0.000000)">
                    <g id="noun_1034987_cc" transform="translate(27.000000, 9.000000)">
                        <path d="M4.89774963,6.82499888 C3.15624743,6.82499888 1.74448096,5.4132324 1.74448096,3.6717302 C1.74448096,1.930228 3.15624743,0.51846153 4.89774963,0.51846153 C6.63925183,0.51846153 8.05101831,1.930228 8.05101831,3.6717302 C8.05101831,5.4132324 6.63925183,6.82499888 4.89774963,6.82499888 Z M4.89774963,5.160327 C5.71987894,5.160327 6.38634643,4.49385951 6.38634643,3.6717302 C6.38634643,2.84960089 5.71987894,2.1831334 4.89774963,2.1831334 C4.07562032,2.1831334 3.40915283,2.84960089 3.40915283,3.6717302 C3.40915283,4.49385951 4.07562032,5.160327 4.89774963,5.160327 Z M7.51418274,17.6313256 C8.76417041,17.1566247 9.5920581,15.9603649 9.59594102,14.6232804 L9.59594453,10.0994737 C9.59594783,8.76125582 8.51268432,7.67557969 7.17446769,7.67260587 L2.62642462,7.67260381 C1.28650666,7.67556948 0.202520414,8.75955573 0.199556783,10.0976302 L0.199554741,14.6208633 C0.204197101,15.9620362 1.03422607,17.1586454 2.28609269,17.6317926 C2.71609156,17.7943121 3.19642263,17.5774773 3.35894215,17.1474784 C3.52146166,16.7174795 3.3046268,16.2371485 2.87462793,16.0746289 C2.26840988,15.8455068 1.86646727,15.2660472 1.86422162,14.6179791 L1.86422662,10.0994737 C1.86515832,9.67973496 2.20668589,9.33820739 2.62826811,9.33727365 L7.17261806,9.33727569 C7.59105714,9.33820761 7.93127369,9.67918188 7.93127265,10.0994716 L7.93127265,14.6208633 C7.92939585,15.2659311 7.52849016,15.8452214 6.923182,16.075096 C6.49344106,16.2382963 6.27736722,16.7189702 6.44056757,17.1487112 C6.60376792,17.5784521 7.08444181,17.7945259 7.51418274,17.6313256 Z M1.74802437,16.8532108 L1.74802437,23.1923691 C1.75100483,24.5047358 2.81102326,25.5671854 4.12148805,25.5731659 L5.67375615,25.5731746 C6.98801942,25.5671854 8.04803784,24.5047358 8.05101616,23.1942607 L8.05101831,16.8532108 C8.05101831,16.3935243 7.67836882,16.0208748 7.21868237,16.0208748 C6.75899593,16.0208748 6.38634643,16.3935243 6.38634643,16.8532108 L6.38634643,23.1923691 C6.38544963,23.5860231 6.06550024,23.9067063 5.66995768,23.9085114 L4.12528652,23.9085027 C3.73354243,23.9067063 3.41359305,23.5860231 3.41269409,23.1904774 L3.41269624,16.8532108 C3.41269624,16.3935243 3.04004675,16.0208748 2.58036031,16.0208748 C2.12067386,16.0208748 1.74802437,16.3935243 1.74802437,16.8532108 Z" id="Oval"></path>
                    </g>
                </g>
            </g>
        </g>
    </g>
</svg>