<svg width="20px" height="20px" viewBox="0 0 20 20" version="1.1" xmlns="http://www.w3.org/2000/svg" xmlns:xlink="http://www.w3.org/1999/xlink">
    <g id="Symbols" stroke="none" stroke-width="1" fill="none" fill-rule="evenodd">
        <g id="Header" transform="translate(-1005.000000, -30.000000)" fill-rule="nonzero" fill="#FFFFFF">
            <g id="Adres_social_tel">
                <g transform="translate(761.000000, 25.000000)">
                    <g id="Social_networks_icon" transform="translate(215.000000, 4.000000)">
                        <path d="M45.1494171,21 L32.8505829,21 C30.727331,21 29,19.2726792 29,17.14944 L29,4.85056004 C29,2.72738011 30.727331,1 32.8505829,1 L45.1494171,1 C47.272669,1 49,2.72732075 49,4.85056004 L49,17.1493806 C49,19.2725605 47.2726096,21 45.1494171,21 Z M32.8505829,2.72417477 C31.678016,2.72417477 30.7241256,3.67805946 30.7241256,4.8506194 L30.7241256,17.14944 C30.7241256,18.3219405 31.678016,19.2758846 32.8505829,19.2758846 L45.1494171,19.2758846 C46.321984,19.2758846 47.2758744,18.3219999 47.2758744,17.14944 L47.2758744,4.85056004 C47.2758744,3.67805946 46.321984,2.72411542 45.1494171,2.72411542 L32.8505829,2.72411542 L32.8505829,2.72417477 Z M39,16.3008565 C36.077071,16.3008565 33.699112,13.9229116 33.699112,11 C33.699112,8.07708837 36.077071,5.69914346 39,5.69914346 C41.922929,5.69914346 44.300888,8.07708837 44.300888,11 C44.300888,13.9229116 41.922929,16.3008565 39,16.3008565 Z M39,7.42325888 C37.027756,7.42325888 35.423297,9.02770836 35.423297,11 C35.423297,12.9722916 37.027756,14.5767411 39,14.5767411 C40.972244,14.5767411 42.5767624,12.9722916 42.5767624,11 C42.5767624,9.02770836 40.9721253,7.42325888 39,7.42325888 Z M44.366301,6.78272561 C43.6959262,6.78272561 43.15248,6.23928265 43.15248,5.56891179 C43.15248,4.89854093 43.6959262,4.35509797 44.366301,4.35509797 C45.0366759,4.35509797 45.580122,4.89854093 45.580122,5.56891179 C45.580122,6.23928265 45.0366759,6.78272561 44.366301,6.78272561 Z" id="Shape"></path>
                    </g>
                </g>
            </g>
        </g>
    </g>
</svg>