<?xml version="1.0" encoding="UTF-8"?>
<svg width="17px" height="30px" viewBox="0 0 17 30" version="1.1" xmlns="http://www.w3.org/2000/svg" xmlns:xlink="http://www.w3.org/1999/xlink">
    <!-- Generator: Sketch 47 (45396) - http://www.bohemiancoding.com/sketch -->
    <title>Combined Shape</title>
    <desc>Created with Sketch.</desc>
    <defs></defs>
    <g id="Symbols" stroke="none" stroke-width="1" fill="none" fill-rule="evenodd" fill-opacity="0.94">
        <g id="Banner" transform="translate(-343.000000, -278.000000)" fill="#FFFFFF">
            <g id="Slider_left_right">
                <g transform="translate(343.000000, 278.000000)">
                    <path d="M16.7211005,15 C16.7538853,14.4893555 16.575147,13.9676704 16.1848855,13.5774089 L3.14750265,0.540026079 L3.14750265,0.540026079 C2.42746788,-0.180008693 1.26006085,-0.180008693 0.540026079,0.540026079 L0.540026079,0.540026079 L0.540026079,0.540026079 C-0.180008693,1.26006085 -0.180008693,2.42746788 0.540026079,3.14750265 L12.3925234,15 L0.540026079,26.8524974 L0.540026079,26.8524974 C-0.180008693,27.5725321 -0.180008693,28.7399391 0.540026079,29.4599739 L0.540026079,29.4599739 L0.540026079,29.4599739 C1.26006085,30.1800087 2.42746788,30.1800087 3.14750265,29.4599739 L16.1848855,16.4225911 C16.575147,16.0323296 16.7538853,15.5106445 16.7211005,15 Z" id="Combined-Shape" transform="translate(8.362456, 15.000000) scale(-1, 1) translate(-8.362456, -15.000000) "></path>
                </g>
            </g>
        </g>
    </g>
</svg>