<svg width="145px" height="52px" viewBox="0 0 145 52" version="1.1" xmlns="http://www.w3.org/2000/svg" xmlns:xlink="http://www.w3.org/1999/xlink">
    <g id="Symbols" stroke="none" stroke-width="1" fill="none" fill-rule="evenodd">
        <g id="Header" transform="translate(-80.000000, -30.000000)" fill="#FFFFFF">
            <g id="Page-1">
                <g transform="translate(80.000000, 30.000000)">
                    <path d="M0,52 L52,52 L52,0 L0,0 L0,52 Z M4.90867121,47.0913288 L47.0899166,47.0913288 L47.0899166,4.91008337 L4.90867121,4.91008337 L4.90867121,47.0913288 Z" id="Fill-1"></path>
                    <path d="M68.8735127,9.55615405 L69.6896017,6.57069755 L70.1952923,6.57069755 L71.0178479,9.55615405 L68.8735127,9.55615405 Z M71.818417,4 L70.3905846,4 L69.4865494,4 L68.565701,4 L67.9901707,4 L65,14 L67.6616658,14 L68.2113295,11.9854565 L71.687791,11.9854565 L72.242628,14 L75,14 L72.0098293,4 L71.818417,4 Z" id="Fill-2"></path>
                    <path d="M129.874305,9.55615405 L130.688995,6.57069755 L131.19462,6.57069755 L132.01707,9.55615405 L129.874305,9.55615405 Z M132.817535,4 L131.391181,4 L130.485969,4 L129.566533,4 L128.991077,4 L126,14 L128.661322,14 L129.210914,11.9854565 L132.686926,11.9854565 L133.242985,14 L136,14 L133.010216,4 L132.817535,4 Z" id="Fill-3"></path>
                    <g id="Group-48" transform="translate(7.000000, 4.000000)">
                        <path d="M96.6399562,8.35042226 C95.0863629,8.35042226 93.9764482,7.2354375 93.9764482,5.67676372 C93.9764482,4.11808994 95.0863629,3.00166463 96.6399562,3.00166463 C98.1935496,3.00166463 99.3049001,4.11808994 99.3049001,5.67676372 C99.3049001,7.2354375 98.1935496,8.35042226 96.6399562,8.35042226 M96.6399562,0.0975182927 C93.3963635,0.0975182927 90.9281315,2.5133186 90.9281315,5.67676372 C90.9281315,8.83876829 93.3963635,11.2545686 96.6399562,11.2545686 C99.883549,11.2545686 102.351781,8.83876829 102.351781,5.67676372 C102.351781,2.5133186 99.883549,0.0975182927 96.6399562,0.0975182927" id="Fill-4"></path>
                        <polygon id="Fill-6" points="113.48467 0.327573933 112.541314 0.327573933 110.09462 4.97622485 107.682387 0.327573933 106.632778 0.327573933 105.093543 0.327573933 103.738097 0.327573933 103.738097 11.0250892 106.632778 11.0250892 106.632778 4.48067607 108.931579 8.8700282 111.15428 8.8700282 113.48467 4.4461029 113.48467 11.0250892 116.379351 11.0250892 116.379351 0.327573933 114.993752 0.327573933"></polygon>
                        <polygon id="Fill-8" points="137.472755 0.327573933 133.969272 0.327573933 131.076028 0.327573933 127.572546 0.327573933 127.572546 3.07758155 131.076028 3.07758155 131.076028 11.0250892 133.969272 11.0250892 133.969272 3.07758155 137.472755 3.07758155"></polygon>
                        <path d="M83.42149,2.92589177 L85.7059328,2.92589177 C86.497088,2.92589177 86.8775891,3.46033537 86.8775891,4.10137957 C86.8775891,4.74530488 86.497088,5.27974848 85.7059328,5.27974848 L83.42149,5.27974848 L83.42149,2.92589177 Z M89.7722695,4.05672256 C89.7722695,1.99385671 88.4010296,0.327141768 85.7059328,0.327141768 L83.42149,0.327141768 L82.1105559,0.327141768 L80.5268096,0.327141768 L80.5268096,11.024657 L83.42149,11.024657 L83.42149,7.76901677 L84.8673944,7.76901677 L86.633494,11.024657 L89.8325754,11.024657 L87.8065863,7.33685213 C89.1103411,6.71165396 89.7722695,5.47710366 89.7722695,4.05672256 L89.7722695,4.05672256 Z" id="Fill-10"></path>
                        <path d="M73.8255383,4.77440396 L73.8255383,7.06631707 L76.0037279,7.06631707 L76.0037279,8.23460213 C75.5442548,8.52415244 74.9756569,8.65524238 74.2993699,8.65524238 C72.5763459,8.65524238 71.3429478,7.43365701 71.3429478,5.72084451 C71.3429478,4.04116463 72.5605515,2.91033384 74.0394805,2.91033384 C74.9828361,2.91033384 75.8515274,3.23157622 76.4445349,3.97922104 L78.5322657,2.02439634 C77.5716798,0.801370427 76.140134,0.098382622 74.0078917,0.098382622 C70.7657348,0.098382622 68.2975028,2.51418293 68.2975028,5.6761875 C68.2975028,8.83819207 70.6566099,11.2539924 74.0997863,11.2539924 C75.8515274,11.2539924 77.6018327,10.5956616 78.744772,9.49652287 L78.744772,9.17528049 L78.744772,7.06631707 L78.744772,4.79025 L78.744772,4.77440396 L76.0037279,4.77440396 L73.8255383,4.77440396 Z" id="Fill-12"></path>
                        <polygon id="Fill-14" points="75.3307434 15.6192873 68.8291993 15.6192873 63.4576718 15.6192873 56.9575636 15.6192873 56.9575636 20.7231517 63.4576718 20.7231517 63.4576718 35.4714901 68.8291993 35.4714901 68.8291993 20.7231517 75.3307434 20.7231517"></polygon>
                        <path d="M125.51827,20.440372 L129.758345,20.440372 C131.228659,20.440372 131.935099,21.4329101 131.935099,22.6256845 C131.935099,23.8155777 131.228659,24.8081159 129.758345,24.8081159 L125.51827,24.8081159 L125.51827,20.440372 Z M137.305191,22.537811 C137.305191,18.7117134 134.760858,15.6188552 129.758345,15.6188552 L125.51827,15.6188552 L123.08737,15.6188552 L120.146743,15.6188552 L120.146743,35.4724985 L125.51827,35.4724985 L125.51827,29.4308369 L128.20188,29.4308369 L131.481369,35.4724985 L137.418623,35.4724985 L133.658123,28.6270107 C136.078972,27.4673689 137.305191,25.1754558 137.305191,22.537811 L137.305191,22.537811 Z" id="Fill-16"></path>
                        <path d="M105.583887,15.6192873 L105.583887,26.6913453 C105.583887,29.6459108 106.593292,31.3270312 108.645126,31.3270312 C110.725678,31.3270312 111.736519,29.7914062 111.736519,26.6913453 L111.736519,15.6192873 L116.964461,15.6192873 L116.964461,26.4003544 C116.964461,32.4290511 113.95922,35.4714901 108.500105,35.4714901 C103.157295,35.4714901 100.354509,32.544295 100.354509,26.2562995 L100.354509,15.6192873 L105.583887,15.6192873 Z" id="Fill-18"></path>
                        <path d="M87.7436959,30.3048178 C84.9782423,30.3048178 82.9996363,28.3197416 82.9996363,25.5452447 C82.9996363,22.7721883 84.9782423,20.7885526 87.7436959,20.7885526 C90.5077136,20.7885526 92.4877554,22.7721883 92.4877554,25.5452447 C92.4877554,28.3197416 90.5077136,30.3048178 87.7436959,30.3048178 M87.7436959,15.6198636 C81.9701294,15.6198636 77.5792898,19.91558 77.5792898,25.5452447 C77.5792898,31.1749093 81.9701294,35.4720663 87.7436959,35.4720663 C93.5172623,35.4720663 97.9081019,31.1749093 97.9081019,25.5452447 C97.9081019,19.91558 93.5172623,15.6198636 87.7436959,15.6198636" id="Fill-20"></path>
                        <polygon id="Fill-22" points="58.4560202 40.0875846 59.6922899 40.0875846 59.6922899 44.3112736 60.1560706 44.3112736 60.1560706 40.0875846 61.3923403 40.0875846 61.3923403 39.6467767 58.4560202 39.6467767"></polygon>
                        <path d="M66.632918,43.9154108 C65.6981774,43.9154108 65.0936832,43.1562416 65.0936832,41.9778727 C65.0936832,40.821112 65.7139718,40.0432157 66.6400973,40.0432157 C67.592068,40.0432157 68.1850755,40.7850983 68.1850755,41.9778727 C68.1850755,43.1720877 67.5906322,43.9154108 66.632918,43.9154108 M66.632918,39.5836806 C65.4339804,39.5836806 64.6299025,40.5459672 64.6299025,41.9778727 C64.6299025,43.4112188 65.4339804,44.3735053 66.632918,44.3735053 C67.8577009,44.3735053 68.6488561,43.4342675 68.6488561,41.9778727 C68.6488561,40.5459672 67.8390348,39.5836806 66.632918,39.5836806" id="Fill-24"></path>
                        <path d="M75.0643926,42.6802843 C75.0643926,43.4567401 74.6810198,43.9033102 74.0133479,43.9033102 C73.3356251,43.9033102 72.9479447,43.4567401 72.9479447,42.6802843 L72.9479447,39.6479291 L72.4970868,39.6479291 L72.4970868,42.6860465 C72.4970868,43.7246822 73.0771715,44.3686075 74.0133479,44.3686075 C74.9409092,44.3686075 75.5166864,43.7246822 75.5166864,42.6860465 L75.5166864,39.6479291 L75.0643926,39.6479291 L75.0643926,42.6802843 Z" id="Fill-26"></path>
                        <path d="M80.0575727,40.0946433 L81.1560006,40.0946433 C81.7217268,40.0946433 82.0605882,40.4792698 82.0605882,41.1246357 C82.0605882,41.7498338 81.7059324,42.154628 81.1560006,42.154628 L80.0575727,42.154628 L80.0575727,40.0946433 Z M82.5186254,41.1318384 C82.5186254,40.2444604 81.9701294,39.6466326 81.1560006,39.6466326 L79.6009714,39.6466326 L79.6009714,44.3111296 L80.064752,44.3111296 L80.064752,42.5939954 L81.0741569,42.5939954 L82.2199679,44.3111296 L82.6162635,44.3111296 L82.6966712,44.2909619 L82.6966712,44.1843613 L81.5666546,42.521968 C82.1481753,42.3606265 82.5186254,41.829064 82.5186254,41.1318384 L82.5186254,41.1318384 Z" id="Fill-28"></path>
                        <path d="M88.2135071,43.9154108 C87.2787666,43.9154108 86.6742723,43.1562416 86.6742723,41.9778727 C86.6742723,40.821112 87.2945609,40.0432157 88.2206864,40.0432157 C89.1726572,40.0432157 89.7671005,40.7850983 89.7671005,41.9778727 C89.7671005,43.1720877 89.1712213,43.9154108 88.2135071,43.9154108 M88.2135071,39.5836806 C87.0145695,39.5836806 86.2104916,40.5459672 86.2104916,41.9778727 C86.2104916,43.4112188 87.0145695,44.3735053 88.2135071,44.3735053 C89.4397259,44.3735053 90.2308811,43.4342675 90.2308811,41.9778727 C90.2308811,40.5459672 89.4196239,39.5836806 88.2135071,39.5836806" id="Fill-30"></path>
                        <path d="M95.6696065,42.3286463 L94.5726145,42.3286463 L94.5726145,40.0943552 L95.6696065,40.0943552 C96.2784084,40.0943552 96.6273207,40.5020305 96.6273207,41.2151021 C96.6273207,41.9123277 96.2683574,42.3286463 95.6696065,42.3286463 M95.6696065,39.6477851 L94.1160132,39.6477851 L94.1160132,44.3108415 L94.5726145,44.3108415 L94.5726145,42.7867409 L95.6696065,42.7867409 C96.5210676,42.7867409 97.0911014,42.157221 97.0911014,41.2194238 C97.0911014,40.251375 96.5469129,39.6477851 95.6696065,39.6477851" id="Fill-32"></path>
                        <polygon id="Fill-34" points="101.323279 42.1246646 103.164043 42.1246646 103.164043 41.6780945 101.323279 41.6780945 101.323279 40.0949314 103.240143 40.0949314 103.240143 39.6469207 100.873857 39.6469207 100.873857 44.3114177 103.265989 44.3114177 103.265989 43.8518826 101.323279 43.8518826"></polygon>
                        <path d="M107.647208,40.0946433 L108.742764,40.0946433 C109.309926,40.0946433 109.650224,40.4792698 109.650224,41.1246357 C109.650224,41.7498338 109.292696,42.154628 108.742764,42.154628 L107.647208,42.154628 L107.647208,40.0946433 Z M110.106825,41.1318384 C110.106825,40.2444604 109.558329,39.6466326 108.742764,39.6466326 L107.189171,39.6466326 L107.189171,44.3111296 L107.651516,44.3111296 L107.651516,42.5939954 L108.662357,42.5939954 L109.808168,44.3111296 L110.205899,44.3111296 L110.286307,44.2909619 L110.286307,44.1843613 L109.154854,42.521968 C109.736375,42.3620671 110.106825,41.829064 110.106825,41.1318384 L110.106825,41.1318384 Z" id="Fill-36"></path>
                        <path d="M116.330388,42.5663369 L114.729411,42.5663369 L115.533489,40.4789817 L116.330388,42.5663369 Z M115.659844,39.6348201 L115.412878,39.6348201 L113.606574,44.1595838 L113.599395,44.3108415 L114.057432,44.3108415 L114.564288,43.012907 L116.496947,43.012907 L117.000932,44.3108415 L117.453225,44.3108415 L117.453225,44.1912759 L115.679946,39.6866799 L115.659844,39.6348201 Z" id="Fill-38"></path>
                        <polygon id="Fill-40" points="120.320337 40.0875846 121.556607 40.0875846 121.556607 44.3112736 122.020388 44.3112736 122.020388 40.0875846 123.256658 40.0875846 123.256658 39.6467767 120.320337 39.6467767"></polygon>
                        <path d="M128.497953,43.9154108 C127.561777,43.9154108 126.957282,43.1562416 126.957282,41.9778727 C126.957282,40.821112 127.579007,40.0432157 128.502261,40.0432157 C129.457103,40.0432157 130.050111,40.7850983 130.050111,41.9778727 C130.050111,43.1720877 129.455667,43.9154108 128.497953,43.9154108 M128.497953,39.5836806 C127.299016,39.5836806 126.493502,40.5459672 126.493502,41.9778727 C126.493502,43.4112188 127.299016,44.3735053 128.497953,44.3735053 C129.722736,44.3735053 130.513891,43.4342675 130.513891,41.9778727 C130.513891,40.5459672 129.702634,39.5836806 128.497953,39.5836806" id="Fill-42"></path>
                        <path d="M134.856199,40.0946433 L135.953191,40.0946433 C136.520353,40.0946433 136.859214,40.4792698 136.859214,41.1246357 C136.859214,41.7498338 136.503123,42.154628 135.953191,42.154628 L134.856199,42.154628 L134.856199,40.0946433 Z M136.363845,42.521968 C136.946802,42.3620671 137.315816,41.829064 137.315816,41.1318384 C137.315816,40.2444604 136.768756,39.6466326 135.953191,39.6466326 L134.398162,39.6466326 L134.398162,44.3111296 L134.861942,44.3111296 L134.861942,42.5939954 L135.871347,42.5939954 L137.017158,44.3111296 L137.41489,44.3111296 L137.495298,44.2909619 L137.495298,44.1843613 L136.363845,42.521968 Z" id="Fill-44"></path>
                        <path d="M18.8017702,23.2638476 L20.6827381,24.9147165 L20.6856099,25.4837332 L18.1427135,24.8599756 L17.7507255,24.7663399 L17.3601734,24.8614162 L14.8172771,25.4822927 L14.8201488,24.9147165 L16.698245,23.2638476 L16.7039884,20.5239238 L12.0130554,22.0509055 L12.0187989,20.915753 L16.7384489,17.2250671 L16.7427565,15.0541601 L16.7427565,13.7980015 C16.7413206,13.5718354 16.8346511,13.3773613 16.9768006,13.2232226 C17.1548464,13.0129024 17.4204793,12.8760503 17.7205726,12.8789314 C17.7291877,12.8789314 17.7406746,12.880372 17.7507255,12.8818125 C17.7622124,12.8818125 17.7708275,12.8789314 17.7808785,12.8789314 C18.0809718,12.8774909 18.3480405,13.0129024 18.5246505,13.2232226 C18.6682359,13.3788018 18.7586946,13.5703948 18.7558229,13.7980015 L18.7586946,15.0541601 L18.7630022,17.222186 L23.4826522,20.915753 L23.4883956,22.0509055 L18.7988985,20.5224832 L18.8017702,23.2638476 Z M25.2272141,5.62432774 L24.5365686,5.62432774 L19.4120079,5.62432774 L16.1598,5.62432774 L12.8573372,5.62432774 L10.7882725,5.62432774 L0.0452175258,40.2335122 L9.60512932,40.2335122 L11.5808636,33.2612561 L24.0684804,33.2612561 L26.0657525,40.2335122 L35.9702691,40.2335122 L25.2272141,5.62432774 Z" id="Fill-46"></path>
                    </g>
                </g>
            </g>
        </g>
    </g>
</svg>