<svg width="17px" height="24px" viewBox="0 0 17 24" version="1.1" xmlns="http://www.w3.org/2000/svg" xmlns:xlink="http://www.w3.org/1999/xlink">
    <g id="Symbols" stroke="none" stroke-width="1" fill="none" fill-rule="evenodd">
        <g id="Footer" transform="translate(-978.000000, -112.000000)" fill-rule="nonzero" fill="#2D80EB">
            <g id="Call_me_back">
                <g transform="translate(959.000000, 61.000000)">
                    <g id="Name" transform="translate(0.000000, 42.000000)">
                        <path d="M27.2139037,10.2834225 C29.0106952,10.2834225 30.486631,11.7593583 30.486631,13.5561497 C30.486631,15.3529412 29.0106952,16.828877 27.2139037,16.828877 C25.4171123,16.828877 23.9411765,15.3529412 23.9411765,13.5561497 C23.9411765,11.7593583 25.4171123,10.2834225 27.2139037,10.2834225 L27.2139037,10.2834225 Z M27.2139037,9 C24.6791444,9 22.657754,11.0534759 22.657754,13.5561497 C22.657754,16.0909091 24.7112299,18.1122995 27.2139037,18.1122995 C29.7486631,18.1122995 31.7700535,16.0588235 31.7700535,13.5561497 C31.7700535,11.0534759 29.7486631,9 27.2139037,9 L27.2139037,9 Z M29.4278075,19.3636364 L25,19.3636364 C21.6951872,19.3636364 19,22.0588235 19,25.3636364 L19,33 L35.459893,33 L35.459893,25.3636364 C35.4278075,22.0588235 32.7647059,19.3636364 29.4278075,19.3636364 Z M34.144385,31.7165775 L31.7058824,31.7165775 L31.7058824,27.0641711 L30.4224599,27.0641711 L30.4224599,31.7165775 L24.0053476,31.7165775 L24.0053476,27.0641711 L22.7219251,27.0641711 L22.7219251,31.7165775 L20.2834225,31.7165775 L20.2834225,25.3636364 C20.2834225,22.7647059 22.4010695,20.6470588 25,20.6470588 L29.459893,20.6470588 C32.0588235,20.6470588 34.1764706,22.7647059 34.1764706,25.3636364 L34.1764706,31.7165775 L34.144385,31.7165775 Z" id="Shape"></path>
                    </g>
                </g>
            </g>
        </g>
    </g>
</svg>