<svg width="21px" height="23px" viewBox="0 0 21 23" version="1.1" xmlns="http://www.w3.org/2000/svg" xmlns:xlink="http://www.w3.org/1999/xlink">
    <g id="Page-1" stroke="none" stroke-width="1" fill="none" fill-rule="evenodd">
        <g id="Large-Device_TourPage_design" transform="translate(-273.000000, -454.000000)" fill-rule="nonzero" fill="#2D80EB">
            <g id="Group" transform="translate(78.000000, 416.000000)">
                <g id="Vid_otdyha" transform="translate(195.000000, 37.399994)">
                    <path d="M20.6599998,5.82807591 L10.8597866,1.40561828 L10.8597866,0.600006104 L10.0188553,0.600006104 L10.0188553,1.40001207 L0,5.82667436 L0.0947449249,6.27545136 C0.157534461,7.4350956 1.36090713,8.34189984 2.80786957,8.34189984 C3.85679119,8.34189984 4.76948195,7.86677366 5.23143353,7.17076287 C5.93669457,8.17175141 7.95829339,8.72031892 9.97512692,8.78114628 L9.97512692,16.4375453 L9.97484661,20.3529214 L9.97484661,21.7634435 L8.01267361,21.7634435 L8.01267361,22.6043748 L12.7782312,22.6043748 L12.7782312,21.7634435 L10.8157779,21.7634435 L10.8157779,20.3529214 L10.8157779,16.3820439 L10.8157779,8.77946442 C12.8345736,8.70321998 14.8455206,8.13250795 15.5067729,7.12535258 C15.9816188,7.79052922 16.8746878,8.23706374 17.8888509,8.23706374 C19.402247,8.23706374 20.6336507,7.24924979 20.6336507,6.03522532 C20.6336507,6.01223986 20.6308476,5.98953472 20.6297263,5.96654926 L20.6599998,5.82807591 Z M15.8714568,5.79107494 L12.9096968,3.25342462 L18.5332846,5.79107494 L15.8714568,5.79107494 Z M14.5792257,5.79107494 L6.29072664,5.79107494 L10.434836,2.24038273 L14.5792257,5.79107494 Z M8.01968137,3.20240812 L4.99877588,5.79079462 L2.16203434,5.79079462 L8.01968137,3.20240812 Z M2.80786957,7.50096855 C2.01963664,7.50096855 1.32166367,7.1368453 1.03883045,6.63172591 L4.58083303,6.63172591 C4.30416663,7.13964841 3.61460298,7.50096855 2.80786957,7.50096855 Z M10.3501823,7.94750306 C8.02136323,7.94750306 6.24503604,7.28681138 5.87951124,6.63200622 L14.8214139,6.63200622 C14.4727078,7.24280265 12.8362555,7.94750306 10.3501823,7.94750306 Z M17.8891313,7.39585214 C17.1569604,7.39585214 16.5021553,7.08134384 16.1859651,6.63172591 L19.5976233,6.63172591 C19.2873197,7.08358632 18.639242,7.39585214 17.8891313,7.39585214 Z" id="Shape"></path>
                </g>
            </g>
        </g>
    </g>
</svg>