<svg width="86px" height="94px" viewBox="0 0 86 94" version="1.1" xmlns="http://www.w3.org/2000/svg" xmlns:xlink="http://www.w3.org/1999/xlink">
    <g id="Page-1" stroke="none" stroke-width="1" fill="none" fill-rule="evenodd">
        <g id="Large-Device_Order_Form_Step2_design" transform="translate(-602.000000, -233.000000)" fill-rule="nonzero" fill="#000FCF">
            <g id="Group-11" transform="translate(372.000000, 233.000000)">
                <g id="Group" transform="translate(230.000000, 0.000000)">
                    <path d="M44.9553206,0.701425188 C44.2821984,-0.233808396 42.7178017,-0.233808396 42.0446795,0.701425188 L26.3365499,22.5419825 C25.7818365,23.312997 25.927077,24.3827504 26.6672781,24.9784815 C26.7879472,25.0755134 28.1507427,26.1477418 30.515274,27.3037539 L30.515274,30.4556541 C30.5152012,30.4566005 30.515274,30.4576195 30.515274,30.4585658 L30.515274,42.7709216 C30.5152012,42.771868 30.515274,42.7728869 30.515274,42.7738333 L30.515274,55.086189 C30.5152012,55.0871353 30.515274,55.0881543 30.515274,55.0891006 L30.515274,69.0550029 C30.515274,71.0081619 31.6416164,72.8070016 33.383918,73.6374145 C35.0194038,74.4170185 37.507302,75.3053739 40.7195066,75.6541939 C40.1025264,77.6333397 39.91682,80.5041894 41.9950995,83.7153424 C44.3895247,87.4149307 41.8037788,90.9887342 41.6987857,91.1302422 C41.1009085,91.9175621 41.2554815,93.0397259 42.0440962,93.6366216 C42.3678248,93.8817855 42.7481331,94 43.1255248,94 C43.6668224,94 44.202287,93.7560008 44.5545971,93.2918779 C44.7290023,93.0624371 48.7788182,87.6041903 45.0049007,81.7738302 C43.2554537,79.0705481 43.9527827,76.8438362 44.5029025,75.7807067 C48.5872057,75.6234029 51.6908446,74.5551053 53.6160821,73.6374147 C55.3583837,72.8070017 56.484726,71.0081622 56.484726,69.0550031 L56.484726,27.3037539 C58.8492574,26.1477418 60.2120528,25.0755133 60.3327219,24.9784815 C61.0729231,24.3827505 61.2181634,23.312997 60.6634501,22.5419825 L44.9553206,0.701425188 Z M34.0990374,48.7527621 C37.1470446,51.6319101 42.7380712,54.5957882 52.9009627,54.9094496 L52.9009627,63.6463276 C37.2391322,63.1384567 34.4497434,56.0176373 34.0990374,54.8573303 L34.0990374,48.7527621 L34.0990374,48.7527621 Z M52.9009627,51.3310602 C37.2391322,50.8231894 34.4497434,43.7023699 34.0990374,42.542063 L34.0990374,36.4374948 C37.1470446,39.3166427 42.7380712,42.2805208 52.9009627,42.5941822 L52.9009627,51.3310602 L52.9009627,51.3310602 Z M52.0715175,70.408937 C50.3245496,71.2416792 47.4191581,72.2345641 43.5000001,72.2345641 C39.5808421,72.2345641 36.6754507,71.2416792 34.9284826,70.408937 C34.4245159,70.1684316 34.0990374,69.6373401 34.0990374,69.0550029 L34.0990374,61.0680296 C37.1470446,63.9471775 42.7380712,66.9110556 52.9009627,67.224717 L52.9009627,69.0550029 C52.9009627,69.6373401 52.5754843,70.1684316 52.0715175,70.408937 Z M52.9009627,39.0157928 C37.2391322,38.5079219 34.4497434,31.3871024 34.0990374,30.2267955 L34.0990374,28.7639644 C36.6783672,29.6248772 39.8457309,30.2940555 43.5000001,30.2940555 C47.1542692,30.2940555 50.321633,29.6248045 52.9009627,28.7639644 L52.9009627,39.0157928 L52.9009627,39.0157928 Z M43.5000001,26.7161756 C37.2511627,26.7161756 32.5457233,24.4532133 30.3268698,23.128396 L43.5000001,4.81214354 L56.6772134,23.133637 C54.4706092,24.4590366 49.7890848,26.7161756 43.5000001,26.7161756 Z" id="Shape"></path>
                    <path d="M8.26086957,49.7391304 C9.22158064,49.7391304 10,48.9607111 10,48 C10,47.0392889 9.22158064,46.2608696 8.26086957,46.2608696 L6.73913043,46.2608696 L6.73913043,44.7391304 C6.73913043,43.7784194 5.96071107,43 5,43 C4.03928893,43 3.26086957,43.7784194 3.26086957,44.7391304 L3.26086957,46.2608696 L1.73913043,46.2608696 C0.778419362,46.2608696 0,47.0392889 0,48 C0,48.9607111 0.778419362,49.7391304 1.73913043,49.7391304 L3.26086957,49.7391304 L3.26086957,51.2608696 C3.26086957,52.2215806 4.03928893,53 5,53 C5.96071107,53 6.73913043,52.2215806 6.73913043,51.2608696 L6.73913043,49.7391304 L8.26086957,49.7391304 Z" id="Shape"></path>
                    <path d="M75,35.2670262 L75.2632861,35.5303123 C75.5764113,35.8434375 75.9866052,36 76.3967992,36 C76.8069932,36 77.2171871,35.8434374 77.5303123,35.5303123 C78.1565626,34.9045839 78.1565626,33.8890146 77.5303123,33.2632861 L77.2670262,33 L77.5303123,32.7367139 C78.1565626,32.1109855 78.1565626,31.0954163 77.5303123,30.4696877 C76.904062,29.8434374 75.8895365,29.8434374 75.2632861,30.4696877 L75,30.7329738 L74.7367139,30.4696877 C74.1104636,29.8434374 73.0959382,29.8434374 72.4696877,30.4696877 C71.8434374,31.0954162 71.8434374,32.1109854 72.4696877,32.7367139 L72.7329738,33 L72.4696877,33.2632861 C71.8434374,33.8890145 71.8434374,34.9045838 72.4696877,35.5303123 C72.7828129,35.8434375 73.1930068,36 73.6032008,36 C74.0133948,36 74.4235887,35.8434374 74.7367139,35.5303123 L75,35.2670262 Z" id="Shape"></path>
                    <path d="M4.50384883,11.4961512 C4.83974811,11.8320505 5.27977602,12 5.71980404,12 C6.15983206,12 6.59985997,11.8320504 6.93575925,11.4961512 L8,10.4319104 L9.06424075,11.4961512 C9.40014003,11.8320505 9.84016794,12 10.280196,12 C10.720224,12 11.1602519,11.8320504 11.4961512,11.4961512 C12.1679496,10.8249126 12.1679496,9.73547947 11.4961512,9.06424077 L10.4319104,8.00000001 L11.4961512,6.93575926 C12.1679496,6.26452067 12.1679496,5.17508754 11.4961512,4.50384883 C10.8243527,3.83205039 9.73603931,3.83205039 9.06424075,4.50384883 L8,5.56808959 L6.93575925,4.50384883 C6.26396081,3.83205039 5.17564739,3.83205039 4.50384883,4.50384883 C3.83205039,5.17508742 3.83205039,6.26452056 4.50384883,6.93575926 L5.56808958,8.00000001 L4.50384883,9.06424077 C3.83205039,9.73547947 3.83205039,10.8249126 4.50384883,11.4961512 Z" id="Shape"></path>
                    <path d="M83.2608696,75.2608696 L81.7391304,75.2608696 L81.7391304,73.7391304 C81.7391304,72.7784194 80.9607111,72 80,72 C79.0392889,72 78.2608696,72.7784194 78.2608696,73.7391304 L78.2608696,75.2608696 L76.7391304,75.2608696 C75.7784194,75.2608696 75,76.0392889 75,77 C75,77.9607111 75.7784194,78.7391304 76.7391304,78.7391304 L78.2608696,78.7391304 L78.2608696,80.2608696 C78.2608696,81.2215806 79.0392889,82 80,82 C80.9607111,82 81.7391304,81.2215806 81.7391304,80.2608696 L81.7391304,78.7391304 L83.2608696,78.7391304 C84.2215806,78.7391304 85,77.9607111 85,77 C85,76.0392889 84.2215806,75.2608696 83.2608696,75.2608696 Z" id="Shape"></path>
                    <path d="M72.7103653,14 C73.1562838,14 73.6016455,13.8110519 73.9367802,13.4343711 L79.5160497,7.16688607 C80.1746284,6.42749779 80.1590407,5.24581324 79.4815342,4.52768915 C78.805141,3.81017264 77.7217986,3.82596905 77.0632198,4.5653572 L71.4839503,10.8328422 C70.8253716,11.5722305 70.8409593,12.753915 71.5184658,13.4720391 C71.8508171,13.824418 72.2805912,14 72.7103653,14 Z" id="Shape"></path>
                    <path d="M0.819743206,28.2537353 L6.35857611,31.7367025 C6.64247445,31.9152869 6.95679036,32 7.26772652,32 C7.84735217,32 8.41345891,31.704649 8.74073053,31.1671788 C9.24374877,30.3412262 8.99252125,29.2577 8.18025679,28.7465594 L2.64142389,25.2635922 C1.82859612,24.7524516 0.762287702,25.0071633 0.259269466,25.8331159 C-0.24374877,26.6590685 0.00747874993,27.7425948 0.819743206,28.2537353 Z" id="Shape"></path>
                    <path d="M13.051397,80.4893393 L8.5581304,84.841616 C7.84977884,85.5279115 7.81039427,86.6820277 8.47022861,87.4193798 C8.8155572,87.8046788 9.28417658,88 9.75393747,88 C10.18146,88 10.6106948,87.837925 10.948603,87.5108066 L15.4418696,83.1585299 C16.1502212,82.4722345 16.1896057,81.3181182 15.5297714,80.5807662 C14.8693661,79.8446016 13.7603193,79.8018565 13.051397,80.4893393 Z" id="Shape"></path>
                    <path d="M68.7413392,85.4424284 C68.0609571,84.7998867 67.0202782,84.8648244 66.4160303,85.5876839 C65.8117824,86.3099737 65.8729042,87.4161937 66.5527501,88.0581658 L70.2586608,91.5579678 C70.5723121,91.8541749 70.9631699,92 71.3524193,92 C71.8065434,92 72.258523,91.801769 72.5839697,91.4127122 C73.1882176,90.6904224 73.1270958,89.5842024 72.4472499,88.9422303 L68.7413392,85.4424284 Z" id="Shape"></path>
                    <path d="M67.893229,57.6666939 C67.9999998,57.7330948 68.1067706,57.7994956 68.2402342,57.8528766 C68.3600259,57.9062578 68.4798175,57.9329483 68.6132811,57.9596388 C68.7337238,57.9863292 68.8665363,58 68.9999999,58 C69.1334635,58 69.266927,57.9863292 69.3867187,57.9596388 C69.5201824,57.9329483 69.639974,57.9062576 69.7604166,57.8528766 C69.8802084,57.7994955 70,57.7330947 70.1067708,57.6666939 C70.2135416,57.599642 70.3203124,57.5065507 70.4134114,57.4128083 C70.7871093,57.0397917 71,56.5333226 71,56.0001629 C71,55.87973 70.9869792,55.7462773 70.9602864,55.6134755 C70.9335937,55.4800228 70.8932291,55.3595899 70.8398437,55.2398081 C70.8001301,55.1200261 70.733724,55.0002442 70.6666667,54.8934821 C70.5865885,54.7867199 70.5065104,54.6799578 70.4134114,54.5868664 C70.3203125,54.493124 70.2135417,54.4130524 70.1067708,54.3466516 C70,54.2665799 69.8802082,54.2131988 69.7604166,54.1598178 C69.639974,54.1064367 69.5201822,54.0667265 69.3867187,54.0400358 C69.1334635,53.9866547 68.8665365,53.9866547 68.6132813,54.0400358 C68.4798176,54.0667263 68.360026,54.1064367 68.2402343,54.1598178 C68.1067707,54.213199 67.9999999,54.2665799 67.8932291,54.3466516 C67.7734374,54.4130524 67.6803384,54.493124 67.5865884,54.5868664 C67.4934895,54.6799578 67.4134113,54.7867199 67.3333332,54.8934821 C67.2669269,55.0002442 67.1998696,55.1200262 67.1464843,55.2398081 C67.1067707,55.3595901 67.0670572,55.4800229 67.0403645,55.6134755 C67.0136719,55.7462773 67,55.8797299 67,56.0001629 C67,56.5333226 67.2135416,57.0528116 67.5865886,57.4128083 C67.6803384,57.5065507 67.7734374,57.599642 67.893229,57.6666939 Z" id="Shape"></path>
                    <path d="M85.4264323,45.5817262 C84.9602864,45.1142643 84.2669271,44.9141099 83.6132812,45.0340722 C83.4798176,45.0608029 83.360026,45.1012251 83.2402343,45.1546865 C83.1197916,45.208148 82.9999999,45.2616094 82.8932291,45.3418016 C82.7864583,45.4083024 82.6796875,45.4884946 82.5865884,45.5817262 C82.2135416,45.9559564 82,46.4762278 82,46.997151 C82,47.1308048 82.0130208,47.2644583 82.0397136,47.3974601 C82.0664063,47.5180743 82.1067709,47.651728 82.1601563,47.7716903 C82.2135416,47.8916525 82.2669271,47.9985755 82.3463541,48.1054984 C82.4134115,48.2254608 82.4934896,48.3193442 82.5865885,48.4125759 C82.6796875,48.5058076 82.7864583,48.5859996 82.8932292,48.6661918 C83,48.7326927 83.1197917,48.7998456 83.2402344,48.8533069 C83.360026,48.8930771 83.4798176,48.9334991 83.6132812,48.9602298 C83.7467448,48.9869605 83.8802083,49 84,49 C84.5332031,49 85.0533855,48.7861542 85.4264323,48.4125759 C85.5065104,48.3193443 85.6002604,48.2254608 85.6666667,48.1054984 C85.7467448,47.9985755 85.8001303,47.8916526 85.8535156,47.7716903 C85.9069009,47.6517279 85.9466145,47.5180743 85.9733073,47.3974601 C85.9863281,47.2644583 86,47.1308048 86,46.997151 C86,46.4762278 85.7864583,45.9559564 85.4264323,45.5817262 Z" id="Shape"></path>
                    <path d="M20.8535157,65.2392242 C20.8001303,65.1194169 20.7467449,64.9996097 20.6666668,64.892825 C20.6002605,64.7860403 20.5065105,64.6792557 20.4134116,64.5861445 C19.9466146,64.1192868 19.2669271,63.9057174 18.6132813,64.0391984 C18.4934895,64.0658945 18.360026,64.1056133 18.2402343,64.1590057 C18.1197916,64.1993755 17.9999999,64.2657904 17.8932291,64.3328565 C17.7864583,64.412945 17.6796875,64.4923824 17.5865884,64.5861446 C17.4934895,64.6792557 17.4134113,64.7860403 17.346354,64.8928252 C17.2669271,64.9996097 17.2135416,65.119417 17.1601561,65.2392242 C17.1067707,65.3596826 17.0664061,65.4794899 17.0397135,65.6129707 C17.0130208,65.7464515 17,65.8662589 17,65.9997398 C17,66.5330122 17.2135416,67.0395887 17.5865886,67.4133352 C17.6796875,67.5064462 17.7864583,67.5865348 17.8932292,67.6666233 C18,67.7330382 18.1197918,67.7994531 18.2402344,67.8528454 C18.3600262,67.8932152 18.4934896,67.9329339 18.6132814,67.9596301 C18.7467447,67.9863264 18.8802083,68 19.0000001,68 C19.1334637,68 19.2669271,67.9863264 19.3997397,67.9596302 C19.5201824,67.9329341 19.6529949,67.8932153 19.7734376,67.8528455 C19.8932293,67.7994531 20.0000001,67.7330382 20.1197917,67.6666234 C20.2265625,67.5865349 20.3333333,67.5064463 20.4134114,67.4133353 C20.5065104,67.3195731 20.6002604,67.226462 20.6666667,67.1060036 C20.7467448,66.99987 20.8001303,66.8930852 20.8535156,66.7596044 C20.9069011,66.6397971 20.9335937,66.5193387 20.9602864,66.3865089 C20.986328,66.2660506 21,66.1325696 21,65.9997398 C21,65.8662589 20.9863281,65.7464517 20.9602864,65.6129707 C20.9335939,65.4794899 20.9069011,65.3596826 20.8535157,65.2392242 Z" id="Shape"></path>
                    <path d="M21.5865886,38.5633757 C21.2135416,38.9396148 21,39.4495699 21,39.986399 C21,40.1207702 21.0130208,40.2413765 21.0397136,40.3757477 C21.0664064,40.5101189 21.1067708,40.6307252 21.1601561,40.7519869 C21.2135416,40.8725933 21.2669269,40.9931995 21.346354,41.1006964 C21.4134113,41.2081933 21.4934895,41.3156902 21.5865884,41.4094224 C21.9602863,41.7856616 22.4798176,42 22.9999999,42 C23.533203,42 24.0533854,41.7856616 24.4134114,41.4094224 C24.5065104,41.3156903 24.6002604,41.2081934 24.6666667,41.1006964 C24.7467448,40.9931995 24.8001303,40.8725931 24.8535156,40.7519869 C24.9069011,40.6307252 24.9335937,40.5101188 24.9602864,40.3757477 C24.986328,40.2413765 25,40.1207702 25,39.986399 C25,39.4495699 24.7864584,38.9396148 24.4134114,38.5633757 C23.6666668,37.8122081 22.3333334,37.8122081 21.5865886,38.5633757 Z" id="Shape"></path>
                    <path d="M27.3997396,4.96002124 C27.5201823,4.93315035 27.6529948,4.89251618 27.7734375,4.85253756 C27.8932293,4.79879565 28.0130209,4.73129072 28.1197917,4.66444108 C28.2265625,4.58382828 28.3333333,4.50321548 28.4134114,4.40949495 C28.5065104,4.31577442 28.6002604,4.22139847 28.6666666,4.10080692 C28.7467448,3.99332323 28.8001303,3.88583955 28.8535156,3.76524799 C28.9069009,3.64465644 28.9466145,3.51030187 28.9602864,3.38905503 C28.986328,3.25535574 29,3.12100117 29,2.98664647 C29,2.46299106 28.7864584,1.93999094 28.4134114,1.56379798 C27.6796874,0.81206734 26.3333332,0.81206734 25.5865883,1.56379798 C25.2135416,1.93999094 25,2.46299106 25,2.98664647 C25,3.12100117 25.0130208,3.25535574 25.0397136,3.38905503 C25.0664063,3.51030187 25.1067709,3.64465657 25.1601563,3.76524799 C25.2135416,3.88583942 25.2669271,3.99332323 25.3463542,4.10080692 C25.4134115,4.22139847 25.4934896,4.31577428 25.5865886,4.40949495 C25.9602865,4.78503263 26.4798178,5 27.0000001,5 C27.1334636,5 27.2669272,4.98689226 27.3997396,4.96002124 Z" id="Shape"></path>
                    <path d="M63.8398437,4.22633665 C63.8001301,4.10653516 63.733724,3.99975567 63.6666667,3.87995432 C63.5865885,3.77317483 63.5065104,3.68006832 63.4134115,3.58631069 C63.3203125,3.49320418 63.2135417,3.40009766 63.1067708,3.33303487 C63,3.2666232 62.8802083,3.19956041 62.7604167,3.14682185 C62.639974,3.09343204 62.5201823,3.0667372 62.3867188,3.04004236 C62.1334636,2.98665255 61.8665365,2.98665255 61.6132813,3.04004236 C61.4798177,3.0667372 61.3600261,3.09343217 61.2402344,3.14682185 C61.1067708,3.19956054 61,3.26662333 60.8932292,3.33303487 C60.7734375,3.40009766 60.6803385,3.49320418 60.5865885,3.58631069 C60.2135416,3.96003897 60,4.4665906 60,4.9998372 C60,5.13331167 60.0136719,5.25311302 60.0403645,5.38658748 C60.0670572,5.52006195 60.1067708,5.63986316 60.1464843,5.76031563 C60.1998697,5.88011712 60.2669269,5.99991847 60.3333332,6.10669796 C60.4134113,6.21347745 60.4934895,6.32025694 60.5865884,6.41336359 C60.6803384,6.50712122 60.7734373,6.58655475 60.8932291,6.65361754 C60.9999999,6.73370219 61.1067707,6.787092 61.2402343,6.84048168 C61.360026,6.89322038 61.4798176,6.93358819 61.6132812,6.96028317 C61.7337239,6.98697801 61.8665364,7 62,7 C62.1334636,7 62.2669271,6.98697814 62.3867188,6.96028317 C62.5201824,6.93358833 62.639974,6.89322038 62.7604167,6.84048168 C62.8802084,6.78709187 63,6.73370219 63.1067708,6.65361754 C63.2135416,6.58655475 63.3203124,6.50712122 63.4134115,6.41336359 C63.5065104,6.32025707 63.5865885,6.21347758 63.6666667,6.10669796 C63.733724,5.99991847 63.8001303,5.88011698 63.8398437,5.76031563 C63.8932292,5.63986316 63.9335937,5.52006168 63.9602864,5.38658735 C63.9869791,5.25311302 64,5.13331153 64,4.99983707 C64,4.86636261 63.9869792,4.7335394 63.9602864,4.60006493 C63.9335937,4.48026358 63.8932291,4.34678912 63.8398437,4.22633665 Z" id="Shape"></path>
                    <path d="M83.0000001,19 C83.5201823,19 84.0403646,18.787092 84.4134115,18.4133637 C84.5065104,18.3202572 84.5865885,18.2134777 84.6666667,18.1066981 C84.7330729,17.9999186 84.8001303,17.8801171 84.8535156,17.7603158 C84.8932292,17.6398633 84.9335937,17.5200618 84.9602864,17.3865875 C84.9869791,17.2531132 85,17.1202898 85,16.9998372 C85,16.4665907 84.7864584,15.960039 84.4134115,15.5863107 C84.3203126,15.4932042 84.2265626,15.4131195 84.1067708,15.3330349 C84,15.2666232 83.8932292,15.1995604 83.7597656,15.1468219 C83.6399739,15.106454 83.5201823,15.0667372 83.3867187,15.0400424 C83.1334635,14.9866525 82.8665365,14.9866525 82.6132813,15.0400424 C82.4798177,15.0667372 82.3600261,15.106454 82.2402344,15.1468219 C82.1197917,15.1995605 82,15.2666233 81.8932292,15.3330349 C81.7864584,15.4131195 81.6803385,15.4932042 81.5865885,15.5863107 C81.4934896,15.6800683 81.4134115,15.7731748 81.3333333,15.8799543 C81.2669271,15.9997558 81.1998697,16.1065353 81.1601563,16.2263366 C81.1067708,16.3467891 81.0664063,16.4802636 81.0403645,16.6000649 C81.0136719,16.7335394 81,16.8663626 81,16.9998371 C81,17.5200617 81.2135416,18.0402863 81.5865885,18.4133636 C81.9602865,18.787092 82.4798177,19 83.0000001,19 Z" id="Shape"></path>
                </g>
            </g>
        </g>
    </g>
</svg>