<?xml version="1.0" encoding="UTF-8"?>
<svg width="26px" height="22px" viewBox="0 0 26 22" version="1.1" xmlns="http://www.w3.org/2000/svg" xmlns:xlink="http://www.w3.org/1999/xlink">
    <!-- Generator: Sketch 47 (45396) - http://www.bohemiancoding.com/sketch -->
    <title>Shape</title>
    <desc>Created with Sketch.</desc>
    <defs></defs>
    <g id="Page-1" stroke="none" stroke-width="1" fill="none" fill-rule="evenodd">
        <g id="Large-Device_Blog_design" transform="translate(-659.000000, -2373.000000)" stroke="#FFFFFF" fill-rule="nonzero" fill="#FFFFFF">
            <g id="Share" transform="translate(474.000000, 2314.000000)">
                <g id="Hover" transform="translate(88.000000, 48.000000)">
                    <path d="M121.885891,12.1058691 C121.787807,12.0086809 121.642167,11.9762848 121.511389,12.0175162 L98.2566013,19.4803922 C98.1228507,19.5245687 98.0247668,19.6394275 98.0039611,19.777847 C97.9831555,19.9162666 98.0455725,20.0546862 98.1614897,20.1342038 L103.633379,23.8538614 L104.783635,31.2018787 C104.783635,31.210714 104.786607,31.2195493 104.78958,31.2254395 C104.78958,31.2283846 104.78958,31.2313297 104.792552,31.2342748 C104.795524,31.24311 104.798496,31.2519453 104.801469,31.2607806 C104.801469,31.2637257 104.804441,31.2696159 104.807413,31.272561 C104.810385,31.2784512 104.813358,31.2843414 104.81633,31.2902316 C104.819302,31.2931767 104.819302,31.2990669 104.822274,31.302012 C104.825247,31.3079022 104.828219,31.3137924 104.831191,31.3196826 C104.834163,31.3226277 104.837135,31.3285179 104.837135,31.331463 C104.840108,31.3373532 104.846052,31.3432433 104.849024,31.3491335 C104.851997,31.3520786 104.851997,31.3550237 104.854969,31.3579688 C104.860913,31.3668041 104.86983,31.3756394 104.875775,31.3844747 C104.878747,31.3874198 104.878747,31.3874198 104.881719,31.3903649 C104.887664,31.3962551 104.893608,31.4021453 104.899552,31.4080355 C104.899552,31.4080355 104.902525,31.4109806 104.902525,31.4109806 C104.905497,31.4109806 104.905497,31.4139257 104.908469,31.4139257 C104.914414,31.4198159 104.920358,31.422761 104.926303,31.4286512 C104.929275,31.4315963 104.932247,31.4345414 104.935219,31.4345414 C104.941164,31.4374865 104.947108,31.4433766 104.953053,31.4463217 C104.956025,31.4492668 104.958997,31.4492668 104.961969,31.4522119 C104.970886,31.4581021 104.976831,31.4610472 104.985747,31.4639923 C104.991692,31.4669374 104.994664,31.4698825 105.000609,31.4698825 C105.006553,31.4728276 105.012498,31.4757727 105.018442,31.4787178 C105.024386,31.4816629 105.027359,31.4816629 105.033303,31.484608 C105.039248,31.4875531 105.045192,31.4875531 105.048164,31.4904982 C105.054109,31.4904982 105.057081,31.4934433 105.063026,31.4934433 C105.06897,31.4934433 105.074915,31.4963884 105.080859,31.4963884 C105.086803,31.4963884 105.089776,31.4993335 105.09572,31.4993335 C105.098692,31.4993335 105.101665,31.4993335 105.104637,31.5022786 C105.107609,31.5022786 105.110581,31.5022786 105.113554,31.5022786 C105.119498,31.5022786 105.12247,31.5022786 105.128415,31.5022786 C105.134359,31.5022786 105.140304,31.5022786 105.146248,31.5022786 C105.14922,31.5022786 105.152193,31.5022786 105.155165,31.5022786 C105.158137,31.5022786 105.158137,31.5022786 105.161109,31.5022786 C105.170026,31.5022786 105.178943,31.5022786 105.18786,31.5022786 C105.190832,31.5022786 105.193804,31.5022786 105.196776,31.5022786 C105.208665,31.5022786 105.220554,31.4993335 105.229471,31.4963884 C105.232443,31.4963884 105.235415,31.4934433 105.238388,31.4934433 C105.247304,31.4904982 105.253249,31.4904982 105.262165,31.4875531 C105.26811,31.4875531 105.271082,31.484608 105.277027,31.484608 C105.282971,31.4816629 105.288916,31.4816629 105.29486,31.4787178 C105.300805,31.4757727 105.303777,31.4757727 105.309721,31.4728276 C105.318638,31.4698825 105.324582,31.4669374 105.330527,31.4610472 C105.336471,31.4581021 105.342416,31.455157 105.345388,31.4522119 C105.351333,31.4492668 105.357277,31.4433766 105.366194,31.4404316 C105.369166,31.4374865 105.375111,31.4345414 105.378083,31.4315963 C105.384027,31.4257061 105.389972,31.422761 105.395916,31.4168708 C105.398888,31.4139257 105.401861,31.4109806 105.404833,31.4109806 C105.41375,31.4021453 105.422666,31.39331 105.431583,31.3844747 C105.431583,31.3844747 105.431583,31.3844747 105.431583,31.3844747 L109.019074,27.5028367 L115.537191,31.9352079 C115.599608,31.9764392 115.673914,32 115.74822,32 C115.789831,32 115.831443,31.9941098 115.870082,31.9793843 C115.983027,31.9410981 116.069222,31.8498 116.101916,31.7378864 L121.986947,12.468116 C122.022614,12.344422 121.983974,12.2001122 121.885891,12.1058691 Z M119.157376,13.5460216 L103.981131,23.1971048 L99.2047452,19.9486627 L119.157376,13.5460216 Z M107.211953,25.7534491 C107.208981,25.7563941 107.208981,25.7593392 107.206009,25.7593392 C107.203037,25.7622843 107.197092,25.7681745 107.19412,25.7711196 C107.188175,25.7770098 107.185203,25.7829 107.179259,25.7887902 C107.176287,25.7917353 107.173314,25.7976255 107.170342,25.8005706 C107.164398,25.8064608 107.161425,25.8152961 107.155481,25.8211863 C107.152509,25.8241314 107.149536,25.8270765 107.149536,25.8329667 C107.143592,25.841802 107.14062,25.8506373 107.137647,25.8594725 C107.137647,25.8624176 107.134675,25.8624176 107.134675,25.8653627 L107.131703,25.8712529 C107.131703,25.8712529 107.131703,25.8712529 107.131703,25.8712529 L105.327555,29.8559693 L104.379411,23.8185203 L118.586707,14.7859075 L107.211953,25.7534491 Z M106.430255,29.2139381 L107.628067,26.5692409 L108.394904,27.0905231 L106.430255,29.2139381 Z M115.531247,31.0487336 L108.053097,25.965496 L120.851552,13.6255392 L115.531247,31.0487336 Z" id="Shape"></path>
                </g>
            </g>
        </g>
    </g>
</svg>