<?xml version="1.0" encoding="UTF-8"?>
<svg width="22px" height="22px" viewBox="0 0 22 22" version="1.1" xmlns="http://www.w3.org/2000/svg" xmlns:xlink="http://www.w3.org/1999/xlink">
    <!-- Generator: Sketch 47 (45396) - http://www.bohemiancoding.com/sketch -->
    <title>Shape</title>
    <desc>Created with Sketch.</desc>
    <defs></defs>
    <g id="Page-1" stroke="none" stroke-width="1" fill="none" fill-rule="evenodd" opacity="0.5">
        <g id="FORMA_Various" transform="translate(-429.000000, -450.000000)" fill-rule="nonzero" fill="#000000">
            <g id="Vse_slozhno" transform="translate(78.000000, 287.000000)">
                <g id="Group-5" transform="translate(0.000000, 153.000000)">
                    <g id="Time_Vilet" transform="translate(332.000000, 0.000000)">
                        <path d="M30,10 C23.9346742,10 19,14.934427 19,21 C19,27.065573 23.9346742,32 30,32 C36.0653258,32 41,27.065573 41,21 C41,14.934427 36.0653258,10 30,10 Z M30,30.7640449 C24.6161798,30.7640449 20.2359551,26.3838202 20.2359551,21 C20.2359551,15.6161798 24.6161798,11.2359551 30,11.2359551 C35.3838202,11.2359551 39.7640449,15.6161798 39.7640449,21 C39.7640449,26.3838202 35.3838202,30.7640449 30,30.7640449 Z M30,12.6778202 C29.6586292,12.6778202 29.3820225,12.954427 29.3820225,13.2957978 L29.3820225,19.527236 L25.9418652,16.1506067 C25.6988764,15.9118202 25.3073258,15.9152809 25.0680449,16.158764 C24.8290112,16.4022472 24.8327191,16.7935506 25.0762022,17.0328315 L29.5671685,21.4409888 C29.6850787,21.5566742 29.8410562,21.6179775 30.0002472,21.6179775 C30.0805843,21.6179775 30.1619101,21.6024045 30.2392809,21.5697753 C30.4686742,21.473618 30.6179775,21.2489213 30.6179775,21 L30.6179775,13.2957978 C30.6179775,12.9546742 30.3413708,12.6778202 30,12.6778202 Z" id="Shape"></path>
                    </g>
                </g>
            </g>
        </g>
    </g>
</svg>