<svg width="31px" height="21px" viewBox="0 0 31 21" version="1.1" xmlns="http://www.w3.org/2000/svg" xmlns:xlink="http://www.w3.org/1999/xlink">
    <g id="Symbols" stroke="none" stroke-width="1" fill="none" fill-rule="evenodd" opacity="0.5">
        <g id="Ticket_form_first_view" transform="translate(-219.000000, -10.000000)" fill-rule="nonzero" fill="#2F2F2F">
            <g id="City2">
                <g transform="translate(189.000000, 0.000000)">
                    <path d="M56.992762,12.566468 C56.1788482,12.2984332 55.2486609,12.3367239 54.5122627,12.7196307 L46.5669136,16.0892104 L38.69908,14.2512578 C38.3890176,14.1746765 38.0789552,14.2129672 37.8076506,14.3661299 L35.986034,15.2468155 C35.5209404,15.4765596 35.210878,15.9360477 35.210878,16.4721172 C35.210878,17.0081867 35.5209404,17.4676748 35.986034,17.6591282 L40.0556031,19.4970808 L33.7380815,22.6752071 C33.6993237,22.7134978 33.6218081,22.7134978 33.5830503,22.6752071 L28.6608096,20.9904173 C28.2344738,20.8372546 27.7693802,20.8755452 27.3430444,21.0669986 C26.8004352,21.3350334 26.451615,21.7945215 26.3740994,22.3688817 C26.2965838,22.9432419 26.5291306,23.5176021 26.9554664,23.9005089 L31.7614337,27.8827394 C32.1490117,28.1890649 32.6528631,28.2656462 33.1179567,28.1124835 L42.8074069,24.5897411 L40.9857903,30.4099242 C40.7920013,31.0608658 40.9857903,31.7883887 41.5283995,32.2095861 C41.8384619,32.4776209 42.2647977,32.6307836 42.6523757,32.6307836 C42.9236803,32.6307836 43.1562271,32.5542022 43.4275317,32.4393302 L44.9390859,31.7118073 C45.2879062,31.5586446 45.5979686,31.2523192 45.7529998,30.907703 L50.0938734,21.8711029 L57.2640666,18.5398138 C58.0392226,18.1569071 58.6593474,17.5059655 58.930652,16.6635706 C59.2019566,15.8594663 59.1631988,14.94049 58.7756208,14.1746765 C58.4655584,13.4471536 57.8066758,12.8345027 56.992762,12.566468 Z M57.9229492,16.3189545 C57.7291602,16.855024 57.3415822,17.2762214 56.8377308,17.5059655 L49.4737486,20.9138359 C49.3574752,20.9521266 49.2412018,21.0669986 49.202444,21.1818707 L44.7452969,30.4482149 C44.7065391,30.5630869 44.5902657,30.677959 44.4739923,30.7162497 L42.9624381,31.4437725 C42.6523757,31.5969353 42.3810711,31.4054819 42.3423133,31.3671912 C42.2647977,31.2906098 42.0710087,31.0991564 42.1485243,30.7545403 L44.3189611,23.8239275 C44.3964767,23.6324741 44.3189611,23.40273 44.1639299,23.2495673 C44.0476565,23.1346953 43.8926253,23.0964046 43.7763519,23.0964046 C43.6988363,23.0964046 43.6600785,23.0964046 43.5825629,23.1346953 L32.7691365,27.0403445 C32.6916209,27.0786352 32.6141053,27.0403445 32.5753475,27.0020538 L27.808138,23.0198232 C27.6531068,22.9049512 27.5755912,22.7134978 27.614349,22.5220444 C27.6531068,22.330591 27.7693802,22.1774283 27.9244114,22.100847 C28.0406848,22.0242656 28.195716,22.0242656 28.3507472,22.0625563 L33.2729879,23.7473461 C33.6218081,23.8622182 34.0093861,23.8239275 34.3194485,23.6707648 L41.6834307,19.956569 C41.8772197,19.8416969 41.9934931,19.6502435 41.9934931,19.4204995 C41.9934931,19.1907554 41.8384619,18.999302 41.6446729,18.9227206 L36.4511276,16.5869892 C36.3348542,16.5486986 36.3348542,16.4721172 36.3348542,16.4338265 C36.3348542,16.3955358 36.3348542,16.3189545 36.4511276,16.2423731 L38.2727442,15.3616875 C38.311502,15.3233968 38.3502598,15.3233968 38.3890176,15.3616875 L46.4506402,17.2379308 C46.5669136,17.2762214 46.683187,17.2379308 46.7994604,17.1996401 L54.9385985,13.7151883 C55.4424499,13.4854443 56.023817,13.4471536 56.5664262,13.6003163 C57.1090354,13.7917697 57.5353712,14.1746765 57.8066758,14.6724553 C58.0779804,15.2468155 58.1167382,15.782885 57.9229492,16.3189545 Z" id="Shape" transform="translate(42.732453, 22.512218) rotate(-315.000000) translate(-42.732453, -22.512218) "></path>
                </g>
            </g>
        </g>
    </g>
</svg>