<?xml version="1.0" encoding="UTF-8"?>
<svg width="24px" height="20px" viewBox="0 0 24 20" version="1.1" xmlns="http://www.w3.org/2000/svg" xmlns:xlink="http://www.w3.org/1999/xlink">
    <!-- Generator: Sketch 47 (45396) - http://www.bohemiancoding.com/sketch -->
    <title>Shape</title>
    <desc>Created with Sketch.</desc>
    <defs></defs>
    <g id="Page-1" stroke="none" stroke-width="1" fill="none" fill-rule="evenodd">
        <g id="Large-Device_Blog_design" transform="translate(-704.000000, -2375.000000)" fill-rule="nonzero" fill="#FFFFFF">
            <g id="Share" transform="translate(474.000000, 2314.000000)">
                <g id="Hover" transform="translate(88.000000, 48.000000)">
                    <path d="M165.259569,15.2876367 C165.437002,14.6875119 165.234067,14.0385523 164.742464,13.6478743 C164.463563,13.4248623 164.126061,13.3125424 163.783675,13.3125424 C163.513456,13.3125424 163.243237,13.3830815 163.000691,13.5279579 C162.518855,13.8106568 162.014772,14.0374671 161.488442,14.1975366 C160.482446,13.428118 159.234989,13 157.952806,13 C155.014039,13 152.579356,15.1921376 152.195732,18.0267235 C149.852749,17.5253534 147.718128,16.2344882 146.180376,14.3483817 C145.887367,13.9870045 145.447855,13.7808134 144.988808,13.7808134 C144.950283,13.7808134 144.909587,13.7835264 144.868349,13.7862395 C144.364808,13.8258499 143.914986,14.109634 143.660503,14.5448059 C143.14394,15.4298 142.872093,16.4390515 142.872093,17.4672943 C142.872093,18.1618329 142.995265,18.8373803 143.22316,19.4684338 C142.977902,19.7473344 142.835738,20.1087116 142.835738,20.4907078 C142.835738,22.014352 143.410903,23.4153667 144.369149,24.4680268 C144.310005,24.7306492 144.319229,25.0084647 144.405504,25.2743428 C144.737038,26.3128951 145.343674,27.206571 146.128285,27.8886296 C145.618776,28.0042052 145.091361,28.0633495 144.556349,28.0633495 C144.279076,28.0633495 143.998548,28.0454434 143.715849,28.0134296 C143.656162,28.005833 143.596475,28.0020348 143.535703,28.0020348 C142.892169,28.0020348 142.309408,28.4046502 142.090737,29.0248515 C141.848191,29.6976858 142.104845,30.4502835 142.706055,30.8371632 C144.915013,32.2517431 147.467443,33 150.086613,33 C158.581146,33 163.686005,26.1631352 163.777706,19.4895955 C164.468989,18.9008655 165.07671,18.2231477 165.592188,17.4667517 C165.786985,17.2095553 165.90256,16.889959 165.90256,16.5399767 C165.90256,16.0250414 165.64862,15.5681652 165.259569,15.2876367 Z M162.227474,18.7521908 C162.237241,18.9350498 162.241039,19.1195366 162.241039,19.304566 C162.241039,24.949863 157.944124,31.4589924 150.086613,31.4589924 C147.674719,31.4589924 145.428863,30.7519737 143.537331,29.5397868 C143.86995,29.5766841 144.211793,29.6000163 144.556349,29.6000163 C146.558031,29.6000163 148.399644,28.9163298 149.862516,27.7697984 C147.99106,27.7366993 146.414783,26.500095 145.870546,24.8033587 C146.131541,24.8532787 146.39959,24.8809517 146.672522,24.8809517 C147.0632,24.8809517 147.440855,24.8277761 147.798434,24.7306492 C145.843959,24.336173 144.370777,22.6117637 144.370777,20.5400852 C144.370777,20.5216365 144.370777,20.5048156 144.370777,20.4869096 C144.947027,20.8059633 145.606296,20.9980466 146.306261,21.0197509 C145.160272,20.253588 144.407132,18.9448167 144.407132,17.463496 C144.407132,16.6810548 144.617664,15.947991 144.985552,15.3169375 C147.090873,17.9013809 150.239629,19.6013728 153.790457,19.7793483 C153.716663,19.4678912 153.680851,19.1401557 153.680851,18.8053664 C153.680851,16.4482759 155.593002,14.5355815 157.951178,14.5355815 C159.180729,14.5355815 160.291448,15.0543151 161.070633,15.882878 C162.042445,15.6924225 162.957825,15.337014 163.783132,14.8470387 C163.463536,15.8438102 162.785818,16.6810548 161.905165,17.2095553 C162.768455,17.107545 163.590506,16.8780217 164.357754,16.536721 C163.786388,17.3978404 163.063091,18.1498955 162.227474,18.7521908 Z" id="Shape"></path>
                </g>
            </g>
        </g>
    </g>
</svg>