<svg width="15px" height="23px" viewBox="0 0 15 23" version="1.1" xmlns="http://www.w3.org/2000/svg" xmlns:xlink="http://www.w3.org/1999/xlink">
    <g id="Page-1" stroke="none" stroke-width="1" fill="none" fill-rule="evenodd">
        <g id="Large-Device_TourPage_design" transform="translate(-273.000000, -416.000000)" fill-rule="nonzero" fill="#2D80EB">
            <g id="Group" transform="translate(78.000000, 416.000000)">
                <g id="Visa" transform="translate(195.000000, 0.399994)">
                    <path d="M13.8461538,3.02298077 L13.8461538,1.33115385 C13.8461538,1.02048077 13.7128846,0.741538462 13.4717308,0.546538462 C13.2320192,0.352115385 12.9276923,0.279423077 12.6250962,0.344038462 L0.387403846,2.96153846 L0,2.96153846 L0,22 L13.4134615,22 C14.2883654,22 15,21.2880769 15,20.4134615 L15,4.54807692 C15,3.82375 14.5110577,3.21221154 13.8461538,3.02298077 Z M12.80625,1.19038462 C12.8425962,1.18288462 12.87,1.17278846 12.9271154,1.21951923 C12.9657692,1.25038462 12.9807692,1.28211538 12.9807692,1.33144231 L12.9807692,2.96182692 L4.52451923,2.96182692 L12.80625,1.19038462 Z M14.1346154,20.4134615 C14.1346154,20.81125 13.8109615,21.1346154 13.4134615,21.1346154 L0.865384615,21.1346154 L0.865384615,3.82692308 L13.4134615,3.82692308 C13.8109615,3.82692308 14.1346154,4.15028846 14.1346154,4.54807692 L14.1346154,20.4134615 Z M7.5,4.98076923 C4.87557692,4.98076923 2.74038462,7.11596154 2.74038462,9.74038462 C2.74038462,12.3648077 4.87557692,14.5 7.5,14.5 C10.1244231,14.5 12.2596154,12.3648077 12.2596154,9.74038462 C12.2596154,7.11596154 10.1244231,4.98076923 7.5,4.98076923 Z M9.79788462,9.30769231 C9.77826923,8.81355769 9.72519231,8.34596154 9.64269231,7.91298077 C9.95971154,7.74653846 10.2571154,7.54086538 10.5314423,7.30115385 C10.9846154,7.86336538 11.2849038,8.55307692 11.3688462,9.30769231 L9.79788462,9.30769231 Z M7.5,13.6346154 C7.14346154,13.6346154 6.69028846,13.0747115 6.38769231,12.1060577 C6.74538462,11.9947115 7.12038462,11.9352885 7.5,11.9352885 C7.88163462,11.9352885 8.25548077,11.9952885 8.61201923,12.1060577 C8.30971154,13.0747115 7.85653846,13.6346154 7.5,13.6346154 Z M9.41509615,12.4646154 C9.58298077,12.5647115 9.74278846,12.6783654 9.89480769,12.805 C9.63836538,13.0057692 9.35769231,13.17625 9.05567308,13.3083654 C9.19125,13.0582692 9.31298077,12.7775962 9.41509615,12.4646154 Z M5.94403846,13.3083654 C5.64201923,13.1759615 5.36105769,13.0054808 5.10461538,12.8047115 C5.25605769,12.6789423 5.41701923,12.5670192 5.58548077,12.4669231 C5.68759615,12.77875 5.80875,13.0588462 5.94403846,13.3083654 Z M7.5,11.0701923 C7.05201923,11.0701923 6.61009615,11.1394231 6.18634615,11.2660577 C6.12721154,10.9305769 6.08480769,10.5665385 6.06721154,10.1733654 L8.9325,10.1733654 C8.91490385,10.5648077 8.87278846,10.9274038 8.81423077,11.2617308 C8.39163462,11.13625 7.95,11.0701923 7.5,11.0701923 Z M6.06721154,9.30769231 C6.08423077,8.92663462 6.12519231,8.57326923 6.18115385,8.24615385 C6.60663462,8.37307692 7.04971154,8.44259615 7.49971154,8.44259615 C7.95144231,8.44259615 8.39509615,8.37567308 8.81884615,8.24932692 C8.87451923,8.57557692 8.91519231,8.92778846 8.93221154,9.30769231 L6.06721154,9.30769231 L6.06721154,9.30769231 Z M7.5,5.84615385 C7.86,5.84615385 8.31894231,6.41701923 8.62125,7.40326923 C8.26182692,7.51576923 7.88480769,7.57721154 7.49971154,7.57721154 C7.11634615,7.57721154 6.73932692,7.51490385 6.37875,7.40182692 C6.68134615,6.41644231 7.14028846,5.84615385 7.5,5.84615385 Z M5.57509615,7.04355769 C5.40259615,6.94057692 5.23759615,6.82403846 5.08240385,6.69307692 C5.34461538,6.48451923 5.63336538,6.30884615 5.94403846,6.17269231 C5.80442308,6.43028846 5.67923077,6.71961538 5.57509615,7.04355769 Z M9.05596154,6.17269231 C9.36548077,6.30826923 9.65307692,6.48336538 9.91471154,6.69076923 C9.75951923,6.82173077 9.59625,6.93971154 9.42461538,7.04298077 C9.32048077,6.71932692 9.19528846,6.43 9.05596154,6.17269231 Z M5.02471154,6.73634615 L4.50894231,7.34240385 C4.77086538,7.56509615 5.05701923,7.75259615 5.35788462,7.91038462 C5.27509615,8.34423077 5.22201923,8.81269231 5.20211538,9.30798077 L3.63115385,9.30798077 C3.74596154,8.27615385 4.26346154,7.36461538 5.02471154,6.73634615 Z M3.63115385,10.1730769 L5.20211538,10.1730769 C5.22230769,10.6796154 5.27711538,11.1593269 5.36336538,11.60125 C5.04894231,11.7653846 4.75125,11.9621154 4.48067308,12.1954808 C4.02028846,11.6306731 3.71596154,10.9349038 3.63115385,10.1730769 Z M10.5170192,12.1989423 C10.245,11.9635577 9.95105769,11.7607692 9.63778846,11.5966346 C9.72317308,11.1558654 9.77769231,10.6778846 9.79788462,10.1730769 L11.3688462,10.1730769 C11.2840385,10.9363462 10.9785577,11.6332692 10.5170192,12.1989423 Z M2.88461538,16.2307692 L12.1153846,16.2307692 L12.1153846,17.0961538 L2.88461538,17.0961538 L2.88461538,16.2307692 Z M5.19230769,17.6733654 L9.80740385,17.6733654 L9.80740385,18.53875 L5.19230769,18.53875 L5.19230769,17.6733654 Z" id="Shape"></path>
                </g>
            </g>
        </g>
    </g>
</svg>