<svg width="26px" height="21px" viewBox="0 0 26 21" version="1.1" xmlns="http://www.w3.org/2000/svg" xmlns:xlink="http://www.w3.org/1999/xlink">
    <g id="Page-1" stroke="none" stroke-width="1" fill="none" fill-rule="evenodd">
        <g id="Large-Device_CountryPage_design" transform="translate(-367.000000, -289.000000)" fill="#FFFFFF" fill-rule="nonzero" stroke="#FFFFFF" stroke-width="0.4">
            <g id="Group" transform="translate(78.000000, 254.000000)">
                <g id="Climate" transform="translate(290.000000, 35.399994)">
                    <g id="Shape">
                        <path d="M8.21163631,2.69437741 C8.4244266,2.69437741 8.59699127,2.52181583 8.59699127,2.30902306 L8.59699127,0.418742573 C8.59699127,0.205949834 8.4244266,0.0333876132 8.21163631,0.0333876132 C7.99880192,0.0333876132 7.8262826,0.205949802 7.8262826,0.418742573 L7.8262826,2.30902306 C7.8262826,2.5218158 7.99880192,2.69437741 8.21163631,2.69437741 Z"></path>
                        <path d="M4.56355771,3.87980571 C4.64201589,3.87980571 4.72124463,3.85591375 4.78972267,3.80624143 C4.96189899,3.68107851 5.0000905,3.44007749 4.87496313,3.26790117 L3.76387268,1.73869778 C3.63874531,1.56690672 3.39828388,1.52852532 3.22553241,1.65345732 C3.05335301,1.77858225 3.01516397,2.01962126 3.1402889,2.19179819 L4.2513818,3.72100097 C4.32683438,3.82466129 4.44425218,3.87980571 4.56355771,3.87980571 Z"></path>
                        <path d="M2.4273443,6.23143278 L0.629664446,5.64738862 C0.42681357,5.58226467 0.209858873,5.69274583 0.144001722,5.89482587 C0.078340588,6.09729055 0.188972744,6.31459255 0.391438041,6.38044906 L2.18915649,6.96453118 C2.22865509,6.97732519 2.26892482,6.98352985 2.30823109,6.98352985 C2.47081192,6.98352985 2.6219095,6.87983032 2.67478029,6.71709515 C2.74044451,6.5146305 2.62980959,6.29729051 2.4273443,6.23143278 Z"></path>
                        <path d="M2.18915649,10.0678701 L0.391438041,10.6519143 C0.188972744,10.7177708 0.078340588,10.9351108 0.144001722,11.1375767 C0.196872515,11.3003118 0.347970094,11.4040101 0.510551244,11.4040101 C0.549896087,11.4040101 0.590126958,11.3978067 0.629664446,11.3849735 L2.4273443,10.8009305 C2.62980959,10.7350728 2.74044451,10.517772 2.67478033,10.3153061 C2.60911611,10.1133804 2.39254667,10.0027449 2.18915649,10.0678701 Z"></path>
                        <path d="M11.8599023,3.87980571 C11.9791693,3.87980571 12.0965865,3.82466129 12.1720397,3.72100097 L13.2829396,2.19179819 C13.4080646,2.01962126 13.3698761,1.77858225 13.1976998,1.65345732 C13.0251756,1.52871826 12.7845224,1.56690672 12.6594012,1.73869778 L11.5484963,3.26790117 C11.4233726,3.44007749 11.4615611,3.68107855 11.6337374,3.80624143 C11.7022155,3.85591375 11.7814442,3.87980571 11.8599023,3.87980571 Z"></path>
                        <path d="M21.1059478,12.1957988 C21.108415,12.1242766 21.1095322,12.0526013 21.1095322,11.9812714 C21.1095322,8.54036275 18.3634943,5.74110801 14.9882498,5.74110801 C14.1067121,5.74110801 13.2545783,5.93590413 12.47944,6.29158691 C11.6742767,4.75336622 10.0648811,3.69972933 8.21163634,3.69972933 C5.5559233,3.69972933 3.3952397,5.86037493 3.3952397,8.51627786 C3.3952397,9.67993409 3.81026624,10.7484071 4.49981985,11.5818522 C3.92024637,12.4446999 3.5811729,13.4819976 3.5811729,14.5972905 C3.5811729,17.5873723 6.01372472,20.0199254 9.00376918,20.0199254 L20.6946214,20.0199254 C22.8577312,20.0199254 24.6174158,18.2602407 24.6174158,16.097131 C24.6174158,14.0728614 23.0763831,12.4020022 21.1059478,12.1957988 Z M20.6946214,19.2492154 L9.00376918,19.2492154 C6.43877057,19.2492154 4.35188218,17.1622891 4.35188218,14.5972904 C4.35188218,13.697603 4.61284473,12.8596499 5.05692727,12.1470519 C5.19384415,11.927284 5.3479087,11.7200785 5.51842819,11.5267463 C6.37148812,10.5596208 7.61587861,9.94536545 9.00376918,9.94536545 L9.09186085,9.94536545 C9.51663782,9.94536545 9.90522925,9.98544285 10.2633008,10.0552304 C10.8115061,10.1620513 11.2855309,10.3408549 11.6934677,10.5664037 C11.927725,10.6959595 12.1404014,10.8405057 12.3335033,10.9951105 C13.3089895,11.77607 13.7833231,12.810478 13.9952681,13.4377588 C14.0983894,13.7430361 14.1397763,13.9522065 14.1464428,13.9878139 C14.1851703,14.1968691 14.3859408,14.3347868 14.594996,14.2967907 C14.80405,14.2584099 14.9425472,14.058372 14.9045119,13.8493559 C14.8987702,13.8176024 14.4821641,11.6752236 12.6810545,10.3020503 C12.4785506,10.147677 12.2572796,10.0040165 12.0183598,9.87318912 C11.5365513,9.60933676 10.9798285,9.40032072 10.3329732,9.28247845 C10.7659578,8.50344583 11.3754344,7.8583619 12.0936195,7.38584019 C12.3131559,7.24140912 12.5428281,7.11366387 12.7810545,7.00314472 C13.4626694,6.68688399 14.212069,6.51181664 14.9882498,6.51181664 C17.9386414,6.51181664 20.3388223,8.96540921 20.3388223,11.9812714 C20.3388223,12.1496722 20.3313081,12.3194206 20.316434,12.4861248 C20.2957412,12.5918664 20.3203639,12.7023084 20.3854903,12.7898231 C20.4581284,12.8874723 20.5728873,12.945044 20.6946215,12.945044 C22.4326871,12.945044 23.8467059,14.3590641 23.8467059,16.097131 C23.8467059,17.8351575 22.4326871,19.2492154 20.6946214,19.2492154 Z M4.16594898,8.51627782 C4.16594898,6.28542139 5.98077683,4.47043857 8.21163631,4.47043857 C9.77181958,4.47043857 11.1261486,5.35972204 11.8008655,6.65663361 C10.8373635,7.25593648 10.0364425,8.12371737 9.51370881,9.18633236 C9.37652244,9.17862581 9.23579087,9.17465678 9.09186082,9.17465678 L9.00376915,9.17465678 C7.41441228,9.17465678 5.98709661,9.86621392 4.99438436,10.9591957 C4.4770071,10.2794685 4.16594898,9.43450095 4.16594898,8.51627782 Z"></path>
                    </g>
                </g>
            </g>
        </g>
    </g>
</svg>