<?xml version="1.0" encoding="UTF-8"?>
<svg width="165px" height="37px" viewBox="0 0 165 37" version="1.1" xmlns="http://www.w3.org/2000/svg" xmlns:xlink="http://www.w3.org/1999/xlink">
    <!-- Generator: Sketch 47 (45396) - http://www.bohemiancoding.com/sketch -->
    <title>Finnair</title>
    <desc>Created with Sketch.</desc>
    <defs></defs>
    <g id="Page-1" stroke="none" stroke-width="1" fill="none" fill-rule="evenodd">
        <g id="Large-Device_Airtickets_design" transform="translate(-860.000000, -1777.000000)">
            <g id="Group-2" transform="translate(-2.000000, 1679.000000)">
                <g id="Airlines" transform="translate(82.000000, 81.000000)">
                    <g id="Finnair" transform="translate(780.000000, 17.000000)">
                        <path d="M0.760263158,18.6228947 C0.760263158,8.59105263 9.01263158,0.458684211 19.1928947,0.458684211 C29.3723684,0.458684211 37.6247368,8.59105263 37.6247368,18.6228947 C37.6247368,28.6555263 29.3723684,36.7878947 19.1928947,36.7878947 C9.01263158,36.7878947 0.760263158,28.6555263 0.760263158,18.6228947 Z M1.13368421,21.7184211 L25.3807895,21.7184211 C26.0810526,20.4007895 26.7386842,19.1660526 27.3568421,18.0955263 L27.5226316,18.0134211 C27.5226316,18.0134211 32.4607895,18.0955263 32.4607895,18.0134211 C32.9557895,17.3131579 33.2028947,16.9010526 33.8194737,15.8313158 L28.6342105,15.8313158 C28.9626316,15.1728947 29.0439474,15.0489474 29.3328947,14.3905263 C31.3492105,14.3905263 32.5444737,14.3905263 34.6428947,14.3905263 L36.1665789,12.0023684 L28.3460526,12.0023684 L28.4273684,12.0023684 C28.1392105,12.0023684 27.8502632,11.9621053 27.6039474,12.1673684 C27.5226316,12.2084211 27.3560526,12.4578947 27.3560526,12.4578947 L27.2739474,12.5794737 L26.0810526,14.6368421 L24.3521053,17.7655263 C24.1452632,18.1365789 23.8989474,18.3836842 23.4868421,18.5478947 C23.3636842,18.5897368 23.1173684,18.6718421 22.5402632,18.6718421 L3.11052632,18.6718421 C2.73868421,19.3713158 2.04,20.4007895 1.13368421,21.7184211 Z" id="Fill-1" fill="#AFC0D5"></path>
                        <path d="M145.334211,12.0023684 C142.511053,17.0676316 139.687105,22.1755263 136.988684,27.1989474 C135.037105,27.1989474 133.874211,27.1989474 131.798684,27.1989474 L131.880789,26.9921053 C134.663684,21.8431579 137.153684,17.2342105 139.977632,12.1689474 L140.018684,12.0023684 C141.804474,12.0023684 143.632105,12.0023684 145.334211,12.0023684" id="Fill-2" fill="#AFC0D5"></path>
                        <path d="M115.813421,12.2936842 L107.842105,26.8255263 L107.675526,27.1989474 L102.982895,27.1989474 C102.735,26.8255263 102.693158,26.6597368 102.36,25.7873684 C101.280789,22.8394737 99.9102632,19.6010526 98.9139474,16.6113158 L98.7892105,16.9026316 C96.9631579,20.3068421 95.0534211,23.8365789 93.2676316,27.1989474 C91.4818421,27.1989474 89.9044737,27.1989474 88.0776316,27.1989474 L88.6586842,26.2026316 L96.3821053,12.0023684 C98.1260526,12.0023684 99.5786842,12.0023684 101.197895,12.0023684 L101.654211,12.0023684 C102.9,15.615 104.062105,18.6876316 105.391579,21.9678947 C106.721053,19.4763158 107.467105,18.1886842 109.584474,14.3281579 L110.913158,12.0023684 L115.978421,12.0023684 L115.813421,12.2936842" id="Fill-3" fill="#AFC0D5"></path>
                        <path d="M92.8942105,12.0023684 C90.1128947,17.1931579 87.7460526,21.4278947 84.5478947,27.1989474 C82.8039474,27.1989474 81.2265789,27.1989474 79.7321053,27.1578947 C78.5281579,23.7528947 77.0328947,19.9744737 75.8297368,16.6113158 C74.9573684,18.1484211 75.6213158,17.0273684 75.2486842,17.5665789 C73.4628947,20.9715789 71.8839474,23.8365789 70.0578947,27.1578947 C68.4394737,27.1989474 66.8605263,27.1989474 65.0328947,27.1989474 C65.0328947,27.1989474 65.1165789,27.0339474 65.4078947,26.5760526 C68.0226316,21.6765789 70.4731579,17.1513158 73.3381579,12.0023684 C74.7907895,12.0023684 76.5757895,12.0023684 78.3197368,12.0023684 C78.6947368,12.9165789 78.9426316,13.4976316 79.2757895,14.3281579 C80.3968421,17.1513158 81.3513158,19.56 82.3476316,22.0507895 L82.5560526,21.5526316 C84.3410526,18.2305263 85.8355263,15.615 87.7878947,12.0023684 C89.4063158,12.0023684 91.0255263,12.0023684 92.6865789,12.0023684 L92.8942105,12.0023684" id="Fill-4" fill="#AFC0D5"></path>
                        <path d="M69.975,12.0023684 C66.9852632,17.4836842 64.5347368,22.0507895 61.7115789,26.9921053 L61.6286842,27.1989474 C59.8847368,27.1989474 57.8921053,27.1989474 56.3565789,27.1989474 L56.5215789,26.8673684 C59.3036842,21.885 62.0028947,16.9855263 64.7013158,12.0023684 L64.9097368,12.0023684 C66.6118421,12.0023684 68.0644737,12.0023684 69.7255263,12.0023684 L69.975,12.0023684" id="Fill-5" fill="#AFC0D5"></path>
                        <path d="M61.6705263,12.0023684 L59.3865789,15.8644737 C56.19,15.8644737 53.1584211,15.8644737 48.8407895,15.8644737 C48.2597368,16.9855263 47.6786842,18.1484211 48.0521053,17.3589474 L47.2618421,18.7713158 C50.6265789,18.7713158 51.5810526,18.7713158 57.6007895,18.7713158 C57.9339474,18.7713158 57.6844737,18.7713158 57.8092105,18.8115789 L56.0234211,22.1336842 L55.8568421,22.3413158 L45.3536842,22.2994737 C44.4805263,23.8776316 43.6507895,25.3721053 42.5715789,27.1989474 C40.9523684,27.1989474 39.1665789,27.1989474 37.5063158,27.1989474 L37.5481579,27.1160526 C40.1628947,22.2994737 41.865,19.1857895 44.5634211,14.3281579 C45.6434211,12.0023684 47.2618421,12.0023684 48.4665789,12.0023684 C53.0336842,12.0023684 57.3110526,12.0023684 61.5055263,12.0023684 L61.6705263,12.0023684" id="Fill-6" fill="#AFC0D5"></path>
                        <path d="M157.796307,15.864405 C158.502109,15.864405 158.585634,16.3212162 158.460527,16.5694457" id="Stroke-7" stroke="#FFFFFE" stroke-width="0.458"></path>
                        <path d="M129.431842,15.8644737 L127.894737,18.7713158 L120.920526,18.7713158 C121.460526,17.8571053 121.666579,17.4 121.833158,16.9855263 C122.206579,16.3626316 123.037895,15.8226316 123.785526,15.8644737 C125.612368,15.8644737 125.529474,15.8226316 126.982105,15.8644737 L129.431842,15.8644737 Z M136.656316,12.0023684 C133.874211,17.0676316 131.133947,22.0926316 128.433947,27.1989474 L123.285789,27.1989474 L123.369474,26.9921053 C124.406842,25.2063158 124.864737,24.2928947 125.735526,22.6736842 L125.985789,22.2994737 L118.968158,22.3413158 C117.764211,24.4594737 117.182368,25.5386842 116.269737,27.1989474 L110.996842,27.1989474 L111.495,26.3273684 C113.986579,21.7602632 116.020263,18.1484211 118.428947,13.6634211 C119.424474,11.7536842 121.501579,12.0023684 123.535263,12.0023684 L136.656316,12.0023684 L136.656316,12.0023684 Z" id="Fill-9" fill="#AFC0D5"></path>
                        <path d="M151.188947,17.1513158 C151.561579,16.5702632 151.645263,16.4044737 151.935,15.8644737 L157.789737,15.8644737 C158.496316,15.8644737 158.579211,16.3207895 158.454474,16.5702632 C157.998158,17.5665789 157.665,18.6465789 156.543947,18.8115789 L150.274737,18.8115789 C150.813947,17.7323684 150.732632,18.0228947 151.188947,17.1513158 Z M162.440526,12.0023684 C163.603421,11.9613158 164.309211,12.3347368 164.557105,12.9584211 C165.18,14.2026316 163.893158,16.3626316 162.813158,18.3142105 C161.360526,20.8878947 160.946053,22.2994737 159.119211,22.2994737 L156.794211,22.3413158 L156.585789,22.2994737 L158.621053,27.1989474 C157.083947,27.1578947 155.422895,27.1578947 153.678947,27.1989474 C153.139737,25.9128947 152.807368,25.2063158 152.31,23.8776316 L151.645263,22.2994737 L148.365789,22.3413158 L148.074474,22.7976316 L145.706842,27.1989474 L140.393684,27.1989474 L140.475789,27.0339474 L147.907105,13.4976316 L148.697368,12.0023684 L162.440526,12.0023684 L162.440526,12.0023684 Z" id="Fill-10" fill="#AFC0D5"></path>
                    </g>
                </g>
            </g>
        </g>
    </g>
</svg>