<?xml version="1.0" encoding="UTF-8"?>
<svg width="88px" height="60px" viewBox="0 0 88 60" version="1.1" xmlns="http://www.w3.org/2000/svg" xmlns:xlink="http://www.w3.org/1999/xlink">
    <!-- Generator: Sketch 47 (45396) - http://www.bohemiancoding.com/sketch -->
    <title>Fill 3</title>
    <desc>Created with Sketch.</desc>
    <defs></defs>
    <g id="Page-1" stroke="none" stroke-width="1" fill="none" fill-rule="evenodd">
        <g id="Large-Device_Airtickets_design" transform="translate(-314.000000, -1760.000000)" fill="#AFC0D5">
            <g id="Group-2" transform="translate(-2.000000, 1679.000000)">
                <g id="Airlines" transform="translate(82.000000, 81.000000)">
                    <path d="M285.714286,18.6428571 C285.285714,19.0714286 284.928571,20.1428571 284.928571,21.0714286 C284.928571,21.5714286 284.928571,23.0357143 284.928571,23.0357143 C284.928571,23.0357143 286.535714,23.0357143 286.928571,23.0357143 C287.714286,23.0357143 288.714286,22.3214286 288.964286,21.9642857 C288.964286,21.9285714 288.964286,20 288.964286,20 C288.964286,20 289.464286,20.7142857 290.035714,21.1071429 C290.25,20.8571429 292.071429,18.6428571 293.607143,18.6071429 C296.142857,18.6071429 295.571429,21.8214286 294.535714,22.8571429 C294.178571,23.1785714 292.678571,24.5714286 292.214286,25.0357143 C291,26.1785714 288.928571,25.6071429 288.928571,22.6428571 C288.928571,22.6428571 286.714286,24.75 286.392857,25.0357143 C286.071429,25.3214286 284.928571,26.5357143 284.928571,26.5357143 C284.928571,26.5357143 284.928571,31.25 284.928571,31.75 C284.928571,34.25 284.071429,35.0714286 283.392857,35.8214286 C283.142857,36.1428571 280.321429,38.6785714 279.928571,38.9642857 L279.035714,39 C279.035714,39 280.678571,37.5 281,37.1428571 C281.392857,36.75 281.821429,35.9642857 281.821429,34.6428571 C281.821429,34.3214286 281.785714,26.4642857 281.785714,26.4642857 C281.785714,26.4642857 269.5,26.4642857 268.964286,26.4642857 C264.5,26.4642857 263.535714,21.5 263.535714,20.1785714 C263.5,19.7857143 263.535714,15.8571429 263.535714,15.2142857 C263.535714,14.4285714 263,13.0357143 262.178571,12.6071429 L263.428571,12.6071429 C263.571429,12.6785714 264.357143,13 264.357143,16.0357143 C264.357143,16.0357143 264.321429,19.5714286 264.321429,19.75 C264.321429,21.2857143 265.535714,23.0357143 267.285714,23.0357143 C267.678571,23.0357143 281.821429,23.0357143 281.821429,23.0357143 C281.821429,22.6428571 282.214286,21.1785714 282.892857,20.3928571 C283.285714,19.9285714 286.428571,17.1071429 286.75,16.8214286 L287.678571,16.8214286 C287.535714,16.9285714 286.035714,18.2857143 285.714286,18.6428571 Z M290.464286,21.6071429 C290.928571,21.1071429 292.535714,20.9642857 292.964286,21.5357143 C294,22.9642857 293.285714,24.3214286 291.714286,23.0357143 C291.321429,22.7142857 290.464286,21.6071429 290.464286,21.6071429 Z M282.928571,3.53571429 C283.25,3.21428571 286.535714,0.25 286.75,0 L287.678571,0.0357142857 C287.464286,0.25 286.285714,1.25 285.928571,1.64285714 C285.571429,2.03571429 284.928571,2.82142857 284.928571,4.28571429 C284.928571,4.67857143 284.892857,13.5 284.892857,13.9642857 C284.892857,15.7857143 283.928571,16.9642857 283.535714,17.4285714 C283.214286,17.7857143 280.25,20.4285714 279.964286,20.6785714 L279.071429,20.6785714 C279.214286,20.5357143 280.75,19.1071429 281,18.8571429 C281.357143,18.5 281.821429,17.5 281.821429,16.7857143 C281.821429,16.4642857 281.821429,7.10714286 281.821429,6.71428571 C281.821429,5.10714286 282.678571,3.78571429 282.928571,3.53571429 Z M275.535714,40.1071429 C275.535714,40.1071429 281.357143,40.1071429 281.678571,40.1071429 C284.035714,40.1071429 285.75,38.5 286.357143,37.8928571 C289.785714,34.5714286 289.821429,32.4642857 288.714286,31.3214286 C288.5,31.0714286 287.321429,29.8571429 287.321429,29.8571429 L287.321429,25.8571429 C287.321429,25.8571429 288.392857,26.8571429 288.535714,27 C288.857143,27.3214286 289.964286,28.3571429 289.964286,30.1071429 C289.964286,30.3571429 289.964286,33.9642857 289.964286,35.3214286 C289.964286,37.2142857 289.392857,39.25 287.892857,40.75 C286.392857,42.25 284.142857,43.2857143 281.642857,43.2857143 L279.214286,43.2857143 L275.535714,40.1071429 Z M274.928571,30.9642857 C274.928571,31.6785714 272.678571,33.5357143 272.535714,33.6428571 C272.392857,32.8928571 271.821429,32.0714286 270.142857,30.3928571 L272.607143,27.9642857 C274.25,29.6071429 274.928571,29.9285714 274.928571,30.9642857 Z M279.178571,2.89285714 C279.642857,3.39285714 280.714286,4.71428571 280.071429,5.35714286 C279.5,5.92857143 278.642857,6.82142857 278.642857,6.82142857 C278.607143,6.5 277.785714,5.71428571 277.785714,5.71428571 C277.785714,5.71428571 277.785714,8.07142857 277.785714,8.35714286 C277.75,9.42857143 277.357143,9.75 277.357143,9.75 C277.357143,9.75 279.321429,11.7142857 279.321429,14.2142857 C279.321429,15.4285714 279.321429,16.5714286 279.321429,16.7857143 C279.321429,17.3214286 279.214286,17.7142857 278.857143,18.1071429 C278.678571,18.2857143 276.857143,20.1428571 276.571429,20.3928571 C276.035714,20.8571429 275.464286,20.9642857 275.071429,20.9642857 C274.75,20.9642857 268.464286,20.9642857 268.25,20.9642857 C267.178571,20.9642857 266.071429,20.1071429 266.071429,19.2857143 C266.071429,19.0714286 266.107143,16.75 266.107143,16.75 C266.464286,17.1428571 266.821429,17.6428571 267.678571,17.6071429 C268.321429,17.6071429 269.035714,17.0714286 269.214286,16.8928571 C269.428571,16.7142857 274.357143,11.5357143 274.357143,11.5357143 C274.357143,11.5357143 272.035714,9.39285714 270.535714,8.35714286 C269.785714,7.85714286 268.785714,8.5 268.642857,9.14285714 C268.178571,11.2142857 268.642857,14.2857143 268.642857,14.2857143 C268.642857,14.2857143 267.107143,12.7857143 266.75,12.4285714 C266,11.6428571 266.035714,9.92857143 266.928571,9.03571429 C267.071429,8.89285714 268.464286,7.35714286 270.178571,7.35714286 C270.464286,7.35714286 272.607143,7.35714286 272.892857,7.35714286 C274.714286,7.35714286 276.714286,9.17857143 276.714286,9.17857143 C276.714286,9.17857143 277,8.85714286 277,8.53571429 C277,7.60714286 276.964286,5.07142857 276.964286,5.07142857 C275.607143,3.71428571 275.428571,2.28571429 276.071429,1.64285714 C277.285714,0.428571429 277.75,0 277.75,0 C277.75,0 277.75,1.46428571 279.178571,2.89285714 Z M270.642857,16.5714286 C270.785714,16.4285714 275,12.0714286 275,12.0714286 C275,12.0714286 277.392857,14.5357143 278.178571,15.8928571 C278.535714,16.5357143 278.964286,17.8214286 276.892857,17.8214286 C276.642857,17.8214286 269.285714,17.8214286 269.214286,17.8214286 C269.857143,17.4285714 269.964286,17.25 270.642857,16.5714286 Z M261.892857,23.5357143 C261.892857,23.5357143 262.821429,23.5357143 262.821429,26.9285714 C262.821429,27.2857143 262.821429,29.7142857 262.821429,30.25 C262.821429,34.2857143 266.464286,36.7142857 269.178571,36.6428571 C269.607143,36.6428571 276.142857,36.6071429 276.464286,36.6071429 C278.071429,36.6071429 279.464286,34.25 277.714286,32.8928571 C277.357143,32.6071429 276.535714,31.7142857 276.535714,31.7142857 L276.535714,27.6071429 C276.535714,27.6071429 277.357143,28.4285714 277.678571,28.7142857 C278.178571,29.2142857 279.178571,29.9285714 279.178571,31.6785714 C279.178571,31.9285714 279.178571,33.1785714 279.178571,33.6785714 C279.178571,35.7142857 278.428571,36.3571429 277.714286,37.1071429 C277.5,37.3571429 276.928571,38 276.5,38.3928571 C275.285714,39.4642857 274.571429,39.9642857 272.607143,39.9642857 C272.142857,39.9642857 269.928571,39.9642857 269.25,39.9642857 C265.285714,39.9642857 262,36.2857143 262,32.2857143 C262,31.8928571 262,26.6785714 262,26.1785714 C262,24.2857143 260.642857,23.5357143 260.642857,23.5357143 L261.892857,23.5357143 Z M269.928571,30.9642857 C269.928571,31.6785714 267.678571,33.5357143 267.535714,33.6785714 C267.392857,32.8928571 266.821429,32.0714286 265.142857,30.3928571 L267.607143,27.9642857 C269.25,29.6071429 269.928571,29.9642857 269.928571,30.9642857 Z M244.321429,58.1428571 C246.785714,58.1428571 247.392857,56.9285714 247.392857,56.9285714 L247.357143,57.8928571 C247.357143,58.6428571 246.714286,60 244.821429,60 C243.535714,60 241.928571,60 240.714286,60 C240.214286,60 239.75,60 239.392857,60 C237.107143,60 236.607143,60 236.5,60 C236.5,60 235.464286,59.9285714 235.464286,57.3571429 L235.428571,47.1071429 C235.464286,44.5357143 234,43.2857143 234,43.2857143 C234.357143,43.2857143 239.964286,43.2857143 242.464286,43.2857143 C246.785714,43.2857143 247.107143,46.25 247.107143,46.25 C245.321429,45.0714286 243.607143,45.1071429 241.357143,45.0714286 C241.178571,45.0714286 238.75,45.0714286 238.75,45.0714286 C239.142857,45.5357143 239.142857,47.1071429 239.142857,47.1071429 L239.142857,47.8214286 C239.142857,48.6071429 239.142857,48.9285714 239.142857,48.9285714 L240.964286,48.9285714 C243.785714,48.9285714 244.714286,51.1785714 244.714286,51.1785714 C243.428571,50.4642857 242.071429,50.6071429 240.964286,50.6071429 C240,50.6071429 239.142857,50.6428571 239.142857,50.6428571 L239.142857,56.25 C239.25,57.1428571 239.178571,58.1428571 240.392857,58.1428571 C240.821429,58.1428571 243.928571,58.1428571 244.321429,58.1428571 Z M266.464286,57.2857143 C266.464286,59.0357143 267.821429,59.9642857 267.821429,59.9642857 C267.821429,59.9642857 266.142857,59.9642857 264.285714,59.9642857 C264.285714,59.9642857 263.285714,59.9642857 263.25,57.2857143 C263.25,56.75 263.25,50.75 263.25,50.75 C263.285714,49.75 262.392857,48.8571429 261.321429,48.8571429 C260,48.8571429 259.535714,49.8214286 259.428571,50.2142857 L259.428571,57.25 C259.428571,59 260.785714,59.9642857 260.785714,59.9642857 L257.25,59.9642857 C257.25,59.9642857 256.214286,59.9642857 256.214286,57.2857143 L256.214286,50.75 C256.214286,49.7142857 255.285714,48.8214286 254.428571,48.8214286 C252.928571,48.8214286 252.392857,49.8928571 252.357143,50.2142857 L252.357143,57.2857143 C252.357143,58.9642857 253.607143,59.9285714 253.678571,59.9642857 L250.178571,59.9642857 C250.178571,59.9642857 249.107143,59.9285714 249.107143,57.2857143 L249.142857,49.3571429 C249.142857,47.1785714 247.892857,46.6785714 247.892857,46.6785714 L250.035714,46.6785714 C252.178571,46.6785714 252.25,49.1785714 252.25,49.1785714 C252.25,49.1785714 252.928571,46.6071429 255.642857,46.6071429 C257.071429,46.6071429 258.821429,47.3928571 259.321429,49.1071429 C259.607143,48.4642857 260.285714,46.6071429 262.535714,46.6071429 C264.214286,46.6071429 266.464286,47.3571429 266.464286,50.1428571 L266.464286,57.2857143 Z M272.642857,57.2857143 C272.642857,59.0357143 274,59.9642857 274,59.9642857 C274,59.9642857 272.321429,59.9642857 270.464286,59.9642857 C270.464286,59.9642857 269.392857,59.9642857 269.392857,57.3214286 L269.392857,49.3214286 C269.392857,47.2142857 268.178571,46.6785714 268.178571,46.6785714 L270.321429,46.6785714 C271.071429,46.6785714 272.642857,46.6785714 272.642857,49.6428571 L272.607143,57.2857143 L272.642857,57.2857143 Z M283.428571,47.6785714 C283.428571,48.5357143 283.428571,49.9285714 283.428571,49.9285714 C282.535714,48.8214286 280.964286,48.6428571 279.785714,49.3928571 C279.321429,49.7142857 279.035714,50.1428571 278.928571,50.75 L278.928571,57.25 C278.928571,58.9642857 280.178571,59.9285714 280.285714,59.9642857 L276.785714,59.9642857 C276.785714,59.9642857 275.714286,59.9285714 275.714286,57.2857143 L275.714286,49.3214286 C275.714286,47.1785714 274.5,46.6785714 274.5,46.6785714 L276.607143,46.6785714 C278.178571,46.6785714 278.714286,47.2857143 278.892857,49.3571429 C278.892857,49.3571429 279.428571,46.7142857 281.642857,46.7142857 C283.107143,46.7142857 283.428571,47.6785714 283.428571,47.6785714 Z M299.821429,48.1428571 C299.214286,48.1428571 299.857143,48.1428571 298.928571,48.1428571 L298.928571,57.3571429 C298.928571,59.0357143 300.285714,59.9642857 300.285714,59.9642857 C300.285714,59.9642857 298.714286,59.9642857 296.785714,59.9642857 C296.785714,59.9642857 295.714286,59.9642857 295.714286,57.3928571 L295.714286,48.1428571 L293.5,48.1071429 C293.5,48.1071429 295.571429,47.1071429 296.571429,46.2857143 C298.178571,44.9642857 298.928571,43.6428571 298.928571,43.6428571 L298.928571,46.6785714 L301.892857,46.6785714 L301.892857,48.6785714 C301.892857,48.6785714 301,48.1428571 299.821429,48.1428571 Z M310.464286,52.1785714 C308.5,54.2142857 306.964286,53.8928571 305.714286,55.4285714 C305.714286,55.4285714 305.928571,57.4642857 307.464286,58.1785714 C308,58.4285714 310.178571,59.2142857 311.571429,56.7857143 L311.571429,58.9285714 C311.571429,58.9285714 310.678571,59.9642857 307.821429,59.9642857 C304.357143,59.9642857 302,57.2857143 302,53.6071429 C302,50 303.928571,46.6428571 307.571429,46.6071429 C311.142857,46.6071429 313.071429,49.4642857 310.464286,52.1785714 Z M308.321429,51.3214286 C307.428571,52.9642857 306.285714,53.1428571 305.5,53.9642857 C305.5,53.9642857 305.071429,47.8571429 307.357143,47.6785714 C309.357143,47.5357143 308.892857,50.25 308.321429,51.3214286 Z M271,45.6071429 C270.107143,45.6071429 269.357143,44.8928571 269.357143,44 C269.357143,43.1071429 270.107143,42.3928571 271,42.3928571 C271.892857,42.3928571 272.642857,43.1071429 272.642857,44 C272.642857,44.8928571 271.892857,45.6071429 271,45.6071429 Z M287.107143,58.4642857 C286.285714,58.4642857 285.714286,57.6071429 285.714286,56.7857143 C285.714286,53.4642857 288.428571,53 289.178571,52.1071429 L289.178571,57.7142857 C288.857143,58 288.535714,58.4642857 287.107143,58.4642857 Z M289.178571,50.8214286 C289.607143,50.0357143 289.428571,49.4642857 289.428571,49.4642857 C289.428571,49 289.321429,48.1071429 287.535714,48.1071429 C285.678571,48.1071429 284.964286,49.9642857 284.964286,49.9642857 C284.964286,49.9642857 284.964286,48.25 284.964286,47.6428571 C284.964286,47.6428571 286.25,46.6785714 288.25,46.6785714 C290.357143,46.6785714 292.357143,48.0357143 292.357143,49.8214286 L292.357143,57.2857143 C292.357143,59.0357143 293.714286,59.9642857 293.714286,59.9642857 C293.714286,59.9642857 292.035714,59.9642857 290.214286,59.9642857 C290.214286,59.9642857 289.464286,59.8571429 289.214286,58.3928571 C288.821429,59.1428571 287.857143,60 286.285714,60 C284.642857,60 283.357143,59.4285714 282.964286,57.4642857 C282,52.5714286 288.357143,52.25 289.178571,50.8214286 Z M318.25,56.3571429 C318.214286,55.6785714 317.857143,55 316.821429,54.4285714 C316.142857,54.0357143 315.535714,53.6785714 315,53.2857143 C313.75,52.3214286 313.071429,51.3214286 313.035714,49.75 C313,47.9642857 314.928571,46.5714286 317.035714,46.5714286 C319.035714,46.5714286 320.392857,47.6428571 320.392857,47.6428571 L320.392857,49.8571429 C320.392857,49.8571429 319.642857,48.0357143 317.892857,48.0357143 C316.107143,48.0357143 315.892857,48.9285714 315.928571,49.3571429 C315.928571,49.6071429 316.285714,50.3214286 316.928571,50.75 C318.071429,51.4285714 319.535714,52.2142857 320.357143,53.2857143 C320.857143,53.9642857 321.178571,54.7142857 321.178571,55.6071429 C321.25,58.1428571 318.821429,59.9642857 316.392857,59.9642857 C314.392857,59.9642857 313.071429,59.0357143 313.071429,59.0357143 L313.071429,56.6428571 C313.071429,56.6428571 313.785714,58.5357143 315.642857,58.5357143 C317.428571,58.5357143 318.25,57.2857143 318.25,56.3571429 Z" id="Fill-3"></path>
                </g>
            </g>
        </g>
    </g>
</svg>