<?xml version="1.0" encoding="UTF-8"?>
<svg width="165px" height="52px" viewBox="0 0 165 52" version="1.1" xmlns="http://www.w3.org/2000/svg" xmlns:xlink="http://www.w3.org/1999/xlink">
    <!-- Generator: Sketch 47 (45396) - http://www.bohemiancoding.com/sketch -->
    <title>Fill 2</title>
    <desc>Created with Sketch.</desc>
    <defs></defs>
    <g id="Page-1" stroke="none" stroke-width="1" fill="none" fill-rule="evenodd">
        <g id="Large-Device_Airtickets_design" transform="translate(-80.000000, -1772.000000)" fill="#AFC0D5">
            <g id="Group-2" transform="translate(-2.000000, 1679.000000)">
                <g id="Airlines" transform="translate(82.000000, 81.000000)">
                    <path d="M25.2130274,27.4793118 C25.2130274,29.9803359 23.3879558,32.0081934 21.1573126,32.0081934 C18.8590741,32.0081934 17.0340025,29.9803359 17.0340025,27.4793118 C17.0340025,24.9782876 18.8590741,22.9504302 21.1573126,22.9504302 C23.3879558,22.9504302 25.2130274,24.9782876 25.2130274,27.4793118 Z M23.3203605,63.5751741 C23.3203605,63.5751741 16.5608357,52.1515772 28.8631708,40.8631708 C41.2331012,29.5071692 45.3564113,20.990168 44.3424826,16.3936911 C44.3424826,16.3936911 42.1118394,26.6005735 31.5669807,32.0081934 C31.5669807,32.0081934 18.2507169,42.553052 12.2347399,25.7894306 C12.2347399,25.7894306 7.43547726,31.6702171 11.6939779,38.2945514 C15.9524785,44.986481 15.4117165,43.093814 16.4932405,48.2986481 C17.5747644,53.5710774 18.3183122,59.8574355 23.3203605,63.5751741 Z M17.0340025,56.6128636 L16.4256452,56.4776731 C6.96231053,53.7738632 0,45.0540762 0,34.644408 C0,22.1392872 10.1392872,12 22.5768128,12 C29.6067186,12 35.8930766,15.1769766 40.0163867,20.2466202 L40.624744,21.1253585 L40.1515772,21.8689062 C39.4080295,23.0856206 38.461696,24.3699304 37.2449816,25.6542401 L36.7718148,26.1274068 L36.3662433,25.3162638 C33.3920524,20.8549775 28.3224088,17.9483818 22.5768128,17.9483818 C13.3838591,17.9483818 5.94838181,25.4514543 5.94838181,34.644408 C5.94838181,41.0659566 9.59852519,46.6087669 14.8709545,49.4477673 L15.4793118,49.8533388 L15.546907,50.461696 C15.8848832,52.2191725 16.2904547,54.0442442 16.7636215,55.8693159 L17.0340025,56.6128636 Z M22.8471938,57.3564113 L22.7795985,56.6804588 C22.7120033,55.2609586 22.8471938,53.6386727 23.2527653,51.8811962 L23.3203605,51.272839 L23.996313,51.272839 C32.5133142,50.5968865 39.2052438,43.4317902 39.2052438,34.644408 C39.2052438,34.1712413 39.2052438,33.6980746 39.1376485,33.2249078 L39.1376485,32.5489553 L39.54322,32.0081934 C41.0303154,30.1155264 42.1794347,28.35805 43.1257681,26.6681688 L43.4637444,25.9922163 L43.9369111,27.2089308 C44.7480541,29.5071692 45.1536256,32.0081934 45.1536256,34.644408 C45.1536256,46.8791479 35.5551004,56.8156493 23.5231463,57.3564113 L22.8471938,57.3564113 L22.8471938,57.3564113 Z M53.3326506,44.175338 L53.3326506,26.1274068 L64.6886522,26.1274068 L64.6886522,28.2904547 L55.7660795,28.2904547 L55.7660795,33.2249078 L64.0126997,33.2249078 L64.0126997,35.3879558 L55.7660795,35.3879558 L55.7660795,42.0798853 L64.6886522,42.0798853 L64.6886522,44.175338 L53.3326506,44.175338 Z M77.6669398,44.175338 L75.3687014,44.175338 L75.3687014,42.6882425 C74.6927489,43.2965998 74.0167964,43.7697665 73.3408439,44.1077427 C72.7324867,44.445719 72.0565342,44.5809095 71.2453912,44.5809095 C70.7046293,44.5809095 70.096272,44.445719 69.6231053,44.3105285 C69.0823433,44.1077427 68.6091766,43.7697665 68.2036051,43.364195 C67.8656288,42.9586235 67.5276526,42.4178615 67.3248669,41.7419091 C67.1220811,41.1335518 66.9868906,40.3900041 66.9868906,39.4436706 L66.9868906,30.6562884 L69.285129,30.6562884 L69.285129,38.3621467 C69.285129,39.1056944 69.3527243,39.7140516 69.4203195,40.1872184 C69.4203195,40.6603851 69.55551,41.0659566 69.7582958,41.4039328 C69.9610815,41.7419091 70.1638673,42.01229 70.5018435,42.1474805 C70.8398197,42.3502663 71.2453912,42.4178615 71.8537485,42.4178615 C72.3945104,42.4178615 73.0028677,42.282671 73.6112249,41.9446948 C74.2871774,41.6067186 74.8279394,41.2011471 75.3687014,40.7955756 L75.3687014,30.6562884 L77.6669398,30.6562884 L77.6669398,44.175338 Z M88.1442032,33.0897173 L88.0090127,33.0897173 C87.8738222,33.0221221 87.6710365,33.0221221 87.4682507,33.0221221 C87.3330602,33.0221221 87.0626792,33.0221221 86.7922982,33.0221221 C86.183941,33.0221221 85.5755838,33.1573126 84.9672265,33.4276936 C84.3588693,33.6304793 83.8181073,34.0360508 83.2773454,34.5768128 L83.2773454,44.175338 L80.9791069,44.175338 L80.9791069,30.6562884 L83.2773454,30.6562884 L83.2773454,32.6165506 C84.0884883,31.9405981 84.8320361,31.3998361 85.4403933,31.0618599 C86.0487505,30.7914789 86.6571077,30.6562884 87.265465,30.6562884 C87.4682507,30.6562884 87.6710365,30.6562884 87.7386317,30.6562884 C87.8738222,30.6562884 88.0090127,30.6562884 88.1442032,30.7238837 L88.1442032,33.0897173 Z M97.6751331,41.2687423 C96.9991807,42.1474805 96.1204424,42.553052 94.903728,42.553052 C93.7546088,42.553052 92.8082753,42.1474805 92.1323228,41.2687423 C91.5239656,40.3900041 91.1859893,39.1056944 91.1859893,37.4158132 C91.1859893,35.6583367 91.5239656,34.374027 92.1323228,33.4952888 C92.8082753,32.6841458 93.7546088,32.2785744 94.903728,32.2785744 C96.1204424,32.2785744 96.9991807,32.6841458 97.6751331,33.4952888 C98.2834904,34.374027 98.6214666,35.6583367 98.6214666,37.4158132 C98.6214666,39.1732896 98.2834904,40.4575993 97.6751331,41.2687423 Z M99.2974191,32.1433839 C98.2158951,30.8590741 96.7287997,30.2507169 94.903728,30.2507169 C93.0786563,30.2507169 91.5915608,30.8590741 90.5100369,32.1433839 C89.3609177,33.3600983 88.8201557,35.1175748 88.8201557,37.4158132 C88.8201557,39.6464564 89.3609177,41.3363376 90.4424416,42.6206473 C91.5239656,43.904957 93.011061,44.5809095 94.903728,44.5809095 C96.7287997,44.5809095 98.2158951,43.9725522 99.2974191,42.6882425 C100.446538,41.4715281 100.9873,39.7140516 100.9873,37.4158132 C100.9873,35.1175748 100.446538,33.3600983 99.2974191,32.1433839 Z M110.51823,44.5133142 C109.369111,44.5133142 108.287587,44.3105285 107.273658,43.904957 C106.327325,43.4993855 105.448587,42.9586235 104.705039,42.1474805 C104.029086,41.3363376 103.420729,40.3900041 103.082753,39.1732896 C102.677181,38.0241704 102.474396,36.6722655 102.474396,35.18517 C102.474396,33.6304793 102.677181,32.3461696 103.015158,31.1970504 C103.420729,30.0479312 103.961491,29.1015977 104.705039,28.2904547 C105.448587,27.4793118 106.25973,26.8709545 107.273658,26.3977878 C108.287587,25.9922163 109.369111,25.7894306 110.585825,25.7894306 C111.194183,25.7894306 111.734945,25.7894306 112.275707,25.9246211 C112.816469,25.9922163 113.289635,26.1274068 113.762802,26.2625973 C114.168374,26.3977878 114.50635,26.5329783 114.911921,26.735764 C115.317493,26.8709545 115.723064,27.0737403 116.128636,27.3441213 L116.128636,30.1831217 L115.92585,30.1831217 C115.723064,30.0479312 115.452683,29.7775502 115.114707,29.5071692 C114.776731,29.2367882 114.371159,28.9664072 113.897993,28.6960262 C113.492421,28.4256452 112.951659,28.2228595 112.410897,28.087669 C111.870135,27.9524785 111.261778,27.8848832 110.51823,27.8848832 C109.774683,27.8848832 109.031135,28.0200737 108.355182,28.2904547 C107.67923,28.628431 107.070873,29.1015977 106.530111,29.7099549 C106.056944,30.3183122 105.651372,31.1294551 105.380991,32.0081934 C105.11061,32.9545268 104.97542,34.0360508 104.97542,35.18517 C104.97542,36.4018845 105.11061,37.4834084 105.380991,38.3621467 C105.718968,39.2408849 106.124539,40.0520279 106.597706,40.6603851 C107.138468,41.2687423 107.67923,41.6743138 108.422778,42.01229 C109.09873,42.282671 109.774683,42.4178615 110.51823,42.4178615 C111.261778,42.4178615 111.870135,42.3502663 112.478492,42.2150758 C113.08685,42.01229 113.560016,41.8095043 114.033183,41.5391233 C114.50635,41.2687423 114.911921,40.9983613 115.182302,40.7279803 C115.520279,40.5251946 115.79066,40.2548136 115.993445,40.0520279 L116.128636,40.0520279 L116.128636,42.9586235 C115.723064,43.1614093 115.385088,43.2965998 115.047112,43.4993855 C114.64154,43.634576 114.235969,43.8373617 113.762802,43.9725522 C113.22204,44.175338 112.748873,44.3105285 112.275707,44.3781237 C111.870135,44.445719 111.261778,44.5133142 110.51823,44.5133142 Z M124.104875,42.01229 C123.564113,42.3502663 122.888161,42.4854568 122.212208,42.4854568 C121.33347,42.4854568 120.725113,42.282671 120.251946,41.8770995 C119.846374,41.4715281 119.643589,40.9307661 119.643589,40.1196231 C119.643589,39.4436706 119.846374,38.9029086 120.184351,38.4973372 C120.589922,38.1593609 121.130684,37.8213847 121.739041,37.6861942 C122.212208,37.4834084 122.888161,37.4158132 123.699304,37.2806227 C124.510447,37.2130274 125.253994,37.1454322 125.794756,37.077837 L125.794756,40.8631708 C125.253994,41.3363376 124.713232,41.6743138 124.104875,42.01229 Z M125.794756,44.175338 L128.025399,44.175338 L128.025399,34.914789 C128.025399,34.0360508 127.957804,33.3600983 127.687423,32.7517411 C127.484637,32.1433839 127.079066,31.6702171 126.605899,31.3322409 C126.065137,30.9266694 125.524375,30.6562884 124.848423,30.5210979 C124.240066,30.3859074 123.428923,30.3183122 122.482589,30.3183122 C121.739041,30.3183122 120.927898,30.3859074 120.184351,30.5210979 C119.373208,30.6562884 118.76485,30.7914789 118.359279,30.9266694 L118.359279,33.2249078 L118.494469,33.2249078 C119.170422,32.9545268 119.91397,32.6841458 120.589922,32.5489553 C121.33347,32.4137649 121.941827,32.3461696 122.482589,32.3461696 C122.888161,32.3461696 123.361327,32.3461696 123.766899,32.4137649 C124.17247,32.4813601 124.578042,32.6165506 124.848423,32.7517411 C125.118804,32.9545268 125.389185,33.2249078 125.524375,33.5628841 C125.659566,33.8332651 125.794756,34.3064318 125.794756,34.8471938 L125.794756,35.2527653 C124.578042,35.3203605 123.428923,35.455551 122.414994,35.5907415 C121.401065,35.6583367 120.454732,35.9287177 119.711184,36.266694 C118.900041,36.6722655 118.224088,37.2130274 117.818517,37.8213847 C117.480541,38.4973372 117.277755,39.3084801 117.277755,40.2548136 C117.277755,40.8631708 117.34535,41.4715281 117.615731,42.01229 C117.818517,42.553052 118.088898,43.0262188 118.426874,43.364195 C118.832446,43.7697665 119.305612,44.0401475 119.778779,44.2429332 C120.251946,44.445719 120.792708,44.5809095 121.33347,44.5809095 C122.009422,44.5809095 122.550184,44.5133142 122.955756,44.3781237 C123.293732,44.3105285 123.699304,44.1077427 124.104875,43.904957 C124.375256,43.7697665 124.713232,43.5669807 125.051209,43.364195 C125.32159,43.093814 125.591971,42.8910283 125.794756,42.7558378 L125.794756,44.175338 Z M138.435068,33.0897173 L138.299877,33.0897173 C138.164687,33.0221221 137.961901,33.0221221 137.759115,33.0221221 C137.623925,33.0221221 137.353544,33.0221221 137.083163,33.0221221 C136.474805,33.0221221 135.866448,33.1573126 135.258091,33.4276936 C134.649734,33.6304793 134.108972,34.0360508 133.56821,34.5768128 L133.56821,44.175338 L131.269971,44.175338 L131.269971,30.6562884 L133.56821,30.6562884 L133.56821,32.6165506 C134.379353,31.9405981 135.1229,31.3998361 135.731258,31.0618599 C136.339615,30.7914789 136.947972,30.6562884 137.556329,30.6562884 C137.759115,30.6562884 137.961901,30.6562884 138.029496,30.6562884 C138.164687,30.6562884 138.299877,30.6562884 138.435068,30.7238837 L138.435068,33.0897173 Z M146.546497,41.5391233 C145.93814,41.8095043 145.329783,41.8770995 144.721426,41.8770995 C143.572306,41.8770995 142.761163,41.4715281 142.287997,40.7279803 C141.747235,39.9168374 141.476854,38.7677181 141.476854,37.2806227 C141.476854,35.6583367 141.81483,34.4416223 142.490782,33.5628841 C143.166735,32.6841458 144.045473,32.2785744 145.262188,32.2785744 C145.735354,32.2785744 146.208521,32.3461696 146.681688,32.4813601 C147.154855,32.5489553 147.695617,32.7517411 148.236379,33.0897173 L148.236379,40.5251946 C147.763212,40.9983613 147.154855,41.2687423 146.546497,41.5391233 Z M140.39533,46.4059812 L140.39533,48.7718148 C141.003687,48.9070053 141.679639,49.0421958 142.355592,49.1773863 C143.031544,49.3125768 143.775092,49.3125768 144.451045,49.3125768 C146.478902,49.3125768 148.033593,48.7718148 149.047522,47.6902909 C150.06145,46.6763621 150.534617,44.986481 150.534617,42.6882425 L150.534617,30.6562884 L148.371569,30.6562884 L148.236379,31.1970504 C147.763212,30.9266694 147.22245,30.6562884 146.681688,30.5210979 C146.208521,30.3183122 145.600164,30.2507169 144.856616,30.2507169 C144.113068,30.2507169 143.369521,30.3859074 142.693568,30.7238837 C142.017616,31.0618599 141.409259,31.4674314 140.868497,32.0757886 C140.327735,32.6841458 139.922163,33.4276936 139.584187,34.3064318 C139.313806,35.18517 139.11102,36.1990987 139.11102,37.2806227 C139.11102,39.4436706 139.584187,41.1335518 140.53052,42.282671 C141.409259,43.4317902 142.693568,43.9725522 144.180664,43.9725522 C145.126997,43.9725522 145.870545,43.8373617 146.411307,43.634576 C147.019664,43.364195 147.628021,42.9586235 148.236379,42.4178615 L148.236379,43.634576 C148.236379,44.175338 148.236379,44.6485047 148.101188,45.1216714 C147.965998,45.5272429 147.830807,45.9328144 147.560426,46.2707907 C147.290045,46.6087669 146.884474,46.8115526 146.411307,47.0143384 C145.93814,47.2171241 145.329783,47.2847194 144.586235,47.2847194 C144.180664,47.2847194 143.775092,47.2847194 143.437116,47.2171241 C143.09914,47.1495289 142.693568,47.0819336 142.287997,46.9467431 C141.882425,46.8791479 141.544449,46.7439574 141.206473,46.6763621 C140.936092,46.5411717 140.733306,46.4735764 140.53052,46.4059812 L140.39533,46.4059812 Z M161.687833,41.2687423 C161.01188,42.1474805 160.133142,42.553052 158.916428,42.553052 C157.767308,42.553052 156.820975,42.1474805 156.212618,41.2687423 C155.536665,40.3900041 155.198689,39.1056944 155.198689,37.4158132 C155.198689,35.6583367 155.536665,34.374027 156.212618,33.4952888 C156.820975,32.6841458 157.767308,32.2785744 158.916428,32.2785744 C160.133142,32.2785744 161.01188,32.6841458 161.687833,33.4952888 C162.29619,34.374027 162.634166,35.6583367 162.634166,37.4158132 C162.634166,39.1732896 162.29619,40.4575993 161.687833,41.2687423 Z M163.377714,32.1433839 C162.228595,30.8590741 160.809095,30.2507169 158.916428,30.2507169 C157.091356,30.2507169 155.671856,30.8590741 154.522737,32.1433839 C153.441213,33.3600983 152.900451,35.1175748 152.900451,37.4158132 C152.900451,39.6464564 153.441213,41.3363376 154.522737,42.6206473 C155.604261,43.904957 157.091356,44.5809095 158.916428,44.5809095 C160.809095,44.5809095 162.228595,43.9725522 163.377714,42.6882425 C164.459238,41.4715281 165,39.7140516 165,37.4158132 C165,35.1175748 164.459238,33.3600983 163.377714,32.1433839 L163.377714,32.1433839 Z" id="Fill-2"></path>
                </g>
            </g>
        </g>
    </g>
</svg>