<?xml version="1.0" encoding="UTF-8"?>
<svg width="134px" height="43px" viewBox="0 0 134 43" version="1.1" xmlns="http://www.w3.org/2000/svg" xmlns:xlink="http://www.w3.org/1999/xlink">
    <!-- Generator: Sketch 47 (45396) - http://www.bohemiancoding.com/sketch -->
    <title>Combined Shape</title>
    <desc>Created with Sketch.</desc>
    <defs></defs>
    <g id="Page-1" stroke="none" stroke-width="1" fill="none" fill-rule="evenodd">
        <g id="Large-Device_Airtickets_design" transform="translate(-486.000000, -1771.000000)" fill="#AFC0D5">
            <g id="Group-2" transform="translate(-2.000000, 1679.000000)">
                <g id="Airlines" transform="translate(82.000000, 81.000000)">
                    <path d="M439.213034,36.2831006 L460.376689,11 L473.095479,11 L451.931824,36.2831006 L439.213034,36.2831006 Z M454.71245,36.2831006 L475.824612,11 L481.849302,11 L460.73714,36.2831006 L454.71245,36.2831006 Z M464.341656,36.2831006 L485.453817,11 L488.749374,11 L467.58572,36.2831006 L464.341656,36.2831006 Z M471.911138,36.2831006 L493.023299,11 L494.053161,11 L472.941,36.2831006 L471.911138,36.2831006 Z M478.759717,36.2831006 L499.923372,11 L500.953233,11 L479.789579,36.2831006 L478.759717,36.2831006 Z M481.179892,36.2831006 L502.292053,11 L503.321915,11 L482.209753,36.2831006 L481.179892,36.2831006 Z M483.600066,36.2831006 L504.712228,11 L505.742089,11 L484.629928,36.2831006 L483.600066,36.2831006 Z M485.968748,36.2831006 L507.132402,11 L508.162264,11 L486.998609,36.2831006 L485.968748,36.2831006 Z M488.388922,36.2831006 L509.552577,11 L510.582438,11 L489.418784,36.2831006 L488.388922,36.2831006 Z M490.809097,36.2831006 L511.921258,11 L512.95112,11 L491.838959,36.2831006 L490.809097,36.2831006 Z M497.915142,53.1213366 L497.915142,42.1018182 L503.424901,42.1018182 L506.977923,46.6847021 L506.977923,42.1018182 L511.921258,42.1018182 L511.921258,53.1213366 L506.617472,53.1213366 L502.90997,48.2294944 L502.90997,53.1213366 L497.915142,53.1213366 Z M480.561975,53.1213366 L483.909025,42.1018182 L493.126286,42.1018182 L496.473336,53.1213366 L491.375521,53.1213366 L489.109826,45.7063336 C489.058332,45.3458821 488.800867,45.0369236 488.543402,45.0369236 C488.234443,45.0369236 488.028471,45.3458821 487.925485,45.7063336 L487.050103,48.4869597 L489.933715,48.4869597 L490.86059,51.4220651 L486.17472,51.4220651 L485.659789,53.1213366 L480.561975,53.1213366 Z M527.935605,42.1018182 L539.779013,42.1018182 L539.779013,44.7279651 L533.342378,44.7279651 L533.342378,46.3242505 L539.779013,46.3242505 L539.779013,48.8989043 L533.342378,48.8989043 L533.342378,50.5466828 L539.779013,50.5466828 L539.779013,53.1213366 L527.935605,53.1213366 L527.935605,42.1018182 Z M452.498248,53.1213366 L452.498248,42.1018182 L463.981204,42.1018182 L463.981204,45.2428959 L457.905021,45.2428959 L457.905021,47.0451536 L463.981204,47.0451536 L463.981204,50.1862313 L457.905021,50.1862313 L457.905021,53.1213366 L452.498248,53.1213366 Z M423.147194,53.1213366 L423.147194,42.1018182 L428.605461,42.1018182 L428.605461,53.1213366 L423.147194,53.1213366 Z M406,53.1213366 L409.34705,42.1018182 L418.512818,42.1018182 L421.859868,53.1213366 L416.762053,53.1213366 L414.547851,45.7063336 C414.444865,45.3458821 414.238892,45.0369236 413.929934,45.0369236 C413.620975,45.0369236 413.415003,45.3458821 413.312017,45.7063336 L412.488128,48.4869597 L415.37174,48.4869597 L416.247122,51.4220651 L411.561252,51.4220651 L411.046322,53.1213366 L406,53.1213366 Z M439.4705,47.0966467 C439.933937,47.0966467 440.345882,46.6847021 440.345882,46.1697713 C440.345882,45.6548405 439.933937,45.2428959 439.4705,45.2428959 L437.153311,45.2428959 L437.153311,53.1213366 L431.746538,53.1213366 L431.746538,42.1018182 L442.663071,42.1533113 C444.413835,42.1533113 445.804148,43.4921313 445.804148,45.2428959 C445.804148,46.8391813 444.619807,48.1265082 443.075015,48.3324805 L446.422065,53.1213366 L440.397375,53.1213366 L437.977201,49.6198074 L437.153311,49.6198074 L437.153311,47.0451536 L439.4705,47.0966467 Z M473.404437,47.0966467 C473.919368,47.0966467 474.331313,46.6847021 474.331313,46.1697713 C474.331313,45.6548405 473.919368,45.2428959 473.404437,45.2428959 L471.138742,45.2428959 L471.138742,53.1213366 L465.731969,53.1213366 L465.731969,42.1018182 L476.597008,42.1533113 C478.347773,42.1533113 479.738086,43.4921313 479.738086,45.2428959 C479.738086,46.8391813 478.553745,48.1265082 477.008953,48.3324805 L480.356003,53.1213366 L474.331313,53.1213366 L471.911138,49.6198074 L471.138742,49.6198074 L471.138742,47.0451536 L473.404437,47.0966467 Z M513.466051,47.6115774 C513.466051,44.9854305 513.466051,47.6115774 513.466051,47.6115774 C513.466051,44.9854305 514.186954,41.7413667 521.035533,41.7928598 C523.66168,41.7928598 525.66991,42.4622698 526.442306,42.7712282 L526.442306,46.4272367 C524.897514,46.0152921 519.181782,44.5734859 519.181782,47.6115774 C519.181782,50.701162 524.897514,49.2078628 526.442306,48.8474113 L526.442306,52.5034197 C525.66991,52.7608851 523.66168,53.4817882 521.035533,53.4817882 C514.186954,53.5332812 513.466051,50.2892174 513.466051,47.6115774 Z" id="Combined-Shape"></path>
                </g>
            </g>
        </g>
    </g>
</svg>