<?xml version="1.0" encoding="UTF-8"?>
<svg width="118px" height="52px" viewBox="0 0 118 52" version="1.1" xmlns="http://www.w3.org/2000/svg" xmlns:xlink="http://www.w3.org/1999/xlink">
    <!-- Generator: Sketch 47 (45396) - http://www.bohemiancoding.com/sketch -->
    <title>Combined Shape</title>
    <desc>Created with Sketch.</desc>
    <defs></defs>
    <g id="Page-1" stroke="none" stroke-width="1" fill="none" fill-rule="evenodd">
        <g id="Large-Device_Airtickets_design" transform="translate(-690.000000, -1762.000000)" fill="#AFC0D5">
            <g id="Group-2" transform="translate(-2.000000, 1679.000000)">
                <g id="Airlines" transform="translate(82.000000, 81.000000)">
                    <path d="M628.021164,39.4638448 L628.021164,36.3915344 L631.368607,36.3915344 L631.368607,39.4638448 L628.021164,39.4638448 Z M616.098765,36.5749559 L620.179894,36.5749559 L626.186949,53.5873016 L622.289242,53.5873016 L621.234568,50.0564374 L614.952381,50.0564374 L613.760141,53.5873016 L610,53.5873016 L616.098765,36.5749559 Z M615.915344,47.1216931 L620.22575,47.1216931 L618.116402,40.3809524 L618.070547,40.3809524 L615.915344,47.1216931 Z M628.021164,53.5873016 L628.021164,40.9770723 L631.368607,40.9770723 L631.368607,53.5873016 L628.021164,53.5873016 Z M637.100529,43.1322751 C637.78836,41.8483245 638.522046,40.6560847 640.539683,40.6560847 C640.768959,40.6560847 640.952381,40.6560847 641.181658,40.70194 L641.181658,44.0493827 C640.906526,44.0035273 640.539683,44.0035273 640.218695,44.0035273 C637.650794,44.0035273 637.19224,45.6084656 637.19224,47.0299824 L637.19224,53.5873016 L633.890653,53.5873016 L633.890653,40.9770723 L637.054674,40.9770723 L637.054674,43.1322751 L637.100529,43.1322751 Z M652.553792,39.1887125 C650.857143,39.1887125 648.335097,40.335097 648.335097,45.1499118 C648.335097,48.1763668 649.527337,50.9276896 652.553792,50.9276896 C654.525573,50.9276896 655.901235,49.8271605 656.313933,47.7636684 L659.844797,47.7636684 C659.156966,51.4320988 656.726631,54 652.462081,54 C647.922399,54 644.712522,50.973545 644.712522,45.1040564 C644.712522,39.1428571 648.151675,36.1164021 652.507937,36.1164021 C657.597884,36.1164021 659.661376,39.6014109 659.844797,42.1234568 L656.313933,42.1234568 C656.038801,41.1146384 655.488536,39.1887125 652.553792,39.1887125 Z M681.717813,40.6560847 C684.194004,40.6560847 686.119929,42.0776014 686.119929,44.8747795 L686.119929,53.5873016 L682.772487,53.5873016 L682.772487,45.9294533 C682.772487,45.0123457 682.726631,43.4532628 680.617284,43.4532628 C679.149912,43.4532628 678.049383,44.4162257 678.049383,46.3421517 L678.049383,53.5873016 L674.70194,53.5873016 L674.70194,40.9770723 L677.911817,40.9770723 L677.911817,42.8112875 L677.957672,42.8112875 C678.37037,42.0776014 679.333333,40.6560847 681.717813,40.6560847 Z M699.234568,49.9647266 C699.234568,51.4779541 699.830688,51.4779541 700.564374,51.6155203 L700.564374,53.5873016 L697.171076,53.5873016 C696.299824,53.5873016 696.070547,53.2663139 695.703704,52.8994709 C695.291005,53.2663139 694.557319,53.9082892 692.310406,53.9082892 C690.38448,53.9082892 688.458554,52.8536155 688.458554,50.2398589 C688.458554,47.7636684 690.017637,46.5255732 692.126984,46.2045855 L695.107584,45.7460317 C695.611993,45.7001764 696.253968,45.4708995 696.253968,44.7372134 C696.253968,43.1781305 694.924162,43.1322751 694.098765,43.1322751 C692.447972,43.1322751 692.081129,44.0493827 692.035273,45.0582011 L688.871252,45.0582011 C689.238095,41.1604938 691.897707,40.6560847 694.511464,40.6560847 C696.253968,40.6560847 699.234568,41.1604938 699.234568,44.2786596 L699.234568,49.9647266 Z M693.319224,51.6155203 C694.786596,51.6155203 696.253968,50.6067019 696.253968,49.047619 L696.253968,47.4426808 C695.932981,47.7178131 695.382716,47.9012346 694.007055,48.1305115 C692.768959,48.313933 691.714286,48.6349206 691.714286,50.010582 C691.714286,51.1569665 692.677249,51.6155203 693.319224,51.6155203 Z M709.918871,42.5820106 L709.918871,36.5749559 L713.220459,36.5749559 L713.220459,53.5873016 L710.010582,53.5873016 L710.010582,51.9823633 L709.964727,51.9823633 C709.13933,53.4038801 707.671958,53.9082892 706.296296,53.9082892 C702.536155,53.9082892 700.977072,50.6067019 700.977072,47.1216931 C700.977072,42.7654321 703.453263,40.6560847 706.250441,40.6560847 C708.359788,40.6560847 709.368607,41.8024691 709.873016,42.5820106 L709.918871,42.5820106 Z M707.121693,51.1569665 C709.231041,51.1569665 710.056437,49.4144621 710.056437,47.5343915 C710.056437,45.5626102 709.506173,43.4991182 707.213404,43.4991182 C705.104056,43.4991182 704.416226,45.3791887 704.416226,47.35097 C704.416226,48.8641975 705.012346,51.1569665 707.121693,51.1569665 Z M726.059965,49.9647266 C726.059965,51.4779541 726.656085,51.4779541 727.343915,51.6155203 L727.343915,53.5873016 L723.996473,53.5873016 C723.12522,53.5873016 722.895944,53.2663139 722.483245,52.8994709 C722.070547,53.2663139 721.336861,53.9082892 719.089947,53.9082892 C717.209877,53.9082892 715.238095,52.8536155 715.238095,50.2398589 C715.238095,47.7636684 716.843034,46.5255732 718.952381,46.2045855 L721.932981,45.7460317 C722.43739,45.7001764 723.079365,45.4708995 723.079365,44.7372134 C723.079365,43.1781305 721.749559,43.1322751 720.878307,43.1322751 C719.227513,43.1322751 718.906526,44.0493827 718.86067,45.0582011 L715.650794,45.0582011 C716.017637,41.1604938 718.723104,40.6560847 721.291005,40.6560847 C723.079365,40.6560847 726.059965,41.1604938 726.059965,44.2786596 L726.059965,49.9647266 Z M720.098765,51.6155203 C721.566138,51.6155203 723.079365,50.6067019 723.079365,49.047619 L723.079365,47.4426808 C722.758377,47.7178131 722.208113,47.9012346 720.832451,48.1305115 C719.594356,48.313933 718.493827,48.6349206 718.493827,50.010582 C718.493827,51.1569665 719.45679,51.6155203 720.098765,51.6155203 Z M671.950617,49.9647266 C671.950617,51.4779541 672.546737,51.4779541 673.280423,51.6155203 L673.280423,53.5873016 L669.887125,53.5873016 C669.015873,53.5873016 668.786596,53.2663139 668.373898,52.8994709 C667.961199,53.2663139 667.227513,53.9082892 664.9806,53.9082892 C663.100529,53.9082892 661.174603,52.8536155 661.174603,50.2398589 C661.174603,47.7636684 662.733686,46.5255732 664.843034,46.2045855 L667.823633,45.7460317 C668.328042,45.7001764 668.970018,45.4708995 668.970018,44.7372134 C668.970018,43.1781305 667.640212,43.1322751 666.814815,43.1322751 C665.118166,43.1322751 664.797178,44.0493827 664.751323,45.0582011 L661.541446,45.0582011 C661.954145,41.1604938 664.613757,40.6560847 667.181658,40.6560847 C668.970018,40.6560847 671.950617,41.1604938 671.950617,44.2786596 L671.950617,49.9647266 Z M665.989418,51.6155203 C667.45679,51.6155203 668.970018,50.6067019 668.970018,49.047619 L668.970018,47.4426808 C668.64903,47.7178131 668.098765,47.9012346 666.723104,48.1305115 C665.485009,48.313933 664.430335,48.6349206 664.430335,50.010582 C664.430335,51.1569665 665.393298,51.6155203 665.989418,51.6155203 Z M666.585538,34.0987654 L666.585538,25.1569665 L661.174603,28.5044092 L661.174603,26.7619048 L657.689594,27.2663139 L659.890653,24.3315697 L658.33157,23.7354497 L661.174603,22.0388007 C661.816578,21.6719577 661.679012,21.0299824 661.174603,20.8465608 L656.405644,17.6825397 L657.964727,17.1322751 L656.130511,14.1516755 L659.569665,14.8395062 L659.477954,13.0511464 L663.375661,15.6190476 C664.109347,16.0776014 664.659612,15.9400353 664.659612,14.5643739 L664.659612,8.78659612 L666.081129,9.88712522 L667.319224,6.81481481 L668.511464,9.88712522 L669.932981,8.78659612 L669.932981,14.5643739 C669.932981,15.9400353 670.529101,16.0776014 671.216931,15.6190476 L675.160494,13.0511464 L675.068783,14.8395062 L678.507937,14.1516755 L676.627866,17.1322751 L678.186949,17.6825397 L673.417989,20.8465608 C672.91358,21.0299824 672.776014,21.6719577 673.417989,22.0388007 L676.261023,23.7354497 L674.70194,24.3315697 L676.902998,27.2663139 L673.417989,26.7619048 L673.417989,28.5044092 L668.007055,25.1569665 L668.007055,36.8042328 C667.777778,36.8500882 667.548501,36.8500882 667.319224,36.8500882 C657.689594,36.8500882 649.89418,29.0546737 649.89418,19.4250441 C649.89418,9.79541446 657.689594,2 667.319224,2 C676.948854,2 684.744268,9.79541446 684.744268,19.4250441 C684.744268,27.8165785 678.783069,34.8324515 670.850088,36.4832451 L670.895944,33.686067 C677.269841,32.0811287 681.992945,26.303351 681.992945,19.4250441 C681.992945,11.308642 675.435626,4.70546737 667.319224,4.70546737 C659.202822,4.70546737 652.599647,11.308642 652.599647,19.4250441 C652.599647,27.3121693 658.790123,33.7319224 666.585538,34.0987654 Z" id="Combined-Shape"></path>
                </g>
            </g>
        </g>
    </g>
</svg>