<?xml version="1.0" encoding="UTF-8"?>
<svg width="165px" height="38px" viewBox="0 0 165 38" version="1.1" xmlns="http://www.w3.org/2000/svg" xmlns:xlink="http://www.w3.org/1999/xlink">
    <!-- Generator: Sketch 47 (45396) - http://www.bohemiancoding.com/sketch -->
    <title>Combined Shape</title>
    <desc>Created with Sketch.</desc>
    <defs></defs>
    <g id="Page-1" stroke="none" stroke-width="1" fill="none" fill-rule="evenodd">
        <g id="Large-Device_Airtickets_design" transform="translate(-1055.000000, -1776.000000)" fill="#AFC0D5">
            <g id="Group-2" transform="translate(-2.000000, 1679.000000)">
                <g id="Airlines" transform="translate(82.000000, 81.000000)">
                    <path d="M998.133006,31.6053694 L988.524741,53.3368135 L976.852957,53.3368135 C974.789437,53.3368135 974.273557,51.2732936 976.208107,49.6611686 L998.133006,31.6053694 Z M1040.56413,53.3368135 L993.490086,53.3368135 L1004.64599,28.3166345 L1020.18687,16 L1010.57861,37.4735041 C1007.41885,46.5014038 1013.73838,49.9191086 1017.15608,49.9191086 L1040.56413,49.9191086 C1041.53141,49.9191086 1042.24074,50.6929286 1042.24074,51.6602035 C1042.24074,52.5629935 1041.53141,53.3368135 1040.56413,53.3368135 Z M1033.53527,28.1231795 L1040.04825,28.1231795 L1040.17722,39.601509 L1035.92121,39.601509 L1035.85673,37.9893841 L1029.27926,37.9893841 L1027.7961,39.601509 L1022.83076,39.601509 L1033.53527,28.1231795 Z M1031.85866,35.2165292 L1035.85673,35.2165292 L1035.85673,30.9605194 L1031.85866,35.2165292 Z M1046.88366,28.1231795 L1051.26864,28.1231795 L1045.98087,39.601509 L1041.59589,39.601509 L1046.88366,28.1231795 Z M1065.6488,28.1231795 C1067.84129,28.1231795 1067.7768,30.2511844 1067.32541,31.2184594 L1066.22916,33.5399193 C1065.71328,34.7006492 1064.68152,35.1520442 1063.97219,35.2165292 C1064.61704,35.4744692 1064.74601,36.8286541 1064.42358,37.4090191 L1063.45631,39.601509 L1059.07133,39.601509 L1059.97412,37.4735041 C1060.23206,36.9576241 1060.0386,36.3772592 1059.39375,36.3772592 L1054.75083,36.3772592 L1053.26768,39.601509 L1048.81821,39.601509 L1054.10598,28.1231795 L1065.6488,28.1231795 Z M1062.48903,32.1212493 C1062.81146,31.4119144 1062.29558,30.8315494 1061.71521,30.8315494 L1057.33023,30.8315494 L1055.97605,33.7333743 L1060.55448,33.7333743 C1061.65073,33.7333743 1062.10212,32.9595543 1062.29558,32.5726443 L1062.48903,32.1212493 Z M1109.36963,39.601509 L1114.6574,28.1231795 L1119.04238,28.1231795 L1113.75461,39.601509 L1109.36963,39.601509 Z M1130.32725,39.601509 L1135.61502,28.1231795 L1140,28.1231795 L1134.71223,39.601509 L1130.32725,39.601509 Z M1119.8162,39.601509 L1123.87875,30.8315494 L1119.23583,30.8315494 L1120.52553,28.1231795 L1134.19635,28.1231795 L1132.97114,30.8315494 L1128.26373,30.8315494 L1124.20118,39.601509 L1119.8162,39.601509 Z M1107.95096,39.601509 L1103.69495,39.601509 L1103.69495,37.9893841 L1097.05299,37.9893841 L1095.56984,39.601509 L1090.60449,39.601509 L1101.37349,28.1231795 L1107.82199,28.1231795 L1107.95096,39.601509 Z M1099.69688,35.2165292 L1103.63046,35.2165292 L1103.63046,30.9605194 L1099.69688,35.2165292 Z M1090.34655,28.1231795 L1094.73153,28.1231795 L1089.50825,39.601509 L1085.05878,39.601509 L1087.05782,35.2165292 L1080.86726,35.2165292 L1078.93271,39.601509 L1074.48324,39.601509 L1079.77101,28.1231795 L1084.15599,28.1231795 L1082.15696,32.4436743 L1088.34752,32.4436743 L1090.34655,28.1231795 Z" id="Combined-Shape"></path>
                </g>
            </g>
        </g>
    </g>
</svg>