<?xml version="1.0" encoding="UTF-8"?>
<svg width="283px" height="104px" viewBox="0 0 283 104" version="1.1" xmlns="http://www.w3.org/2000/svg" xmlns:xlink="http://www.w3.org/1999/xlink">
    <!-- Generator: Sketch 47 (45396) - http://www.bohemiancoding.com/sketch -->
    <title>Group 4</title>
    <desc>Created with Sketch.</desc>
    <defs>
        <path d="M142.906595,100.720751 C142.494428,101.751169 141.324981,102.25236 140.294563,101.840193 C139.264145,101.428025 138.762954,100.258579 139.175121,99.228161 L145.617643,87.1586588 C146.02981,86.1282408 147.199256,85.6270495 148.229674,86.0392167 C149.260092,86.4513839 149.761284,87.6208303 149.349117,88.6512483 L142.906595,100.720751 Z M125.725472,100.720751 C125.313305,101.751169 124.143859,102.25236 123.113441,101.840193 C122.083023,101.428025 121.581831,100.258579 121.993999,99.228161 L128.43652,87.1586588 C128.848687,86.1282408 130.018134,85.6270495 131.048552,86.0392167 C132.07897,86.4513839 132.580161,87.6208303 132.167994,88.6512483 L125.725472,100.720751 Z M109.056854,100.720751 C108.644687,101.751169 107.475241,102.25236 106.444823,101.840193 C105.414405,101.428025 104.913213,100.258579 105.32538,99.228161 L111.767902,87.1586588 C112.180069,86.1282408 113.349516,85.6270495 114.379934,86.0392167 C115.410352,86.4513839 115.911543,87.6208303 115.499376,88.6512483 L109.056854,100.720751 Z M91.8757314,100.720751 C91.4635642,101.751169 90.2941179,102.25236 89.2636999,101.840193 C88.2332819,101.428025 87.7320906,100.258579 88.1442578,99.228161 L94.5867794,87.1586588 C94.9989466,86.1282408 96.1683929,85.6270495 97.1988109,86.0392167 C98.2292289,86.4513839 98.7304202,87.6208303 98.318253,88.6512483 L91.8757314,100.720751 Z M187.180412,30.3026578 C187.180412,30.6293982 187.180412,30.6774934 187.180412,30.9587607 C193.217488,35.7436826 196.82582,42.7459743 196.82582,50.3436729 C196.82582,63.7240855 185.547359,74.7519145 171.908515,74.7519145 C170.798721,74.7519145 169.899055,73.8522486 169.899055,72.7424544 C169.899055,71.6326603 170.798721,70.7329944 171.908515,70.7329944 C183.347734,70.7329944 192.8069,61.4840316 192.8069,50.3436729 C192.8069,43.7290318 189.50981,37.6267981 183.98263,33.573533 C183.46645,33.1950008 183.161492,32.5931949 183.161492,31.9530944 L183.161492,30.3026578 C183.161492,15.861426 171.049838,4.01892013 156.234727,4.01892013 C141.419616,4.01892013 129.307962,15.861426 129.307962,30.3026578 C129.307962,32.769819 129.70645,35.3859267 130.439755,38.0149586 C130.991817,39.9942041 128.568522,41.4281618 127.099329,39.9916178 C123.654867,36.6236997 119.030415,34.6698844 114.036065,34.6698844 C103.802523,34.6698844 95.5490328,42.7399639 95.5490328,52.7014394 C95.5490328,53.8112335 94.6493669,54.7108994 93.5395727,54.7108994 C92.4297786,54.7108994 91.5301126,53.8112335 91.5301126,52.7014394 C91.5301126,40.49991 101.602898,30.6509642 114.036065,30.6509642 C118.165251,30.6509642 122.091944,31.7534602 125.497985,33.7484955 C125.360344,32.586504 125.289042,31.4351798 125.289042,30.3026578 C125.289042,13.6213721 139.219991,0 156.234727,0 C173.249463,0 187.180412,13.6213721 187.180412,30.3026578 Z M161.297588,45.5921589 C160.52798,44.7925668 160.552288,43.5204792 161.35188,42.7508719 C162.151472,41.9812645 163.42356,42.0055719 164.193167,42.805164 C166.564664,45.269057 167.889595,48.5574864 167.889595,52.2156242 C167.889595,55.8737619 166.564664,59.1621914 164.193167,61.6260844 C161.807227,64.1049835 158.602099,65.4989381 155.029051,65.4989381 L93.5395727,65.4989381 C92.4297786,65.4989381 91.5301126,64.5992722 91.5301126,63.4894781 C91.5301126,62.3796839 92.4297786,61.480018 93.5395727,61.480018 L155.029051,61.480018 C157.497779,61.480018 159.661393,60.5390322 161.297588,58.8390895 C162.948226,57.1241407 163.870675,54.8346569 163.870675,52.2156242 C163.870675,49.5965914 162.948226,47.3071077 161.297588,45.5921589 Z M156.234727,70.9102902 C157.344521,70.9102902 158.244187,71.8099561 158.244187,72.9197503 C158.244187,74.0295444 157.344521,74.9292103 156.234727,74.9292103 L108.007685,74.9292103 C106.897891,74.9292103 105.998225,74.0295444 105.998225,72.9197503 C105.998225,71.8099561 106.897891,70.9102902 108.007685,70.9102902 L156.234727,70.9102902 Z" id="path-1"></path>
    </defs>
    <g id="Page-1" stroke="none" stroke-width="1" fill="none" fill-rule="evenodd">
        <g id="Large-Device_About_design-Copy-3" transform="translate(-505.000000, -257.000000)">
            <g id="Group-3" transform="translate(177.000000, 158.000000)">
                <g id="Group-2" transform="translate(196.000000, 54.000000)">
                    <g id="Group" transform="translate(95.000000, 0.000000)">
                        <g id="Group-4" transform="translate(37.000000, 46.000000)">
                            <path d="M47.604,101 L47.604,74.36 L0.804,74.36 L0.804,69.32 L44.868,0.2 L53.508,0.2 L10.884,66.872 L47.604,66.872 L47.604,36.2 L55.092,36.2 L55.092,66.872 L69.924,66.872 L69.924,74.36 L55.092,74.36 L55.092,101 L47.604,101 Z M260.436,101 L260.436,74.36 L213.636,74.36 L213.636,69.32 L257.7,0.2 L266.34,0.2 L223.716,66.872 L260.436,66.872 L260.436,36.2 L267.924,36.2 L267.924,66.872 L282.756,66.872 L282.756,74.36 L267.924,74.36 L267.924,101 L260.436,101 Z" id="4-4" fill="#2D80EB"></path>
                            <g id="Weather" fill-rule="nonzero" stroke="#2D80EB">
                                <use fill="#2D80EB" fill-rule="evenodd" xlink:href="#path-1"></use>
                                <use xlink:href="#path-1"></use>
                                <use xlink:href="#path-1"></use>
                                <use xlink:href="#path-1"></use>
                                <use xlink:href="#path-1"></use>
                                <use xlink:href="#path-1"></use>
                                <use xlink:href="#path-1"></use>
                                <use xlink:href="#path-1"></use>
                            </g>
                        </g>
                    </g>
                </g>
            </g>
        </g>
    </g>
</svg>