<?xml version="1.0" encoding="UTF-8"?>
<svg width="271px" height="105px" viewBox="0 0 271 105" version="1.1" xmlns="http://www.w3.org/2000/svg" xmlns:xlink="http://www.w3.org/1999/xlink">
    <!-- Generator: Sketch 47 (45396) - http://www.bohemiancoding.com/sketch -->
    <title>Group 4</title>
    <desc>Created with Sketch.</desc>
    <defs>
        <path d="M137.906595,102.720751 C137.494428,103.751169 136.324981,104.25236 135.294563,103.840193 C134.264145,103.428025 133.762954,102.258579 134.175121,101.228161 L140.617643,89.1586588 C141.02981,88.1282408 142.199256,87.6270495 143.229674,88.0392167 C144.260092,88.4513839 144.761284,89.6208303 144.349117,90.6512483 L137.906595,102.720751 Z M120.725472,102.720751 C120.313305,103.751169 119.143859,104.25236 118.113441,103.840193 C117.083023,103.428025 116.581831,102.258579 116.993999,101.228161 L123.43652,89.1586588 C123.848687,88.1282408 125.018134,87.6270495 126.048552,88.0392167 C127.07897,88.4513839 127.580161,89.6208303 127.167994,90.6512483 L120.725472,102.720751 Z M104.056854,102.720751 C103.644687,103.751169 102.475241,104.25236 101.444823,103.840193 C100.414405,103.428025 99.9132132,102.258579 100.32538,101.228161 L106.767902,89.1586588 C107.180069,88.1282408 108.349516,87.6270495 109.379934,88.0392167 C110.410352,88.4513839 110.911543,89.6208303 110.499376,90.6512483 L104.056854,102.720751 Z M86.8757314,102.720751 C86.4635642,103.751169 85.2941179,104.25236 84.2636999,103.840193 C83.2332819,103.428025 82.7320906,102.258579 83.1442578,101.228161 L89.5867794,89.1586588 C89.9989466,88.1282408 91.1683929,87.6270495 92.1988109,88.0392167 C93.2292289,88.4513839 93.7304202,89.6208303 93.318253,90.6512483 L86.8757314,102.720751 Z M182.180412,32.3026578 C182.180412,32.6293982 182.180412,32.6774934 182.180412,32.9587607 C188.217488,37.7436826 191.82582,44.7459743 191.82582,52.3436729 C191.82582,65.7240855 180.547359,76.7519145 166.908515,76.7519145 C165.798721,76.7519145 164.899055,75.8522486 164.899055,74.7424544 C164.899055,73.6326603 165.798721,72.7329944 166.908515,72.7329944 C178.347734,72.7329944 187.8069,63.4840316 187.8069,52.3436729 C187.8069,45.7290318 184.50981,39.6267981 178.98263,35.573533 C178.46645,35.1950008 178.161492,34.5931949 178.161492,33.9530944 L178.161492,32.3026578 C178.161492,17.861426 166.049838,6.01892013 151.234727,6.01892013 C136.419616,6.01892013 124.307962,17.861426 124.307962,32.3026578 C124.307962,34.769819 124.70645,37.3859267 125.439755,40.0149586 C125.991817,41.9942041 123.568522,43.4281618 122.099329,41.9916178 C118.654867,38.6236997 114.030415,36.6698844 109.036065,36.6698844 C98.8025232,36.6698844 90.5490328,44.7399639 90.5490328,54.7014394 C90.5490328,55.8112335 89.6493669,56.7108994 88.5395727,56.7108994 C87.4297786,56.7108994 86.5301126,55.8112335 86.5301126,54.7014394 C86.5301126,42.49991 96.6028981,32.6509642 109.036065,32.6509642 C113.165251,32.6509642 117.091944,33.7534602 120.497985,35.7484955 C120.360344,34.586504 120.289042,33.4351798 120.289042,32.3026578 C120.289042,15.6213721 134.219991,2 151.234727,2 C168.249463,2 182.180412,15.6213721 182.180412,32.3026578 Z M156.297588,47.5921589 C155.52798,46.7925668 155.552288,45.5204792 156.35188,44.7508719 C157.151472,43.9812645 158.42356,44.0055719 159.193167,44.805164 C161.564664,47.269057 162.889595,50.5574864 162.889595,54.2156242 C162.889595,57.8737619 161.564664,61.1621914 159.193167,63.6260844 C156.807227,66.1049835 153.602099,67.4989381 150.029051,67.4989381 L88.5395727,67.4989381 C87.4297786,67.4989381 86.5301126,66.5992722 86.5301126,65.4894781 C86.5301126,64.3796839 87.4297786,63.480018 88.5395727,63.480018 L150.029051,63.480018 C152.497779,63.480018 154.661393,62.5390322 156.297588,60.8390895 C157.948226,59.1241407 158.870675,56.8346569 158.870675,54.2156242 C158.870675,51.5965914 157.948226,49.3071077 156.297588,47.5921589 Z M151.234727,72.9102902 C152.344521,72.9102902 153.244187,73.8099561 153.244187,74.9197503 C153.244187,76.0295444 152.344521,76.9292103 151.234727,76.9292103 L103.007685,76.9292103 C101.897891,76.9292103 100.998225,76.0295444 100.998225,74.9197503 C100.998225,73.8099561 101.897891,72.9102902 103.007685,72.9102902 L151.234727,72.9102902 Z" id="path-1"></path>
    </defs>
    <g id="Page-1" stroke="none" stroke-width="1" fill="none" fill-rule="evenodd">
        <g id="Large-Device_About_design-Copy-4" transform="translate(-510.000000, -256.000000)">
            <g id="Group-3" transform="translate(177.000000, 158.000000)">
                <g id="Group-2" transform="translate(196.000000, 54.000000)">
                    <g id="Group" transform="translate(95.000000, 0.000000)">
                        <g id="Group-4" transform="translate(42.000000, 44.000000)">
                            <path d="M10.42,50.584 L16.612,2.2 L60.388,2.2 L60.388,9.688 L23.092,9.688 L18.772,42.52 C21.7480149,41.6559957 25.0599818,41.224 28.708,41.224 C38.0200466,41.224 45.6519702,44.0079722 51.604,49.576 C57.5560298,55.1440278 60.532,62.5359539 60.532,71.752 C60.532,81.544049 57.5080302,89.4159702 51.46,95.368 C45.4119698,101.32003 38.0200437,104.296 29.284,104.296 C23.5239712,104.296 18.0520259,102.952013 12.868,100.264 C7.68397408,97.5759866 3.60401488,93.5920264 0.628,88.312 L5.092,82.984 C7.58801248,87.4000221 11.0919774,90.807988 15.604,93.208 C20.1160226,95.608012 24.7239765,96.808 29.428,96.808 C36.0520331,96.808 41.5719779,94.4800233 45.988,89.824 C50.4040221,85.1679767 52.612,79.240036 52.612,72.04 C52.612,65.1279654 50.1400247,59.3920228 45.196,54.832 C40.2519753,50.2719772 33.7480403,47.992 25.684,47.992 C20.0199717,47.992 14.9320226,48.8559914 10.42,50.584 Z M239.956,104.296 C233.235966,104.296 227.284026,102.856014 222.1,99.976 C216.915974,97.0959856 213.076012,92.7280293 210.58,86.872 L215.044,81.688 C217.540012,86.7760254 221.019978,90.5679875 225.484,93.064 C229.948022,95.5600125 234.771974,96.808 239.956,96.808 C246.868035,96.808 252.387979,94.7680204 256.516,90.688 C260.644021,86.6079796 262.708,81.4480312 262.708,75.208 C262.708,69.2559702 260.644021,64.4320185 256.516,60.736 C252.387979,57.0399815 247.156032,55.192 240.82,55.192 L232.18,55.192 L232.18,47.704 L239.956,47.704 C244.852024,47.704 249.219981,45.7360197 253.06,41.8 C256.900019,37.8639803 258.82,33.0160288 258.82,27.256 C258.82,21.2079698 257.092017,16.5520163 253.636,13.288 C250.179983,10.0239837 245.47603,8.392 239.524,8.392 C229.251949,8.392 221.956022,12.9999539 217.636,22.216 L213.172,17.464 C215.18801,12.1839736 218.571976,8.1040144 223.324,5.224 C228.076024,2.3439856 233.667968,0.904 240.1,0.904 C248.356041,0.904 254.859976,3.15997744 259.612,7.672 C264.364024,12.1840226 266.74,18.3759606 266.74,26.248 C266.74,31.6240269 265.348014,36.5199779 262.564,40.936 C259.779986,45.3520221 255.844025,48.5679899 250.756,50.584 L250.756,51.016 C256.900031,51.8800043 261.747982,54.6639765 265.3,59.368 C268.852018,64.0720235 270.628,69.4479698 270.628,75.496 C270.628,84.2320437 267.748029,91.2159738 261.988,96.448 C256.227971,101.680026 248.884045,104.296 239.956,104.296 Z" id="5-3" fill="#2D80EB"></path>
                            <g id="Weather" fill-rule="nonzero" stroke="#2D80EB">
                                <use fill="#2D80EB" fill-rule="evenodd" xlink:href="#path-1"></use>
                                <use xlink:href="#path-1"></use>
                                <use xlink:href="#path-1"></use>
                                <use xlink:href="#path-1"></use>
                                <use xlink:href="#path-1"></use>
                                <use xlink:href="#path-1"></use>
                                <use xlink:href="#path-1"></use>
                                <use xlink:href="#path-1"></use>
                            </g>
                        </g>
                    </g>
                </g>
            </g>
        </g>
    </g>
</svg>