<?xml version="1.0" encoding="UTF-8"?>
<svg width="56px" height="69px" viewBox="0 0 56 69" version="1.1" xmlns="http://www.w3.org/2000/svg" xmlns:xlink="http://www.w3.org/1999/xlink">
    <!-- Generator: Sketch 47 (45396) - http://www.bohemiancoding.com/sketch -->
    <title>Group 3</title>
    <desc>Created with Sketch.</desc>
    <defs></defs>
    <g id="Page-1" stroke="none" stroke-width="1" fill="none" fill-rule="evenodd">
        <g id="Large-Device_Main_design" transform="translate(-665.000000, -902.000000)">
            <g id="Group-8" transform="translate(665.000000, 902.000000)">
                <g id="Group-3">
                    <path d="M39.6607977,49.7260687 L39.6607977,50.5008573 L41.6570997,50.5008573 L41.6570997,49.0350411 L40.3518253,49.0350411 C40.1618305,49.0093459 39.9707346,49.0738387 39.8351649,49.2094083 C39.6995952,49.344978 39.6351024,49.5360739 39.6607977,49.7260687 L39.6607977,49.7260687 Z" id="Shape"></path>
                    <path d="M40.9381518,50.9126818 L39.6607977,50.9126818 L39.6607977,56.7829266 L41.6570997,56.7829266 L41.6570997,51.6037095 C41.678873,51.4095022 41.6090262,51.2162231 41.4681319,51.0808003 C41.3272375,50.9453776 41.1313448,50.8832372 40.9381518,50.9126818 L40.9381518,50.9126818 Z" id="Shape"></path>
                    <path d="M46.7665161,13.1923456 L8.58549474,13.1923456 C7.73739692,13.1923456 7.0498778,13.8798647 7.0498778,14.7279625 C7.0498778,15.5760603 7.73739692,16.2635795 8.58549474,16.2635795 L46.7665161,16.2635795 C47.6146139,16.2635795 48.302133,15.5760603 48.302133,14.7279625 C48.302133,13.8798647 47.6146139,13.1923456 46.7665161,13.1923456 Z" id="Shape" fill="#2F2F2F" fill-rule="nonzero"></path>
                    <path d="M43.6952822,25.3376796 C44.5160037,25.3003359 45.1619475,24.6236329 45.1610984,23.8020627 C45.1928377,22.9949791 44.5715306,22.3115412 43.765083,22.2664457 L8.4458932,22.2664457 C7.65431978,22.342005 7.0498778,23.0068912 7.0498778,23.8020627 C7.0498778,24.5972341 7.65431978,25.2621203 8.4458932,25.3376796 L43.6952822,25.3376796 Z" id="Shape" fill="#2F2F2F" fill-rule="nonzero"></path>
                    <path d="M29.9445304,31.4103466 L8.58549474,31.4103466 C7.73739692,31.4103466 7.0498778,32.0978657 7.0498778,32.9459636 C7.0498778,33.7940614 7.73739692,34.4815805 8.58549474,34.4815805 L29.9445304,34.4815805 C30.7926283,34.4815805 31.4801474,33.7940614 31.4801474,32.9459636 C31.4801474,32.0978657 30.7926283,31.4103466 29.9445304,31.4103466 Z" id="Shape" fill="#2F2F2F" fill-rule="nonzero"></path>
                    <path d="M55.910417,7.61526404 C55.9311284,5.59050521 55.1364232,3.64254034 53.7052842,2.21008841 C52.2741453,0.777636483 50.32691,-0.0188546742 48.302133,2.42530605e-15 L7.81768627,2.42530605e-15 C5.74317048,-0.00371445082 3.75255249,0.818739416 2.28564595,2.28564595 C0.818739416,3.75255249 -0.00371445082,5.74317048 2.73988053e-16,7.81768627 L2.73988053e-16,60.3078655 C0.0589804859,64.5737572 3.48269428,68.0283153 7.7478855,68.1255518 L48.0927307,68.1255518 C50.1672465,68.1292662 52.1578645,67.3068124 53.624771,65.8399058 C55.0916776,64.3729993 55.9141314,62.3823813 55.910417,60.3078655 L55.910417,7.61526404 Z M52.8391831,8.58549474 L52.8391831,60.3078655 C52.8504708,61.5701295 52.3540251,62.7839777 51.461434,63.6765688 C50.5688429,64.5691599 49.3549947,65.0656056 48.0927307,65.0543179 L7.32908088,65.0543179 C7.11726741,65.065668 6.90502975,65.042086 6.70087394,64.9845171 C4.56472907,64.4832119 3.05877609,62.57181 3.07123389,60.3776663 L3.07123389,7.81768627 C3.0599462,6.5554223 3.55639191,5.34157411 4.44898301,4.44898301 C5.34157411,3.55639191 6.5554223,3.0599462 7.81768627,3.07123389 L48.0927307,3.07123389 C49.3549947,3.0599462 50.5688429,3.55639191 51.461434,4.44898301 C52.3540251,5.34157411 52.8504708,6.5554223 52.8391831,7.81768627 L52.8391831,8.58549474 Z" id="Shape" fill="#2F2F2F" fill-rule="nonzero"></path>
                    <path d="M40.6589487,45.7544049 C36.7075838,45.7544049 33.5043697,48.957619 33.5043697,52.9089839 C33.5043697,56.8603487 36.7075838,60.0635628 40.6589487,60.0635628 C44.6103135,60.0635628 47.8135276,56.8603487 47.8135276,52.9089839 C47.8135276,48.957619 44.6103135,45.7544049 40.6589487,45.7544049 Z M41.6570997,56.7829266 L39.6607977,56.7829266 L39.6607977,50.9126818 L40.9381518,50.9126818 C41.1293465,50.8899405 41.320411,50.9561341 41.4565591,51.0922822 C41.5927072,51.2284303 41.6589008,51.4194948 41.6361595,51.6106895 L41.6570997,56.7829266 Z M41.6570997,50.5008573 L39.6607977,50.5008573 L39.6607977,49.7260687 C39.6321372,49.5335746 39.6963948,49.3388868 39.8340091,49.2012725 C39.9716234,49.0636582 40.1663113,48.9994005 40.3588054,49.028061 L41.6640798,49.028061 L41.6570997,50.5008573 Z" id="Shape" fill="#4F9CFF" fill-rule="nonzero"></path>
                </g>
            </g>
        </g>
    </g>
</svg>