<?xml version="1.0" encoding="UTF-8"?>
<svg width="68px" height="66px" viewBox="0 0 68 66" version="1.1" xmlns="http://www.w3.org/2000/svg" xmlns:xlink="http://www.w3.org/1999/xlink">
    <!-- Generator: Sketch 47 (45396) - http://www.bohemiancoding.com/sketch -->
    <title>noun_492593_cc</title>
    <desc>Created with Sketch.</desc>
    <defs></defs>
    <g id="Page-1" stroke="none" stroke-width="1" fill="none" fill-rule="evenodd">
        <g id="Large-Device_Main_design" transform="translate(-665.000000, -1022.000000)">
            <g id="Group-7" transform="translate(665.000000, 1022.000000)">
                <g id="noun_492593_cc">
                    <path d="M23,14.6144999 L22.1887929,12 C20.4333595,12.4041042 18.6873527,12.9051753 17,13.4887811 L18.1709872,16 C19.7426028,15.456534 21.3665881,14.9906416 23,14.6144999 Z" id="Shape" fill="#2F2F2F" fill-rule="nonzero"></path>
                    <path d="M14,18.5184334 L12.5226439,16 C10.9664819,16.7995787 9.44511727,17.6963516 8,18.6659006 L9.79002132,21 C11.1358635,20.0974816 12.5518124,19.2624725 14,18.5184334 Z" id="Shape" fill="#2F2F2F" fill-rule="nonzero"></path>
                    <path d="M0,25.9512964 L2.41855943,28 C3.5321255,26.7086545 4.73742819,25.4714436 6,24.3230554 L3.84869642,22 C2.49173663,23.2340575 1.19681838,24.5632446 0,25.9512964 Z" id="Shape" fill="#2F2F2F" fill-rule="nonzero"></path>
                    <path d="M65.0059935,24 L63,26.098759 C63.9934617,27.3304033 64.9306211,28.6432265 65.7865056,30 L68,28.1913133 C67.0800944,26.7326784 66.0734653,25.3226474 65.0059935,24 Z" id="Shape" fill="#2F2F2F" fill-rule="nonzero"></path>
                    <path d="M53,15.1642185 C51.4,14.3457677 49.731871,13.6176688 48.0394839,13 L47,15.986368 C48.5747097,16.5607101 50.1272258,17.2380852 51.6157419,18 L53,15.1642185 Z" id="Shape" fill="#2F2F2F"></path>
                    <path d="M56,20.3031224 C57.3847341,21.1251727 58.7298456,22.032882 59.9951973,23 L62,20.8985908 C60.6399657,19.8587087 59.1950257,18.8833011 57.7053173,18 L56,20.3031224 Z" id="Shape" fill="#2F2F2F" fill-rule="nonzero"></path>
                    <path d="M25.4656682,16.8321606 L27.435673,16.8331326 L29.0776658,14.3277971 L32.2394319,14.3496672 L30.2486545,21.2547702 L30.2486545,21.4180666 C30.2486545,22.2899525 30.953953,23 31.8206005,23 L34.6765762,23 L39.2088434,14.5440676 L42.7116647,14.6607079 C44.5246682,14.6607079 45.999998,13.2294348 45.999998,11.4710829 C46.0009642,10.6069731 45.6507303,9.7977813 45.0145125,9.19270998 C44.3971348,8.60562071 43.5802446,8.281458 42.677366,8.281458 C42.6759167,8.281458 42.6749505,8.281458 42.6744675,8.281458 L39.1788924,8.39907026 L34.6775423,0.000972002113 L31.8167359,0 C30.9520206,0.00243000528 30.2486545,0.712477549 30.2486545,1.58241944 L30.2486545,1.74522979 L32.2234902,8.59541469 L29.0481979,8.62311675 L27.4347069,6.16735341 L25.4661512,6.16783941 C24.6574734,6.16783941 24,6.82928685 24,7.64236661 L24,15.3581194 C24,16.1711992 24.6569903,16.8321606 25.4656682,16.8321606 Z M26.280626,8.57160063 L27.8293842,10.9287058 L35.2533751,10.8640676 L32.782415,2.29489699 L33.3157366,2.29489699 L37.8426899,10.7401373 L42.713114,10.576355 C42.9937841,10.576355 43.2546479,10.6774432 43.4478804,10.8606656 C43.6232388,11.027364 43.719372,11.2436344 43.719372,11.4705969 C43.719372,11.96486 43.267208,12.3662969 42.7498281,12.3667829 L37.872641,12.2044585 L33.3152535,20.705589 L32.781932,20.705589 L35.2693167,12.0766403 L27.8554705,12.0246381 L26.2796599,14.4269414 L26.2796599,8.57160063 L26.280626,8.57160063 Z" id="Shape" fill="#2D80EB" fill-rule="nonzero"></path>
                    <path d="M39.9970295,40.6602786 C38.0161788,40.2222139 35.9909392,40 33.9767968,40 C21.3083304,40 10.4915837,48.3834337 7.67339847,60.3864081 C7.23556336,62.2522214 7.0166458,64.13125 7,66 L10.0270144,66 C10.0401293,64.8316642 10.1415174,63.6584337 10.3382405,62.4876506 C12.040148,62.9110316 13.7935061,63.5903991 14.3569414,64.0362952 C14.3307116,64.2257154 14.3004465,64.4175828 14.269677,64.6109187 C14.2015805,65.0391943 14.1279354,65.5129895 14.0976703,66 L17.1342687,66 C17.166047,65.6671687 17.2200198,65.3162274 17.2608777,65.0582831 C17.3168681,64.7044051 17.3723541,64.3519955 17.407159,64.0113328 C17.595307,62.1670557 15.4399275,60.6923193 11.0091169,59.6238328 C13.4464663,51.5570783 20.0356829,45.5563253 28.2077643,43.6131777 C27.7573187,44.4579819 27.394642,45.5034639 27.2433165,46.8259789 C27.1696714,47.4740211 27.0738319,48.0594127 26.989594,48.5748117 C26.6506249,50.6530497 26.3000542,52.802259 29.1964242,54.0533133 C30.8206513,54.7571536 31.9571058,54.8736446 32.8695985,54.9661521 C33.3134867,55.0111822 33.7049153,55.0513178 34.120556,55.1545934 C34.2673417,55.6318148 34.1931922,56.7977033 34.1634315,57.2636672 C34.1256002,57.8554217 34.0872644,58.4594127 34.2733947,58.9527861 C34.4585163,59.9610693 35.2267454,63.1547816 37.7755712,65.9990211 L42.3299643,65.9990211 C37.9516132,63.2252636 37.2540027,58.4833961 37.2252508,58.274887 L37.1632074,57.7913027 C37.1692604,57.6767696 37.1768266,57.5514684 37.1838885,57.4442771 C37.2812412,55.9157003 37.4628318,53.0690136 35.2171614,52.4033509 C34.441366,52.1737952 33.774525,52.10625 33.1863732,52.0460467 C32.3429858,51.9599021 31.6151101,51.8855045 30.4287182,51.3720633 C29.6524184,51.0362952 29.6524184,51.0362952 29.9787771,49.0344127 C30.0680591,48.4867093 30.1694472,47.8650979 30.2506585,47.1485316 C30.4816821,45.1265813 31.3598745,43.8451807 32.1528201,43.0057605 C32.7556,42.9621988 33.3634241,42.9357681 33.9767968,42.9357681 C35.7649597,42.9357681 37.5642199,43.1330196 39.3251443,43.5221386 C45.5703477,44.9028991 50.8879257,48.560128 54.2972892,53.8198419 C56.6080296,57.3850527 57.8514208,61.397628 57.9719768,65.5002636 C57.720272,65.6603163 57.4070282,65.8291792 57.0700768,65.9990211 L61,65.9990211 C60.9717526,61.1749247 59.5719917,56.4423569 56.8592299,52.257003 C53.0190932,46.3340738 47.0306387,42.2152861 39.9970295,40.6602786 Z" id="Shape" fill="#2F2F2F" fill-rule="nonzero"></path>
                </g>
            </g>
        </g>
    </g>
</svg>