<?xml version="1.0" encoding="UTF-8"?>
<svg width="68px" height="71px" viewBox="0 0 68 71" version="1.1" xmlns="http://www.w3.org/2000/svg" xmlns:xlink="http://www.w3.org/1999/xlink">
    <!-- Generator: Sketch 47 (45396) - http://www.bohemiancoding.com/sketch -->
    <title>Group 2</title>
    <desc>Created with Sketch.</desc>
    <defs></defs>
    <g id="Page-1" stroke="none" stroke-width="1" fill="none" fill-rule="evenodd">
        <g id="Large-Device_Main_design" transform="translate(-275.000000, -903.000000)" fill-rule="nonzero">
            <g id="Group-9" transform="translate(275.000000, 903.000000)">
                <g id="Group-2">
                    <g id="Group" fill="#2F2F2F">
                        <path d="M27.6084252,70.4982554 L12.5875403,70.4982554 C11.7741669,70.4982554 11.1140378,69.8381262 11.1140378,69.0247528 L11.0993027,64.5217291 C11.0816207,60.9116479 11.0639387,57.3398777 11.1494018,53.7710546 C11.2083419,51.3957685 10.5924179,49.5332613 9.15427939,47.7414822 C6.7200532,44.7001729 4.32708508,41.3494282 2.04020915,37.783552 C1.0853795,36.2982615 0.498925494,34.3473441 0.475349454,32.5703001 C0.378098286,25.54464 0.395780317,18.5189799 0.410515342,11.4903728 L0.422303362,6.65728446 C0.425250368,4.5324938 1.0264394,2.81144284 2.16693037,1.6827399 C3.12176001,0.730857258 4.42433625,0.229866396 5.92730884,0.229866396 C5.93909686,0.229866396 5.95088488,0.229866396 5.9656199,0.229866396 C9.1012333,0.250495431 11.2201299,2.83796589 11.234865,6.67201949 C11.246653,10.1376975 11.243706,13.6033754 11.240759,17.1486225 L11.237812,22.102538 C11.237812,22.1084321 11.237812,22.1113791 11.237812,22.1172731 C12.2515817,22.3471395 13.0502201,22.9276995 13.6543561,23.5613056 C15.0512365,25.0230201 16.2359326,26.6615549 17.3823176,28.2470436 L19.8519078,31.6154704 C22.0886847,34.6449916 24.3991366,37.777658 26.4207821,41.0488337 C27.9237547,43.4801128 28.8520613,46.3062907 28.9669945,48.802404 C29.1909669,53.5883402 29.1526558,58.2711313 29.1113977,63.2279938 C29.0966627,65.1464941 29.0789807,67.0797295 29.0789807,69.0276998 C29.0819277,69.8410732 28.4217986,70.4982554 27.6084252,70.4982554 Z M14.0551488,67.5512503 L26.1378696,67.5512503 C26.1437636,66.0924828 26.1555517,64.6455033 26.1673397,63.2014708 C26.2115448,58.2858663 26.2469088,53.6443333 26.0288304,48.9379662 C25.9345263,46.9575788 25.1447289,44.5852397 23.9128808,42.5960113 C21.9560694,39.4279809 19.6809815,36.3454136 17.4795687,33.3659914 L14.9922964,29.9739886 C13.9077986,28.471016 12.7820426,26.9149973 11.5266185,25.6006331 C10.9136414,24.961133 10.1503671,24.4454071 8.13756264,25.9100686 C7.42438742,26.4228475 7.07074681,26.7882761 8.04620549,28.3148247 C9.32520569,30.3040532 10.5275838,32.3433807 11.7270148,34.3856552 L12.1425425,35.0899894 C12.5580703,35.7913766 12.3252569,36.6961072 11.6209226,37.1086879 C10.9224824,37.5183216 10.0148049,37.2914022 9.60222416,36.587068 L9.18374944,35.8797868 C8.00494742,33.8728763 6.82025138,31.8659659 5.56188021,29.9091545 C3.47834762,26.6468199 4.86933402,24.6369624 6.40767067,23.5229945 C7.08842884,23.0278976 7.73087594,22.67131 8.32911797,22.4296556 C8.30259493,22.3265104 8.29080691,22.2174712 8.29080691,22.102538 L8.29375391,17.1427285 C8.29670092,13.6033754 8.29964792,10.1406445 8.2878599,6.6779135 C8.28196589,4.9951736 7.66309483,3.18865949 5.94793787,3.17687147 C5.93909686,3.17687147 5.93025584,3.17687147 5.92436183,3.17687147 C5.19645158,3.17687147 4.64536163,3.3713738 4.24162194,3.77216649 C3.67284996,4.33799147 3.36930844,5.33702619 3.36930844,6.66023146 L3.35752042,11.4992138 C3.34278539,18.5101389 3.32510336,25.5210639 3.42235453,32.531989 C3.44003656,33.7608901 3.85851128,35.1666115 4.52158742,36.1921693 C6.75247026,39.6725823 9.08649828,42.9378639 11.4588374,45.899604 C13.3331326,48.242473 14.170082,50.7651094 14.0993539,53.8388357 C14.0168378,57.3811358 14.0345198,60.9263829 14.0492548,64.506994 L14.0551488,67.5512503 Z" id="Shape"></path>
                        <path d="M55.0155723,70.4982554 L39.9976345,70.4982554 C39.1842611,70.4982554 38.524132,69.8381262 38.524132,69.0247528 C38.524132,67.0708885 38.5064499,65.1376531 38.4917149,63.2132588 C38.4475098,58.2593433 38.4091988,53.5824462 38.6361181,48.799457 C38.7510513,46.3062907 39.6793579,43.4830599 41.1793835,41.0458867 C43.203976,37.774711 45.514428,34.6420446 47.7482578,31.6125234 L50.2149011,28.2470436 C51.3642331,26.6615549 52.5489291,25.0200731 53.9487565,23.5583586 C54.5528925,22.9247525 55.3544779,22.3441925 56.3623537,22.1172731 C56.3623537,22.1113791 56.3623537,22.1054851 56.3623537,22.099591 L56.3594067,17.5670972 C56.3594067,13.8744999 56.3564596,10.2703127 56.3682477,6.66612547 C56.3800357,2.83501888 58.4989323,0.244601421 61.6374927,0.223972386 C63.0697372,0.318276548 64.4666176,0.716122233 65.4332353,1.67389888 C66.5737262,2.80554883 67.1778623,4.52659979 67.1808093,6.65139045 L67.1925973,11.4844788 C67.2102793,18.5130859 67.2279614,25.541693 67.1307102,32.5644061 C67.1012401,34.3473441 66.5177331,36.2982615 65.5658505,37.780605 C63.2642395,41.3641632 60.8683244,44.714908 58.4517803,47.7355882 C57.0165888,49.5273673 56.4006647,51.3898745 56.4566578,53.7651606 C56.536227,57.3221957 56.5185449,60.8792308 56.5038099,64.47163 L56.4890749,69.0218058 C56.4890749,69.8410732 55.8289457,70.4982554 55.0155723,70.4982554 Z M41.46819,67.5512503 L53.5479638,67.5512503 L53.5568048,64.459842 C53.5744869,60.8939658 53.5921689,57.3664007 53.5096527,53.8388357 C53.4389246,50.7651094 54.2758741,48.242473 56.1501693,45.899604 C58.5077733,42.9555459 60.8418014,39.6932113 63.0874192,36.1921693 C63.7475484,35.1666115 64.1660231,33.7638371 64.1866521,32.529042 C64.2839033,25.5210639 64.2662213,18.5101389 64.2485392,11.4992138 L64.2367512,6.66317847 C64.2338042,5.33702619 63.9302627,4.33799147 63.3614907,3.77216649 C62.94891,3.36547979 62.4862302,3.16213644 61.6581218,3.17687147 C59.9400178,3.18865949 59.3240938,4.99222659 59.3181997,6.6779135 C59.3064117,10.2821007 59.3093587,13.8803939 59.3093587,17.5670972 L59.3123057,22.102538 C59.3123057,22.2145242 59.3005177,22.3235634 59.2739947,22.4267086 C59.8751837,22.668363 60.5176308,23.0249506 61.201336,23.5229945 C62.7367256,24.6340154 64.127712,26.6438729 62.0353384,29.9032605 C60.7828613,31.8541778 59.6040592,33.8610883 58.4252572,35.8591577 L57.9979415,36.581174 C57.5824138,37.2825612 56.6806302,37.5124276 55.979243,37.1027939 C55.2778558,36.6902132 55.0450424,35.7884296 55.4576231,35.0840954 L55.8819918,34.3650262 C57.0784759,32.3315927 58.277907,30.2952121 59.5510131,28.3089307 C60.5294188,26.7823821 60.1757782,26.4169535 59.468497,25.9071216 C57.4586395,24.4542481 56.6983122,24.9493449 56.0764942,25.5976861 C54.815176,26.9120503 53.6894201,28.471016 52.6019752,29.9739886 L50.1176499,33.3630444 C47.9162371,36.3424666 45.6411492,39.4250339 43.6843378,42.5930643 C42.4554367,44.5852397 41.6656394,46.9546318 41.5713352,48.9350192 C41.3503098,53.6384393 41.3886209,58.2740783 41.432826,63.1837888 C41.450508,64.6366623 41.462296,66.0895358 41.46819,67.5512503 Z" id="Shape"></path>
                    </g>
                    <path d="M34.5041079,8.02574818 C38.4245194,8.02574818 41.6052307,11.2064594 41.7161857,15.126871 L41.7161857,19.1582376 C41.7161857,19.8609529 41.1244255,20.4527131 40.4217102,20.4527131 C39.7189949,20.4527131 39.1272347,19.8609529 39.1272347,19.1582376 L39.1272347,15.126871 C39.1272347,14.1282756 38.7943696,13.2406352 38.2765794,12.5009349 L38.2765794,33.5084233 C38.2765794,34.4330486 37.5738641,35.1357639 36.6492387,35.1357639 C35.7246134,35.1357639 35.0218981,34.3960636 35.0218981,33.5084233 L35.0218981,21.3773385 L34.0972727,21.3773385 L34.0972727,33.5084233 C34.0972727,34.4330486 33.3945574,35.1357639 32.4699321,35.1357639 C31.5453067,35.1357639 30.8425914,34.3960636 30.8425914,33.5084233 L30.8425914,12.5009349 C30.3248012,13.2406352 29.9919361,14.1652606 29.9919361,15.126871 L29.9919361,19.1582376 C29.9919361,19.8609529 29.4001759,20.4527131 28.6974606,20.4527131 C27.9947453,20.4527131 27.4029851,19.8609529 27.4029851,19.1582376 L27.4029851,15.126871 C27.4029851,11.2064594 30.5836963,8.02574818 34.5041079,8.02574818 Z M34.5041079,7.10112281 C32.543187,7.10112281 30.9535465,5.51148232 30.9535465,3.55056141 C30.9535465,1.58964049 32.543187,0 34.5041079,0 C36.4650288,0 38.0546693,1.58964049 38.0546693,3.55056141 C38.0546693,5.51148232 36.4650288,7.10112281 34.5041079,7.10112281 Z" id="Shape" fill="#2D80EB"></path>
                </g>
            </g>
        </g>
    </g>
</svg>