<?xml version="1.0" encoding="UTF-8"?>
<svg width="50px" height="63px" viewBox="0 0 50 63" version="1.1" xmlns="http://www.w3.org/2000/svg" xmlns:xlink="http://www.w3.org/1999/xlink">
    <!-- Generator: Sketch 47 (45396) - http://www.bohemiancoding.com/sketch -->
    <title>Shape</title>
    <desc>Created with Sketch.</desc>
    <defs></defs>
    <g id="Page-1" stroke="none" stroke-width="1" fill="none" fill-rule="evenodd">
        <g id="Large-Device_Main_design" transform="translate(-668.000000, -905.000000)">
            <g id="Group-8" transform="translate(665.000000, 902.000000)">
                <path d="M48.0927307,3.07123389 L7.81768627,3.07123389 C6.5554223,3.0599462 5.34157411,3.55639191 4.44898301,4.44898301 C3.55639191,5.34157411 3.0599462,6.5554223 3.07123389,7.81768627 L3.07123389,60.3776663 C3.05877609,62.57181 4.56472907,64.4832119 6.70087394,64.9845171 C6.90502975,65.042086 7.11726741,65.065668 7.32908088,65.0543179 L48.0927307,65.0543179 C49.3549947,65.0656056 50.5688429,64.5691599 51.461434,63.6765688 C52.3540251,62.7839777 52.8504708,61.5701295 52.8391831,60.3078655 L52.8391831,7.81768627 C52.8504708,6.5554223 52.3540251,5.34157411 51.461434,4.44898301 C50.5688429,3.55639191 49.3549947,3.0599462 48.0927307,3.07123389 Z M29.9445304,34.4815805 L8.58549474,34.4815805 C7.73739692,34.4815805 7.0498778,33.7940614 7.0498778,32.9459636 C7.0498778,32.0978657 7.73739692,31.4103466 8.58549474,31.4103466 L29.9445304,31.4103466 C30.7926283,31.4103466 31.4801474,32.0978657 31.4801474,32.9459636 C31.4801474,33.7940614 30.7926283,34.4815805 29.9445304,34.4815805 Z M7.0498778,23.8020627 C7.01813842,22.9949791 7.6394456,22.3115412 8.4458932,22.2664457 L43.765083,22.2664457 C44.5715306,22.3115412 45.1928377,22.9949791 45.1610984,23.8020627 C45.1619475,24.6236329 44.5160037,25.3003359 43.6952822,25.3376796 L8.4458932,25.3376796 C7.6376942,25.2962732 7.01429965,24.6105392 7.0498778,23.8020627 Z M40.6589487,60.0984632 C36.7121373,60.0984162 33.5108505,56.9022672 33.5044642,52.955461 C33.4980779,49.0086548 36.6890047,45.8021626 40.6357952,45.789343 C44.5825857,45.7765235 47.7942749,48.9622194 47.8135276,52.9089839 C47.8135276,56.8603487 44.6103135,60.0635628 40.6589487,60.0635628 L40.6589487,60.0984632 Z M46.7665161,16.2635795 L8.58549474,16.2635795 C7.73739692,16.2635795 7.0498778,15.5760603 7.0498778,14.7279625 C7.0498778,13.8798647 7.73739692,13.1923456 8.58549474,13.1923456 L46.7665161,13.1923456 C47.6146139,13.1923456 48.302133,13.8798647 48.302133,14.7279625 C48.302133,15.5760603 47.6146139,16.2635795 46.7665161,16.2635795 Z" id="Shape"></path>
            </g>
        </g>
    </g>
</svg>