<?xml version="1.0" encoding="UTF-8"?>
<svg width="68px" height="69px" viewBox="0 0 68 69" version="1.1" xmlns="http://www.w3.org/2000/svg" xmlns:xlink="http://www.w3.org/1999/xlink">
    <!-- Generator: Sketch 47 (45396) - http://www.bohemiancoding.com/sketch -->
    <title>noun_656080_cc</title>
    <desc>Created with Sketch.</desc>
    <defs></defs>
    <g id="Page-1" stroke="none" stroke-width="1" fill="none" fill-rule="evenodd">
        <g id="Large-Device_Main_design" transform="translate(-275.000000, -1024.000000)" fill-rule="nonzero">
            <g id="Group-10" transform="translate(275.000000, 1024.000000)">
                <g id="noun_656080_cc">
                    <path d="M47.8252873,54.3175878 C46.5451789,55.4115856 44.8737107,56.2346585 42.9763918,56.6711486 C42.2850471,56.8311686 41.8652405,57.4736249 42.0393697,58.1065751 C42.215223,58.7395253 42.916912,59.1237316 43.6091188,58.9637117 L43.6091188,58.9637117 C45.8995215,58.4361211 47.9632115,57.434016 49.5898543,56.045328 C50.1105179,55.5993318 50.1398268,54.852308 49.6527822,54.3754168 C49.1648755,53.8985257 48.3459509,53.8723838 47.8252873,54.3175878 Z" id="Shape" fill="#2F2F2F"></path>
                    <path d="M63.7486001,33.9563838 L61.2108808,33.9563838 C60.2140339,31.3846154 58.7291641,29.001586 56.8506757,26.8802538 L59.6300064,18.8057098 C59.8316159,18.2180809 59.5396022,17.5765266 58.9595749,17.3354481 C57.8483227,16.8731166 56.6778676,16.6574148 55.5122128,16.6574148 C52.644878,16.6637589 49.8335458,17.9429025 47.6238419,20.035686 C45.9213618,19.2188739 44.1132768,18.5376685 42.224388,18.0023791 C43.3428406,16.2038065 43.9996715,14.0967486 44.0012715,11.8326725 C43.9996715,5.29738303 38.6274189,0.000793021412 32.0007073,0 C25.3723956,0.000793021412 20.000143,5.29738303 20.000143,11.8326725 C20.000143,14.1934972 20.7081763,16.3862014 21.9170331,18.2323553 C17.8712429,19.4742268 14.2238714,21.4004758 11.2037293,23.8683584 C9.20123518,25.5027756 7.47315392,27.3782712 6.08268854,29.4369548 C5.01543836,29.4203013 4.06979389,29.0594766 3.42016334,28.5233941 C2.75053186,27.9682791 2.40171545,27.2831086 2.40011538,26.5527359 C2.40011538,25.8992863 1.8624901,25.369548 1.20005895,25.369548 C0.537627802,25.369548 2.52158706e-06,25.8992863 2.52158706e-06,26.5527359 C-0.00159755365,28.0713719 0.758438185,29.4234734 1.88329108,30.3417922 C2.67772843,30.9936558 3.66337478,31.4488501 4.74822579,31.665345 C3.16495134,34.6843775 2.27770962,38.0206186 2.2793097,41.5313243 C2.27770962,48.3378271 5.60426604,54.4845361 10.898115,58.9333862 L9.70605892,63.6859635 L9.70605892,63.6835845 C9.64205591,63.9341792 9.61085444,64.1895321 9.61085444,64.4409199 C9.61245452,65.1522601 9.85646599,65.8271213 10.2796859,66.370341 C10.7029058,66.9135607 11.3173347,67.3298969 12.0437688,67.5067407 L17.7864389,68.9080095 C18.0408508,68.9706582 18.299263,69 18.5520749,69 C19.2737088,69 19.958541,68.7581285 20.5081669,68.3409992 C21.0585927,67.924663 21.4818126,67.3195876 21.6610211,66.6042823 L22.0874411,64.9000793 C25.3275935,65.8762887 28.8221578,66.408406 32.4663291,66.408406 C36.1105005,66.408406 39.6042648,65.8723236 42.8436171,64.8961142 L43.2724373,66.6034893 C43.4508457,67.3187946 43.8740656,67.924663 44.4236914,68.3409992 C44.9733172,68.7589215 45.6581494,69 46.3805834,69 C46.6333953,69 46.8910074,68.9706582 47.1462194,68.9080095 L52.8888894,67.5067407 C53.6153236,67.3298969 54.2281524,66.9127676 54.6505723,66.370341 C55.0737922,65.8271213 55.3186037,65.1538462 55.3194037,64.4409199 C55.3194037,64.1927042 55.2898023,63.9389374 55.2265994,63.6859635 L54.0297431,58.9159397 C57.4763052,56.0118953 60.0924282,52.4115781 61.492494,48.3560666 L63.7486001,48.3560666 C66.0951104,48.3513085 67.9959998,46.4781919 68,44.1641554 L68,38.147502 C67.9951998,35.8350515 66.0943104,33.9603489 63.7486001,33.9563838 Z M25.210788,5.13877875 C26.9524699,3.42426646 29.3437823,2.36716891 31.9999072,2.36637589 C34.652832,2.36716891 37.0465445,3.42426646 38.7866263,5.13877875 C40.5267082,6.8556701 41.5987586,9.21570182 41.6003586,11.8326725 C41.5987586,14.4504362 40.5267082,16.8088818 38.7866263,18.5257732 C37.0457445,20.2402855 34.652832,21.297383 31.9999072,21.2981761 C29.3437823,21.297383 26.9516698,20.2402855 25.210788,18.5257732 C23.4715062,16.8088818 22.3994558,14.4496431 22.3994558,11.8326725 C22.3994558,9.21570182 23.4715062,6.85646312 25.210788,5.13877875 Z M19.3305115,66.035686 C19.2849093,66.2141158 19.1833046,66.3584457 19.043298,66.4670896 C18.9008913,66.5749405 18.7264831,66.6352102 18.5512748,66.6344171 L18.362466,66.6122125 L12.6197959,65.2109437 C12.4365873,65.1657415 12.2901804,65.0666138 12.1805753,64.9278351 C12.0709701,64.7890563 12.0101673,64.6153846 12.0117673,64.443299 L12.0333684,64.259318 L12.0349684,64.2561459 L12.9710124,60.5241872 C15.0351095,61.964314 17.3320175,63.1784298 19.810534,64.1213323 L19.3305115,66.035686 Z M52.7480828,64.927042 C52.6384777,65.0674068 52.4936709,65.1665345 52.3112623,65.2101507 L46.5701923,66.6114195 L46.3805834,66.6336241 C46.2045751,66.6344171 46.0293669,66.5741475 45.8877602,66.4670896 C45.7469536,66.3584457 45.6469489,66.2149088 45.6013468,66.036479 L45.1213242,64.1205393 C47.2790257,63.2981761 49.3031208,62.2751784 51.1520078,61.0721649 C51.4280208,60.8921491 51.6872329,60.6938937 51.9560456,60.5059477 L52.8968898,64.2545599 L52.9184908,64.4417129 C52.9192909,64.6145916 52.857688,64.7874703 52.7480828,64.927042 Z M65.5998871,44.1657415 C65.5998871,44.666931 65.3934774,45.1173672 65.0542615,45.4536082 C64.7134455,45.7882633 64.2558239,45.9904837 63.7478001,45.9912768 L60.6180529,45.9912768 C60.0852278,45.9912768 59.6172058,46.3362411 59.4667988,46.8398097 C58.0107303,51.7137193 54.5745687,56.0103093 49.8311457,59.0975416 C45.0885227,62.1823949 39.0498387,64.0428232 32.4655291,64.0420301 C24.7307654,64.0436162 17.7488371,61.4758128 12.7350013,57.3750991 C7.7171654,53.2680412 4.68022259,47.6780333 4.67862252,41.5321174 C4.68022259,35.3869944 7.7171654,29.7977795 12.7350013,25.6907216 C15.7223418,23.2474227 19.4153155,21.3600317 23.5435096,20.2252181 C24.3115457,20.9762094 25.1843867,21.6225218 26.1340314,22.149088 C24.8963732,22.3497224 23.6723156,22.59318 22.4778595,22.9183188 C21.8386294,23.0927835 21.4634118,23.7446471 21.6402201,24.3743061 C21.8186285,25.0039651 22.4794595,25.3735131 23.1186896,25.1990484 C26.0180259,24.409199 29.0869702,24.0095163 32.2311181,24.0103093 C35.1816568,24.0095163 38.1969986,24.3608247 41.2027399,25.0697859 C41.8475703,25.222046 42.4948007,24.8302934 42.649208,24.1942902 C42.8036152,23.5582871 42.4067966,22.9206979 41.7611662,22.7676447 C40.5067072,22.4718477 39.248248,22.2521808 37.992989,22.072958 C38.9658348,21.517843 39.8514764,20.8358446 40.6283129,20.0436162 C43.0076248,20.6352102 45.2597307,21.4567803 47.3158274,22.5138779 C47.7982501,22.7620936 48.391878,22.6574148 48.7574952,22.2616971 C50.647184,20.2085646 53.1793031,19.0166534 55.5130128,19.0237906 C56.005036,19.0237906 56.4898588,19.0808882 56.9642811,19.18636 L54.3553584,26.7668517 C54.2137517,27.1776368 54.3105563,27.630452 54.6097704,27.9492466 C56.7090691,30.1927042 58.2923435,32.7549564 59.238788,35.51705 C59.4027957,35.9976209 59.8604173,36.3219667 60.3748415,36.3219667 L63.7486001,36.3219667 C64.256624,36.3227597 64.7142455,36.5249802 65.0550615,36.8596352 C65.3942775,37.1958763 65.6006872,37.6471055 65.6006872,38.148295 L65.6006872,44.1657415 L65.5998871,44.1657415 Z" id="Shape" fill="#2F2F2F"></path>
                    <circle id="Oval" fill="#2F2F2F" cx="50.5" cy="34.5" r="1.5"></circle>
                    <path d="M30.7884114,15.0546588 C30.5146513,14.8156902 30.3900707,14.561786 30.3813421,14.1640289 C30.3813421,13.5162981 29.8488987,12.9911959 29.1910812,12.9911959 C28.5356442,12.9911959 28.0008203,13.5162981 28.0008203,14.1640289 C27.9928852,15.1937952 28.4515324,16.1889739 29.2498007,16.8445656 C29.8139844,17.3154282 30.5225864,17.6109947 31.3105391,17.7462006 L31.3105391,17.827167 C31.3105391,18.4748978 31.843776,19 32.5008001,19 C33.1578241,19 33.691061,18.4748978 33.691061,17.827167 L33.691061,17.7186878 C34.296507,17.6149251 34.8821154,17.4364846 35.4193198,17.110261 C35.8835216,16.8256996 36.3024934,16.4161513 36.5826015,15.9020543 C36.8650901,15.3887433 37.0015733,14.7905356 36.9999863,14.1640289 C37.0015733,13.5131538 36.8563615,12.9015826 36.5675249,12.3874856 C36.3183636,11.9378472 35.9692204,11.577822 35.5962719,11.3081962 C34.9844778,10.8664186 34.3234863,10.6353108 33.691061,10.4513678 L33.691061,7.6937952 C33.9061014,7.77161723 34.0854341,7.85808615 34.2036667,7.95005765 C34.3584006,8.06954198 34.4512409,8.18824023 34.5163085,8.32108794 C34.5805826,8.45393565 34.618671,8.60800755 34.6194645,8.80767215 C34.6194645,9.455403 35.1527014,9.98050519 35.8097254,9.98050519 C36.4659559,9.98050519 36.9999863,9.455403 36.9999863,8.80767215 C36.9999863,8.29436118 36.8928628,7.77869196 36.6627457,7.30940153 C36.3239181,6.60192852 35.7129175,6.02730322 34.9614661,5.66963631 C34.5750281,5.48412116 34.1489147,5.35048737 33.6902675,5.2616602 L33.6902675,5.17283304 C33.6902675,4.52510219 33.1570306,4 32.5000066,4 C31.8429825,4 31.3097456,4.52510219 31.3097456,5.17283304 L31.3097456,5.2160675 C30.9899622,5.26952101 30.69081,5.34812913 30.4107019,5.453464 C29.5759322,5.76317996 28.9403329,6.30872026 28.5531014,6.92186354 C28.1626958,7.53736506 28.0016138,8.19845928 28.0000268,8.80767215 C27.9976463,9.4302484 28.1539672,10.0284561 28.460261,10.5158264 C28.7260859,10.9426685 29.0847512,11.2688921 29.4569061,11.5086469 C30.0615587,11.8953988 30.697158,12.0958495 31.3097456,12.2624987 L31.3097456,15.3352898 C31.0907376,15.2582539 30.914579,15.1607798 30.7884114,15.0546588 Z M33.691061,12.9385285 C33.7712052,12.9723299 33.8624585,13.0037732 33.9299067,13.040719 C34.1989056,13.1822136 34.3504655,13.3189917 34.4456864,13.4597002 C34.5385267,13.6043392 34.615497,13.7835657 34.6194645,14.1640289 C34.6178775,14.4737449 34.5591579,14.6561157 34.4877423,14.7873913 C34.4337838,14.8856514 34.3679227,14.9642595 34.2679408,15.0444398 C34.1449471,15.1419138 33.9433963,15.2354575 33.691061,15.3132795 L33.691061,12.9385285 L33.691061,12.9385285 Z M30.6947775,9.5009957 C30.5717839,9.40823813 30.5130643,9.33513259 30.4670409,9.24866366 C30.4226045,9.16140866 30.3829291,9.04113825 30.3813421,8.80845823 C30.3813421,8.54512106 30.4837046,8.21653915 30.7249308,7.97757049 C30.8479244,7.85415575 31.0097999,7.7393879 31.2581677,7.64584425 C31.2748313,7.6395556 31.294669,7.63405303 31.3105391,7.62933655 L31.3105391,9.8052091 C31.0399532,9.70537679 30.8233257,9.60161409 30.6947775,9.5009957 Z" id="Shape" fill="#2D80EB"></path>
                </g>
            </g>
        </g>
    </g>
</svg>