<?xml version="1.0" encoding="UTF-8"?>
<svg width="8px" height="16px" viewBox="0 0 8 16" version="1.1" xmlns="http://www.w3.org/2000/svg" xmlns:xlink="http://www.w3.org/1999/xlink">
    <!-- Generator: Sketch 47 (45396) - http://www.bohemiancoding.com/sketch -->
    <title>Combined Shape</title>
    <desc>Created with Sketch.</desc>
    <defs></defs>
    <g id="Symbols" stroke="none" stroke-width="1" fill="none" fill-rule="evenodd">
        <g id="Article_block" transform="translate(-1132.000000, -5.000000)" fill="#000FCF">
            <path d="M1139.37279,12.1214465 L1133.4099,6.15855259 L1133.4099,6.15855259 C1133.08944,5.83809269 1132.56987,5.83809269 1132.24941,6.15855259 L1132.24941,6.15855259 L1132.24941,6.15855259 C1131.92895,6.4790125 1131.92895,6.99858067 1132.24941,7.31904057 L1132.24941,7.31904057 L1137.92851,12.9981452 L1132.2457,18.6809594 C1131.92524,19.0014193 1131.92524,19.5209875 1132.2457,19.8414474 C1132.56616,20.1619073 1133.08573,20.1619073 1133.40619,19.8414474 L1139.36665,13.8809865 C1139.50871,13.8468356 1139.64342,13.7743208 1139.7543,13.6634421 C1139.9404,13.4773449 1140.01842,13.2241014 1139.98838,12.981698 C1140.0066,12.7506243 1139.92734,12.5133064 1139.75059,12.3365579 L1139.75059,12.3365579 C1139.64228,12.2282456 1139.51122,12.1565418 1139.37279,12.1214465 Z" id="Combined-Shape"></path>
        </g>
    </g>
</svg>