<?xml version="1.0" encoding="UTF-8"?>
<svg width="20px" height="36px" viewBox="0 0 20 36" version="1.1" xmlns="http://www.w3.org/2000/svg" xmlns:xlink="http://www.w3.org/1999/xlink">
    <!-- Generator: Sketch 47 (45396) - http://www.bohemiancoding.com/sketch -->
    <title>Combined Shape</title>
    <desc>Created with Sketch.</desc>
    <defs></defs>
    <g id="Page-1" stroke="none" stroke-width="1" fill="none" fill-rule="evenodd">
        <g id="Large-Device_TourPage_design" transform="translate(-31.000000, -1612.000000)" fill="#4F9CFF">
            <path d="M50.999768,1629.99899 C51.0071417,1629.47018 50.8090783,1628.93903 50.4055776,1628.53553 L50.4055776,1628.53553 L34.464357,1612.59431 L34.464357,1612.59431 C33.6718385,1611.8018 32.3869121,1611.8018 31.5943936,1612.59431 C30.8018751,1613.38683 30.8018751,1614.67176 31.5943936,1615.46428 L31.5943936,1615.46428 L46.1301166,1630 L31.5943936,1644.53572 L31.5943936,1644.53572 C30.8018751,1645.32824 30.8018751,1646.61317 31.5943936,1647.40569 L31.5943936,1647.40569 L31.5943936,1647.40569 C32.3869121,1648.1982 33.6718385,1648.1982 34.464357,1647.40569 L34.464357,1647.40569 L50.4056064,1631.46444 C50.8096143,1631.06043 51.0076682,1630.52846 50.999768,1629.99899 Z" id="Combined-Shape" transform="translate(41.000000, 1630.000000) scale(-1, 1) translate(-41.000000, -1630.000000) "></path>
        </g>
    </g>
</svg>