<?xml version="1.0" encoding="UTF-8"?>
<svg width="20px" height="36px" viewBox="0 0 20 36" version="1.1" xmlns="http://www.w3.org/2000/svg" xmlns:xlink="http://www.w3.org/1999/xlink">
    <!-- Generator: Sketch 47 (45396) - http://www.bohemiancoding.com/sketch -->
    <title>Combined Shape</title>
    <desc>Created with Sketch.</desc>
    <defs></defs>
    <g id="Page-1" stroke="none" stroke-width="1" fill="none" fill-rule="evenodd">
        <g id="Large-Device_TourPage_design" transform="translate(-1249.000000, -1612.000000)" fill="#4F9CFF">
            <path d="M1268.99977,1629.99899 C1269.00714,1629.47018 1268.80908,1628.93903 1268.40558,1628.53553 L1268.40558,1628.53553 L1252.46436,1612.59431 L1252.46436,1612.59431 C1251.67184,1611.8018 1250.38691,1611.8018 1249.59439,1612.59431 L1249.59439,1612.59431 L1249.59439,1612.59431 C1248.80188,1613.38683 1248.80188,1614.67176 1249.59439,1615.46428 L1264.13012,1630 L1249.59439,1644.53572 C1248.80188,1645.32824 1248.80188,1646.61317 1249.59439,1647.40569 L1249.59439,1647.40569 L1249.59439,1647.40569 C1250.38691,1648.1982 1251.67184,1648.1982 1252.46436,1647.40569 L1268.40561,1631.46444 C1268.80961,1631.06043 1269.00767,1630.52846 1268.99977,1629.99899 Z" id="Combined-Shape"></path>
        </g>
    </g>
</svg>