<?xml version="1.0" encoding="UTF-8"?>
<svg width="27px" height="27px" viewBox="0 0 27 27" version="1.1" xmlns="http://www.w3.org/2000/svg" xmlns:xlink="http://www.w3.org/1999/xlink">
    <!-- Generator: Sketch 47 (45396) - http://www.bohemiancoding.com/sketch -->
    <title>Change_places_city</title>
    <desc>Created with Sketch.</desc>
    <defs>
        <rect id="path-1" x="0" y="0" width="22.8117187" height="22.8117187"></rect>
    </defs>
    <g id="Symbols" stroke="none" stroke-width="1" fill="none" fill-rule="evenodd">
        <g id="Ticket_form_first_view" transform="translate(-173.000000, -9.000000)">
            <g id="Change_places_city">
                <g transform="translate(175.000000, 11.000000)">
                    <g id="Rectangle-2">
                        <use fill="#FFFFFF" fill-rule="evenodd" xlink:href="#path-1"></use>
                        <rect stroke="#6EADFF" stroke-width="2" x="-1" y="-1" width="24.8117187" height="24.8117187"></rect>
                    </g>
                    <path d="M15.1861262,5.85853425 L13.7724392,4.44484725 L13.7724392,4.44484725 C13.4095482,4.08195621 13.4095482,3.49359358 13.7724392,3.13070253 C14.1353303,2.76781149 14.7236929,2.76781149 15.0865839,3.13070253 L15.0865839,3.13070253 L18.0150799,6.0591985 L18.0150799,6.0591985 C18.2183681,6.26248664 18.3077761,6.53653082 18.283304,6.8020573 C18.3077761,7.06758378 18.2183681,7.34162795 18.0150799,7.54491609 L18.0150799,7.54491609 L15.0865839,10.4734121 C14.7236929,10.8363031 14.1353303,10.8363031 13.7724392,10.4734121 C13.4095482,10.110521 13.4095482,9.52215838 13.7724392,9.15926734 L13.7724392,9.15926734 L15.214691,7.71701554 L4.42951158,7.71701554 L4.42951158,7.71701554 C3.91630614,7.71701554 3.50027094,7.30098033 3.50027094,6.78777489 C3.50027094,6.27456946 3.91630614,5.85853425 4.42951158,5.85853425 L4.42951158,5.85853425 L15.1861262,5.85853425 Z" id="Combined-Shape" fill="#6EADFF"></path>
                    <path d="M15.3986071,14.8585342 L13.9849201,13.4448473 L13.9849201,13.4448473 C13.622029,13.0819562 13.622029,12.4935936 13.9849201,12.1307025 C14.3478111,11.7678115 14.9361738,11.7678115 15.2990648,12.1307025 L15.2990648,12.1307025 L18.2275608,15.0591985 L18.2275608,15.0591985 C18.4308489,15.2624866 18.520257,15.5365308 18.4957849,15.8020573 C18.520257,16.0675838 18.4308489,16.3416279 18.2275608,16.5449161 L18.2275608,16.5449161 L15.2990648,19.4734121 C14.9361738,19.8363031 14.3478111,19.8363031 13.9849201,19.4734121 C13.622029,19.110521 13.622029,18.5221584 13.9849201,18.1592673 L13.9849201,18.1592673 L15.4271719,16.7170155 L4.64199245,16.7170155 L4.64199245,16.7170155 C4.12878702,16.7170155 3.71275181,16.3009803 3.71275181,15.7877749 C3.71275181,15.2745695 4.12878702,14.8585342 4.64199245,14.8585342 L4.64199245,14.8585342 L15.3986071,14.8585342 Z" id="Combined-Shape" fill="#6EADFF" transform="translate(11.106240, 15.802057) scale(-1, 1) translate(-11.106240, -15.802057) "></path>
                </g>
            </g>
        </g>
    </g>
</svg>