<?xml version="1.0" encoding="UTF-8"?>
<svg width="33px" height="21px" viewBox="0 0 33 21" version="1.1" xmlns="http://www.w3.org/2000/svg" xmlns:xlink="http://www.w3.org/1999/xlink">
    <!-- Generator: Sketch 47 (45396) - http://www.bohemiancoding.com/sketch -->
    <title>Shape</title>
    <desc>Created with Sketch.</desc>
    <defs></defs>
    <g id="Symbols" stroke="none" stroke-width="1" fill="none" fill-rule="evenodd" opacity="0.5">
        <g id="Ticket_form_first_view" transform="translate(-20.000000, -12.000000)" fill-rule="nonzero" fill="#3C3C3C">
            <g id="City1">
                <g>
                    <path d="M50.2642278,12.1728161 C49.4601235,11.9047813 48.5411472,11.943072 47.8136243,12.3259788 L39.9640352,15.6955585 L32.1910275,13.8576059 C31.884702,13.7810246 31.5783766,13.8193153 31.3103418,13.972478 L29.5106799,14.8531636 C29.0511918,15.0829077 28.7448664,15.5423958 28.7448664,16.0784653 C28.7448664,16.6145348 29.0511918,17.074023 29.5106799,17.2654763 L33.5312012,19.1034289 L27.2898206,22.2815552 C27.2515299,22.3198459 27.1749485,22.3198459 27.1366579,22.2815552 L22.2737417,20.5967654 C21.8525442,20.4436027 21.3930561,20.4818934 20.9718586,20.6733467 C20.4357891,20.9413815 20.091173,21.4008696 20.0145916,21.9752298 C19.9380103,22.54959 20.1677544,23.1239502 20.5889518,23.506857 L25.336996,27.4890875 C25.7199028,27.795413 26.2176816,27.8719943 26.6771697,27.7188316 L36.2498394,24.1960892 L34.4501775,30.0162723 C34.2587241,30.6672139 34.4501775,31.3947368 34.986247,31.8159342 C35.2925724,32.083969 35.7137699,32.2371317 36.0966767,32.2371317 C36.3647114,32.2371317 36.5944555,32.1605503 36.8624902,32.0456783 L38.3558267,31.3181554 C38.7004428,31.1649927 39.0067683,30.8586673 39.159931,30.5140512 L43.448487,21.477451 L50.5322625,18.146162 C51.2980761,17.7632552 51.910727,17.1123136 52.1787617,16.2699187 C52.4467965,15.4658145 52.4085058,14.5468382 52.025599,13.7810246 C51.7192736,13.0535017 51.068332,12.4408508 50.2642278,12.1728161 Z M51.1832041,15.9253026 C50.9917507,16.4613721 50.6088439,16.8825696 50.1110651,17.1123136 L42.8358361,20.520184 C42.7209641,20.5584747 42.606092,20.6733467 42.5678014,20.7882188 L38.1643733,30.054563 C38.1260826,30.1694351 38.0112106,30.2843071 37.8963386,30.3225978 L36.4030021,31.0501207 C36.0966767,31.2032834 35.8286419,31.01183 35.7903512,30.9735393 C35.7137699,30.8969579 35.5223165,30.7055046 35.5988979,30.3608884 L37.7431759,23.4302756 C37.8197572,23.2388222 37.7431759,23.0090781 37.5900131,22.8559154 C37.4751411,22.7410434 37.3219784,22.7027527 37.2071064,22.7027527 C37.130525,22.7027527 37.0922343,22.7027527 37.015653,22.7410434 L26.3325536,26.6466926 C26.2559723,26.6849833 26.1793909,26.6466926 26.1411002,26.6084019 L21.4313468,22.6261714 C21.278184,22.5112993 21.2016027,22.3198459 21.2398934,22.1283925 C21.278184,21.9369391 21.3930561,21.7837764 21.5462188,21.7071951 C21.6610908,21.6306137 21.8142535,21.6306137 21.9674163,21.6689044 L26.8303324,23.3536943 C27.1749485,23.4685663 27.5578553,23.4302756 27.8641808,23.2771129 L35.1394097,19.5629171 C35.3308631,19.448045 35.4457351,19.2565916 35.4457351,19.0268476 C35.4457351,18.7971035 35.2925724,18.6056501 35.101119,18.5290687 L29.9701681,16.1933373 C29.8552961,16.1550467 29.8552961,16.0784653 29.8552961,16.0401746 C29.8552961,16.001884 29.8552961,15.9253026 29.9701681,15.8487212 L31.76983,14.9680356 C31.8081207,14.9297449 31.8464113,14.9297449 31.884702,14.9680356 L39.8491632,16.8442789 C39.9640352,16.8825696 40.0789073,16.8442789 40.1937793,16.8059882 L48.2348218,13.3215364 C48.7326006,13.0917924 49.3069608,13.0535017 49.8430303,13.2066644 C50.3790998,13.3981178 50.8002973,13.7810246 51.068332,14.2788034 C51.3363668,14.8531636 51.3746575,15.3892331 51.1832041,15.9253026 Z" id="Shape"></path>
                </g>
            </g>
        </g>
    </g>
</svg>