<?xml version="1.0" encoding="UTF-8"?>
<svg width="69px" height="81px" viewBox="0 0 69 81" version="1.1" xmlns="http://www.w3.org/2000/svg" xmlns:xlink="http://www.w3.org/1999/xlink">
    <!-- Generator: Sketch 47 (45396) - http://www.bohemiancoding.com/sketch -->
    <title>2</title>
    <desc>Created with Sketch.</desc>
    <defs></defs>
    <g id="Page-1" stroke="none" stroke-width="1" fill="none" fill-rule="evenodd">
        <g id="Large-Device_Airtickets_design" transform="translate(-274.000000, -513.000000)">
            <g id="Preimushchestva" transform="translate(275.000000, 287.000000)">
                <g id="Group-12" transform="translate(0.000000, 102.000000)">
                    <g id="2" transform="translate(0.000000, 125.000000)">
                        <path d="M5.11502747,31.13 L12.095073,31.13 L12.095073,31.1299983 C14.1542152,31.1299983 15.8769234,29.5667314 16.0762806,27.5172623 C16.1771897,26.479877 16.2949427,25.6124563 16.4295395,24.915 C16.8328749,22.8249895 17.5112014,20.918342 18.4645395,19.195 C19.4178776,17.471658 20.682865,16.0783386 22.2595395,15.015 C23.8362141,13.9516613 25.7611948,13.42 28.0345395,13.42 C31.4078897,13.42 34.1761954,14.4649895 36.3395395,16.555 C38.5028837,18.6450104 39.5845395,21.5599813 39.5845395,25.3 C39.5845395,27.6466784 39.0528782,29.7366575 37.9895395,31.57 C36.9262009,33.4033425 35.6062141,35.053326 34.0295395,36.52 C32.452865,37.986674 30.7112157,39.3249939 28.8045395,40.535 C26.8978633,41.745006 25.1012146,42.9366608 23.4145395,44.11 C20.114523,46.3833447 16.9795544,48.619989 14.0095395,50.82 C11.0395247,53.020011 8.45455052,55.4216536 6.25453952,58.025 C4.05452852,60.6283463 2.31287927,63.5799835 1.02953952,66.88 C0.698838628,67.7303737 0.400094799,68.832745 0.133308033,70.187114 L0.133301095,70.1871126 C-0.613874086,73.9802199 1.8553418,77.6608461 5.64844913,78.4080213 C6.09405988,78.4957988 6.54715569,78.54 7.00132947,78.54 L51.6445395,78.54 L51.6445395,78.54 C53.8536785,78.54 55.6445395,76.749139 55.6445395,74.54 L55.6445395,69.12 L55.6445395,69.12 C55.6445395,66.910861 53.8536785,65.12 51.6445395,65.12 L19.2345395,65.12 C21.972309,61.8200066 24.172309,59.5100066 25.8345395,58.19 C28.3278853,56.2099901 30.8945263,54.3583419 33.5345395,52.635 C36.1745527,50.911658 38.7961932,49.1700088 41.3995395,47.41 C44.0028859,45.6499912 46.3311959,43.6883441 48.3845395,41.525 C50.4378831,39.3616559 52.0878666,36.8866806 53.3345395,34.1 C54.5812124,31.3133194 55.2045395,27.9766861 55.2045395,24.09 C55.2045395,20.3499813 54.4895467,16.9766817 53.0595395,13.97 C51.6295324,10.9633183 49.7045516,8.4333436 47.2845395,6.38 C44.8645274,4.3266564 42.0595555,2.7500055 38.8695395,1.65 C35.6795236,0.5499945 32.3245571,0 28.8045395,0 C24.1845164,0 20.096224,0.78832545 16.5395395,2.365 C12.9828551,3.94167455 10.0312179,6.14165255 7.68453952,8.965 C5.33786112,11.7883474 3.57787872,15.0883144 2.40453952,18.865 C1.83821997,20.687841 1.41284152,23.3338876 1.12840416,26.8031397 L1.12839955,26.8031394 C0.94788196,29.0048932 2.58641765,30.9361057 4.78817145,31.1166233 C4.89689547,31.1255374 5.00593864,31.13 5.11502747,31.13 Z" stroke="#2F2F2F" stroke-width="2"></path>
                        <circle id="Oval" fill="#FFFFFF" cx="51.5" cy="63.5" r="10.5"></circle>
                        <path d="M35.6201182,66.0056636 L38.1674482,66.4533115 C38.4656599,67.5635592 38.9075696,68.6301141 39.4819699,69.6259275 L37.9969156,71.7575844 C37.4577363,72.5316919 37.547356,73.5802422 38.2100813,74.2516229 L39.7377687,75.7793103 C40.4103656,76.4509012 41.4681953,76.5423001 42.2460183,75.9960287 L44.3776751,74.5109745 C45.3734346,75.0854842 46.4400042,75.5274 47.5502911,75.8254962 L47.997939,78.3728261 C48.1624052,79.3124915 48.9802522,79.9967819 49.934194,79.9928854 L52.0658509,79.9928854 C53.0171114,79.9933194 53.83099,79.3098413 53.9950003,78.3728261 L54.4426483,75.8254962 C55.5530306,75.5260465 56.619578,75.0829456 57.6152642,74.5074217 L59.7469211,75.992476 C60.5222362,76.5415379 61.5798601,76.4546509 62.2551707,75.7864158 L63.7828581,74.2587284 C64.454449,73.5861315 64.5458479,72.5283018 63.9995765,71.7504788 L62.5145223,69.618822 C63.0891782,68.6231346 63.5311021,67.5565454 63.829044,66.446206 L66.3763739,65.9985581 C67.3174523,65.8356296 68.0035855,65.0173744 67.9999859,64.0623031 L67.9999859,61.9306462 C68.00042,60.9793857 67.3169419,60.1655071 66.3799267,60.0014968 L63.8325967,59.5538488 C63.5345776,58.4435357 63.0926579,57.3769563 62.518075,56.3812329 L64.0031293,54.249576 C64.5503291,53.4725888 64.4604345,52.4148289 63.7899636,51.7413264 L62.2551707,50.2065335 C61.5834803,49.5338211 60.5255796,49.4409177 59.7469211,49.9862623 L57.6152642,51.4713166 C56.6197222,50.8955008 55.5531356,50.4523836 54.4426483,50.1532421 L54.0092114,47.6165704 C53.8427627,46.6756565 53.0213431,45.9923916 52.0658509,46.000064 L49.934194,46.000064 C48.9829335,45.9996299 48.1690549,46.683108 48.0050446,47.6201232 L47.5573966,50.1674531 C46.4468698,50.4664787 45.3802684,50.909602 44.3847807,51.4855276 L42.2531238,50.0004733 C41.4744653,49.4551287 40.4165646,49.5480322 39.7448742,50.2207446 L38.2100813,51.7413264 C37.5384904,52.4139233 37.4470915,53.4717531 37.9933628,54.249576 L39.4784171,56.3812329 C38.9040533,57.3770643 38.4621456,58.4436143 38.1638954,59.5538488 L35.6201182,59.9872857 C34.6777905,60.1521968 33.9926826,60.9740258 34.000059,61.9306462 L34.000059,64.0623031 C33.9926826,65.0189236 34.6777905,65.8407526 35.6201182,66.0056636 Z M51.0000224,54.0150938 C52.177304,54.0150938 53.1316793,54.969469 53.1316793,56.1467506 C53.1316793,57.3240322 52.177304,58.2784075 51.0000224,58.2784075 C49.8227409,58.2784075 48.8683656,57.3240322 48.8683656,56.1467506 C48.8683656,54.969469 49.8227409,54.0150938 51.0000224,54.0150938 L51.0000224,54.0150938 Z M47.7670095,59.4223967 C48.1109067,59.0385841 48.6017173,58.8190109 49.1170589,58.8184272 L49.7316866,58.8184272 C49.798043,58.8181209 49.8608827,58.8482316 49.9022192,58.9001407 L50.9289672,60.1826876 C50.9644948,60.2253207 51.0000224,60.2288735 51.0355501,60.1826876 L52.0658509,58.9001407 C52.1071874,58.8482316 52.170027,58.8181209 52.2363834,58.8184272 L52.882986,58.8184272 C53.3996089,58.8181144 53.8917975,59.0383482 54.2358226,59.4237649 C54.5798477,59.8091815 54.7429893,60.3231245 54.6842361,60.8363957 L54.6842361,60.8363957 L54.1975077,64.5525842 C54.1295573,65.1197143 53.757696,65.6046323 53.2276039,65.8173672 L52.421127,71.2850671 C52.3826684,71.6879669 52.0442507,71.9956194 51.6395195,71.9956194 L50.3321033,71.9956194 C49.9273722,71.9956194 49.5889544,71.6879669 49.5504958,71.2850671 L48.7404662,65.8138145 C48.2223937,65.5944037 47.8635621,65.1118838 47.8025372,64.5525842 L47.3193616,60.8363957 C47.2604608,60.3228265 47.4232871,59.8085023 47.7670095,59.4223967 Z" id="Shape" fill="#4F9CFF" fill-rule="nonzero"></path>
                    </g>
                </g>
            </g>
        </g>
    </g>
</svg>