<?xml version="1.0" encoding="UTF-8"?>
<svg width="68px" height="80px" viewBox="0 0 68 80" version="1.1" xmlns="http://www.w3.org/2000/svg" xmlns:xlink="http://www.w3.org/1999/xlink">
    <!-- Generator: Sketch 47 (45396) - http://www.bohemiancoding.com/sketch -->
    <title>1</title>
    <desc>Created with Sketch.</desc>
    <defs></defs>
    <g id="Page-1" stroke="none" stroke-width="1" fill="none" fill-rule="evenodd">
        <g id="Large-Device_Airtickets_design" transform="translate(-275.000000, -391.000000)">
            <g id="Preimushchestva" transform="translate(275.000000, 287.000000)">
                <g id="Group-12" transform="translate(0.000000, 102.000000)">
                    <g id="1" transform="translate(1.000000, 3.000000)">
                        <path d="M34.98,73 L34.98,4 L34.98,4 C34.98,1.790861 33.189139,-3.95852547e-15 30.98,-3.55271326e-15 L25.5880735,-3.55271326e-15 L25.5880735,-2.49174213e-06 C23.8351665,-2.49174213e-06 22.2864764,1.14130108 21.7674422,2.81560296 C21.1178387,4.91109578 20.4620247,6.42922813 19.8,7.37 C18.4066597,9.3500099 16.7016768,10.944994 14.685,12.155 C12.6683233,13.3650061 10.3950127,14.208331 7.865,14.685 C6.83925959,14.8782554 5.46772336,15.0285679 3.75039129,15.1359375 L3.75039201,15.135949 C1.64229358,15.2677497 1.61735172e-15,17.015928 0,19.1281426 L0,23.06 L0,23.06 C-1.69156808e-15,25.269139 1.790861,27.06 4,27.06 L19.36,27.06 L19.36,73 L19.36,73 C19.36,75.209139 21.150861,77 23.36,77 L30.98,77 L30.98,77 C33.189139,77 34.98,75.209139 34.98,73 Z" stroke="#2F2F2F" stroke-width="2" fill="#FFFFFF"></path>
                        <path d="M28.8122583,44.6143401 L31.9802666,44.6143401 L37.0417123,62.2004698 C37.7470443,64.6329074 39.9757329,66.3059257 42.5083685,66.3041456 L57.5821939,66.3041456 C60.1168819,66.3049776 62.3462294,64.6284602 63.0488501,62.1931023 L66.3273703,50.7882725 C66.63496,49.7168268 66.4215882,48.5631273 65.7511336,47.6725667 C65.0806791,46.7820062 64.0309586,46.257948 62.9162358,46.2572839 L38.7583308,46.2572839 L37.2480013,41.6305184 C36.7343976,40.0598935 35.2683098,38.9982437 33.6158429,39.0003347 L28.8859329,39.0003347 C27.5419547,38.9798584 26.366209,39.9008081 26.0641953,41.2105731 C25.8834521,42.0412932 26.0889386,42.9091676 26.6229894,43.5706461 C27.1570402,44.2321245 27.9621045,44.6159242 28.8122583,44.6143401 Z M40.0844738,74.4157203 C40.0785091,75.9344656 40.9891829,77.3068478 42.3908996,77.8914957 C43.7926162,78.4761436 45.408565,78.1576011 46.4835459,77.0847363 C47.5585268,76.0118716 47.8802528,74.3965536 47.298368,72.9936876 C46.7164832,71.5908217 45.3458981,70.6774454 43.827144,70.6804175 C41.7663371,70.6884636 40.0965806,72.3549332 40.0844738,74.4157203 Z M52.5354831,74.4157203 L52.5281156,74.4157203 C52.5402718,72.3491994 54.2189642,70.6803818 56.2855208,70.6804175 C57.8036078,70.6804292 59.1719306,71.5956991 59.7514912,72.998802 C60.3310518,74.4019049 60.0075046,76.0160125 58.9319439,77.087347 C57.8563833,78.1586815 56.2410144,78.4758715 54.8402041,77.8907914 C53.4393938,77.3057112 52.5295181,75.9337956 52.5354831,74.4157203 Z M43,50 C43.5522847,50 44,50.4477153 44,51 L44,61 L44,61 C44,61.5522847 43.5522847,62 43,62 C42.4477153,62 42,61.5522847 42,61 L42,51 C42,50.4477153 42.4477153,50 43,50 Z M50,50 C50.5522847,50 51,50.4477153 51,51 L51,61 L51,61 C51,61.5522847 50.5522847,62 50,62 C49.4477153,62 49,61.5522847 49,61 L49,51 C49,50.4477153 49.4477153,50 50,50 Z M57,50 C57.5522847,50 58,50.4477153 58,51 L58,61 C58,61.5522847 57.5522847,62 57,62 C56.4477153,62 56,61.5522847 56,61 L56,51 C56,50.4477153 56.4477153,50 57,50 Z" id="Shape" fill="#4F9CFF" fill-rule="nonzero"></path>
                    </g>
                </g>
            </g>
        </g>
    </g>
</svg>