<?xml version="1.0" encoding="UTF-8"?>
<svg width="68px" height="80px" viewBox="0 0 68 80" version="1.1" xmlns="http://www.w3.org/2000/svg" xmlns:xlink="http://www.w3.org/1999/xlink">
    <!-- Generator: Sketch 47 (45396) - http://www.bohemiancoding.com/sketch -->
    <title>3</title>
    <desc>Created with Sketch.</desc>
    <defs></defs>
    <g id="Page-1" stroke="none" stroke-width="1" fill="none" fill-rule="evenodd">
        <g id="Large-Device_Airtickets_design" transform="translate(-665.000000, -515.000000)">
            <g id="Preimushchestva" transform="translate(275.000000, 287.000000)">
                <g id="Group-12" transform="translate(0.000000, 102.000000)">
                    <g id="3" transform="translate(391.000000, 127.000000)">
                        <path d="M32.56,19.58 L32.56,19.58 L32.56,19.58 C32.3523508,19.58 32.1569129,19.6781224 32.0328724,19.844652 L13.5098005,44.7126435 L13.5098005,44.7126435 C13.1798896,45.1555625 13.2715008,45.782065 13.7144199,46.1119758 C13.8870382,46.2405516 14.096535,46.31 14.3117763,46.31 L31.56,46.31 L31.56,46.31 C32.1122847,46.31 32.56,45.8622847 32.56,45.31 L32.56,19.58 Z M32.56,59.18 L4,59.18 L4,59.18 C1.790861,59.18 2.705415e-16,57.389139 0,55.18 L0,46.2063489 L8.8817842e-16,46.2063489 C7.82714516e-16,45.3451708 0.277930842,44.5069876 0.79246869,43.8164236 L32.2403365,1.61007471 L32.2403365,1.61007471 C32.9952282,0.596930596 34.1844112,2.00845004e-15 35.4478678,1.77635684e-15 L43.41,0 L43.41,0 C45.619139,-4.05812251e-16 47.41,1.790861 47.41,4 L47.41,46.31 L53.64,46.31 L53.64,46.31 C55.849139,46.31 57.64,48.100861 57.64,50.31 L57.64,55.18 L57.64,55.18 C57.64,57.389139 55.849139,59.18 53.64,59.18 L47.41,59.18 L47.41,73 L47.41,73 C47.41,75.209139 45.619139,77 43.41,77 L36.56,77 L36.56,77 C34.350861,77 32.56,75.209139 32.56,73 L32.56,59.18 Z" id="4" stroke="#2F2F2F" stroke-width="2" fill="#FFFFFF"></path>
                        <path d="M54.5333262,72.0494541 C54.5333262,73.3756264 54.9063597,74.6141549 55.5517458,75.667594 C55.6209283,75.7804557 55.7462562,75.9144432 55.5123489,76.1164714 C53.7568074,77.4229452 52.4524271,78.0730894 51.6428872,78.0730894 C49.1129204,78.0730894 39,70.3951645 39,62.2209718 C39,62.1288553 39.1274214,53.7613894 39.1524489,53.5899081 C39.2516073,52.9095025 39.5641181,52.9615559 39.7604365,52.9705963 C41.431189,53.0480579 43.2170871,53.1476921 45.0794,52.6107902 C48.381984,51.6586982 50.5619464,49.0715393 51.6430775,49.0715393 C52.7592281,49.0715393 55.6952496,51.6586031 58.9977384,52.6107902 C60.5873181,53.0689934 62.0983894,53.0683273 63.5808171,53.0612853 C63.787413,53.0602385 64.2501839,53.0583353 64.2501839,53.865972 C64.2501839,53.9671288 64.286155,62.1565474 64.286155,62.2209718 C64.286155,63.1829606 64.1456013,64.1378123 63.8949456,65.0741074 C63.8565003,65.2176112 63.715566,65.5252687 63.3471953,65.3691085 C62.8001112,65.2074289 62.2782449,65.1111253 61.471655,65.1111253 C57.6397821,65.1111253 54.5333262,68.2173909 54.5333262,72.0494541 Z M61.515239,75.5872776 C61.2815221,75.8391704 60.8643335,75.8781867 60.5880794,75.6738747 L56.1941819,72.4247715 C55.9180229,72.2205547 55.8610211,71.8288695 56.067617,71.5544234 L56.6314496,70.8059772 C56.8380454,70.5315311 57.2337275,70.4732922 57.5107429,70.6765574 L60.3283833,72.7442291 C60.6053036,72.9473991 61.0230631,72.9076216 61.2566849,72.6556336 L65.2334889,68.4930741 C65.4671107,68.2410861 65.8640298,68.2264312 66.115542,68.4605288 L66.8013718,69.0988729 C67.0528839,69.3329705 67.0675388,69.7305558 66.8339171,69.9824486 L61.515239,75.5872776 Z" id="Combined-Shape" fill="#4F9CFF" fill-rule="nonzero"></path>
                    </g>
                </g>
            </g>
        </g>
    </g>
</svg>