<?xml version="1.0" encoding="UTF-8"?>
<svg width="23px" height="15px" viewBox="0 0 23 15" version="1.1" xmlns="http://www.w3.org/2000/svg" xmlns:xlink="http://www.w3.org/1999/xlink">
    <!-- Generator: Sketch 47 (45396) - http://www.bohemiancoding.com/sketch -->
    <title>Shape</title>
    <desc>Created with Sketch.</desc>
    <defs></defs>
    <g id="Page-1" stroke="none" stroke-width="1" fill="none" fill-rule="evenodd">
        <g id="Large-Device_About_design" transform="translate(-386.000000, -1134.000000)" fill-rule="nonzero" fill="#2D80EB">
            <g id="Group-3" transform="translate(175.000000, 1012.000000)">
                <g id="Group">
                    <g id="Email" transform="translate(195.000000, 107.000000)">
                        <path d="M35.7343832,15 L18.400961,15 C17.0771469,15 16,16.0771469 16,17.400961 L16,27.142039 C16,28.4658531 17.0771469,29.543 18.400961,29.543 L35.7343832,29.543 C37.0581973,29.543 38.1353442,28.4658531 38.1353442,27.142039 L38.1353442,17.400961 C38.1353442,16.0768942 37.0581973,15 35.7343832,15 Z M18.400961,16.2636637 L35.7343832,16.2636637 C36.3614131,16.2636637 36.8716805,16.7739311 36.8716805,17.400961 L36.8716805,18.5961341 L28.4142321,24.4984545 C28.2292318,24.6339193 27.6312661,24.9857233 27.0937036,24.9857233 C26.3476365,24.9857233 25.8348418,24.5732634 25.8340836,24.572758 L17.2636637,18.6663938 L17.2636637,17.400961 C17.2636637,16.7736784 17.7739311,16.2636637 18.400961,16.2636637 Z M35.7343832,28.2790836 L18.400961,28.2790836 C17.7739311,28.2790836 17.2636637,27.7688162 17.2636637,27.1417862 L17.2636637,20.2002288 L25.0453047,25.559932 C25.2179212,25.6979241 25.9771303,26.2493869 27.0937036,26.2493869 C28.1465882,26.2493869 29.0650189,25.589249 29.1509481,25.5250549 L36.8716805,20.1370457 L36.8716805,27.1422917 C36.8716805,27.7690689 36.3614131,28.2790836 35.7343832,28.2790836 Z" id="Shape"></path>
                    </g>
                </g>
            </g>
        </g>
    </g>
</svg>