<svg width="25px" height="27px" viewBox="0 0 25 27" version="1.1" xmlns="http://www.w3.org/2000/svg" xmlns:xlink="http://www.w3.org/1999/xlink">
    <g id="Page-1" stroke="none" stroke-width="1" fill="none" fill-rule="evenodd" opacity="0.5">
        <g id="Large-Device_TourPage_design-Copy" transform="translate(-102.000000, -142.000000)" fill-rule="nonzero" fill="#2F2F2F">
            <g id="Tour_serch_form" transform="translate(72.000000, 134.000000)">
                <g id="City1">
                    <path d="M54.909699,28.0226785 L52.3201667,24.282243 C52.3201667,24.282243 52.3201667,24.282243 52.2913941,24.2534704 C52.2913941,24.2534704 52.2626216,24.2246978 52.2626216,24.2246978 C52.233849,24.1959252 52.233849,24.1959252 52.2050764,24.1671527 C52.2050764,24.1671527 52.1763038,24.1383801 52.1763038,24.1383801 C52.1475312,24.1383801 52.1187587,24.1096075 52.0899861,24.1096075 C52.0899861,24.1096075 52.0612135,24.1096075 52.0612135,24.1096075 C52.0324409,24.1096075 52.0036683,24.1096075 51.9748957,24.1096075 C51.9461232,24.1096075 51.9461232,24.1096075 51.9173506,24.1096075 C51.888578,24.1096075 51.8310328,24.1096075 51.8022603,24.1383801 C51.7159425,24.1671527 47.6590086,25.5770091 46.393015,26.0085979 L46.4505602,25.9222801 L49.3565909,22.2393897 C50.0183602,21.2898946 50.4787215,20.2540816 50.7376748,19.131951 C50.8815377,18.5277268 50.9390828,17.9235026 50.9390828,17.3192784 C50.9678554,12.6581202 47.1698747,8.86013954 42.479944,8.86013954 C37.7900133,8.86013954 33.9920326,12.6581202 33.9920326,17.3192784 C33.9920326,17.9235026 34.0495777,18.5277268 34.1934406,19.131951 C34.4523939,20.2540816 34.9127552,21.2898946 35.5745245,22.2393897 L40.1493649,28.0226785 L39.1998697,28.3391769 L39.1998697,28.3391769 L36.7829729,24.8576946 C36.7829729,24.8576946 36.7829729,24.8576946 36.7542004,24.828922 C36.7542004,24.828922 36.7254278,24.8001495 36.7254278,24.8001495 C36.6966552,24.7713769 36.6966552,24.7713769 36.6678826,24.7426043 C36.6678826,24.7426043 36.63911,24.7138317 36.63911,24.7138317 C36.6103375,24.7138317 36.5815649,24.6850591 36.5815649,24.6850591 C36.5815649,24.6850591 36.5527923,24.6850591 36.5527923,24.6850591 C36.5240197,24.6850591 36.4952471,24.6850591 36.4664745,24.6850591 C36.4664745,24.6850591 36.437702,24.6850591 36.437702,24.6850591 C36.4089294,24.6850591 36.3513842,24.6850591 36.3226116,24.7138317 C36.3226116,24.7138317 36.3226116,24.7138317 36.3226116,24.7138317 L33.1576277,25.864735 C33.0425374,25.8935075 32.9849922,25.9798253 32.9274471,26.066143 L30.050189,31.5329334 C29.9638712,31.6767963 29.9926438,31.8782044 30.1077341,32.0220673 C30.1940519,32.108385 30.3091422,32.1659302 30.4242325,32.1659302 C30.4817777,32.1659302 30.5105503,32.1659302 30.5680954,32.1371576 L33.416581,31.1013447 L35.8047052,34.5540544 C35.8047052,34.5540544 35.8047052,34.5540544 35.8334778,34.582827 C35.8334778,34.582827 35.8622503,34.6115996 35.8622503,34.6115996 C35.8622503,34.6115996 35.8910229,34.6403722 35.8910229,34.6403722 C35.9197955,34.6403722 35.9197955,34.6691448 35.9485681,34.6691448 C35.9485681,34.6691448 35.9773407,34.6691448 35.9773407,34.6979173 C36.0061132,34.6979173 36.0061132,34.7266899 36.0348858,34.7266899 C36.0348858,34.7266899 36.0636584,34.7266899 36.0636584,34.7266899 C36.092431,34.7266899 36.1212036,34.7266899 36.1499762,34.7266899 C36.2075213,34.7266899 36.2362939,34.7266899 36.2938391,34.6979173 L48.8962296,30.4395753 L48.9250022,30.4971205 L51.341899,33.9786028 C51.4282167,34.0936931 51.543307,34.1512383 51.6871699,34.1512383 C51.6871699,34.1512383 51.7159425,34.1512383 51.7159425,34.1512383 C51.8598054,34.1512383 52.0036683,34.0649206 52.0612135,33.9210577 L54.9384716,28.4542672 C55.0247893,28.3391769 55.0247893,28.1665414 54.909699,28.0226785 Z M36.2650665,21.7214833 C35.6608423,20.8870784 35.2580261,19.9375833 35.0278455,18.9305429 C34.9127552,18.3838639 34.85521,17.8371848 34.85521,17.2905058 C34.85521,13.1184815 38.2791472,9.72331697 42.479944,9.72331697 C46.6807408,9.72331697 50.104678,13.1184815 50.104678,17.3192784 C50.104678,17.8659574 50.0471328,18.4126365 49.9320425,18.9593155 C49.7018618,19.9663558 49.2990457,20.8870784 48.6948215,21.7214833 L44.9831585,26.411414 L44.0048908,27.648635 L42.9115327,29.0297189 C42.7101246,29.2886721 42.2497633,29.2886721 42.0483553,29.0297189 L41.587994,28.4542672 L41.0125424,27.7349527 L36.2650665,21.7214833 Z M33.2439455,30.2381673 L31.28741,30.9574818 L33.5604439,26.6128221 L35.5169794,25.8935075 L33.2439455,30.2381673 Z M36.092431,33.4894689 L34.0495777,30.5546657 L36.4664745,25.9510527 L38.5093278,28.885856 L36.092431,33.4894689 Z M48.7811392,29.6627157 L36.984381,33.6621044 L39.3149601,29.2023544 L40.696044,28.7419931 L41.3578133,29.5763979 C41.6167666,29.9216689 42.0195827,30.123077 42.479944,30.123077 C42.9403053,30.123077 43.3143488,29.9216689 43.6020747,29.5763979 L45.4722924,27.1882737 L51.1404909,25.2029656 L48.7811392,29.6627157 Z M51.6296248,32.9140173 L49.5867715,29.979214 L52.0036683,25.3756011 L54.0465216,28.3104043 L51.6296248,32.9140173 Z M46.3642424,17.0315526 C46.3642424,14.9023816 44.609115,13.1472541 42.479944,13.1472541 C40.350773,13.1472541 38.5956455,14.9023816 38.5956455,17.0315526 C38.5956455,19.1607236 40.350773,20.8870784 42.479944,20.8870784 C44.609115,20.8870784 46.3642424,19.1607236 46.3642424,17.0315526 Z M39.458823,17.0315526 C39.458823,15.3627429 40.8111343,14.0104315 42.479944,14.0104315 C44.1487537,14.0104315 45.501065,15.3627429 45.501065,17.0315526 C45.501065,18.7003623 44.1487537,20.023901 42.479944,20.023901 C40.8111343,20.023901 39.458823,18.6715897 39.458823,17.0315526 Z" id="Shape"></path>
                </g>
            </g>
        </g>
    </g>
</svg>