<?xml version="1.0" encoding="UTF-8"?>
<svg width="14px" height="13px" viewBox="0 0 14 13" version="1.1" xmlns="http://www.w3.org/2000/svg" xmlns:xlink="http://www.w3.org/1999/xlink">
    <!-- Generator: Sketch 47 (45396) - http://www.bohemiancoding.com/sketch -->
    <title>Shape Copy 4</title>
    <desc>Created with Sketch.</desc>
    <defs></defs>
    <g id="Page-1" stroke="none" stroke-width="1" fill="none" fill-rule="evenodd">
        <g id="Large-Device_TourPage_design" transform="translate(-231.000000, -199.000000)" fill-rule="nonzero" fill="#FFFFFF">
            <g id="Stars_rate" transform="translate(80.000000, 199.000000)">
                <path d="M162.031392,12.9998208 C162.163813,13.0034804 162.291328,12.9509488 162.38078,12.8558854 C162.470231,12.760822 162.512781,12.6326197 162.497366,12.5046138 L162.007493,8.40589502 L164.879887,5.36962686 C164.99093,5.25193897 165.02838,5.08526588 164.977938,4.93323637 C164.927497,4.78120687 164.796951,4.66728946 164.636139,4.63497304 L160.47571,3.82127222 L158.396684,0.224714808 C158.315655,0.0858201248 158.164159,0 158,0 C157.835841,0 157.684345,0.0858201248 157.603316,0.224714808 L155.52429,3.82127222 L151.363861,4.63497304 C151.203049,4.66728946 151.072503,4.78120687 151.022062,4.93323637 C150.97162,5.08526588 151.00907,5.25193897 151.120113,5.36962686 L153.992507,8.40589502 L153.502619,12.5046138 C153.484185,12.6635255 153.555068,12.8197946 153.688156,12.9136552 C153.821245,13.0075158 153.995951,13.0244472 154.145457,12.9579737 L158,11.2398972 L161.854543,12.9579737 C161.910005,12.9833395 161.970151,12.9975718 162.031392,12.9998208 Z" id="Shape-Copy-4"></path>
            </g>
        </g>
    </g>
</svg>