<?xml version="1.0" encoding="UTF-8"?>
<svg width="11px" height="10px" viewBox="0 0 11 10" version="1.1" xmlns="http://www.w3.org/2000/svg" xmlns:xlink="http://www.w3.org/1999/xlink">
    <!-- Generator: Sketch 47 (45396) - http://www.bohemiancoding.com/sketch -->
    <title>Shape</title>
    <desc>Created with Sketch.</desc>
    <defs></defs>
    <g id="Page-1" stroke="none" stroke-width="1" fill="none" fill-rule="evenodd">
        <g id="Large-Device_TourPage_design-Copy" transform="translate(-415.000000, -465.000000)" fill-rule="nonzero" fill="#4F9CFF">
            <g id="Group-8" transform="translate(78.000000, 273.000000)">
                <g id="Group-5-Copy" transform="translate(0.000000, 165.000000)">
                    <g id="Group-3-Copy" transform="translate(330.000000, 17.000000)">
                        <path d="M15.2344607,19.9998621 C15.1887473,19.9981321 15.1438503,19.9871842 15.1024509,19.9676721 L12.2251996,18.6460747 L9.34794833,19.9676721 C9.23634869,20.0188055 9.1059383,20.0057814 9.00659328,19.9335809 C8.90724825,19.8613805 8.85433779,19.7411735 8.86809777,19.6189337 L9.23377773,16.4660731 L7.08965893,14.1304822 C7.00677003,14.0399531 6.97881592,13.911743 7.01646831,13.7947972 C7.05412069,13.6778514 7.15156724,13.5902227 7.27160695,13.5653639 L10.3771881,12.9394402 L11.9290924,10.1728575 C11.9895768,10.0660155 12.1026621,10 12.2251996,10 C12.3477371,10 12.4608225,10.0660155 12.5213069,10.1728575 L14.0732112,12.9394402 L17.1787923,13.5653639 C17.298832,13.5902227 17.3962786,13.6778514 17.4339309,13.7947972 C17.4715833,13.911743 17.4436292,14.0399531 17.3607403,14.1304822 L15.2166215,16.4660731 L15.5822901,19.6189337 C15.5937971,19.7173998 15.5620354,19.8160169 15.4952636,19.8891426 C15.4284919,19.9622683 15.3333076,20.0026772 15.2344607,19.9998621 Z" id="Shape"></path>
                    </g>
                </g>
            </g>
        </g>
    </g>
</svg>