<?xml version="1.0" encoding="UTF-8"?>
<svg width="87px" height="91px" viewBox="0 0 87 91" version="1.1" xmlns="http://www.w3.org/2000/svg" xmlns:xlink="http://www.w3.org/1999/xlink">
    <!-- Generator: Sketch 47 (45396) - http://www.bohemiancoding.com/sketch -->
    <title>noun_914829_cc</title>
    <desc>Created with Sketch.</desc>
    <defs></defs>
    <g id="Page-1" stroke="none" stroke-width="1" fill="none" fill-rule="evenodd">
        <g id="Large-Device_Order_Form_Step2_design-Copy" transform="translate(-607.000000, -224.000000)" stroke="#000FCF" fill-rule="nonzero" stroke-width="0.5" fill="#000FCF">
            <g id="noun_914829_cc" transform="translate(607.000000, 224.000000)">
                <circle id="Oval" cx="42.140625" cy="82.015625" r="2.990625"></circle>
                <path d="M36.79375,7.25 C36.159375,7.25 35.615625,7.79375 35.615625,8.428125 C35.615625,9.0625 36.159375,9.60625 36.79375,9.60625 L47.578125,9.60625 C48.2125,9.60625 48.75625,9.0625 48.75625,8.428125 C48.75625,7.79375 48.2125,7.25 47.578125,7.25 L36.79375,7.25 Z" id="Shape"></path>
                <path d="M75.4,33.259375 L67.153125,33.259375 L67.153125,8.3375 C67.153125,4.16875 63.8,0.815625 59.63125,0.815625 L24.559375,0.815625 C20.390625,0.815625 17.0375,4.16875 17.0375,8.3375 L17.0375,82.46875 C17.0375,86.6375 20.390625,89.990625 24.559375,89.990625 L59.721875,89.990625 C63.890625,89.990625 67.24375,86.6375 67.24375,82.46875 L67.24375,59.45 L75.490625,59.45 C77.121875,59.45 78.48125,58 78.48125,56.278125 L78.48125,36.43125 C78.48125,34.61875 77.121875,33.259375 75.4,33.259375 Z M19.9375,8.3375 C19.9375,5.8 22.021875,3.715625 24.559375,3.715625 L59.721875,3.715625 C62.259375,3.715625 64.34375,5.8 64.34375,8.3375 L64.34375,12.50625 L19.9375,12.50625 L19.9375,8.3375 Z M64.34375,82.46875 C64.34375,85.00625 62.259375,87.090625 59.721875,87.090625 L24.559375,87.090625 C22.021875,87.090625 19.9375,85.00625 19.9375,82.46875 L19.9375,77.303125 L64.34375,77.303125 L64.34375,82.46875 Z M64.34375,74.403125 L19.9375,74.403125 L19.9375,15.40625 L64.34375,15.40625 L64.34375,33.16875 L40.9625,33.16875 C39.33125,33.16875 37.971875,34.61875 37.971875,36.340625 L37.971875,56.1875 C37.971875,57.909375 39.33125,59.359375 40.9625,59.359375 L44.40625,59.359375 L45.85625,67.696875 L54.0125,59.359375 L64.34375,59.359375 L64.34375,74.403125 Z M75.853125,56.278125 C75.853125,56.459375 75.671875,56.640625 75.4,56.640625 L53.10625,56.640625 L47.4875,62.35 L46.490625,56.640625 L40.9625,56.640625 C40.690625,56.640625 40.509375,56.459375 40.509375,56.278125 L40.509375,36.43125 C40.509375,36.25 40.690625,36.06875 40.9625,36.06875 L75.490625,36.06875 C75.7625,36.06875 75.94375,36.25 75.94375,36.43125 L75.94375,56.278125 L75.853125,56.278125 Z" id="Shape"></path>
                <path d="M55.371875,53.015625 C53.2875,54.0125 50.840625,50.840625 50.840625,50.840625 L53.83125,48.03125 C53.83125,48.03125 55.371875,49.753125 56.096875,49.48125 C56.096875,49.48125 58.271875,48.2125 59.903125,44.76875 C60.175,44.134375 58,42.95625 58,42.95625 L60.084375,39.421875 C60.084375,39.421875 63.346875,41.053125 63.165625,42.95625 C62.984375,44.859375 61.2625,50.20625 55.371875,53.015625 Z" id="Shape"></path>
                <path d="M85.55,26.28125 L84.190625,26.28125 L84.190625,24.921875 C84.190625,24.46875 83.828125,24.015625 83.284375,24.015625 C82.83125,24.015625 82.378125,24.378125 82.378125,24.921875 L82.378125,26.28125 L81.01875,26.28125 C80.565625,26.28125 80.1125,26.64375 80.1125,27.1875 C80.1125,27.640625 80.475,28.09375 81.01875,28.09375 L82.46875,28.09375 L82.46875,29.453125 C82.46875,29.90625 82.83125,30.359375 83.375,30.359375 C83.828125,30.359375 84.28125,29.996875 84.28125,29.453125 L84.28125,28.09375 L85.640625,28.09375 C86.09375,28.09375 86.546875,27.73125 86.546875,27.1875 C86.365625,26.734375 86.003125,26.28125 85.55,26.28125 Z" id="Shape"></path>
                <path d="M11.78125,61.44375 L10.421875,61.44375 L10.421875,60.084375 C10.421875,59.63125 10.059375,59.178125 9.515625,59.178125 C8.971875,59.178125 8.609375,59.540625 8.609375,60.084375 L8.609375,61.44375 L7.25,61.44375 C6.796875,61.44375 6.34375,61.80625 6.34375,62.35 C6.34375,62.803125 6.70625,63.25625 7.25,63.25625 L8.609375,63.25625 L8.609375,64.615625 C8.609375,65.06875 8.971875,65.521875 9.515625,65.521875 C10.059375,65.521875 10.421875,65.159375 10.421875,64.615625 L10.421875,63.25625 L11.78125,63.25625 C12.234375,63.25625 12.6875,62.89375 12.6875,62.35 C12.596875,61.80625 12.234375,61.44375 11.78125,61.44375 Z" id="Shape"></path>
                <path d="M9.96875,17.21875 L7.703125,17.21875 L7.703125,14.953125 C7.703125,14.31875 7.159375,13.684375 6.434375,13.684375 C5.8,13.684375 5.165625,14.228125 5.165625,14.953125 L5.165625,17.21875 L2.9,17.21875 C2.265625,17.21875 1.63125,17.7625 1.63125,18.4875 C1.63125,19.121875 2.175,19.75625 2.9,19.75625 L5.165625,19.75625 L5.165625,22.021875 C5.165625,22.65625 5.709375,23.290625 6.434375,23.290625 C7.06875,23.290625 7.703125,22.746875 7.703125,22.021875 L7.703125,19.75625 L9.96875,19.75625 C10.603125,19.75625 11.2375,19.2125 11.2375,18.4875 C11.146875,17.7625 10.603125,17.21875 9.96875,17.21875 Z" id="Shape"></path>
                <circle id="Oval" cx="1.903125" cy="42.23125" r="1.63125"></circle>
                <circle id="Oval" cx="77.39375" cy="75.853125" r="1.63125"></circle>
                <circle id="Oval" cx="76.034375" cy="14.590625" r="1.99375"></circle>
            </g>
        </g>
    </g>
</svg>