<?xml version="1.0" encoding="UTF-8"?>
<svg width="87px" height="90px" viewBox="0 0 87 90" version="1.1" xmlns="http://www.w3.org/2000/svg" xmlns:xlink="http://www.w3.org/1999/xlink">
    <!-- Generator: Sketch 47 (45396) - http://www.bohemiancoding.com/sketch -->
    <title>Shape</title>
    <desc>Created with Sketch.</desc>
    <defs></defs>
    <g id="Page-1" stroke="none" stroke-width="1" fill="none" fill-rule="evenodd">
        <g id="Large-Device_Order_Form_Step2_design-Copy-2" transform="translate(-607.000000, -224.000000)" fill-rule="nonzero" fill="#000FCF">
            <path d="M687.398313,259.126651 L677.872088,256.017261 L674.856396,252.217001 C674.704241,251.078152 674.382919,249.978052 673.912279,248.952615 C679.5732,248.626554 684.361829,244.475661 685.44298,238.842846 C686.74244,232.082523 682.299704,225.524451 675.54062,224.22588 C674.760944,224.075608 673.964257,224 673.174185,224 L673.17513,224 C671.441887,224 669.782358,224.36859 668.264588,225.022602 L662.296522,225.022602 C661.05282,225.022602 660.044439,226.031027 660.044439,227.272892 C660.044439,228.517593 661.05282,229.526018 662.296522,229.526018 L662.836152,229.526018 C662.460963,230.082684 662.128301,230.670538 661.844782,231.289581 L646.887286,231.289581 C645.643585,231.289581 644.635203,232.298006 644.635203,233.539872 C644.635203,234.784573 645.643585,235.792053 646.887286,235.792053 L660.728664,235.792053 C660.59541,238.081093 661.084007,240.34556 662.172719,242.371861 C660.452706,242.583564 658.790342,243.185595 657.331166,244.128808 L648.216043,246.139043 C647.617819,246.273247 647.043221,246.476444 646.462008,246.759975 C645.315648,247.194723 644.314827,247.85157 643.484118,248.715394 L634.942648,257.540768 C634.837746,257.6504 634.744185,257.766647 634.645898,257.88006 C634.409633,257.795 634.157301,257.740184 633.890794,257.740184 L626.181923,257.740184 C624.938222,257.740184 623.930785,258.74861 623.930785,259.990475 C623.930785,261.234231 624.938222,262.243601 626.181923,262.243601 L632.709466,262.243601 C632.664103,262.622588 632.635751,263.005354 632.643312,263.394737 C632.68584,265.583596 633.577033,267.626909 635.154342,269.14569 C636.692902,270.625722 638.7125,271.439455 640.843615,271.439455 C641.525004,271.439455 642.200724,271.352506 642.853762,271.186168 C642.733739,272.101028 642.757365,273.041405 642.934092,273.976112 C643.182643,275.288861 643.711878,276.502373 644.480213,277.547658 L638.879776,287.945683 L630.214503,297.081996 L617.487353,297.081996 C616.243651,297.081996 615.236215,298.090421 615.236215,299.332286 C615.236215,300.576987 616.243651,301.585412 617.487353,301.585412 L626.611926,301.585412 C626.383221,302.083482 626.202714,302.600453 626.073241,303.132546 L615.919495,303.132546 C614.675793,303.132546 613.668357,304.140972 613.668357,305.382837 C613.668357,306.626593 614.675793,307.635963 615.919495,307.635963 L626.162077,307.635963 C626.59397,309.158524 627.423735,310.543101 628.610732,311.649817 C630.244745,313.173323 632.373024,314.012575 634.604316,314.012575 C637.035015,314.012575 639.378769,312.991863 641.034517,311.214124 L651.326242,300.363394 C652.284535,299.611092 653.054761,298.699067 653.619908,297.648113 L658.83665,287.96364 L659.702327,288.55622 L653.962965,298.106488 L653.945009,298.134841 L653.927998,298.163194 C652.748561,300.195166 652.431965,302.563594 653.03775,304.832787 C653.641644,307.102925 655.094204,309.001637 657.127978,310.178291 C658.46524,310.95233 659.985845,311.360615 661.526296,311.360615 C664.641221,311.360615 667.545396,309.693453 669.117034,307.008415 L677.920286,292.363095 C678.334224,291.962372 678.687677,291.541801 678.995767,291.091932 C681.726051,287.092255 680.693098,281.613492 676.691706,278.880253 L667.098382,272.317456 L668.3676,269.742995 C669.068836,270.261857 669.839061,270.65691 670.667881,270.924374 L682.343177,274.734085 C683.171996,275.001549 684.020662,275.135754 684.876888,275.135754 C688.446387,275.135754 691.582103,272.85333 692.682155,269.455684 C694.072341,265.150739 691.702125,260.517843 687.398313,259.126651 Z M665.147774,234.94146 C665.900988,231.023062 669.328728,228.298329 673.17513,228.298329 C673.688299,228.298329 674.208083,228.34653 674.730702,228.447656 C679.170604,229.301084 682.074779,233.589962 681.221388,238.031947 C680.469119,241.948455 677.041379,244.673188 673.194032,244.673188 C672.681808,244.673188 672.162024,244.624987 671.639405,244.524806 C667.200448,243.671378 664.294383,239.379664 665.147774,234.94146 Z M649.833044,295.613305 C649.491877,296.248415 649.009895,296.752155 648.457979,297.140592 L637.889351,308.284304 C637.004773,309.234133 635.807379,309.7133 634.605261,309.7133 C633.508989,309.7133 632.409882,309.314467 631.544205,308.506403 C629.731576,306.815614 629.632344,303.975578 631.32306,302.163816 L642.394461,290.489901 L647.899448,280.2705 L655.293612,285.478019 L649.833044,295.613305 Z M688.592871,268.133484 C688.058911,269.785525 686.525076,270.837425 684.877833,270.837425 C684.480907,270.837425 684.07642,270.775993 683.677604,270.647459 L671.988132,266.833968 C671.363446,266.632661 670.838937,266.276357 670.409879,265.836884 C670.133921,265.635577 669.871194,265.408752 669.648159,265.128056 L667.306295,262.178389 L661.593396,273.761574 L674.267622,282.431006 C676.315571,283.829759 676.841971,286.623484 675.444224,288.670577 C675.196618,289.033497 674.892308,289.332149 674.568152,289.597723 L665.418062,304.818611 C664.585462,306.258003 663.077143,307.062286 661.527241,307.062286 C660.763631,307.062286 659.990571,306.866649 659.282719,306.45742 C657.137428,305.215554 656.403115,302.470029 657.648707,300.321809 L665.476655,287.296397 L657.31888,281.716508 L649.865176,276.617676 L649.039192,276.052504 C646.991243,274.656587 646.463898,271.861917 647.863535,269.813878 C647.925909,269.720313 648.373869,268.368815 648.650772,267.793247 L653.824041,257.300712 L651.536991,257.804452 L643.658009,265.942735 C642.890619,266.738512 641.867117,267.139236 640.84267,267.139236 C639.869256,267.139236 638.893952,266.777261 638.136957,266.048587 C636.58422,264.552488 636.535077,262.080098 638.03111,260.529184 L646.581086,251.695304 C647.035661,251.222753 647.584742,250.908033 648.1669,250.714287 C648.46932,250.552675 648.789696,250.415635 649.141259,250.337191 L659.106938,248.138881 C660.36954,247.136127 661.942124,246.585131 663.554399,246.585131 C664.585462,246.585131 665.632591,246.811011 666.624906,247.287343 C669.215321,248.532989 670.700958,251.140529 670.655595,253.838798 L675.30908,259.702219 L686.076171,263.217058 C688.127901,263.88052 689.254415,266.081665 688.592871,268.133484 Z M653.376082,227.271947 C653.376082,226.030082 654.384463,225.021657 655.628164,225.021657 L656.190476,225.021657 C657.433233,225.021657 658.441614,226.030082 658.441614,227.271947 C658.441614,228.516648 657.433233,229.525073 656.190476,229.525073 L655.628164,229.525073 C654.384463,229.524128 653.376082,228.516648 653.376082,227.271947 Z M617.262428,259.990475 C617.262428,258.74861 618.269864,257.740184 619.513566,257.740184 L620.076823,257.740184 C621.320524,257.740184 622.32796,258.74861 622.32796,259.990475 C622.32796,261.234231 621.320524,262.243601 620.076823,262.243601 L619.513566,262.243601 C618.269864,262.243601 617.262428,261.235176 617.262428,259.990475 Z M628.996318,266.092062 C628.996318,267.335817 627.988882,268.343297 626.74518,268.343297 L626.181923,268.343297 C624.938222,268.343297 623.930785,267.335817 623.930785,266.092062 C623.930785,264.849251 624.938222,263.839881 626.181923,263.839881 L626.74518,263.839881 C627.988882,263.839881 628.996318,264.848306 628.996318,266.092062 Z M612.065532,305.383782 C612.065532,306.627538 611.058096,307.636908 609.81345,307.636908 L609.251138,307.636908 C608.007436,307.636908 607,306.628483 607,305.383782 C607,304.141917 608.007436,303.133492 609.251138,303.133492 L609.81345,303.133492 C611.058096,303.133492 612.065532,304.141917 612.065532,305.383782 Z M628.205301,291.021994 L628.767613,291.021994 C630.011314,291.021994 631.01875,292.030419 631.01875,293.272285 C631.01875,294.51604 630.011314,295.525411 628.767613,295.525411 L628.205301,295.525411 C626.961599,295.525411 625.953218,294.516986 625.953218,293.272285 C625.953218,292.030419 626.960654,291.021994 628.205301,291.021994 Z M652.684296,307.635018 C652.684296,308.879719 651.67686,309.888144 650.434104,309.888144 L649.871792,309.888144 C648.627145,309.888144 647.618764,308.880664 647.618764,307.635018 C647.618764,306.393152 648.6262,305.384727 649.871792,305.384727 L650.434104,305.384727 C651.675915,305.384727 652.684296,306.393152 652.684296,307.635018 Z M618.73389,311.483478 C618.73389,312.728179 617.726454,313.736604 616.483697,313.736604 L615.919495,313.736604 C614.675793,313.736604 613.668357,312.729124 613.668357,311.483478 C613.668357,310.241613 614.675793,309.233188 615.919495,309.233188 L616.483697,309.233188 C617.726454,309.233188 618.73389,310.241613 618.73389,311.483478 Z M629.250539,253.977729 C629.250539,252.735863 630.257975,251.727438 631.503567,251.727438 L632.065879,251.727438 C633.308636,251.727438 634.316072,252.735863 634.316072,253.977729 C634.316072,255.22243 633.308636,256.22991 632.065879,256.22991 L631.503567,256.22991 C630.257975,256.230855 629.250539,255.223375 629.250539,253.977729 Z" id="Shape"></path>
        </g>
    </g>
</svg>