<?xml version="1.0" encoding="UTF-8"?>
<svg width="39px" height="39px" viewBox="0 0 39 39" version="1.1" xmlns="http://www.w3.org/2000/svg" xmlns:xlink="http://www.w3.org/1999/xlink">
    <!-- Generator: Sketch 47 (45396) - http://www.bohemiancoding.com/sketch -->
    <title>Group 13</title>
    <desc>Created with Sketch.</desc>
    <defs></defs>
    <g id="Page-1" stroke="none" stroke-width="1" fill="none" fill-rule="evenodd" opacity="0.5">
        <g id="Large-Device_TourPage_design" transform="translate(-485.000000, -209.000000)" fill-rule="nonzero" fill="#FFFFFF">
            <g id="Clock" transform="translate(470.000000, 209.000000)">
                <g id="Group-13" transform="translate(15.000000, 0.000000)">
                    <path d="M19.25,0 C8.63550575,0 0,8.74765517 0,19.5 C0,30.2523448 8.63550575,39 19.25,39 C29.8644943,39 38.5,30.2523448 38.5,19.5 C38.5,8.74765517 29.8644943,0 19.25,0 Z M19.25,37.5555556 C9.42167353,37.5555556 1.42592593,29.4559671 1.42592593,19.5 C1.42592593,9.54403292 9.42167353,1.44444444 19.25,1.44444444 C29.0783265,1.44444444 37.0740741,9.54403292 37.0740741,19.5 C37.0740741,29.4559671 29.0783265,37.5555556 19.25,37.5555556 Z M29.9962963,18.8905279 L19.8592593,18.8905279 L19.8592593,5.72140272 C19.8592593,5.35341119 19.5630815,5.05555556 19.1981481,5.05555556 C18.8332148,5.05555556 18.537037,5.35341119 18.537037,5.72140272 L18.537037,19.5563751 C18.537037,19.9243666 18.8332148,20.2222222 19.1981481,20.2222222 L29.9962963,20.2222222 C30.3612296,20.2222222 30.6574074,19.9243666 30.6574074,19.5563751 C30.6574074,19.1883835 30.3612296,18.8905279 29.9962963,18.8905279 Z" id="Shape"></path>
                </g>
            </g>
        </g>
    </g>
</svg>