<?xml version="1.0" encoding="UTF-8"?>
<svg width="45px" height="39px" viewBox="0 0 45 39" version="1.1" xmlns="http://www.w3.org/2000/svg" xmlns:xlink="http://www.w3.org/1999/xlink">
    <!-- Generator: Sketch 47 (45396) - http://www.bohemiancoding.com/sketch -->
    <title>Weather</title>
    <desc>Created with Sketch.</desc>
    <defs></defs>
    <g id="Page-1" stroke="none" stroke-width="1" fill="none" fill-rule="evenodd" opacity="0.5">
        <g id="Large-Device_TourPage_design" transform="translate(-384.000000, -209.000000)" fill-rule="nonzero" fill="#FFFFFF">
            <g id="Weather" transform="translate(372.000000, 209.000000)">
                <path d="M19.3196128,17.7052969 C16.9672408,14.3899566 17.4679933,9.80070988 20.5504086,7.0932119 C23.7559156,4.27759388 28.7160443,4.64693086 31.5540658,7.86172321 C33.7929415,5.80752566 36.7981216,4.54636546 40.08882,4.54636546 C46.9626934,4.54636546 52.5907311,10.0493357 52.5907311,16.7884966 C52.5907311,16.9204982 52.5907311,16.9399285 52.5907311,17.0535591 C55.0296816,18.9866451 56.4874307,21.8155379 56.4874307,24.8849724 C56.4874307,30.2905962 51.9309853,34.7457872 46.4209568,34.7457872 C45.9726052,34.7457872 45.6091444,34.3823264 45.6091444,33.9339748 C45.6091444,33.4856232 45.9726052,33.1221624 46.4209568,33.1221624 C51.0423471,33.1221624 54.8638059,29.385625 54.8638059,24.8849724 C54.8638059,22.2126885 53.5317969,19.7474149 51.2988423,18.1099148 C51.0903079,17.9569896 50.9671063,17.7138628 50.9671063,17.4552652 L50.9671063,16.7884966 C50.9671063,10.9543069 46.0740552,6.16999028 40.08882,6.16999028 C34.1035848,6.16999028 29.2105336,10.9543069 29.2105336,16.7884966 C29.2105336,17.7852182 29.3715211,18.8421134 29.6677726,19.9042299 C29.8908031,20.7038357 28.9118032,21.2831479 28.3182563,20.7027909 C26.92671,19.3421678 25.0584529,18.5528356 23.0407593,18.5528356 C18.9064564,18.5528356 15.5720851,21.8131098 15.5720851,25.837499 C15.5720851,26.2858506 15.2086243,26.6493114 14.7602727,26.6493114 C14.3119211,26.6493114 13.9484603,26.2858506 13.9484603,25.837499 C13.9484603,22.2093711 16.1529593,19.0961225 19.3196128,17.7052969 Z M30.4287368,9.03773967 C30.412659,9.02197315 30.3971027,9.00541391 30.3821204,8.98806579 C28.1389685,6.39070952 24.165915,6.07849014 21.6218987,8.31307522 C19.0425386,10.5787051 18.7338571,14.5023269 20.9510116,17.1650283 C21.6219485,17.0107797 22.3215796,16.9292108 23.0407593,16.9292108 C24.7089309,16.9292108 26.2952963,17.374614 27.6713207,18.1805988 C27.6157146,17.7111598 27.5869088,17.2460302 27.5869088,16.7884966 C27.5869088,13.8527425 28.6549419,11.1515803 30.4287368,9.03773967 Z M17.721126,7.2298705 C18.1221438,7.43037943 18.2846884,7.91801326 18.0841795,8.31903114 C17.8836706,8.72004901 17.3960367,8.88259362 16.9950189,8.68208469 L14.3972191,7.38318483 C13.9962013,7.18267589 13.8336567,6.69504206 14.0341656,6.29402418 C14.2346745,5.89300631 14.7223084,5.7304617 15.1233262,5.93097063 L17.721126,7.2298705 Z M29.1524701,3.71132764 C28.9859565,4.12761167 28.5135057,4.33009059 28.0972217,4.16357698 C27.6809376,3.99706337 27.4784587,3.52461254 27.6449723,3.10832852 L28.6840922,0.510528799 C28.8506058,0.0942447746 29.3230566,-0.108234152 29.7393407,0.0582794572 C30.1556247,0.224793067 30.3581036,0.697243897 30.19159,1.11352792 L29.1524701,3.71132764 Z M15.289298,13.6476461 C15.7326892,13.5811374 16.1460447,13.8866611 16.2125534,14.3300523 C16.2790621,14.7734435 15.9735385,15.186799 15.5301472,15.2533077 L12.9323475,15.6429777 C12.4889563,15.7094863 12.0756008,15.4039627 12.0090921,14.9605715 C11.9425834,14.5171803 12.2481071,14.1038247 12.6914983,14.037316 L15.289298,13.6476461 Z M23.2797789,3.04677453 C23.4802879,3.44779241 23.3177433,3.93542624 22.9167254,4.13593518 C22.5157075,4.33644411 22.0280737,4.1738995 21.8275648,3.77288163 L20.5286649,1.17508191 C20.328156,0.774064032 20.4907006,0.286430202 20.8917184,0.0859212638 C21.2927363,-0.114587674 21.7803702,0.047956936 21.9808791,0.448974812 L23.2797789,3.04677453 Z M42.134192,22.1573925 C41.8232742,21.8343611 41.8330943,21.3204437 42.1561258,21.009526 C42.4791572,20.6986082 42.9930746,20.7084283 43.3039924,21.0314597 C44.262066,22.0268609 44.797332,23.3553709 44.797332,24.8332414 C44.797332,26.3111118 44.262066,27.6396218 43.3039924,28.635023 C42.3400837,29.6364866 41.0452272,30.1996377 39.6017325,30.1996377 L14.7602727,30.1996377 C14.3119211,30.1996377 13.9484603,29.8361769 13.9484603,29.3878253 C13.9484603,28.9394737 14.3119211,28.5760129 14.7602727,28.5760129 L39.6017325,28.5760129 C40.5990872,28.5760129 41.473177,28.1958591 42.134192,27.5090902 C42.8010421,26.8162589 43.1737071,25.8913183 43.1737071,24.8332414 C43.1737071,23.7751644 42.8010421,22.8502238 42.134192,22.1573925 Z M40.08882,31.1738126 C40.5371716,31.1738126 40.9006324,31.5372734 40.9006324,31.985625 C40.9006324,32.4339766 40.5371716,32.7974374 40.08882,32.7974374 L20.6053221,32.7974374 C20.1569704,32.7974374 19.7935097,32.4339766 19.7935097,31.985625 C19.7935097,31.5372734 20.1569704,31.1738126 20.6053221,31.1738126 L40.08882,31.1738126 Z M42.8489822,37.8306744 C42.8489822,38.279026 42.4855214,38.6424868 42.0371698,38.6424868 C41.5888181,38.6424868 41.2253573,38.279026 41.2253573,37.8306744 C41.2253573,36.420962 40.302205,35.3952371 39.1146451,35.3952371 L24.5020216,35.3952371 C24.05367,35.3952371 23.6902092,35.0317763 23.6902092,34.5834247 C23.6902092,34.1350731 24.05367,33.7716123 24.5020216,33.7716123 L39.1146451,33.7716123 C41.2392798,33.7716123 42.8489822,35.5601705 42.8489822,37.8306744 Z"></path>
            </g>
        </g>
    </g>
</svg>