<svg width="116" height="124" viewBox="0 0 116 124" xmlns="http://www.w3.org/2000/svg" xmlns:xlink="http://www.w3.org/1999/xlink"><title>Plane</title><defs><path d="M1168.74 926.83v-6.128a3.79 3.79 0 0 0-3.8-3.78 3.79 3.79 0 0 0-3.8 3.78l.001 1.347c-9.584-6.02-16.488-10.942-16.488-10.942s.673-14.322.867-29.058c.196-14.732-16.236-14.732-16.041.001.196 14.736.868 29.056.868 29.056s-6.904 4.922-16.487 10.943v-1.347c0-2.088-1.7-3.78-3.8-3.78-2.097 0-3.799 1.692-3.8 3.78v6.127c-12.674 7.99-25.522 16.165-26.108 16.844-1.17 1.357-3.834 8.336-2.99 8.916.414.285 9.904-4.093 19.876-8.652v1.384a.68.68 0 0 0 .682.678.68.68 0 0 0 .682-.678v-2.006l2.792-1.274v.824c0 .375.306.68.683.678a.679.679 0 0 0 .681-.678v-1.442a736.123 736.123 0 0 1 5.457-2.455v1.441c0 .375.305.68.681.68a.68.68 0 0 0 .683-.68l-.001-2.046a293.397 293.397 0 0 1 5.131-2.215v1.29a.682.682 0 0 0 1.364 0v-1.852c2.178-.88 3.7-1.412 4.221-1.412h10.434s.673 24.572 1.647 30.582c.363 2.24 1.042 5.505 1.808 8.719-4.764 3.048-11.993 7.704-13.28 8.727-1.949 1.55-3.508 2.779-3.573 3.813-.064 1.033-.714 3.165.26 2.973.803-.16 14.452-4.713 19.219-6.306.36.916.669 1.458.891 1.458.223 0 .532-.542.892-1.458 4.768 1.593 18.415 6.145 19.218 6.305.974.193.324-1.94.26-2.972-.065-1.034-1.624-2.263-3.573-3.813-1.285-1.024-8.515-5.68-13.28-8.727.766-3.213 1.445-6.478 1.808-8.72.974-6.009 1.647-30.58 1.647-30.58h10.434c.52-.001 2.043.53 4.221 1.41v1.852a.68.68 0 0 0 .682.68.68.68 0 0 0 .682-.68v-1.289c1.51.631 3.248 1.383 5.131 2.216v2.046a.68.68 0 0 0 .682.679.68.68 0 0 0 .682-.679v-1.442c1.739.773 3.577 1.601 5.456 2.455v1.443a.682.682 0 0 0 1.364-.001v-.825l2.792 1.275v2.006a.68.68 0 0 0 .682.678.68.68 0 0 0 .683-.678v-1.384c9.972 4.56 19.462 8.937 19.874 8.652.846-.58-1.818-7.56-2.988-8.916-.586-.68-13.434-8.855-26.11-16.844z" id="b"/><filter x="-8.3%" y="-6.8%" width="116.5%" height="116.9%" filterUnits="objectBoundingBox" id="a"><feOffset dy="2" in="SourceAlpha" result="shadowOffsetOuter1"/><feGaussianBlur stdDeviation="3" in="shadowOffsetOuter1" result="shadowBlurOuter1"/><feColorMatrix values="0 0 0 0 0.247587596 0 0 0 0 0.433255867 0 0 0 0 0.649739583 0 0 0 0.224949049 0" in="shadowBlurOuter1"/></filter></defs><g transform="rotate(-32 -932 2395.385)" fill="none" fill-rule="evenodd"><use fill="#000" filter="url(#a)" xlink:href="#b"/><use fill="#FFF" xlink:href="#b"/></g></svg>