<svg width="555" height="303" viewBox="0 0 555 303" xmlns="http://www.w3.org/2000/svg"><title>Group 4</title><g fill="none" fill-rule="evenodd"><path d="M216.406 274.364c.996-.576-4.392 4.702-3.396 5.278l21.197 4.04c2.767.632 4.4.22 5.396-.356l8.944-5.166 6.57-3.796c1-.576-4.227 4.498-3.227 5.075l21.274 4.242c2.586.433 4.41.074 5.405-.503l12.036-6.95c2.149-1.24 2.149-4.347 0-5.587-2.152-1.248-2.156-4.35-.004-5.59l22.582-13.048c1-.581-4.47 4.571-3.47 5.148l21.414 4.411c2.633.525 4.413-.112 5.413-.689l5.678-3.28a3.23 3.23 0 0 1 3.227 0l6.453 3.727a3.219 3.219 0 0 0 3.223 0l8.064-4.659 4.842-2.795c2.148-1.248 2.148-4.347 0-5.595l-9.68-5.59c-2.152-1.244-2.152-4.342 0-5.59l51.617-29.815a3.219 3.219 0 0 1 3.223 0l8.116 3.224c3.036.303 4.106-.967 5.106-1.543l31.946-18.457c.992-.572-4.327 4.771-3.33 5.348l21.581 4.173c2.192.32 4.01-.017 5.011-.594l15.445-8.927c1-.572-4.323 4.698-3.322 5.274l21.59 4.048c1 .576 4.604.2 5.925-.932l30.65-17.707c2.153-1.24 2.153-4.347 0-5.586L539 168.139a3.219 3.219 0 0 0-3.222 0l-6.453 3.731a3.249 3.249 0 0 1-3.227 0l-35.489-20.502a3.198 3.198 0 0 0-3.222 0l-6.453 3.727a3.22 3.22 0 0 1-3.222 0l-8.07-4.659-4.841-2.8c-2.148-1.239-2.148-4.346 0-5.585 2.152-1.244 2.152-4.351.004-5.59l-4.838-2.8-8.064-4.659c-1-.576-2.23-.576-3.231 0l-16.129 9.317a3.219 3.219 0 0 1-3.222 0l-32.262-18.634c-2.153-1.244-2.153-4.347 0-5.586 2.152-1.248 2.152-4.351 0-5.59L374.48 95.46c-1-.576-2.23-.576-3.23 0l-6.45 3.727a3.216 3.216 0 0 1-3.226-.004l-103.235-59.7a3.219 3.219 0 0 0-3.222 0l-16.138 9.287a3.223 3.223 0 0 1-3.213.004l-25.874-14.85a3.223 3.223 0 0 0-3.127-.049l-6.553 3.506a3.193 3.193 0 0 1-3.088-.021l-16.22-9.032a3.234 3.234 0 0 0-3.178.022l-32.293 18.656c-2.148 1.24-2.148 4.347 0 5.586l4.842 2.8 4.838 2.795c2.153 1.244 2.153 4.346 0 5.59l-4.838 2.8-26.614 6.374-7.856 4.75c-2.149 1.24 20.646 4.698 19.689 4.074l3.49.641a3.227 3.227 0 0 0 3.227 0l6.449-3.727a3.21 3.21 0 0 1 3.227 0l3.226 1.86c2.153 1.243 2.153 4.346 0 5.59-2.152 1.243-2.152 4.35-.004 5.59l3.23 1.868a3.219 3.219 0 0 0 3.223 0l6.458-3.727a3.219 3.219 0 0 1 3.222 0l22.586 13.044c2.149 1.244 2.149 4.346 0 5.59l-12.91 7.454a3.219 3.219 0 0 1-3.223 0l-6.453-3.727a3.219 3.219 0 0 0-3.222 0l-12.911 7.458c-2.148 1.24-2.148 4.347 0 5.586 2.152 1.244 2.152 4.351 0 5.59l-32.262 18.613a3.234 3.234 0 0 1-3.214 0l-6.457-3.71a3.23 3.23 0 0 0-3.223.005l-3.235 1.868c-2.148 1.244-2.148 4.347 0 5.59 2.157 1.244 2.157 4.347.004 5.59-2.152 1.244-2.152 4.347-.004 5.59 2.157 1.245 2.157 4.348.004 5.591l-3.226 1.868a3.24 3.24 0 0 1-3.222 0l-6.454-3.731c-1-.58-2.23-.58-3.226 0l-12.907 7.458c-2.148 1.24-2.148 4.347 0 5.586l4.842 2.8 4.842 2.795c2.153 1.239 2.153 4.346 0 5.586l-3.222 1.859c-1 .58-2.235.58-3.24-.009l-6.44-3.774c-1-.586-7.76-4.243-8.761-3.662L9.465 217.607c-2.153 1.24 17.683 1.395 19.832 2.635l3.23 1.863a3.227 3.227 0 0 0 3.227 0l6.449-3.722a3.213 3.213 0 0 1 3.231 0l22.6 13.113c2.143 1.248 2.139 4.347-.005 5.586l-9.697 5.599c-2.153 1.248-2.153 4.35 0 5.59 2.157 1.248 2.161 4.347.008 5.595-2.156 1.248-12.178 7.748-10.03 8.988l22.127 4.823c2.304.3 3.79-.312 4.795-.91l15.353-9.14c1-.597-4.44 4.607-3.426 5.192l20.945 4.42c3.305.508 4.955-.26 5.955-.836l24.925-14.4a3.227 3.227 0 0 1 3.227 0l32.258 27.53 21.334 4.313c2.153.433 4.392-.117 5.392-.694l15.211-8.788z" fill="#6EADFF"/><path fill="#FFFFFE" d="M174.199 257.241l19.355-11.18 19.355 11.18 11.179-6.452 8.177-4.728 19.355 11.18 19.36-11.18-9.68-5.59 29.031-16.772 19.356 11.18 9.68-5.59 9.68 5.59 9.675-5.59 9.68-5.59-19.356-11.185 58.066-33.546 9.676 5.59 38.71-22.361 19.36 11.18 19.352-11.18 19.355 11.18 38.715-22.36-19.355-11.181-9.68 5.59-38.71-22.361-9.676 5.59-9.68-5.59-9.68-5.595 9.675-5.59-19.35-11.181-19.356 11.18-38.715-22.36 9.68-5.591-29.031-16.771-9.68 5.59L232.265 11.18l-19.356 11.146-29.035-16.672-9.675 5.188L154.843.064l-38.71 22.361 19.35 11.181-9.675 5.595-19.355 11.18 9.68 5.59 9.675-5.59 9.676 5.59-9.676 5.595 9.676 5.59 9.684-5.59 29.03 16.771-19.355 11.181-9.675-5.59-19.36 11.18 9.676 5.59-38.707 22.332-9.675-5.56-9.685 5.595 9.685 5.59-9.685 5.586 9.685 5.595-9.685 5.59-9.675-5.595-19.356 11.185 9.676 5.59 9.68 5.59-9.68 5.591-9.676-5.668L0 190.075l9.676 5.59 9.68-5.59 29.03 16.849-19.355 11.185 9.68 5.59-9.676 5.595 19.646 11.345 19.06-11.35 19.36 11.181 29.031-16.77 58.068 33.54"/><path d="M174.199 257.241l19.355-11.18 19.355 11.18 11.179-6.452 8.177-4.728 19.355 11.18 19.36-11.18-9.68-5.59 29.031-16.772 19.356 11.18 9.68-5.59 9.68 5.59 9.675-5.59 9.68-5.59-19.356-11.185 58.066-33.546 9.676 5.59 38.71-22.361 19.36 11.18 19.352-11.18 19.355 11.18 38.715-22.36-19.355-11.181-9.68 5.59-38.71-22.361-9.676 5.59-9.68-5.59-9.68-5.595 9.675-5.59-19.35-11.181-19.356 11.18-38.715-22.36 9.68-5.591-29.031-16.771-9.68 5.59L232.265 11.18l-19.356 11.146-29.035-16.672-9.675 5.188L154.843.064l-38.71 22.361 19.35 11.181-9.675 5.595-19.355 11.18 9.68 5.59 9.675-5.59 9.676 5.59-9.676 5.595 9.676 5.59 9.684-5.59 29.03 16.771-19.355 11.181-9.675-5.59-19.36 11.18 9.676 5.59-38.707 22.332-9.675-5.56-9.685 5.595 9.685 5.59-9.685 5.586 9.685 5.595-9.685 5.59-9.675-5.595-19.356 11.185 9.676 5.59 9.68 5.59-9.68 5.591-9.676-5.668L0 190.075l9.676 5.59 9.68-5.59 29.03 16.849-19.355 11.185 9.68 5.59-9.676 5.595 19.646 11.345 19.06-11.35 19.36 11.181 29.031-16.77z"/><path fill="#D6E8FF" d="M251.62 257.241v22.362l-19.355-11.181v-22.361l19.355 11.18"/><path d="M251.62 257.241v22.362l-19.355-11.181v-22.361z"/><path fill="#A1BADC" d="M270.976 268.422l-19.356 11.18v-22.36l19.36-11.181z"/><path d="M270.98 246.06l-.004 22.362-19.356 11.18v-22.36z"/><path fill="#A1BADC" d="M290.331 223.7v22.36l-19.351 11.181v-11.18l-9.68-5.59 29.031-16.772"/><path d="M290.331 223.7v22.36l-19.351 11.181v-11.18l-9.68-5.59z"/><path fill="#D6E8FF" d="M309.687 234.88v22.361l-19.356-11.18v-22.362l19.356 11.18"/><path d="M309.687 234.88v22.361l-19.356-11.18v-22.362z"/><path fill="#A1BADC" d="M319.366 229.29v22.36l-9.68 5.591V234.88l9.68-5.59"/><path d="M319.366 229.29v22.36l-9.68 5.591V234.88z"/><path fill="#D6E8FF" d="M329.046 234.88v22.361l-9.68-5.59V229.29l9.68 5.59"/><path d="M329.046 234.88v22.361l-9.68-5.59V229.29z"/><path fill="#A1BADC" d="M348.402 223.7l-.005 22.36-19.35 11.181V234.88l19.355-11.18"/><path d="M348.402 223.7l-.005 22.36-19.35 11.181V234.88z"/><path fill="#A1BADC" d="M387.112 178.968l.148 22.279-38.858 22.452-19.356-11.185 58.066-33.546"/><path d="M387.112 178.968l.148 22.279-38.858 22.452-19.356-11.185z"/><path fill="#D6E8FF" d="M396.788 184.558v22.362l-9.528-5.673-.148-22.28 9.676 5.591"/><path d="M396.788 184.558v22.362l-9.528-5.673-.148-22.28z"/><path fill="#A1BADC" d="M435.499 162.197v22.361l-38.711 22.362v-22.362l38.71-22.361"/><path d="M435.499 162.197v22.361l-38.711 22.362v-22.362z"/><path fill="#D6E8FF" d="M454.859 173.378l-.104 22.422-19.256-11.242v-22.361l19.36 11.18"/><path d="M454.859 173.378l-.104 22.422-19.256-11.242v-22.361z"/><path fill="#A1BADC" d="M474.21 162.197v22.361L454.755 195.8l.104-22.422 19.35-11.181"/><path d="M474.21 162.197v22.361L454.755 195.8l.104-22.422z"/><path fill="#D6E8FF" d="M493.565 173.378l-.095 22.422-19.26-11.242v-22.361l19.355 11.18"/><path d="M493.565 173.378l-.095 22.422-19.26-11.242v-22.361z"/><path fill="#A1BADC" d="M532.28 151.016v22.362L493.47 195.8l.095-22.422 38.715-22.362"/><path d="M532.28 151.016v22.362L493.47 195.8l.095-22.422z"/><path fill="#A1BADC" d="M174.199 257.241v22.362l19.36-11.181-.005-22.361-19.355 11.18"/><path d="M174.199 257.241v22.362l19.36-11.181-.005-22.361z"/><path fill="#D6E8FF" d="M212.91 257.241v22.362l-19.352-11.181-.004-22.361 19.355 11.18"/><path d="M212.91 257.241v22.362l-19.352-11.181-.004-22.361z"/><path fill="#A1BADC" d="M232.265 246.06v22.362l-19.356 11.18v-22.36l19.356-11.181"/><path d="M232.265 246.06v22.362l-19.356 11.18v-22.36z"/><path fill="#D6E8FF" d="M116.132 223.7v22.36l58.067 33.543V257.24l-58.067-33.54"/><path d="M116.132 223.7v22.36l58.067 33.543V257.24z"/><path fill="#A1BADC" d="M87.102 240.47l-.005 22.362 29.035-16.771v-22.362l-29.03 16.771"/><path d="M87.102 240.47l-.005 22.362 29.035-16.771v-22.362z"/><path fill="#D6E8FF" d="M67.742 229.29v22.36l19.355 11.182.005-22.362-19.36-11.18"/><path d="M67.742 229.29v22.36l19.355 11.182.005-22.362z"/><path fill="#A1BADC" d="M48.68 240.64l-.298 22.192 19.36-11.181V229.29L48.68 240.64"/><path d="M48.68 240.64l-.298 22.192 19.36-11.181V229.29z"/><path fill="#D6E8FF" d="M29.035 229.294v22.353l19.347 11.185.299-22.193-19.646-11.345"/><path d="M29.035 229.294v22.353l19.347 11.185.299-22.193z"/><path fill="#D6E8FF" d="M19.355 190.075v22.444l9.676 5.59 19.355-11.185-29.03-16.85"/><path d="M19.355 190.075v22.444l9.676 5.59 19.355-11.185z"/><path fill="#A1BADC" d="M29.035 229.294l9.676-5.595-9.68-5.59.004 11.185"/><path d="M29.035 229.294l9.676-5.595-9.68-5.59z"/><path fill="#A1BADC" d="M9.676 195.665v22.444l9.68-5.59v-22.444l-9.68 5.59"/><path d="M9.676 195.665v22.444l9.68-5.59v-22.444z"/><path fill="#D6E8FF" d="M0 190.075v22.44l9.676 5.594v-22.444L0 190.075"/><path d="M0 190.075v22.44l9.676 5.594v-22.444z"/><path fill="#A1BADC" d="M48.386 151.016v11.103l9.676 5.668 9.68-5.59-19.356-11.18"/><path d="M48.386 151.016v11.103l9.676 5.668 9.68-5.59z"/><path fill="#A1BADC" d="M77.417 134.24v11.186l9.685-5.59-9.685-5.595"/><path d="M77.417 134.24v11.186l9.685-5.59z"/><path fill="#A1BADC" d="M77.417 123.065v11.176l9.685-5.586-9.685-5.59"/><path d="M77.417 123.065v11.176l9.685-5.586z"/><path fill="#A1BADC" d="M125.808 95.109l-.009 11.176 9.685-5.586-9.676-5.59"/><path d="M125.808 95.109l-.009 11.176 9.685-5.586z"/><path fill="#D6E8FF" d="M145.168 61.566v22.362l9.675 5.59 19.356-11.18-29.031-16.772"/><path d="M145.168 61.566v22.362l9.675 5.59 19.356-11.18z"/><path fill="#A1BADC" d="M135.484 67.157v22.361l9.684-5.59V61.566l-9.684 5.59"/><path d="M135.484 67.157v22.361l9.684-5.59V61.566z"/><path fill="#D6E8FF" d="M125.808 61.566l-.009 22.357 9.685 5.595V67.157l-9.676-5.59"/><path d="M125.808 61.566l-.009 22.357 9.685 5.595V67.157z"/><path fill="#A1BADC" d="M125.808 50.381v11.185l9.676-5.594-9.676-5.59"/><path fill="#D6E8FF" d="M125.808 50.381v11.185l9.676-5.594z"/><path fill="#B4B8B8" d="M116.132 55.972v22.365l9.667-5.594.009-22.362-9.676 5.59"/><path fill="#A1BADC" d="M116.132 55.972v22.365l9.667-5.594.009-22.362z"/><path fill="#D6E8FF" d="M106.453 50.381v22.366l9.68 5.59V55.972l-9.68-5.59"/><path d="M106.453 50.381v22.366l9.68 5.59V55.972z"/><path fill="#D6E8FF" d="M116.132 22.425v22.362l19.352-11.18-19.352-11.182"/><path d="M116.132 22.425v22.362l19.352-11.18z"/><path fill="#B4B8B8" d="M445.174 111.88l.005 11.185-9.68-5.595 9.675-5.59"/><path fill="#A1BADC" d="M445.174 111.88l.005 11.185-9.68-5.595zm-67.741-27.952v11.18l-9.68-5.59 9.68-5.59"/><path d="M377.433 83.928v11.18l-9.68-5.59z"/><path d="M494.466 265.87l3.24-1.873a3.232 3.232 0 0 1 3.218 0l8.068 4.663 8 4.871a3.228 3.228 0 0 0 3.283.035l6.522-3.77a3.218 3.218 0 0 1 3.205-.009l22.656 12.949c2.16 1.23 2.165 4.346.013 5.586l-21.231 12.242c-.992.572-2.655 1.404-5.336 1.404l-22.86.902-8.73-20.182c-2.157-1.244-2.144-4.364.021-5.595 2.166-1.226 2.179-4.346.026-5.59l-.095-.052c-2.144-1.24-2.144-4.342 0-5.582" fill="#6EADFF"/><path fill="#FFFFFE" d="M464.482 245.848l9.68-5.59 9.676 5.59 9.632 5.86 9.775-5.647 29.13 16.645-29.082 16.771-38.81-22.418 9.796-5.551-9.797-5.66"/><path d="M464.482 245.848l9.68-5.59 9.676 5.59 9.632 5.86 9.775-5.647 29.13 16.645-29.082 16.771-38.81-22.418 9.796-5.551z"/><path fill="#D6E8FF" d="M503.293 279.477l-.048 22.491-38.71-22.491-.053-22.418 38.81 22.418"/><path d="M503.293 279.477l-.048 22.491-38.71-22.491-.053-22.418z"/><path fill="#A1BADC" d="M532.376 262.706v22.548l-29.131 16.714.048-22.491 29.083-16.771"/><path d="M532.376 262.706v22.548l-29.131 16.714.048-22.491z"/><path fill="#E6E4DF" d="M464.482 245.848v11.211l9.797-5.551-9.797-5.66"/><path fill="#D6E8FF" d="M464.482 245.848v11.211l9.797-5.551z"/><path fill="#5A9DF4" d="M312 144.127V129l12.843 7.564v15.18z"/><path fill="#2D80EB" d="M337.51 144.127V129l-12.843 7.564v15.18z"/><text font-family="Circe-Bold, Circe" font-size="14" font-weight="bold" letter-spacing="2" fill="#2D80EB" transform="translate(288 104)"><tspan x=".804" y="14">МАДРИ</tspan> <tspan x="63.612" y="14">Д</tspan></text></g></svg>