<svg width="20" height="20" viewBox="0 0 20 20" xmlns="http://www.w3.org/2000/svg"><title>Combined Shape</title><path d="M14.375 4.516l-1.852-3.24c-.053-.094-.287-.094-.34 0l-1.55 2.71 1.868 1.868 1.874-1.338zm-2 2.875l-3.21-3.208.223-.39L11.161.692c.505-.884 1.879-.884 2.384 0l2.379 4.163-3.55 2.536zm-6.467 4.865a.196.196 0 0 0 .17.293h12.55a.196.196 0 0 0 .17-.293l-3.054-5.344-2.594 1.852a1.37 1.37 0 0 1-1.768-.146l-2.16-2.161-3.314 5.799zm-1.016.787a1.373 1.373 0 0 1-.005-1.37l4.078-7.137 3.25 3.25a.193.193 0 0 0 .138.057c.041 0 .08-.012.114-.036l3.652-2.61.323.566 3.377 5.909a1.372 1.372 0 0 1-1.192 2.053H6.078c-.488 0-.94-.26-1.186-.682zm13.735 5.388H17.06a.196.196 0 1 0 0 .393h1.568a.196.196 0 1 0 0-.393zm0-1.176a1.372 1.372 0 1 1 0 2.745H17.06a1.372 1.372 0 1 1 0-2.745h1.568zm-1.372-1.765a.196.196 0 0 0-.196-.196H15.49a.196.196 0 1 0 0 .392h1.569a.196.196 0 0 0 .196-.196zm1.176 0c0 .758-.614 1.373-1.372 1.373H15.49a1.372 1.372 0 1 1 0-2.745h1.569c.758 0 1.372.614 1.372 1.372zm-4.51 2.941h-1.568a.196.196 0 1 0 0 .393h1.569a.196.196 0 1 0 0-.393zm0-1.176a1.372 1.372 0 1 1 0 2.745h-1.568a1.372 1.372 0 1 1 0-2.745h1.569zM12.55 15.49a.196.196 0 0 0-.196-.196h-1.569a.196.196 0 1 0 0 .392h1.569a.196.196 0 0 0 .196-.196zm1.176 0c0 .758-.614 1.373-1.372 1.373h-1.569a1.372 1.372 0 1 1 0-2.745h1.569c.758 0 1.372.614 1.372 1.372zm-4.51 2.941H7.648a.196.196 0 1 0 0 .393h1.569a.196.196 0 1 0 0-.393zm0-1.176a1.372 1.372 0 1 1 0 2.745H7.648a1.372 1.372 0 1 1 0-2.745h1.569zM7.844 15.49a.196.196 0 0 0-.196-.196h-1.57a.196.196 0 1 0 0 .392h1.57a.196.196 0 0 0 .195-.196zm1.177 0c0 .758-.615 1.373-1.373 1.373h-1.57a1.372 1.372 0 1 1 0-2.745h1.57c.757 0 1.372.614 1.372 1.372zm-4.51 2.941H2.94a.196.196 0 1 0 0 .393h1.57a.196.196 0 1 0 0-.393zm0-1.176a1.372 1.372 0 1 1 0 2.745H2.94a1.372 1.372 0 1 1 0-2.745h1.57zM3.137 15.49a.196.196 0 0 0-.196-.196H1.373a.196.196 0 1 0 0 .392H2.94a.196.196 0 0 0 .196-.196zm1.177 0c0 .758-.614 1.373-1.373 1.373H1.373a1.372 1.372 0 1 1 0-2.745H2.94c.759 0 1.373.614 1.373 1.372zm-.589-9.215a2.552 2.552 0 0 0 2.55-2.55 2.552 2.552 0 0 0-2.55-2.549 2.552 2.552 0 0 0-2.549 2.55 2.552 2.552 0 0 0 2.55 2.549zm0 1.176A3.729 3.729 0 0 1 0 3.725 3.729 3.729 0 0 1 3.725 0a3.729 3.729 0 0 1 3.726 3.725 3.729 3.729 0 0 1-3.726 3.726z" fill="#2D80EB"/></svg>