<svg width="20" height="23" viewBox="0 0 20 23" xmlns="http://www.w3.org/2000/svg"><title>Date_icon</title><g fill="#2D80EB"><path d="M5.746.62a.68.68 0 0 0-.687.687v1.375H4.7A4.482 4.482 0 0 0 .22 7.163v11.052a4.482 4.482 0 0 0 4.48 4.481h10.365a4.482 4.482 0 0 0 4.481-4.481V7.191a4.482 4.482 0 0 0-4.481-4.482h-.358V1.335a.68.68 0 0 0-.687-.688.68.68 0 0 0-.687.688v1.374h-6.9V1.335c0-.413-.303-.715-.688-.715zm9.32 20.73H4.729a3.121 3.121 0 0 1-3.107-3.108v-8.66H18.2v8.633a3.133 3.133 0 0 1-3.134 3.134zM13.36 4.055V5.43a.68.68 0 0 0 .688.687.68.68 0 0 0 .687-.687V4.056h.357A3.121 3.121 0 0 1 18.2 7.163v1.045H1.595V7.163A3.121 3.121 0 0 1 4.7 4.056h.358v1.375a.68.68 0 0 0 .687.687.68.68 0 0 0 .687-.687V4.056h6.928z"/><path d="M7.588 11.617h-.88a.68.68 0 0 0-.687.687.68.68 0 0 0 .687.687h.88a.68.68 0 0 0 .687-.687.68.68 0 0 0-.687-.687zm2.749 0h-.88a.68.68 0 0 0-.687.687.68.68 0 0 0 .687.687h.88a.68.68 0 0 0 .687-.687.68.68 0 0 0-.687-.687zm2.749 0h-.88a.68.68 0 0 0-.687.687.68.68 0 0 0 .688.687h.88a.68.68 0 0 0 .687-.687.68.68 0 0 0-.688-.687zm2.75 0h-.88a.68.68 0 0 0-.688.687.68.68 0 0 0 .688.687h.88a.68.68 0 0 0 .687-.687.68.68 0 0 0-.687-.687zM4.839 14.366h-.88a.68.68 0 0 0-.687.687.68.68 0 0 0 .687.688h.88a.68.68 0 0 0 .687-.688.68.68 0 0 0-.687-.687zm2.749 0h-.88a.68.68 0 0 0-.687.687.68.68 0 0 0 .687.688h.88a.68.68 0 0 0 .687-.688.68.68 0 0 0-.687-.687zm2.749 0h-.88a.68.68 0 0 0-.687.687.68.68 0 0 0 .687.688h.88a.68.68 0 0 0 .687-.688.68.68 0 0 0-.687-.687zm2.749 0h-.88a.68.68 0 0 0-.687.687.68.68 0 0 0 .688.688h.88a.68.68 0 0 0 .687-.688.68.68 0 0 0-.688-.687zm2.75 0h-.88a.68.68 0 0 0-.688.687.68.68 0 0 0 .688.688h.88a.68.68 0 0 0 .687-.688.68.68 0 0 0-.687-.687zM4.839 17.115h-.88a.68.68 0 0 0-.687.688.68.68 0 0 0 .687.687h.88a.68.68 0 0 0 .687-.687.68.68 0 0 0-.687-.688zm2.749 0h-.88a.68.68 0 0 0-.687.688.68.68 0 0 0 .687.687h.88a.68.68 0 0 0 .687-.687.68.68 0 0 0-.687-.688zm2.749 0h-.88a.68.68 0 0 0-.687.688.68.68 0 0 0 .687.687h.88a.68.68 0 0 0 .687-.687.68.68 0 0 0-.687-.688z"/></g></svg>