<svg width="27" height="24" viewBox="0 0 27 24" xmlns="http://www.w3.org/2000/svg"><title>Combined Shape</title><path d="M17.261 18.578c0 .858-.556 1.609-1.333 1.848V21.6a2.35 2.35 0 0 1-2.372 2.372H3.778A2.35 2.35 0 0 1 1.406 21.6v-1.18c-.79-.279-1.334-.997-1.334-1.842 0-.676.341-1.288.893-1.642.178-3.618 3.178-6.508 6.813-6.508h1.778c3.665 0 6.68 2.877 6.814 6.508.563.36.891.938.891 1.642zm-1.189-1.552c-.086-3.506-2.985-6.298-6.516-6.298H7.778c-3.5 0-6.386 2.805-6.517 6.3l-.074.124a1.642 1.642 0 0 0-.815 1.426c0 .746.502 1.376 1.226 1.59l.108.143V21.6a2.05 2.05 0 0 0 2.072 2.072h9.778a2.05 2.05 0 0 0 2.072-2.072v-1.289l.115-.146c.701-.165 1.218-.826 1.218-1.587a1.59 1.59 0 0 0-.814-1.426l-.075-.126zm-6.516-5.454H7.778c-2.868 0-5.275 2.19-5.612 5.034h13.001c-.336-2.844-2.744-5.034-5.611-5.034zm-1.778-.3h1.778c3.078 0 5.651 2.393 5.927 5.47l-.15.164H2l-.15-.164c.276-3.077 2.85-5.47 5.928-5.47zM2.594 21.556a1.16 1.16 0 0 0 1.184 1.183h9.778a1.16 1.16 0 0 0 1.183-1.183v-1.05H2.594v1.05zm12.445 0a1.46 1.46 0 0 1-1.483 1.483H3.778a1.46 1.46 0 0 1-1.484-1.483v-1.2l.15-.15H14.89l.15.15v1.2zm.294-2.284a.742.742 0 0 0 .74-.739.742.742 0 0 0-.74-.739H2a.742.742 0 0 0-.739.74c0 .405.333.738.739.738h13.333zm0 .3H2a1.042 1.042 0 0 1-1.039-1.039c0-.571.467-1.039 1.039-1.039h13.333c.572 0 1.04.468 1.04 1.04 0 .571-.468 1.038-1.04 1.038zm5.623-11.9l-.15.15v-.15h.15zm4.488.045c.826 0 1.49.68 1.44 1.439 0 .596-.385 1.126-.944 1.352l-1.324 13.329-.15.135H17.89l-.15-.135-1.323-13.329c-.56-.226-.944-.756-.944-1.352a1.46 1.46 0 0 1 1.484-1.484h3.85V4.946L17.42 1.122l.014-.213.667-.578.21.014L22 4.478l.038.1v3.139h3.405zm.207 2.668l.102-.127c.49-.164.83-.607.83-1.112.04-.593-.483-1.13-1.139-1.13H21.89l-.15-.15v-3.23L18.187.655l-.44.381 3.32 3.753.039.1v2.933l-.15.15h-4a1.16 1.16 0 0 0-1.184 1.184c0 .495.341.938.831 1.102l.102.127 1.32 13.287h6.306l1.32-13.287zm-.861.298h-7.135l1.214 12.145h4.706l1.215-12.145zm-1.08 12.445h-4.978l-.149-.135-1.244-12.445.149-.165h7.467l.149.165-1.245 12.445-.149.135zm1.733-13.634c.184 0 .295-.11.295-.294s-.11-.294-.295-.294H17c-.184 0-.294.11-.294.294s.11.294.294.294h8.444zm0 .3H17a.57.57 0 0 1-.594-.594.57.57 0 0 1 .594-.594h8.444a.57.57 0 0 1 .595.594.57.57 0 0 1-.595.594zM4.19 15.442a.294.294 0 0 0 .417 0l.251-.251a.294.294 0 0 0-.416-.417l-.252.252a.294.294 0 0 0 0 .416zm.04-.88a.594.594 0 0 1 .84.84l-.251.252a.594.594 0 0 1-.84-.84l.25-.252zm2.183-1.314a.294.294 0 0 0 .416.416l.251-.251a.294.294 0 1 0-.416-.417l-.251.252zm-.213-.212l.252-.252a.594.594 0 1 1 .84.841l-.25.251a.594.594 0 0 1-.842-.84zm1.99 2.406a.294.294 0 0 0 .417 0l.251-.251a.294.294 0 0 0-.416-.417l-.252.252a.294.294 0 0 0 0 .416zm.04-.88a.594.594 0 0 1 .84.84l-.251.252a.594.594 0 1 1-.84-.84l.25-.252zm3.96.88a.294.294 0 0 0 .417 0l.251-.251a.294.294 0 1 0-.416-.417l-.252.252a.294.294 0 0 0 0 .416zm.04-.88a.594.594 0 1 1 .84.841l-.251.251a.594.594 0 0 1-.84-.84l.25-.252zm-1.817-.898a.294.294 0 0 1 0-.416l.251-.251a.294.294 0 0 1 .416.416l-.251.251a.294.294 0 0 1-.416 0zm5.81 3.358c.533.311.888.845.888 1.556 0 .844-.578 1.555-1.333 1.733V21.6a2.2 2.2 0 0 1-2.222 2.222H3.778A2.2 2.2 0 0 1 1.556 21.6v-1.289C.8 20.09.222 19.422.222 18.578c0-.667.356-1.245.89-1.556.132-3.555 3.066-6.444 6.666-6.444h1.778c3.6 0 6.577 2.844 6.666 6.444zm-5.771-4.238a.594.594 0 0 1 .84.841l-.25.252a.594.594 0 1 1-.842-.841l.252-.252zm-2.674-1.362c-3.022 0-5.511 2.356-5.778 5.334h13.333c-.266-2.978-2.755-5.334-5.777-5.334H7.778zm7.11 10.134v-1.2H2.445v1.2a1.31 1.31 0 0 0 1.334 1.333h9.778a1.31 1.31 0 0 0 1.333-1.333zm.445-2.134c.49 0 .89-.4.89-.889s-.4-.889-.89-.889H2c-.489 0-.889.4-.889.89 0 .488.4.888.889.888h13.333zM25.444 7.867c.756 0 1.334.622 1.29 1.289 0 .577-.4 1.066-.934 1.244l-1.333 13.422h-6.578L16.556 10.4c-.534-.178-.934-.667-.934-1.244a1.31 1.31 0 0 1 1.334-1.334h4V4.89l-3.423-3.867.667-.578 3.689 4.134v3.289h3.555zm-1.733 15.11l1.245-12.444h-7.467l1.244 12.445h4.978zm1.733-13.333c.267 0 .445-.177.445-.444s-.178-.444-.445-.444H17c-.267 0-.444.177-.444.444s.177.444.444.444h8.444zM4.084 14.92l.252-.252a.444.444 0 1 1 .628.629l-.251.251a.444.444 0 1 1-.629-.628zm2.223-1.778l.25-.252a.444.444 0 1 1 .63.629l-.252.251a.444.444 0 1 1-.628-.628zm1.777 1.778l.252-.252a.444.444 0 0 1 .628.629l-.251.251a.444.444 0 1 1-.629-.628zm4 0l.252-.252a.444.444 0 1 1 .628.629l-.251.251a.444.444 0 1 1-.629-.628z" fill="#2D80EB"/></svg>