<svg width="21" height="23" viewBox="0 0 21 23" xmlns="http://www.w3.org/2000/svg"><title>Shape</title><path d="M20.66 5.228L10.86.806V0h-.841v.8L0 5.227l.095.448c.063 1.16 1.266 2.067 2.713 2.067 1.049 0 1.961-.475 2.423-1.171.706 1 2.727 1.55 4.744 1.61v12.982H8.013v.841h4.765v-.84h-1.962V8.178c2.019-.076 4.03-.646 4.69-1.654.476.666 1.369 1.112 2.383 1.112 1.513 0 2.745-.988 2.745-2.202 0-.023-.003-.045-.004-.068l.03-.139zm-4.789-.037L12.91 2.653l5.623 2.538h-2.662zm-1.292 0H6.291l4.144-3.55 4.144 3.55zM8.02 2.602L5 5.191H2.162L8.02 2.602zM2.809 6.901c-.788 0-1.486-.364-1.77-.87h3.543c-.277.509-.966.87-1.773.87zm7.542.446c-2.329 0-4.105-.66-4.47-1.315h8.941c-.348.61-1.985 1.315-4.47 1.315zm7.54-.551c-.733 0-1.388-.315-1.704-.764h3.412c-.31.452-.959.764-1.709.764z" fill="#2D80EB"/></svg>