<svg width="22" height="22" viewBox="0 0 22 22" xmlns="http://www.w3.org/2000/svg"><title>Shape</title><path d="M17.335 21.052a.716.716 0 0 0 .732-.802l-.77-6.638 4.514-4.917a.72.72 0 0 0-.383-1.19L14.89 6.189 11.623.364a.716.716 0 0 0-1.246 0L7.11 6.188.572 7.506a.717.717 0 0 0-.383 1.19l4.514 4.916-.77 6.638a.72.72 0 0 0 1.01.734L11 18.202l6.057 2.782a.715.715 0 0 0 .278.068zm-.837-1.902L11.3 16.756a.715.715 0 0 0-.6 0L5.502 19.15l.661-5.7a.72.72 0 0 0-.184-.568l-3.875-4.22 5.61-1.126a.717.717 0 0 0 .48-.354l2.806-5 2.805 5a.717.717 0 0 0 .48.354l5.611 1.126-3.875 4.22a.72.72 0 0 0-.184.568l.66 5.7z" fill="#2D80EB"/></svg>