<svg width="15" height="23" viewBox="0 0 15 23" xmlns="http://www.w3.org/2000/svg"><title>Shape</title><path d="M13.846 3.423V1.731a.99.99 0 0 0-.374-.784.998.998 0 0 0-.847-.203L.387 3.362H0V22.4h13.413c.875 0 1.587-.712 1.587-1.587V4.948c0-.724-.489-1.336-1.154-1.525zm-1.04-1.833c.037-.007.064-.017.121.03.039.03.054.062.054.111v1.63H4.525l8.281-1.77zm1.329 19.223a.722.722 0 0 1-.722.722H.865V4.227h12.548c.398 0 .722.323.722.721v15.865zM7.5 5.381a4.765 4.765 0 0 0-4.76 4.76A4.765 4.765 0 0 0 7.5 14.9a4.765 4.765 0 0 0 4.76-4.76A4.765 4.765 0 0 0 7.5 5.38zm2.298 4.327a9.483 9.483 0 0 0-.155-1.395 4.56 4.56 0 0 0 .888-.612 3.87 3.87 0 0 1 .838 2.007H9.798zM7.5 14.035c-.357 0-.81-.56-1.112-1.529a3.747 3.747 0 0 1 2.224 0c-.302.969-.755 1.529-1.112 1.529zm1.915-1.17c.168.1.328.213.48.34-.257.2-.537.371-.84.503.136-.25.258-.53.36-.843zm-3.471.843a3.907 3.907 0 0 1-.84-.503c.152-.126.313-.238.481-.338.103.312.224.592.359.841zM7.5 11.47c-.448 0-.89.07-1.314.196a8.564 8.564 0 0 1-.119-1.093h2.865c-.017.392-.06.754-.118 1.089A4.613 4.613 0 0 0 7.5 11.47zM6.067 9.708a8.54 8.54 0 0 1 .114-1.062c.426.127.869.197 1.319.197.451 0 .895-.067 1.319-.194.056.327.096.679.113 1.059H6.067zM7.5 6.246c.36 0 .819.571 1.121 1.557-.36.113-.736.174-1.121.174-.384 0-.76-.062-1.121-.175.302-.986.761-1.556 1.121-1.556zM5.575 7.444a3.718 3.718 0 0 1-.493-.35c.263-.21.551-.385.862-.521-.14.257-.265.547-.369.87zm3.481-.871c.31.135.597.31.859.518a3.79 3.79 0 0 1-.49.352 5.113 5.113 0 0 0-.369-.87zm-4.031.563l-.516.606c.262.223.548.41.849.568a9.517 9.517 0 0 0-.156 1.398h-1.57a3.891 3.891 0 0 1 1.393-2.572zM3.63 10.573h1.571c.02.507.075.986.161 1.428a4.623 4.623 0 0 0-.882.594 3.874 3.874 0 0 1-.85-2.022zm6.886 2.026a4.627 4.627 0 0 0-.88-.602c.086-.441.14-.92.16-1.424h1.572a3.877 3.877 0 0 1-.852 2.026zM2.885 16.63h9.23v.865h-9.23v-.865zm2.307 1.442h4.615v.866H5.192v-.866z" fill="#2D80EB"/></svg>