<svg width="283" height="104" viewBox="0 0 283 104" xmlns="http://www.w3.org/2000/svg" xmlns:xlink="http://www.w3.org/1999/xlink"><title>Group 4</title><defs><path d="M142.907 100.72a2.01 2.01 0 0 1-3.732-1.492l6.443-12.07a2.01 2.01 0 1 1 3.731 1.493l-6.442 12.07zm-17.182 0a2.01 2.01 0 1 1-3.731-1.492l6.443-12.07a2.01 2.01 0 0 1 3.731 1.493l-6.443 12.07zm-16.668 0a2.01 2.01 0 1 1-3.732-1.492l6.443-12.07a2.01 2.01 0 0 1 3.731 1.493l-6.442 12.07zm-17.181 0a2.01 2.01 0 1 1-3.732-1.492l6.443-12.07a2.01 2.01 0 1 1 3.731 1.493l-6.442 12.07zm95.304-70.417v.656c6.037 4.785 9.646 11.787 9.646 19.385 0 13.38-11.279 24.408-24.917 24.408a2.01 2.01 0 0 1 0-4.019c11.439 0 20.898-9.249 20.898-20.39 0-6.614-3.297-12.716-8.824-16.77a2.01 2.01 0 0 1-.822-1.62v-1.65c0-14.442-12.111-26.284-26.926-26.284-14.815 0-26.927 11.842-26.927 26.284 0 2.467.398 5.083 1.132 7.712.552 1.98-1.871 3.413-3.34 1.977a18.6 18.6 0 0 0-13.064-5.322c-10.233 0-18.487 8.07-18.487 18.031a2.01 2.01 0 0 1-4.019 0c0-12.201 10.073-22.05 22.506-22.05 4.13 0 8.056 1.102 11.462 3.097a29.318 29.318 0 0 1-.209-3.445C125.289 13.62 139.22 0 156.235 0c17.014 0 30.945 13.621 30.945 30.303zm-25.882 15.29a2.01 2.01 0 1 1 2.895-2.788c2.372 2.464 3.697 5.752 3.697 9.41 0 3.659-1.325 6.947-3.697 9.411-2.386 2.479-5.59 3.873-9.164 3.873H93.54a2.01 2.01 0 0 1 0-4.019h61.49c2.469 0 4.632-.941 6.269-2.64 1.65-1.716 2.573-4.005 2.573-6.624 0-2.62-.923-4.909-2.573-6.624zm-5.063 25.317a2.01 2.01 0 0 1 0 4.02h-48.227a2.01 2.01 0 0 1 0-4.02h48.227z" id="a"/></defs><g fill="none" fill-rule="evenodd"><path d="M47.604 102V75.36H.804v-5.04L44.868 1.2h8.64L10.884 67.872h36.72V37.2h7.488v30.672h14.832v7.488H55.092V102h-7.488zm212.832 0V75.36h-46.8v-5.04L257.7 1.2h8.64l-42.624 66.672h36.72V37.2h7.488v30.672h14.832v7.488h-14.832V102h-7.488z" fill="#2D80EB"/><g fill-rule="nonzero" stroke="#2D80EB" transform="translate(0 1)"><use fill="#2D80EB" fill-rule="evenodd" xlink:href="#a"/><use xlink:href="#a"/><use xlink:href="#a"/><use xlink:href="#a"/><use xlink:href="#a"/><use xlink:href="#a"/><use xlink:href="#a"/><use xlink:href="#a"/></g></g></svg>