<svg width="271" height="105" viewBox="0 0 271 105" xmlns="http://www.w3.org/2000/svg" xmlns:xlink="http://www.w3.org/1999/xlink"><title>Group 4</title><defs><path d="M137.907 102.72a2.01 2.01 0 0 1-3.732-1.492l6.443-12.07a2.01 2.01 0 1 1 3.731 1.493l-6.442 12.07zm-17.182 0a2.01 2.01 0 1 1-3.731-1.492l6.443-12.07a2.01 2.01 0 0 1 3.731 1.493l-6.443 12.07zm-16.668 0a2.01 2.01 0 1 1-3.732-1.492l6.443-12.07a2.01 2.01 0 0 1 3.731 1.493l-6.442 12.07zm-17.181 0a2.01 2.01 0 1 1-3.732-1.492l6.443-12.07a2.01 2.01 0 1 1 3.731 1.493l-6.442 12.07zm95.304-70.417v.656c6.037 4.785 9.646 11.787 9.646 19.385 0 13.38-11.279 24.408-24.917 24.408a2.01 2.01 0 0 1 0-4.019c11.439 0 20.898-9.249 20.898-20.39 0-6.614-3.297-12.716-8.824-16.77a2.01 2.01 0 0 1-.822-1.62v-1.65c0-14.442-12.111-26.284-26.926-26.284-14.815 0-26.927 11.842-26.927 26.284 0 2.467.398 5.083 1.132 7.712.552 1.98-1.871 3.413-3.34 1.977a18.6 18.6 0 0 0-13.064-5.322c-10.233 0-18.487 8.07-18.487 18.031a2.01 2.01 0 0 1-4.019 0c0-12.201 10.073-22.05 22.506-22.05 4.13 0 8.056 1.102 11.462 3.097a29.318 29.318 0 0 1-.209-3.445C120.289 15.62 134.22 2 151.235 2c17.014 0 30.945 13.621 30.945 30.303zm-25.882 15.29a2.01 2.01 0 1 1 2.895-2.788c2.372 2.464 3.697 5.752 3.697 9.41 0 3.659-1.325 6.947-3.697 9.411-2.386 2.479-5.59 3.873-9.164 3.873H88.54a2.01 2.01 0 0 1 0-4.019h61.49c2.469 0 4.632-.941 6.269-2.64 1.65-1.716 2.573-4.005 2.573-6.624 0-2.62-.923-4.909-2.573-6.624zm-5.063 25.317a2.01 2.01 0 0 1 0 4.02h-48.227a2.01 2.01 0 0 1 0-4.02h48.227z" id="a"/></defs><g fill="none" fill-rule="evenodd"><path d="M10.42 50.584L16.612 2.2h43.776v7.488H23.092l-4.32 32.832c2.976-.864 6.288-1.296 9.936-1.296 9.312 0 16.944 2.784 22.896 8.352 5.952 5.568 8.928 12.96 8.928 22.176 0 9.792-3.024 17.664-9.072 23.616-6.048 5.952-13.44 8.928-22.176 8.928-5.76 0-11.232-1.344-16.416-4.032-5.184-2.688-9.264-6.672-12.24-11.952l4.464-5.328c2.496 4.416 6 7.824 10.512 10.224 4.512 2.4 9.12 3.6 13.824 3.6 6.624 0 12.144-2.328 16.56-6.984 4.416-4.656 6.624-10.584 6.624-17.784 0-6.912-2.472-12.648-7.416-17.208-4.944-4.56-11.448-6.84-19.512-6.84-5.664 0-10.752.864-15.264 2.592zm229.536 53.712c-6.72 0-12.672-1.44-17.856-4.32-5.184-2.88-9.024-7.248-11.52-13.104l4.464-5.184c2.496 5.088 5.976 8.88 10.44 11.376 4.464 2.496 9.288 3.744 14.472 3.744 6.912 0 12.432-2.04 16.56-6.12 4.128-4.08 6.192-9.24 6.192-15.48 0-5.952-2.064-10.776-6.192-14.472-4.128-3.696-9.36-5.544-15.696-5.544h-8.64v-7.488h7.776c4.896 0 9.264-1.968 13.104-5.904s5.76-8.784 5.76-14.544c0-6.048-1.728-10.704-5.184-13.968-3.456-3.264-8.16-4.896-14.112-4.896-10.272 0-17.568 4.608-21.888 13.824l-4.464-4.752c2.016-5.28 5.4-9.36 10.152-12.24 4.752-2.88 10.344-4.32 16.776-4.32 8.256 0 14.76 2.256 19.512 6.768 4.752 4.512 7.128 10.704 7.128 18.576 0 5.376-1.392 10.272-4.176 14.688-2.784 4.416-6.72 7.632-11.808 9.648v.432c6.144.864 10.992 3.648 14.544 8.352 3.552 4.704 5.328 10.08 5.328 16.128 0 8.736-2.88 15.72-8.64 20.952-5.76 5.232-13.104 7.848-22.032 7.848z" fill="#2D80EB"/><g fill-rule="nonzero" stroke="#2D80EB"><use fill="#2D80EB" fill-rule="evenodd" xlink:href="#a"/><use xlink:href="#a"/><use xlink:href="#a"/><use xlink:href="#a"/><use xlink:href="#a"/><use xlink:href="#a"/><use xlink:href="#a"/><use xlink:href="#a"/></g></g></svg>