<svg width="68" height="71" viewBox="0 0 68 71" xmlns="http://www.w3.org/2000/svg"><title>Group 2</title><g fill="none"><path d="M27.608 70.498h-15.02c-.814 0-1.474-.66-1.474-1.473l-.015-4.503c-.017-3.61-.035-7.182.05-10.75.06-2.376-.557-4.239-1.995-6.03C6.72 44.7 4.327 41.348 2.04 37.783 1.085 36.298.5 34.347.475 32.57.378 25.545.395 18.52.411 11.49l.011-4.833c.003-2.125.604-3.846 1.745-4.974C3.122.73 4.424.23 5.927.23h.039C9.1.25 11.22 2.838 11.235 6.672c.012 3.466.009 6.931.006 10.477l-.003 4.954v.014c1.014.23 1.812.81 2.416 1.444 1.397 1.462 2.582 3.1 3.728 4.686l2.47 3.368c2.237 3.03 4.547 6.163 6.569 9.434 1.503 2.431 2.431 5.257 2.546 7.753.224 4.786.186 9.47.144 14.426-.014 1.918-.032 3.852-.032 5.8a1.467 1.467 0 0 1-1.47 1.47zm-13.553-2.947h12.083c.006-1.459.018-2.905.03-4.35.044-4.915.079-9.557-.14-14.263-.093-1.98-.883-4.353-2.115-6.342-1.957-3.168-4.232-6.25-6.433-9.23l-2.488-3.392c-1.084-1.503-2.21-3.059-3.465-4.373-.613-.64-1.377-1.156-3.39.31-.713.512-1.066.877-.09 2.404 1.278 1.99 2.48 4.028 3.68 6.07l.416.705a1.47 1.47 0 0 1-.522 2.019 1.476 1.476 0 0 1-2.019-.522l-.418-.707c-1.18-2.007-2.364-4.014-3.622-5.97-2.084-3.263-.693-5.273.846-6.387a9.07 9.07 0 0 1 1.921-1.093 1.31 1.31 0 0 1-.038-.327l.003-4.96c.003-3.54.006-7.002-.006-10.465-.006-1.683-.625-3.49-2.34-3.501h-.024c-.728 0-1.279.194-1.682.595-.57.566-.873 1.565-.873 2.888l-.011 4.84c-.015 7.01-.033 14.021.064 21.032.018 1.229.437 2.635 1.1 3.66 2.23 3.48 4.564 6.746 6.937 9.708 1.874 2.342 2.711 4.865 2.64 7.939-.082 3.542-.064 7.087-.05 10.668l.006 3.044zm40.961 2.947H39.998c-.814 0-1.474-.66-1.474-1.473 0-1.954-.018-3.887-.032-5.812-.044-4.954-.083-9.63.144-14.414.115-2.493 1.043-5.316 2.543-7.753 2.025-3.271 4.335-6.404 6.57-9.433l2.466-3.366c1.15-1.585 2.334-3.227 3.734-4.689.604-.633 1.405-1.214 2.413-1.44V22.1l-.003-4.533c0-3.693-.003-7.297.01-10.9.011-3.832 2.13-6.422 5.268-6.443 1.433.094 2.83.492 3.796 1.45 1.14 1.132 1.745 2.853 1.748 4.977l.012 4.833c.017 7.03.035 14.058-.062 21.08-.03 1.783-.613 3.734-1.565 5.217-2.302 3.583-4.698 6.934-7.114 9.955-1.435 1.791-2.051 3.654-1.995 6.03.08 3.556.062 7.113.047 10.706l-.015 4.55c0 .82-.66 1.476-1.473 1.476zm-13.548-2.947h12.08l.009-3.091c.017-3.566.035-7.094-.047-10.621-.071-3.074.766-5.597 2.64-7.94 2.358-2.943 4.692-6.206 6.937-9.707.66-1.025 1.079-2.428 1.1-3.663.097-7.008.08-14.019.062-21.03l-.012-4.836c-.003-1.326-.307-2.325-.876-2.89-.412-.408-.875-.61-1.703-.596-1.718.012-2.334 1.815-2.34 3.5-.012 3.605-.009 7.203-.009 10.89l.003 4.536c0 .112-.011.22-.038.324.601.241 1.244.598 1.927 1.096 1.536 1.111 2.927 3.12.834 6.38-1.252 1.951-2.43 3.958-3.61 5.956l-.427.722a1.474 1.474 0 1 1-2.54-1.497l.424-.719c1.196-2.033 2.396-4.07 3.669-6.056.978-1.527.625-1.892-.083-2.402-2.01-1.453-2.77-.958-3.392-.31-1.26 1.315-2.387 2.874-3.474 4.377l-2.484 3.389c-2.202 2.98-4.477 6.062-6.434 9.23-1.229 1.992-2.018 4.362-2.113 6.342-.22 4.703-.182 9.34-.138 14.249.018 1.453.03 2.906.035 4.367z" fill="#2F2F2F"/><path d="M34.504 8.026c3.92 0 7.101 3.18 7.212 7.1v4.032a1.31 1.31 0 0 1-1.294 1.295 1.31 1.31 0 0 1-1.295-1.295v-4.031c0-.999-.333-1.886-.85-2.626v21.007c0 .925-.703 1.628-1.628 1.628-.924 0-1.627-.74-1.627-1.628v-12.13h-.925v12.13c0 .925-.702 1.628-1.627 1.628s-1.627-.74-1.627-1.628V12.501c-.518.74-.851 1.664-.851 2.626v4.031a1.31 1.31 0 0 1-1.295 1.295 1.31 1.31 0 0 1-1.294-1.295v-4.031c0-3.92 3.18-7.101 7.101-7.101zm0-.925a3.55 3.55 0 1 1 0-7.101 3.55 3.55 0 0 1 0 7.101z" fill="#2D80EB"/></g></svg>