<svg width="68" height="69" viewBox="0 0 68 69" xmlns="http://www.w3.org/2000/svg"><title>noun_656080_cc</title><g fill="none"><path d="M47.825 54.318c-1.28 1.094-2.951 1.917-4.849 2.353-.691.16-1.11.803-.937 1.436.176.633.878 1.017 1.57.857 2.29-.528 4.354-1.53 5.98-2.919.522-.446.55-1.193.064-1.67a1.38 1.38 0 0 0-1.828-.057z" fill="#2F2F2F"/><path d="M63.749 33.956H61.21c-.997-2.571-2.482-4.954-4.36-7.076l2.779-8.074a1.178 1.178 0 0 0-.67-1.47 8.952 8.952 0 0 0-3.448-.679c-2.867.007-5.678 1.286-7.888 3.379a33.77 33.77 0 0 0-5.4-2.034A11.654 11.654 0 0 0 44 11.832C44 5.298 38.627.002 32.001 0c-6.629 0-12 5.297-12 11.833 0 2.36.707 4.553 1.916 6.4-4.046 1.241-7.693 3.167-10.713 5.635a25.998 25.998 0 0 0-5.121 5.569c-1.068-.017-2.013-.378-2.663-.914-.67-.555-1.018-1.24-1.02-1.97 0-.654-.538-1.183-1.2-1.183-.662 0-1.2.53-1.2 1.183-.002 1.518.758 2.87 1.883 3.789.795.652 1.78 1.107 2.865 1.323-1.583 3.02-2.47 6.356-2.469 9.866-.001 6.807 3.325 12.954 8.62 17.402l-1.193 4.753v-.002c-.064.25-.095.506-.095.757a3.15 3.15 0 0 0 .669 1.93 3.194 3.194 0 0 0 1.764 1.136l5.742 1.401a3.239 3.239 0 0 0 2.722-.567 3.14 3.14 0 0 0 1.153-1.737l.426-1.704a35.98 35.98 0 0 0 10.38 1.508c3.644 0 7.137-.536 10.377-1.512l.428 1.707a3.14 3.14 0 0 0 1.152 1.738 3.234 3.234 0 0 0 2.722.567l5.743-1.401a3.191 3.191 0 0 0 1.762-1.137 3.114 3.114 0 0 0 .576-2.684l-1.197-4.77c3.446-2.904 6.062-6.504 7.462-10.56h2.257c2.346-.005 4.247-1.878 4.251-4.192v-6.016c-.005-2.313-1.906-4.188-4.251-4.192zM25.21 5.14A9.636 9.636 0 0 1 32 2.366a9.633 9.633 0 0 1 6.787 2.773 9.367 9.367 0 0 1 0 13.387A9.635 9.635 0 0 1 32 21.298a9.635 9.635 0 0 1-6.79-2.772 9.363 9.363 0 0 1-2.81-6.693 9.366 9.366 0 0 1 2.81-6.694zm-5.88 60.897a.786.786 0 0 1-.288.431.815.815 0 0 1-.492.167l-.189-.022-5.742-1.401a.79.79 0 0 1-.44-.283.778.778 0 0 1-.168-.485l.021-.184.002-.003.936-3.732a31.562 31.562 0 0 0 6.84 3.597l-.48 1.915zm33.417-1.109a.77.77 0 0 1-.437.283l-5.74 1.401-.19.023a.818.818 0 0 1-.493-.167.778.778 0 0 1-.287-.43l-.48-1.916a31.86 31.86 0 0 0 6.031-3.049c.276-.18.535-.378.804-.566l.94 3.749.022.187a.783.783 0 0 1-.17.485zM65.6 44.166c0 .5-.207.951-.546 1.288-.34.334-.798.536-1.306.537h-3.13c-.533 0-1 .345-1.151.849-1.456 4.874-4.892 9.17-9.636 12.258-4.742 3.084-10.781 4.945-17.365 4.944-7.735.002-14.717-2.566-19.731-6.667-5.018-4.107-8.055-9.697-8.056-15.843.001-6.145 3.038-11.734 8.056-15.841 2.987-2.444 6.68-4.331 10.809-5.466.768.751 1.64 1.398 2.59 1.924-1.238.2-2.462.444-3.656.77a1.182 1.182 0 0 0-.838 1.455c.179.63.84 1 1.479.825 2.899-.79 5.968-1.19 9.112-1.189 2.95 0 5.966.35 8.972 1.06a1.2 1.2 0 0 0 1.446-.876 1.183 1.183 0 0 0-.888-1.426 42.655 42.655 0 0 0-3.768-.695 12.052 12.052 0 0 0 2.635-2.03c2.38.592 4.632 1.414 6.688 2.47a1.214 1.214 0 0 0 1.441-.251c1.89-2.053 4.422-3.245 6.756-3.238.492 0 .977.057 1.451.162l-2.609 7.58a1.17 1.17 0 0 0 .255 1.183c2.1 2.244 3.682 4.806 4.629 7.568.164.48.621.805 1.136.805h3.374c.508 0 .965.203 1.306.538.34.336.546.787.546 1.288v6.018H65.6z" fill="#2F2F2F"/><circle fill="#2F2F2F" cx="50.5" cy="34.5" r="1.5"/><path d="M30.788 15.055c-.273-.24-.398-.493-.407-.891 0-.648-.532-1.173-1.19-1.173-.655 0-1.19.525-1.19 1.173a3.446 3.446 0 0 0 1.249 2.68c.564.471 1.273.767 2.06.902v.081c0 .648.534 1.173 1.19 1.173.658 0 1.191-.525 1.191-1.173v-.108c.606-.104 1.191-.283 1.728-.609a3.267 3.267 0 0 0 1.164-1.208A3.573 3.573 0 0 0 37 14.164c.002-.65-.144-1.262-.432-1.777-.25-.45-.599-.81-.972-1.079-.612-.442-1.273-.673-1.905-.857V7.694c.215.078.394.164.513.256.154.12.247.238.312.371s.103.287.103.487c0 .647.534 1.173 1.19 1.173.657 0 1.191-.526 1.191-1.173 0-.514-.107-1.03-.337-1.499-.34-.707-.95-1.282-1.702-1.64a5.225 5.225 0 0 0-1.27-.407v-.09C33.69 4.526 33.156 4 32.5 4s-1.19.525-1.19 1.173v.043a4.79 4.79 0 0 0-.9.237c-.834.31-1.47.856-1.857 1.469A3.53 3.53 0 0 0 28 8.808c-.002.622.154 1.22.46 1.708.266.427.625.753.997.993.605.386 1.24.587 1.853.753v3.073a1.68 1.68 0 0 1-.522-.28zm2.903-2.116c.08.033.171.065.239.102.269.141.42.278.516.419.093.144.17.324.173.704-.001.31-.06.492-.131.623a.824.824 0 0 1-.22.257c-.123.098-.325.191-.577.27v-2.375zM30.695 9.5a.727.727 0 0 1-.228-.252c-.044-.088-.084-.208-.086-.44a1.2 1.2 0 0 1 .344-.831c.123-.124.285-.239.533-.332l.053-.017v2.176c-.271-.1-.488-.203-.616-.304z" fill="#2D80EB"/></g></svg>