<svg width="56" height="69" viewBox="0 0 56 69" xmlns="http://www.w3.org/2000/svg"><title>Group 3</title><g fill="none" fill-rule="evenodd"><path d="M39.66 49.726v.775h1.997v-1.466h-1.305a.614.614 0 0 0-.691.691zm1.278 1.187h-1.277v5.87h1.996v-5.18a.628.628 0 0 0-.719-.69z"/><path d="M46.767 13.192H8.585a1.536 1.536 0 1 0 0 3.072h38.182a1.536 1.536 0 0 0 0-3.072zm-3.072 12.146a1.536 1.536 0 0 0 1.466-1.536 1.48 1.48 0 0 0-1.396-1.536H8.445a1.543 1.543 0 0 0 0 3.072h35.25zm-13.75 6.072H8.585a1.536 1.536 0 1 0 0 3.072h21.36a1.536 1.536 0 1 0 0-3.072z" fill="#2F2F2F" fill-rule="nonzero"/><path d="M55.91 7.615A7.538 7.538 0 0 0 48.302 0H7.818A7.804 7.804 0 0 0 0 7.818v52.49a7.93 7.93 0 0 0 7.748 7.818h40.345a7.804 7.804 0 0 0 7.817-7.818V7.615zm-3.07.97v51.723a4.705 4.705 0 0 1-4.747 4.746H7.329a1.933 1.933 0 0 1-.628-.07 4.705 4.705 0 0 1-3.63-4.606V7.818A4.705 4.705 0 0 1 7.818 3.07h40.275a4.705 4.705 0 0 1 4.746 4.747v.767z" fill="#2F2F2F" fill-rule="nonzero"/><path d="M40.659 45.754a7.155 7.155 0 1 0 0 14.31 7.155 7.155 0 0 0 0-14.31zm.998 11.029h-1.996v-5.87h1.277a.628.628 0 0 1 .698.698l.021 5.172zm0-6.282h-1.996v-.775a.614.614 0 0 1 .698-.698h1.305l-.007 1.473z" fill="#4F9CFF" fill-rule="nonzero"/></g></svg>