<svg width="50" height="63" viewBox="0 0 50 63" xmlns="http://www.w3.org/2000/svg"><title>Shape</title><path d="M45.093.071H4.818A4.705 4.705 0 0 0 .07 4.818v52.56a4.705 4.705 0 0 0 3.63 4.607c.204.057.416.08.628.07h40.764a4.705 4.705 0 0 0 4.746-4.747V4.818A4.705 4.705 0 0 0 45.093.07zm-18.148 31.41H5.585a1.536 1.536 0 1 1 0-3.07h21.36a1.536 1.536 0 1 1 0 3.07zM4.05 20.803a1.48 1.48 0 0 1 1.396-1.536h35.32a1.48 1.48 0 0 1 1.395 1.536c0 .822-.645 1.498-1.466 1.536H5.445a1.473 1.473 0 0 1-1.395-1.536zm33.609 36.296a7.155 7.155 0 1 1 7.155-7.189 7.155 7.155 0 0 1-7.155 7.155v.034zm6.108-43.834H5.585a1.536 1.536 0 0 1 0-3.072h38.182a1.536 1.536 0 1 1 0 3.072z" fill="none"/></svg>