<svg width="68" height="66" viewBox="0 0 68 66" xmlns="http://www.w3.org/2000/svg"><title>noun_492593_cc</title><g fill="none" fill-rule="evenodd"><path d="M23 14.614L22.189 12A50.807 50.807 0 0 0 17 13.489L18.171 16A47.33 47.33 0 0 1 23 14.614zm-9 3.904L12.523 16A45.336 45.336 0 0 0 8 18.666L9.79 21A42.268 42.268 0 0 1 14 18.518zM0 25.951L2.419 28A42.57 42.57 0 0 1 6 24.323L3.849 22A45.691 45.691 0 0 0 0 25.951zM65.006 24L63 26.099A41.519 41.519 0 0 1 65.787 30L68 28.191A44.45 44.45 0 0 0 65.006 24z" fill="#2F2F2F" fill-rule="nonzero"/><path d="M53 15.164A44.225 44.225 0 0 0 48.04 13L47 15.986A40.996 40.996 0 0 1 51.616 18L53 15.164z" fill="#2F2F2F"/><path d="M56 20.303c1.385.822 2.73 1.73 3.995 2.697L62 20.899A44.266 44.266 0 0 0 57.705 18L56 20.303z" fill="#2F2F2F" fill-rule="nonzero"/><path d="M25.466 16.832l1.97.001 1.642-2.505 3.161.022-1.99 6.905v.163A1.58 1.58 0 0 0 31.82 23h2.856l4.532-8.456 3.503.117c1.813 0 3.288-1.432 3.288-3.19a3.116 3.116 0 0 0-.985-2.278c-.618-.587-1.435-.912-2.338-.912h-.003L39.18 8.4 34.678.001 31.817 0a1.58 1.58 0 0 0-1.568 1.582v.163l1.974 6.85-3.175.028-1.613-2.456h-1.969c-.809 0-1.466.662-1.466 1.475v7.716c0 .813.657 1.474 1.466 1.474zm.815-8.26l1.548 2.357 7.424-.065-2.47-8.57h.533l4.527 8.446 4.87-.164c.28 0 .542.101.735.285a.839.839 0 0 1 .271.61c0 .494-.452.895-.97.896l-4.876-.163-4.558 8.502h-.533l2.487-8.63-7.414-.051-1.575 2.402V8.572z" fill="#2D80EB" fill-rule="nonzero"/><path d="M39.997 40.66a27.928 27.928 0 0 0-6.02-.66c-12.669 0-23.485 8.383-26.304 20.386A25.536 25.536 0 0 0 7 66h3.027c.013-1.168.115-2.342.311-3.512 1.702.423 3.456 1.102 4.019 1.548-.026.19-.057.382-.087.575-.068.428-.142.902-.172 1.389h3.036c.032-.333.086-.684.127-.942.056-.354.111-.706.146-1.047.188-1.844-1.967-3.319-6.398-4.387 2.437-8.067 9.027-14.068 17.199-16.01-.45.844-.813 1.89-.965 3.212-.073.648-.17 1.233-.253 1.749-.34 2.078-.69 4.227 2.206 5.478 1.625.704 2.761.82 3.674.913.443.045.835.085 1.25.189.147.477.073 1.643.043 2.109-.037.591-.076 1.195.11 1.689.186 1.008.954 4.202 3.503 7.046h4.554c-4.378-2.774-5.076-7.516-5.105-7.724l-.062-.484.02-.347c.098-1.528.28-4.375-1.966-5.04-.776-.23-1.442-.298-2.03-.358-.844-.086-1.572-.16-2.758-.674-.777-.336-.777-.336-.45-2.338.09-.547.19-1.169.272-1.885.23-2.022 1.109-3.304 1.902-4.143.603-.044 1.21-.07 1.824-.07 1.788 0 3.587.197 5.348.586 6.245 1.38 11.563 5.038 14.972 10.298 2.311 3.565 3.554 7.578 3.675 11.68-.252.16-.565.33-.902.499H61c-.028-4.824-1.428-9.557-4.14-13.742-3.84-5.923-9.83-10.042-16.863-11.597z" fill="#2F2F2F" fill-rule="nonzero"/></g></svg>