<svg width="27" height="27" viewBox="0 0 27 27" xmlns="http://www.w3.org/2000/svg" xmlns:xlink="http://www.w3.org/1999/xlink"><title>Change_places_city</title><defs><path id="a" d="M0 0h22.812v22.812H0z"/></defs><g fill="none" fill-rule="evenodd"><g transform="translate(2 2)"><use fill="#FFF" xlink:href="#a"/><path stroke="#6EADFF" stroke-width="2" d="M-1-1h24.812v24.812H-1z"/></g><path d="M17.186 7.859l-1.414-1.414a.93.93 0 0 1 1.315-1.314l2.928 2.928a.927.927 0 0 1 .268.743.927.927 0 0 1-.268.743l-2.928 2.928a.93.93 0 0 1-1.315-1.314l1.443-1.442H6.43a.93.93 0 0 1 0-1.858h10.756zm-8.372 9l1.414-1.414a.93.93 0 1 0-1.315-1.314l-2.928 2.928a.927.927 0 0 0-.268.743.927.927 0 0 0 .268.743l2.928 2.928a.93.93 0 0 0 1.315-1.314l-1.443-1.442H19.57a.93.93 0 1 0 0-1.858H8.814z" fill="#6EADFF"/></g></svg>