<svg width="24" height="16" viewBox="0 0 24 16" xmlns="http://www.w3.org/2000/svg"><title>Shape</title><path d="M23.205 6.599C18.543 1.293 14.345.5 12.259.5c-2.086 0-6.283.793-10.945 6.099a2.24 2.24 0 0 0 0 2.95c4.662 5.306 8.86 6.1 10.945 6.1 2.086 0 6.284-.794 10.946-6.1a2.24 2.24 0 0 0 0-2.95zm-.965 2.104c-1.496 1.7-5.463 5.662-9.98 5.662-4.52 0-8.486-3.961-9.982-5.662a.954.954 0 0 1 0-1.257c1.496-1.702 5.463-5.663 9.981-5.663s8.485 3.961 9.981 5.663a.954.954 0 0 1 0 1.257zm-9.98-5.478a4.85 4.85 0 1 0 4.874 4.85 4.862 4.862 0 0 0-4.875-4.85zm0 8.416a3.566 3.566 0 1 1 3.591-3.567 3.577 3.577 0 0 1-3.592 3.567z" fill="#2F2F2F" opacity=".5"/></svg>