<svg width="33" height="21" viewBox="0 0 33 21" xmlns="http://www.w3.org/2000/svg"><title>Shape</title><path d="M30.264.173c-.804-.268-1.723-.23-2.45.153l-7.85 3.37-7.773-1.838a1.173 1.173 0 0 0-.88.114l-1.8.881c-.46.23-.766.69-.766 1.225 0 .537.306.996.766 1.187l4.02 1.838-6.241 3.179a.116.116 0 0 1-.153 0L2.274 8.597c-.421-.153-.88-.115-1.302.076-.536.268-.88.728-.957 1.302a1.772 1.772 0 0 0 .574 1.532l4.748 3.982c.383.306.88.383 1.34.23l9.573-3.523-1.8 5.82c-.191.651 0 1.379.536 1.8.307.268.728.421 1.11.421.269 0 .498-.076.766-.191l1.494-.728c.344-.153.65-.46.804-.804l4.288-9.037 7.084-3.33c.766-.384 1.379-1.035 1.647-1.877.268-.804.23-1.723-.153-2.489A2.935 2.935 0 0 0 30.264.173zm.92 3.752a2.052 2.052 0 0 1-1.073 1.187L22.836 8.52a.463.463 0 0 0-.268.268l-4.404 9.267a.463.463 0 0 1-.268.268l-1.493.727a.57.57 0 0 1-.613-.076c-.076-.077-.268-.268-.191-.613l2.144-6.93c.077-.192 0-.422-.153-.575a.549.549 0 0 0-.383-.153c-.076 0-.115 0-.191.038L6.333 14.647c-.077.038-.154 0-.192-.039l-4.71-3.982a.499.499 0 0 1-.191-.498.593.593 0 0 1 .306-.42c.115-.077.268-.077.421-.04l4.863 1.686c.345.115.728.076 1.034-.077l7.275-3.714a.611.611 0 0 0 .307-.536.545.545 0 0 0-.345-.498l-5.13-2.336c-.116-.038-.116-.115-.116-.153 0-.038 0-.115.115-.191l1.8-.881c.038-.038.076-.038.115 0l7.964 1.876c.115.039.23 0 .345-.038l8.04-3.484a2.325 2.325 0 0 1 1.609-.115c.536.191.957.574 1.225 1.072.268.574.307 1.11.115 1.646z" fill="#3C3C3C" opacity=".5"/></svg>