<svg width="69" height="81" viewBox="0 0 69 81" xmlns="http://www.w3.org/2000/svg"><title>2</title><g transform="translate(1 1)" fill="none" fill-rule="evenodd"><path d="M5.115 31.13h6.98a4 4 0 0 0 3.981-3.613c.101-1.037.219-1.905.354-2.602.403-2.09 1.081-3.997 2.035-5.72.953-1.723 2.218-3.117 3.795-4.18 1.576-1.063 3.501-1.595 5.775-1.595 3.373 0 6.141 1.045 8.305 3.135 2.163 2.09 3.245 5.005 3.245 8.745 0 2.347-.532 4.437-1.595 6.27a21.382 21.382 0 0 1-3.96 4.95 35.844 35.844 0 0 1-5.225 4.015 153.088 153.088 0 0 0-5.39 3.575c-3.3 2.273-6.435 4.51-9.405 6.71-2.97 2.2-5.555 4.602-7.755 7.205-2.2 2.603-3.942 5.555-5.225 8.855-.331.85-.63 1.953-.897 3.307a7 7 0 0 0 6.868 8.353h44.644a4 4 0 0 0 4-4v-5.42a4 4 0 0 0-4-4h-32.41c2.737-3.3 4.937-5.61 6.6-6.93 2.493-1.98 5.06-3.832 7.7-5.555A584.681 584.681 0 0 0 41.4 47.41c2.603-1.76 4.931-3.722 6.985-5.885a26.292 26.292 0 0 0 4.95-7.425c1.246-2.787 1.87-6.123 1.87-10.01 0-3.74-.715-7.113-2.145-10.12-1.43-3.007-3.355-5.537-5.775-7.59-2.42-2.053-5.225-3.63-8.415-4.73C35.68.55 32.325 0 28.805 0c-4.62 0-8.709.788-12.265 2.365-3.557 1.577-6.509 3.777-8.855 6.6-2.347 2.823-4.107 6.123-5.28 9.9-.567 1.823-.992 4.469-1.277 7.938a4 4 0 0 0 3.987 4.327z" stroke="#2F2F2F" stroke-width="2"/><circle fill="#FFF" cx="51.5" cy="63.5" r="10.5"/><path d="M35.62 66.006l2.547.447c.299 1.11.74 2.177 1.315 3.173l-1.485 2.132c-.54.774-.45 1.822.213 2.494l1.528 1.527c.672.672 1.73.763 2.508.217l2.132-1.485a13.195 13.195 0 0 0 3.172 1.314l.448 2.548c.164.94.982 1.624 1.936 1.62h2.132c.951 0 1.765-.683 1.929-1.62l.448-2.548a13.17 13.17 0 0 0 3.172-1.318l2.132 1.485c.775.55 1.833.463 2.508-.206l1.528-1.527A1.96 1.96 0 0 0 64 71.75l-1.485-2.131a13.18 13.18 0 0 0 1.314-3.173L66.376 66A1.958 1.958 0 0 0 68 64.062v-2.131c0-.952-.683-1.765-1.62-1.93l-2.547-.447a13.188 13.188 0 0 0-1.315-3.173l1.485-2.131a1.958 1.958 0 0 0-.213-2.509l-1.535-1.534a1.958 1.958 0 0 0-2.508-.22l-2.132 1.484a13.188 13.188 0 0 0-3.172-1.318l-.434-2.536A1.958 1.958 0 0 0 52.066 46h-2.132c-.951 0-1.765.683-1.929 1.62l-.448 2.547c-1.11.3-2.177.743-3.172 1.319L42.253 50a1.958 1.958 0 0 0-2.508.22l-1.535 1.521a1.958 1.958 0 0 0-.217 2.509l1.485 2.131a13.21 13.21 0 0 0-1.314 3.173l-2.544.433A1.958 1.958 0 0 0 34 61.931v2.131a1.958 1.958 0 0 0 1.62 1.944zM51 54.016a2.132 2.132 0 1 1 0 4.262 2.132 2.132 0 0 1 0-4.263zm-3.233 5.406a1.815 1.815 0 0 1 1.35-.604h.615c.066 0 .129.03.17.082l1.027 1.283c.035.042.071.046.107 0l1.03-1.283a.217.217 0 0 1 .17-.082h.647a1.812 1.812 0 0 1 1.801 2.018l-.486 3.717a1.563 1.563 0 0 1-.97 1.264l-.807 5.468a.785.785 0 0 1-.781.71h-1.308a.785.785 0 0 1-.782-.71l-.81-5.471a1.553 1.553 0 0 1-.937-1.261l-.484-3.717a1.815 1.815 0 0 1 .448-1.414z" fill="#4F9CFF" fill-rule="nonzero"/></g></svg>