<svg width="69" height="82" viewBox="0 0 69 82" xmlns="http://www.w3.org/2000/svg"><title>4</title><g fill="none" fill-rule="evenodd"><path d="M24.1 37.735v3.018a4 4 0 0 0 3.88 3.998c.815.025 1.52.053 2.115.084 2.09.11 4.015.513 5.775 1.21a9.777 9.777 0 0 1 4.345 3.355c1.137 1.54 1.705 3.777 1.705 6.71 0 3.74-1.21 6.692-3.63 8.855-2.42 2.163-5.39 3.245-8.91 3.245-2.273 0-4.235-.403-5.885-1.21-1.65-.807-3.025-1.888-4.125-3.245-1.1-1.357-1.943-2.97-2.53-4.84-.204-.65-.391-1.495-.562-2.534a4 4 0 0 0-3.947-3.351H5.368a4 4 0 0 0-3.974 4.452c.377 3.317.888 5.793 1.531 7.428 1.357 3.447 3.282 6.362 5.775 8.745 2.493 2.383 5.518 4.198 9.075 5.445 3.557 1.247 7.498 1.87 11.825 1.87 3.74 0 7.333-.55 10.78-1.65 3.447-1.1 6.49-2.713 9.13-4.84 2.64-2.127 4.748-4.767 6.325-7.92 1.577-3.153 2.365-6.747 2.365-10.78 0-4.4-1.21-8.177-3.63-11.33-2.42-3.153-5.757-5.207-10.01-6.16 3.593-1.247 6.288-3.19 8.085-6.05 1.797-2.86 2.695-6.16 2.695-9.9 0-3.447-.77-6.49-2.31-9.13a22.332 22.332 0 0 0-5.995-6.71c-2.457-1.833-5.225-3.208-8.305-4.125C35.65 1.458 32.57 1 29.49 1c-3.96 0-7.553.642-10.78 1.925-3.227 1.283-5.995 3.098-8.305 5.445-2.31 2.347-4.107 5.152-5.39 8.415-.565 1.436-1.068 3.498-1.51 6.186A4 4 0 0 0 7.45 27.62h6.843a4 4 0 0 0 3.93-3.248c.59-3.085 1.394-5.284 2.411-6.597 2.017-2.603 5.005-3.905 8.965-3.905 2.86 0 5.39.88 7.59 2.64 2.2 1.76 3.3 4.29 3.3 7.59 0 2.2-.532 3.96-1.595 5.28-1.063 1.32-2.42 2.328-4.07 3.025-1.65.697-3.428 1.118-5.335 1.265-.43.033-.919.055-1.468.066a4 4 0 0 0-3.922 3.999z" stroke="#2F2F2F" stroke-width="2" fill="#FFF"/><path fill="#FFF" d="M42 62h27v19H42z"/><path d="M66.335 61c.796 0 1.488.345 2.007.897L56.47 73.724c-.519.517-1.419.517-1.938 0L42.519 62.07A2.675 2.675 0 0 1 44.665 61h21.67zm-5.262 10.069l7.892-7.862c.035.138.035.31.035.448v14.69c0 .103-.035.241-.035.345l-7.892-7.621zm-11.18.069L42 78.414V63.483l7.892 7.655zm18.484 8.896A2.654 2.654 0 0 1 66.3 81H44.665a2.66 2.66 0 0 1-2.18-1.138l8.411-7.759 2.666 2.587c.519.517 1.246.793 1.938.793s1.42-.242 1.938-.793l2.631-2.621 8.308 7.965z" fill="#4F9CFF" fill-rule="nonzero"/></g></svg>