<svg width="68" height="80" viewBox="0 0 68 80" xmlns="http://www.w3.org/2000/svg"><title>1</title><g fill="none" fill-rule="evenodd"><path d="M35.98 74V5a4 4 0 0 0-4-4h-5.392a4 4 0 0 0-3.82 2.816c-.65 2.095-1.306 3.613-1.968 4.554-1.393 1.98-3.098 3.575-5.115 4.785-2.017 1.21-4.29 2.053-6.82 2.53-1.026.193-2.397.344-4.115.45A4 4 0 0 0 1 20.129v3.932a4 4 0 0 0 4 4h15.36V74a4 4 0 0 0 4 4h7.62a4 4 0 0 0 4-4z" stroke="#2F2F2F" stroke-width="2" fill="#FFF"/><path d="M29.812 45.614h3.168L38.042 63.2a5.688 5.688 0 0 0 5.466 4.104h15.074a5.688 5.688 0 0 0 5.467-4.11l3.278-11.406a3.551 3.551 0 0 0-3.41-4.53h-24.16l-1.51-4.627A3.816 3.816 0 0 0 34.616 40h-4.73a2.85 2.85 0 0 0-2.822 2.21 2.807 2.807 0 0 0 2.748 3.403zm11.272 29.802a3.75 3.75 0 1 0 3.743-3.736 3.757 3.757 0 0 0-3.743 3.736zm12.451 0h-.007a3.757 3.757 0 0 1 3.758-3.736 3.75 3.75 0 1 1-3.75 3.736zM44 51a1 1 0 0 1 1 1v10a1 1 0 0 1-2 0V52a1 1 0 0 1 1-1zm7 0a1 1 0 0 1 1 1v10a1 1 0 0 1-2 0V52a1 1 0 0 1 1-1zm7 0a1 1 0 0 1 1 1v10a1 1 0 0 1-2 0V52a1 1 0 0 1 1-1z" fill="#4F9CFF" fill-rule="nonzero"/></g></svg>