<svg width="68" height="80" viewBox="0 0 68 80" xmlns="http://www.w3.org/2000/svg"><title>3</title><g fill="none" fill-rule="evenodd"><path d="M33.56 20.58a.657.657 0 0 0-.527.265L14.51 45.713a1 1 0 0 0 .802 1.597H32.56a1 1 0 0 0 1-1V20.58zm0 39.6H5a4 4 0 0 1-4-4v-8.974a4 4 0 0 1 .792-2.39L33.24 2.61A4 4 0 0 1 36.448 1h7.962a4 4 0 0 1 4 4v42.31h6.23a4 4 0 0 1 4 4v4.87a4 4 0 0 1-4 4h-6.23V74a4 4 0 0 1-4 4h-6.85a4 4 0 0 1-4-4V60.18z" stroke="#2F2F2F" stroke-width="2" fill="#FFF"/><path d="M55.533 73.05a6.9 6.9 0 0 0 1.019 3.618c.069.112.194.246-.04.448-1.755 1.307-3.06 1.957-3.87 1.957-2.53 0-12.642-7.678-12.642-15.852 0-.092.127-8.46.152-8.631.1-.68.412-.628.608-.62 1.671.078 3.457.178 5.32-.36 3.302-.951 5.482-3.538 6.563-3.538 1.116 0 4.052 2.587 7.355 3.539 1.59.458 3.1.457 4.583.45.206 0 .67-.003.67.805l.035 8.355c0 .962-.14 1.917-.391 2.853-.038.144-.18.451-.548.295-.547-.162-1.069-.258-1.875-.258a6.938 6.938 0 0 0-6.939 6.938zm6.982 3.537a.717.717 0 0 1-.927.087l-4.394-3.25a.62.62 0 0 1-.126-.87l.563-.748a.636.636 0 0 1 .88-.13l2.817 2.068a.72.72 0 0 0 .929-.088l3.976-4.163a.625.625 0 0 1 .883-.032l.685.638a.628.628 0 0 1 .033.883l-5.319 5.605z" fill="#4F9CFF" fill-rule="nonzero"/></g></svg>