<svg width="10" height="26" viewBox="0 0 10 26" xmlns="http://www.w3.org/2000/svg"><title>Oval</title><path d="M4.898 6.825a3.153 3.153 0 1 1 0-6.307 3.153 3.153 0 0 1 0 6.307zm0-1.665a1.489 1.489 0 1 0 0-2.977 1.489 1.489 0 0 0 0 2.977zm2.616 12.471a3.228 3.228 0 0 0 2.082-3.008V10.1a2.427 2.427 0 0 0-2.422-2.426H2.626A2.43 2.43 0 0 0 .2 10.098v4.523a3.229 3.229 0 0 0 2.086 3.01.832.832 0 1 0 .589-1.556 1.563 1.563 0 0 1-1.01-1.457v-4.519c0-.42.342-.76.763-.762h4.545a.762.762 0 0 1 .758.762v4.522a1.562 1.562 0 0 1-1.008 1.454.832.832 0 1 0 .591 1.556zm-5.766-.778v6.34a2.385 2.385 0 0 0 2.373 2.38h1.553a2.385 2.385 0 0 0 2.377-2.379v-6.34a.832.832 0 1 0-1.665 0v6.338a.72.72 0 0 1-.716.717H4.125a.719.719 0 0 1-.712-.719v-6.337a.832.832 0 1 0-1.665 0z" fill="#2F2F2F" opacity=".5"/></svg>