<svg width="23" height="15" viewBox="0 0 23 15" xmlns="http://www.w3.org/2000/svg"><title>Shape</title><path d="M19.734 0H2.401A2.404 2.404 0 0 0 0 2.401v9.741a2.404 2.404 0 0 0 2.401 2.401h17.333a2.404 2.404 0 0 0 2.401-2.401V2.401A2.404 2.404 0 0 0 19.735 0zM2.401 1.264h17.333c.627 0 1.138.51 1.138 1.137v1.195l-8.458 5.902c-.185.136-.783.488-1.32.488-.746 0-1.26-.413-1.26-.413l-8.57-5.907V2.401c0-.627.51-1.137 1.137-1.137zm17.333 12.015H2.401c-.627 0-1.137-.51-1.137-1.137V5.2l7.781 5.36c.173.138.932.69 2.049.69 1.053 0 1.971-.66 2.057-.725l7.72-5.388v7.005c0 .627-.51 1.137-1.137 1.137z" fill="#2D80EB"/></svg>