<svg width="17" height="24" viewBox="0 0 17 24" xmlns="http://www.w3.org/2000/svg"><title>Shape</title><path d="M8.214 1.283a3.287 3.287 0 0 1 3.273 3.273A3.287 3.287 0 0 1 8.214 7.83 3.287 3.287 0 0 1 4.94 4.556a3.287 3.287 0 0 1 3.273-3.273zm0-1.283a4.553 4.553 0 0 0-4.556 4.556 4.553 4.553 0 0 0 4.556 4.556 4.553 4.553 0 0 0 4.556-4.556A4.553 4.553 0 0 0 8.214 0zm2.214 10.364H6c-3.305 0-6 2.695-6 6V24h16.46v-7.636c-.032-3.305-2.695-6-6.032-6zm4.716 12.353h-2.438v-4.653h-1.284v4.653H5.005v-4.653H3.722v4.653H1.283v-6.353A4.724 4.724 0 0 1 6 11.647h4.46a4.724 4.724 0 0 1 4.716 4.717v6.353h-.032z" fill="#2D80EB"/></svg>