<svg width="24" height="24" viewBox="0 0 24 24" xmlns="http://www.w3.org/2000/svg"><title>Shape</title><path d="M10.017 15.693c.608.638 1.342 1.031 2.035 1.11.71.068 1.46-.166 2.288-1.091.257-.287.538-.619 1.011-.777.473-.159 1.042-.06 1.647.265 1.153.876 2.343 1.763 3.478 2.664.54.541.68 1.253.505 1.813-.174.56-.548.983-.894 1.338-1.927 2.008-4.21 2.979-6.45 2.64-2.164-.375-4.258-1.891-6.58-4.212L4.295 16.68C1.973 14.359.457 12.264.083 10.1c-.446-2.676.976-4.855 2.639-6.45.355-.346.779-.72 1.338-.894.56-.175 1.272-.036 1.813.505.901 1.135 1.788 2.325 2.664 3.478.325.605.424 1.174.265 1.647-.158.473-.49.754-.777 1.011-.925.829-1.159 1.578-1.091 2.288.079.693.472 1.427 1.11 2.035m-.79.79c-.746-.726-1.335-1.656-1.436-2.72-.102-1.067.342-2.223 1.461-3.225.273-.245.421-.413.463-.537.04-.121.052-.298-.18-.734L5.085 4.051c-.32-.32-.448-.31-.69-.235-.244.076-.578.326-.889.63C1.507 6.442.88 8.135 1.186 9.908c.307 1.774 1.645 3.728 3.898 5.982l2.762 2.762c2.254 2.254 4.209 3.59 5.982 3.898 1.774.307 3.466-.321 5.464-2.319.303-.311.553-.645.629-.888.075-.243.085-.371-.235-.69l-3.243-2.48c-.436-.23-.613-.22-.734-.178-.124.04-.292.19-.537.462-1.002 1.12-2.158 1.563-3.225 1.461-1.064-.101-1.994-.69-2.72-1.436M10.575.868a.58.58 0 0 0 .589.527c6.48 0 11.72 5.241 11.72 11.721a.58.58 0 0 0 .559.566.58.58 0 0 0 .558-.566C24 6.033 18.246.28 11.163.28a.6.6 0 0 0-.589.589zm0 3.349a.58.58 0 0 0 .589.527 8.364 8.364 0 0 1 8.372 8.372.58.58 0 0 0 .558.566.58.58 0 0 0 .558-.566c0-5.233-4.255-9.488-9.488-9.488a.608.608 0 0 0-.589.589z" fill="#2D80EB"/></svg>