<svg width="25" height="27" viewBox="0 0 25 27" xmlns="http://www.w3.org/2000/svg"><title>Shape</title><path d="M24.91 20.023l-2.59-3.74-.029-.03-.028-.028-.058-.058-.029-.029c-.028 0-.057-.028-.086-.028h-.173c-.028 0-.086 0-.115.028-.086.03-4.143 1.439-5.409 1.87l.058-.086 2.906-3.683a8.878 8.878 0 0 0 1.38-3.107 7.781 7.781 0 0 0 .202-1.813C20.968 4.66 17.17.86 12.48.86c-4.69 0-8.487 3.798-8.487 8.46 0 .604.058 1.208.201 1.812a8.878 8.878 0 0 0 1.382 3.107l4.574 5.784-.95.316-2.416-3.481-.029-.03-.029-.028-.057-.057-.029-.03c-.029 0-.057-.028-.057-.028h-.145c-.03 0-.087 0-.115.029l-3.165 1.15c-.115.03-.173.116-.23.202L.05 23.533c-.086.144-.057.345.058.49a.462.462 0 0 0 .316.143c.058 0 .087 0 .144-.029l2.849-1.036 2.388 3.453.028.029.03.029.028.028c.029 0 .029.03.058.03 0 0 .028 0 .028.028.03 0 .03.029.058.029h.115c.058 0 .086 0 .144-.03l12.602-4.257.029.057 2.417 3.482a.41.41 0 0 0 .345.172h.029a.374.374 0 0 0 .345-.23l2.877-5.467c.087-.115.087-.287-.028-.431zM6.265 13.72c-.604-.834-1.007-1.783-1.237-2.79a7.941 7.941 0 0 1-.173-1.64c0-4.173 3.424-7.568 7.625-7.568 4.2 0 7.625 3.395 7.625 7.596a7.94 7.94 0 0 1-.173 1.64 7.49 7.49 0 0 1-1.237 2.762l-3.712 4.69-.978 1.238-1.093 1.38c-.202.26-.662.26-.864 0l-.46-.575-.575-.719-4.748-6.014zm-3.021 8.517l-1.957.72 2.273-4.345 1.957-.72-2.273 4.345zm2.848 3.251L4.05 22.555l2.416-4.604 2.043 2.935-2.417 4.603zm12.69-3.826l-11.798 4 2.331-4.46 1.381-.461.662.834c.259.346.662.547 1.122.547.46 0 .834-.201 1.122-.547l1.87-2.388 5.668-1.985-2.359 4.46zm2.848 3.251l-2.043-2.935 2.417-4.603 2.043 2.934-2.417 4.604zM16.364 9.032c0-2.13-1.755-3.885-3.884-3.885-2.13 0-3.884 1.755-3.884 3.885 0 2.129 1.755 3.855 3.884 3.855 2.13 0 3.884-1.726 3.884-3.855zm-6.905 0a3.02 3.02 0 1 1 6.042 0c0 1.668-1.352 2.992-3.021 2.992-1.669 0-3.021-1.352-3.021-2.992z" fill="#2F2F2F" opacity=".5"/></svg>