<svg width="14" height="13" viewBox="0 0 14 13" xmlns="http://www.w3.org/2000/svg"><title>Shape Copy 4</title><path d="M11.031 13a.462.462 0 0 0 .35-.144.436.436 0 0 0 .116-.351l-.49-4.1L13.88 5.37a.435.435 0 0 0 .098-.437.452.452 0 0 0-.342-.298l-4.16-.814L7.396.225A.458.458 0 0 0 7 0a.458.458 0 0 0-.397.225L4.524 3.82l-4.16.814a.452.452 0 0 0-.342.298.435.435 0 0 0 .098.437l2.873 3.036-.49 4.099a.439.439 0 0 0 .185.409c.133.094.308.11.457.044L7 11.24l3.855 1.718c.055.025.115.04.176.042z" fill="#FFF"/></svg>