<svg width="87" height="90" viewBox="0 0 87 90" xmlns="http://www.w3.org/2000/svg"><title>Shape</title><path d="M80.398 35.127l-9.526-3.11-3.016-3.8a11.47 11.47 0 0 0-.944-3.264 12.497 12.497 0 0 0 11.531-10.11c1.3-6.76-3.143-13.319-9.902-14.617A12.577 12.577 0 0 0 66.174 0h.001a12.38 12.38 0 0 0-4.91 1.023h-5.968a2.252 2.252 0 1 0 0 4.503h.54a12.37 12.37 0 0 0-.992 1.764H39.887a2.252 2.252 0 1 0 0 4.502H53.73a12.337 12.337 0 0 0 1.444 6.58 11.54 11.54 0 0 0-4.842 1.757l-9.115 2.01a7.907 7.907 0 0 0-1.754.621 8.053 8.053 0 0 0-2.978 1.955l-8.541 8.826c-.105.11-.199.226-.297.34a2.221 2.221 0 0 0-.755-.14h-7.71a2.251 2.251 0 1 0 0 4.503h6.528a8.304 8.304 0 0 0-.066 1.15 8.152 8.152 0 0 0 2.511 5.752 8.167 8.167 0 0 0 7.7 2.04 8.826 8.826 0 0 0 .08 2.79 8.765 8.765 0 0 0 1.546 3.572l-5.6 10.398-8.665 9.136H10.487a2.251 2.251 0 1 0 0 4.503h9.125a8.548 8.548 0 0 0-.539 1.548H8.92a2.251 2.251 0 1 0 0 4.503h10.243a8.718 8.718 0 0 0 2.449 4.014 8.761 8.761 0 0 0 5.993 2.363 8.814 8.814 0 0 0 6.43-2.799l10.292-10.85a8.633 8.633 0 0 0 2.294-2.716l5.217-9.684.865.592-5.739 9.55-.018.029-.017.028a8.718 8.718 0 0 0-.89 6.67 8.727 8.727 0 0 0 4.09 5.345 8.79 8.79 0 0 0 4.398 1.183 8.821 8.821 0 0 0 7.591-4.353l8.803-14.645a8.23 8.23 0 0 0 1.076-1.271c2.73-4 1.697-9.479-2.304-12.212l-9.594-6.563 1.27-2.574a7.96 7.96 0 0 0 2.3 1.181l11.675 3.81a8.222 8.222 0 0 0 2.534.402 8.183 8.183 0 0 0 7.805-5.68c1.39-4.305-.98-8.938-5.284-10.33zM58.148 10.94a8.187 8.187 0 0 1 8.027-6.643c.513 0 1.033.049 1.556.15a8.183 8.183 0 0 1 6.49 9.584 8.185 8.185 0 0 1-9.582 6.493 8.185 8.185 0 0 1-6.491-9.584zM42.833 71.613a4.436 4.436 0 0 1-1.375 1.528L30.889 84.284a4.472 4.472 0 0 1-3.284 1.43 4.487 4.487 0 0 1-3.282-7.55L35.394 66.49 40.9 56.27l7.395 5.208-5.461 10.135zm38.76-27.48a3.908 3.908 0 0 1-4.915 2.514l-11.69-3.813a3.855 3.855 0 0 1-1.578-.997 3.85 3.85 0 0 1-.762-.709l-2.342-2.95-5.713 11.584 12.675 8.669a4.49 4.49 0 0 1 1.176 6.24 4.45 4.45 0 0 1-.876.927l-9.15 15.22a4.489 4.489 0 1 1-7.77-4.496l7.829-13.026-8.158-5.58-7.454-5.098-.826-.565a4.487 4.487 0 0 1-1.175-6.24c.062-.093.51-1.444.787-2.02l5.173-10.492-2.287.503-7.879 8.139a3.9 3.9 0 0 1-2.815 1.196 3.903 3.903 0 0 1-2.812-6.61l8.55-8.834a3.866 3.866 0 0 1 1.586-.98c.302-.162.623-.3.974-.378l9.966-2.198a7.165 7.165 0 0 1 4.447-1.554c1.031 0 2.079.226 3.07.702a7.123 7.123 0 0 1 4.032 6.552l4.653 5.863 10.767 3.515a3.908 3.908 0 0 1 2.517 4.916zM46.376 3.272a2.252 2.252 0 0 1 2.252-2.25h.562a2.252 2.252 0 0 1 0 4.503h-.562a2.253 2.253 0 0 1-2.252-2.253zM10.262 35.99a2.251 2.251 0 0 1 2.252-2.25h.563a2.251 2.251 0 1 1 0 4.504h-.563a2.252 2.252 0 0 1-2.252-2.254zm11.734 6.102a2.25 2.25 0 0 1-2.25 2.251h-.564a2.25 2.25 0 1 1 0-4.503h.563a2.251 2.251 0 0 1 2.251 2.252zM5.066 81.384a2.252 2.252 0 0 1-2.253 2.253h-.562a2.252 2.252 0 0 1 0-4.504h.562a2.251 2.251 0 0 1 2.253 2.25zm16.14-14.362h.562a2.251 2.251 0 1 1 0 4.503h-.563a2.252 2.252 0 0 1 0-4.503zm24.478 16.613a2.251 2.251 0 0 1-2.25 2.253h-.562a2.252 2.252 0 1 1 0-4.503h.562a2.251 2.251 0 0 1 2.25 2.25zm-33.95 3.848a2.251 2.251 0 0 1-2.25 2.254h-.565a2.251 2.251 0 1 1 0-4.504h.565a2.25 2.25 0 0 1 2.25 2.25zM22.25 29.978a2.251 2.251 0 0 1 2.253-2.25h.562a2.25 2.25 0 0 1 0 4.502h-.562a2.25 2.25 0 0 1-2.253-2.252z" fill="#000FCF"/></svg>