<svg width="87" height="91" viewBox="0 0 87 91" xmlns="http://www.w3.org/2000/svg"><title>noun_914829_cc</title><g stroke="#000FCF" stroke-width=".5" fill="#000FCF"><circle cx="42.141" cy="82.016" r="2.991"/><path d="M36.794 7.25a1.2 1.2 0 0 0-1.178 1.178 1.2 1.2 0 0 0 1.178 1.178h10.784a1.2 1.2 0 0 0 1.178-1.178 1.2 1.2 0 0 0-1.178-1.178H36.794z"/><path d="M75.4 33.26h-8.247V8.337A7.503 7.503 0 0 0 59.631.815H24.56a7.503 7.503 0 0 0-7.521 7.522v74.13a7.503 7.503 0 0 0 7.521 7.523h35.163a7.503 7.503 0 0 0 7.522-7.522V59.45h8.247c1.63 0 2.99-1.45 2.99-3.172V36.431c0-1.812-1.36-3.172-3.081-3.172zM19.937 8.337c0-2.538 2.085-4.622 4.622-4.622h35.163c2.537 0 4.622 2.084 4.622 4.622v4.168H19.938V8.338zm44.407 74.13c0 2.538-2.085 4.623-4.622 4.623H24.559c-2.537 0-4.622-2.085-4.622-4.622v-5.166h44.407v5.166zm0-8.065H19.938V15.406h44.406V33.17H40.963c-1.632 0-2.991 1.45-2.991 3.172v19.846c0 1.722 1.36 3.172 2.99 3.172h3.444l1.45 8.338 8.157-8.338h10.33v15.044zm11.51-18.125c0 .181-.182.363-.454.363H53.106l-5.619 5.709-.996-5.71h-5.529c-.271 0-.453-.18-.453-.362V36.431c0-.181.182-.362.453-.362h34.529c.272 0 .453.181.453.362v19.847h-.09z"/><path d="M55.372 53.016c-2.084.997-4.531-2.175-4.531-2.175l2.99-2.81s1.54 1.722 2.266 1.45c0 0 2.175-1.269 3.806-4.712.272-.635-1.903-1.813-1.903-1.813l2.084-3.534s3.263 1.631 3.082 3.534c-.182 1.903-1.903 7.25-7.794 10.06zM85.55 26.281h-1.36v-1.36a.908.908 0 0 0-.906-.905.908.908 0 0 0-.906.906v1.36h-1.36a.908.908 0 0 0-.906.905c0 .454.363.907.907.907h1.45v1.36c0 .452.362.905.906.905a.908.908 0 0 0 .906-.906v-1.36h1.36a.908.908 0 0 0 .906-.905c-.181-.454-.544-.907-.997-.907zM11.781 61.444h-1.36v-1.36a.908.908 0 0 0-.905-.906c-.544 0-.907.363-.907.906v1.36H7.25a.908.908 0 0 0-.906.906c0 .453.362.906.906.906h1.36v1.36c0 .453.362.906.906.906.543 0 .906-.363.906-.906v-1.36h1.36a.908.908 0 0 0 .905-.906c-.09-.544-.453-.906-.906-.906zM9.969 17.219H7.703v-2.266c0-.634-.544-1.269-1.269-1.269-.634 0-1.268.544-1.268 1.27v2.265H2.9c-.634 0-1.269.543-1.269 1.268 0 .635.544 1.27 1.269 1.27h2.266v2.265c0 .634.543 1.269 1.268 1.269.635 0 1.27-.544 1.27-1.27v-2.265h2.265c.634 0 1.269-.544 1.269-1.268-.091-.726-.635-1.27-1.27-1.27z"/><circle cx="1.903" cy="42.231" r="1.631"/><circle cx="77.394" cy="75.853" r="1.631"/><circle cx="76.034" cy="14.591" r="1.994"/></g></svg>