<svg width="86" height="94" viewBox="0 0 86 94" xmlns="http://www.w3.org/2000/svg"><title>Group</title><path d="M44.955.701c-.673-.935-2.237-.935-2.91 0L26.337 22.542c-.555.771-.41 1.84.33 2.436.12.098 1.484 1.17 3.848 2.326v41.751c0 1.953 1.127 3.752 2.869 4.582 1.635.78 4.123 1.668 7.336 2.017-.617 1.98-.803 4.85 1.275 8.061 2.395 3.7-.191 7.274-.296 7.415A1.787 1.787 0 0 0 43.126 94a1.79 1.79 0 0 0 1.429-.708c.174-.23 4.224-5.688.45-11.518-1.75-2.703-1.052-4.93-.502-5.993 4.084-.158 7.188-1.226 9.113-2.144 1.742-.83 2.869-2.629 2.869-4.582V27.304c2.364-1.156 3.727-2.228 3.848-2.326.74-.595.885-1.665.33-2.436L44.955.702zM34.1 48.753c3.048 2.879 8.64 5.843 18.802 6.156v8.737c-15.662-.508-18.451-7.628-18.802-8.789v-6.104zm18.802 2.578c-15.662-.508-18.451-7.629-18.802-8.789v-6.105c3.048 2.88 8.64 5.844 18.802 6.157v8.737zm-.83 19.078c-1.746.833-4.652 1.826-8.571 1.826-3.92 0-6.825-.993-8.572-1.826a1.495 1.495 0 0 1-.829-1.354v-7.987c3.048 2.88 8.64 5.843 18.802 6.157v1.83c0 .582-.326 1.113-.83 1.354zm.83-31.393c-15.662-.508-18.451-7.629-18.802-8.79v-1.462a29.645 29.645 0 0 0 18.802 0v10.252zm-9.401-12.3c-6.249 0-10.954-2.263-13.173-3.588L43.5 4.812l13.177 18.322c-2.206 1.325-6.888 3.582-13.177 3.582zM8.26 49.74a1.739 1.739 0 1 0 0-3.48H6.74v-1.52a1.739 1.739 0 1 0-3.48 0v1.52H1.74a1.739 1.739 0 1 0 0 3.48h1.52v1.52a1.739 1.739 0 1 0 3.48 0v-1.52h1.52zM75 35.267l.263.263a1.6 1.6 0 0 0 1.134.47 1.603 1.603 0 0 0 1.134-2.737L77.266 33l.263-.263a1.603 1.603 0 1 0-2.267-2.267l-.263.263-.263-.263a1.603 1.603 0 1 0-2.267 2.267l.263.263-.263.263a1.603 1.603 0 1 0 2.267 2.267l.263-.263zM4.504 11.496c.336.336.776.504 1.216.504.44 0 .88-.168 1.216-.504L8 10.432l1.064 1.064c.336.336.776.504 1.216.504a1.72 1.72 0 0 0 1.216-2.936L10.432 8l1.064-1.064a1.72 1.72 0 1 0-2.432-2.432L8 5.568 6.936 4.504a1.72 1.72 0 1 0-2.432 2.432L5.568 8 4.504 9.064a1.72 1.72 0 0 0 0 2.432zM83.26 75.26h-1.52v-1.52a1.739 1.739 0 1 0-3.48 0v1.52h-1.52a1.739 1.739 0 1 0 0 3.48h1.52v1.52a1.739 1.739 0 1 0 3.48 0v-1.52h1.52a1.739 1.739 0 1 0 0-3.48zM72.71 14c.446 0 .892-.189 1.227-.566l5.579-6.267c.659-.74.643-1.921-.034-2.64-.677-.717-1.76-.701-2.419.038l-5.579 6.268c-.659.74-.643 1.92.034 2.639.333.352.763.528 1.192.528zM.82 28.254l5.539 3.483a1.7 1.7 0 0 0 .909.263c.58 0 1.145-.295 1.473-.833a1.775 1.775 0 0 0-.56-2.42l-5.54-3.483a1.714 1.714 0 0 0-2.382.57 1.775 1.775 0 0 0 .56 2.42zM13.051 80.49l-4.493 4.352a1.876 1.876 0 0 0-.088 2.577c.346.386.814.581 1.284.581.427 0 .857-.162 1.195-.49l4.493-4.351c.708-.687.748-1.84.088-2.578a1.706 1.706 0 0 0-2.479-.092zm55.69 4.952a1.58 1.58 0 0 0-2.325.146c-.604.722-.543 1.828.137 2.47l3.706 3.5c.313.296.704.442 1.093.442a1.6 1.6 0 0 0 1.232-.587c.604-.723.543-1.829-.137-2.47l-3.706-3.5zm-.848-27.775c.107.066.214.132.347.186.12.053.24.08.373.107a1.86 1.86 0 0 0 .774 0c.133-.027.253-.054.373-.107.12-.054.24-.12.347-.186a1.81 1.81 0 0 0 .306-.254 1.995 1.995 0 0 0 .547-1.8 1.741 1.741 0 0 0-.12-.373c-.04-.12-.106-.24-.173-.347-.08-.106-.16-.213-.254-.306a1.694 1.694 0 0 0-.306-.24 1.745 1.745 0 0 0-.347-.187 1.888 1.888 0 0 0-1.52 0 1.44 1.44 0 0 0-.347.187 1.31 1.31 0 0 0-.306.24c-.094.093-.174.2-.254.306a2.929 2.929 0 0 0-.187.347c-.04.12-.079.24-.106.373a1.975 1.975 0 0 0 .546 1.8c.094.094.187.187.307.254zm17.533-12.085a2.055 2.055 0 0 0-1.813-.548 1.734 1.734 0 0 0-.373.12c-.12.054-.24.108-.347.188a1.72 1.72 0 0 0-.306.24 2.028 2.028 0 0 0-.547 1.815 2.016 2.016 0 0 0 .306.708 1.4 1.4 0 0 0 .24.308c.094.093.2.173.307.253.107.067.227.134.347.187.12.04.24.08.373.107a2.003 2.003 0 0 0 1.813-.547c.08-.094.174-.188.24-.308a1.65 1.65 0 0 0 .188-.333c.053-.12.093-.254.12-.375.012-.133.026-.266.026-.4 0-.52-.214-1.041-.574-1.415zM20.854 65.24a1.746 1.746 0 0 0-.187-.347 1.806 1.806 0 0 0-.254-.307 1.994 1.994 0 0 0-1.8-.547c-.12.027-.253.067-.373.12-.12.04-.24.107-.347.174-.107.08-.213.16-.306.253-.094.093-.174.2-.24.307-.08.107-.133.226-.187.346A1.903 1.903 0 0 0 17 66a2 2 0 0 0 .893 1.668c.107.066.227.132.347.186.12.04.253.08.373.107.134.026.267.04.387.04.133 0 .267-.014.4-.04.12-.027.253-.067.373-.107.12-.054.227-.12.347-.186.107-.08.213-.16.293-.254a1.4 1.4 0 0 0 .254-.307 1.45 1.45 0 0 0 .187-.346c.053-.12.08-.24.106-.373a1.86 1.86 0 0 0 0-.774 1.727 1.727 0 0 0-.106-.374zm.733-26.677a2.02 2.02 0 0 0-.547 1.813c.026.134.067.255.12.376.054.12.107.241.186.349.067.107.147.215.24.308.374.377.894.591 1.414.591.533 0 1.053-.214 1.413-.59.094-.094.187-.202.254-.31.08-.107.133-.227.187-.348.053-.121.08-.242.106-.376a2.02 2.02 0 0 0-.547-1.812c-.746-.752-2.08-.752-2.826 0zM27.4 4.96c.12-.027.253-.067.373-.107.12-.054.24-.122.347-.189.107-.08.213-.16.293-.255.094-.093.187-.188.254-.308a1.703 1.703 0 0 0 .293-.712 2.044 2.044 0 0 0-.547-1.825c-.733-.752-2.08-.752-2.826 0a2.044 2.044 0 0 0-.547 1.825 2.034 2.034 0 0 0 .306.712c.067.12.147.215.24.308a2.016 2.016 0 0 0 1.814.551zm36.44-.734c-.04-.12-.106-.226-.173-.346-.08-.107-.16-.2-.254-.294a1.837 1.837 0 0 0-.306-.253 2.834 2.834 0 0 0-.347-.186c-.12-.054-.24-.08-.373-.107a1.887 1.887 0 0 0-.774 0 1.71 1.71 0 0 0-.373.107c-.133.053-.24.12-.347.186-.12.067-.213.16-.306.253A2 2 0 0 0 60 5c0 .133.014.253.04.387.027.133.067.253.106.373.054.12.12.24.187.347.08.106.16.213.254.306.093.094.186.174.306.24.107.08.214.134.347.187.12.053.24.094.373.12.12.027.254.04.387.04s.267-.013.387-.04a1.79 1.79 0 0 0 .373-.12c.12-.053.24-.106.347-.186.107-.067.213-.147.306-.24.094-.094.174-.2.254-.307.067-.107.133-.227.173-.347A1.902 1.902 0 0 0 64 5a2.03 2.03 0 0 0-.04-.4 2.043 2.043 0 0 0-.12-.374zM83 19c.52 0 1.04-.213 1.413-.587.094-.093.174-.2.254-.306a2.93 2.93 0 0 0 .187-.347c.04-.12.08-.24.106-.373a2 2 0 0 0-.854-2.054c-.106-.066-.213-.133-.346-.186a2.97 2.97 0 0 0-.373-.107 1.887 1.887 0 0 0-.774 0 2.97 2.97 0 0 0-.373.107c-.12.053-.24.12-.347.186a2.88 2.88 0 0 0-.306.253 2.733 2.733 0 0 0-.254.294c-.066.12-.133.227-.173.346-.053.12-.094.254-.12.374a2.022 2.022 0 0 0 .546 1.813A2.02 2.02 0 0 0 83 19z" fill="#000FCF"/></svg>