<svg width="39" height="39" viewBox="0 0 39 39" xmlns="http://www.w3.org/2000/svg"><title>Group 13</title><path d="M19.25 0C8.636 0 0 8.748 0 19.5S8.636 39 19.25 39 38.5 30.252 38.5 19.5 29.864 0 19.25 0zm0 37.556c-9.828 0-17.824-8.1-17.824-18.056 0-9.956 7.996-18.056 17.824-18.056 9.828 0 17.824 8.1 17.824 18.056 0 9.956-7.996 18.056-17.824 18.056zM29.996 18.89H19.86V5.72a.663.663 0 0 0-.66-.665.663.663 0 0 0-.662.665v13.835c0 .368.296.666.661.666h10.798a.663.663 0 0 0 .661-.666.663.663 0 0 0-.66-.665z" fill="#FFF" opacity=".5"/></svg>