<svg width="31" height="21" viewBox="0 0 31 21" xmlns="http://www.w3.org/2000/svg"><title>Shape</title><path d="M29.849 15.563c-.386-.765-1.071-1.396-1.863-1.646l-8-3.235-4.264-6.863a1.2 1.2 0 0 0-.712-.55l-1.91-.665a1.363 1.363 0 0 0-1.415.319c-.38.379-.485.923-.291 1.387l1.578 4.177-6.715-2.22a.119.119 0 0 1-.11-.11l-2.288-4.67c-.193-.41-.549-.712-.986-.878C2.3.414 1.728.492 1.267.844a1.76 1.76 0 0 0-.672 1.494l.582 6.214c.058.49.36.901.797 1.122l9.342 4.36-5.403 2.828c-.597.323-.975.974-.889 1.656.03.409.223.818.497 1.093.192.191.41.302.683.412l1.584.555c.355.138.79.14 1.144.007l9.46-3.32 7.425 2.714c.819.277 1.717.255 2.505-.149.76-.376 1.383-1.054 1.65-1.87.295-.733.263-1.632-.123-2.397zm-1.996 3.311a2.061 2.061 0 0 1-1.607.072L18.63 16.15a.465.465 0 0 0-.38-.003l-9.705 3.401a.465.465 0 0 1-.381-.002L6.58 18.99a.581.581 0 0 1-.385-.492c0-.11-.002-.382.296-.57l6.436-3.366c.19-.081.298-.298.296-.516a.559.559 0 0 0-.165-.383c-.055-.054-.083-.082-.165-.11L2.485 8.67c-.081-.028-.11-.11-.11-.164L1.82 2.318a.496.496 0 0 1 .215-.489.594.594 0 0 1 .517-.079c.137.029.246.138.329.275l2.29 4.672c.165.328.466.575.793.686l7.834 2.58a.61.61 0 0 0 .598-.16.546.546 0 0 0 .105-.598l-2.02-5.324c-.055-.11-.001-.164.026-.19.027-.028.081-.082.217-.054l1.911.666c.055 0 .082.027.082.082l4.374 7.027c.055.11.165.164.274.22l8.219 3.29a2.38 2.38 0 0 1 1.232 1.07c.249.52.28 1.092.12 1.636-.215.598-.567 1.004-1.083 1.246z" fill="#2F2F2F" opacity=".5"/></svg>