<svg width="45" height="39" viewBox="0 0 45 39" xmlns="http://www.w3.org/2000/svg"><title>Weather</title><path d="M7.32 17.705C4.967 14.39 5.468 9.801 8.55 7.093c3.206-2.815 8.166-2.446 11.004.769a12.599 12.599 0 0 1 8.535-3.316c6.874 0 12.502 5.503 12.502 12.242v.266c2.439 1.933 3.896 4.762 3.896 7.831 0 5.406-4.556 9.86-10.066 9.86a.812.812 0 0 1 0-1.623c4.621 0 8.443-3.736 8.443-8.237 0-2.672-1.332-5.138-3.565-6.775a.812.812 0 0 1-.332-.655v-.667c0-5.834-4.893-10.618-10.878-10.618S17.21 10.954 17.21 16.788c0 .997.16 2.054.457 3.116.223.8-.756 1.38-1.35.799a7.514 7.514 0 0 0-5.277-2.15c-4.135 0-7.469 3.26-7.469 7.284a.812.812 0 0 1-1.624 0c0-3.628 2.205-6.74 5.372-8.132zm11.109-8.667a.823.823 0 0 1-.047-.05c-2.243-2.597-6.216-2.91-8.76-.675-2.58 2.266-2.888 6.19-.671 8.852a9.319 9.319 0 0 1 2.09-.236c1.668 0 3.254.446 4.63 1.252-.055-.47-.084-.935-.084-1.393 0-2.935 1.068-5.636 2.842-7.75zM5.72 7.23a.812.812 0 0 1-.726 1.452L2.397 7.383a.812.812 0 0 1 .726-1.452L5.721 7.23zm11.432-3.52a.812.812 0 1 1-1.507-.603L16.685.51a.812.812 0 1 1 1.507.603l-1.04 2.597zM3.29 13.648a.812.812 0 0 1 .241 1.605l-2.598.39a.812.812 0 0 1-.24-1.606l2.597-.39zm7.99-10.601a.812.812 0 1 1-1.451.726l-1.3-2.598A.812.812 0 0 1 9.982.45l1.299 2.598zm18.855 19.11a.812.812 0 1 1 1.17-1.126c.958.996 1.493 2.324 1.493 3.802 0 1.478-.535 2.807-1.493 3.802a5.062 5.062 0 0 1-3.702 1.565H2.76a.812.812 0 0 1 0-1.624h24.842a3.44 3.44 0 0 0 2.532-1.067c.667-.693 1.04-1.618 1.04-2.676s-.373-1.983-1.04-2.676zm-2.045 9.017a.812.812 0 0 1 0 1.623H8.605a.812.812 0 1 1 0-1.623H28.09zm2.76 6.657a.812.812 0 0 1-1.624 0c0-1.41-.923-2.436-2.11-2.436H12.502a.812.812 0 0 1 0-1.623h14.613c2.124 0 3.734 1.788 3.734 4.059z" fill="#FFF" opacity=".5"/></svg>