<?xml version="1.0" encoding="UTF-8"?>
<svg width="116px" height="124px" viewBox="0 0 116 124" version="1.1" xmlns="http://www.w3.org/2000/svg" xmlns:xlink="http://www.w3.org/1999/xlink">
    <!-- Generator: Sketch 47 (45396) - http://www.bohemiancoding.com/sketch -->
    <title>Plane</title>
    <desc>Created with Sketch.</desc>
    <defs>
        <path d="M1168.73944,926.829304 L1168.73944,920.702364 C1168.73894,918.613973 1167.0387,916.921927 1164.93982,916.921193 C1162.84143,916.921193 1161.14118,918.613973 1161.14069,920.702364 L1161.14118,922.048955 C1151.55718,916.028196 1144.65339,911.10668 1144.65339,911.10668 C1144.65339,911.10668 1145.32621,896.78545 1145.52023,882.049282 C1145.71574,867.316784 1129.28425,867.316784 1129.47877,882.050016 C1129.67501,896.785694 1130.34709,911.10619 1130.34709,911.10619 C1130.34709,911.10619 1123.4433,916.028196 1113.85954,922.048955 L1113.85954,920.702364 C1113.86003,918.613973 1112.15905,916.921927 1110.06066,916.922172 C1107.96252,916.921927 1106.26104,918.614463 1106.2608,920.702364 L1106.2608,926.829304 C1093.5859,934.818816 1080.73787,942.994267 1080.15186,943.67319 C1078.9818,945.029812 1076.31757,952.008647 1077.16277,952.589217 C1077.57591,952.873998 1087.06647,948.496109 1097.03779,943.937419 L1097.03828,945.320709 C1097.03828,945.695523 1097.34346,945.998897 1097.7202,945.998897 C1098.09645,945.999387 1098.40212,945.695523 1098.40212,945.320709 L1098.40212,943.315257 C1099.33414,942.888576 1100.26738,942.464341 1101.19423,942.041329 L1101.19423,942.865089 C1101.19423,943.239903 1101.50039,943.544256 1101.87689,943.543277 C1102.25289,943.543766 1102.55856,943.239903 1102.55807,942.865089 L1102.55807,941.422592 C1104.43685,940.569474 1106.27531,939.740577 1108.01466,938.96795 L1108.01466,940.408979 C1108.01441,940.784038 1108.31959,941.088636 1108.69633,941.088146 C1109.07381,941.088636 1109.378,940.784038 1109.3785,940.408979 L1109.378,938.362914 C1111.2617,937.531081 1112.99958,936.779251 1114.509,936.147547 L1114.50851,937.437378 C1114.509,937.811947 1114.81492,938.1163 1115.19116,938.1163 C1115.56741,938.115322 1115.87284,937.811947 1115.87333,937.438356 L1115.87333,935.58557 C1118.05139,934.70554 1119.57335,934.174145 1120.0942,934.174145 C1123.21263,934.174145 1130.52809,934.173656 1130.52809,934.173656 C1130.52809,934.173656 1131.20066,958.74625 1132.17473,964.755755 C1132.53819,966.996322 1133.21716,970.261022 1133.98342,973.474589 C1129.21859,976.523257 1121.9897,981.178831 1120.70284,982.202231 C1118.75397,983.752376 1117.19536,984.981043 1117.1302,986.014962 C1117.06577,987.047659 1116.41631,989.180332 1117.39037,988.987787 C1118.19304,988.827292 1131.84225,984.275208 1136.60856,982.682492 C1136.96833,983.597753 1137.27769,984.140402 1137.49999,984.140402 C1137.72255,984.140402 1138.03191,983.597753 1138.39192,982.682492 C1143.15971,984.275208 1156.80695,988.827292 1157.61035,988.987298 C1158.58392,989.180332 1157.93422,987.047659 1157.87028,986.014962 C1157.80536,984.980553 1156.24627,983.751887 1154.2974,982.202231 C1153.01151,981.177853 1145.78213,976.522279 1141.01706,973.475078 C1141.78308,970.261511 1142.4618,966.996811 1142.82477,964.755755 C1143.79933,958.74625 1144.47239,934.174145 1144.47239,934.174145 C1144.47239,934.174145 1151.78784,934.174635 1154.90579,934.174145 C1155.42639,934.173656 1156.94909,934.70554 1159.12715,935.585081 L1159.12764,937.437378 C1159.12764,937.812436 1159.43233,938.115322 1159.80931,938.1163 C1160.1863,938.1163 1160.49123,937.812436 1160.49123,937.437867 L1160.49123,936.148036 C1162.00139,936.779251 1163.73853,937.531326 1165.62223,938.363893 L1165.62223,940.409958 C1165.62174,940.784038 1165.92741,941.088146 1166.3044,941.088636 C1166.68089,941.088636 1166.98582,940.784527 1166.98582,940.409958 L1166.98582,938.96844 C1168.72468,939.740577 1170.56264,940.569474 1172.44167,941.422592 L1172.44216,942.866067 C1172.44167,943.239903 1172.74759,943.543766 1173.12408,943.544256 C1173.50033,943.543277 1173.80527,943.239903 1173.80625,942.865089 L1173.80527,942.04035 C1174.73261,942.464341 1175.66585,942.888576 1176.59762,943.315257 L1176.59762,945.320709 C1176.5986,945.696502 1176.90354,945.998897 1177.27978,945.998897 C1177.65726,945.998897 1177.96269,945.695523 1177.96269,945.321198 L1177.96269,943.937419 C1187.93524,948.496109 1197.42457,952.873998 1197.83697,952.589217 C1198.68291,952.008647 1196.01868,945.029812 1194.84911,943.67319 C1194.2631,942.993778 1181.41458,934.817837 1168.73944,926.829304 Z" id="path-1"></path>
        <filter x="-8.3%" y="-6.8%" width="116.5%" height="116.9%" filterUnits="objectBoundingBox" id="filter-2">
            <feOffset dx="0" dy="2" in="SourceAlpha" result="shadowOffsetOuter1"></feOffset>
            <feGaussianBlur stdDeviation="3" in="shadowOffsetOuter1" result="shadowBlurOuter1"></feGaussianBlur>
            <feColorMatrix values="0 0 0 0 0.247587596   0 0 0 0 0.433255867   0 0 0 0 0.649739583  0 0 0 0.224949049 0" type="matrix" in="shadowBlurOuter1"></feColorMatrix>
        </filter>
    </defs>
    <g id="Page-1" stroke="none" stroke-width="1" fill="none" fill-rule="evenodd">
        <g id="Large-Device_Main_design" transform="translate(-1091.000000, -874.000000)">
            <g id="Plane" transform="translate(1137.500000, 930.000000) rotate(-32.000000) translate(-1137.500000, -930.000000) ">
                <use fill="black" fill-opacity="1" filter="url(#filter-2)" xlink:href="#path-1"></use>
                <use fill="#FFFFFF" fill-rule="evenodd" xlink:href="#path-1"></use>
            </g>
        </g>
    </g>
</svg>